%TF.GenerationSoftware,KiCad,Pcbnew,9.0.7+dfsg-1*%
%TF.CreationDate,2026-05-09T00:43:28-04:00*%
%TF.ProjectId,flipping-cool,666c6970-7069-46e6-972d-636f6f6c2e6b,rev?*%
%TF.SameCoordinates,Original*%
%TF.FileFunction,Other,Comment*%
%FSLAX46Y46*%
G04 Gerber Fmt 4.6, Leading zero omitted, Abs format (unit mm)*
G04 Created by KiCad (PCBNEW 9.0.7+dfsg-1) date 2026-05-09 00:43:28*
%MOMM*%
%LPD*%
G01*
G04 APERTURE LIST*
%ADD10C,0.150000*%
G04 APERTURE END LIST*
D10*
X71857142Y-13997438D02*
X71857142Y-11997438D01*
X72999999Y-13997438D02*
X72142856Y-12854580D01*
X72999999Y-11997438D02*
X71857142Y-13140295D01*
X73857142Y-12949819D02*
X74523809Y-12949819D01*
X74809523Y-13997438D02*
X73857142Y-13997438D01*
X73857142Y-13997438D02*
X73857142Y-11997438D01*
X73857142Y-11997438D02*
X74809523Y-11997438D01*
X75666666Y-12949819D02*
X76333333Y-12949819D01*
X76619047Y-13997438D02*
X75666666Y-13997438D01*
X75666666Y-13997438D02*
X75666666Y-11997438D01*
X75666666Y-11997438D02*
X76619047Y-11997438D01*
X77476190Y-13997438D02*
X77476190Y-11997438D01*
X77476190Y-11997438D02*
X78238095Y-11997438D01*
X78238095Y-11997438D02*
X78428571Y-12092676D01*
X78428571Y-12092676D02*
X78523809Y-12187914D01*
X78523809Y-12187914D02*
X78619047Y-12378390D01*
X78619047Y-12378390D02*
X78619047Y-12664104D01*
X78619047Y-12664104D02*
X78523809Y-12854580D01*
X78523809Y-12854580D02*
X78428571Y-12949819D01*
X78428571Y-12949819D02*
X78238095Y-13045057D01*
X78238095Y-13045057D02*
X77476190Y-13045057D01*
X79476190Y-13235533D02*
X81000000Y-13235533D01*
X82333332Y-11997438D02*
X82714285Y-11997438D01*
X82714285Y-11997438D02*
X82904761Y-12092676D01*
X82904761Y-12092676D02*
X83095237Y-12283152D01*
X83095237Y-12283152D02*
X83190475Y-12664104D01*
X83190475Y-12664104D02*
X83190475Y-13330771D01*
X83190475Y-13330771D02*
X83095237Y-13711723D01*
X83095237Y-13711723D02*
X82904761Y-13902200D01*
X82904761Y-13902200D02*
X82714285Y-13997438D01*
X82714285Y-13997438D02*
X82333332Y-13997438D01*
X82333332Y-13997438D02*
X82142856Y-13902200D01*
X82142856Y-13902200D02*
X81952380Y-13711723D01*
X81952380Y-13711723D02*
X81857142Y-13330771D01*
X81857142Y-13330771D02*
X81857142Y-12664104D01*
X81857142Y-12664104D02*
X81952380Y-12283152D01*
X81952380Y-12283152D02*
X82142856Y-12092676D01*
X82142856Y-12092676D02*
X82333332Y-11997438D01*
X84047618Y-11997438D02*
X84047618Y-13616485D01*
X84047618Y-13616485D02*
X84142856Y-13806961D01*
X84142856Y-13806961D02*
X84238094Y-13902200D01*
X84238094Y-13902200D02*
X84428570Y-13997438D01*
X84428570Y-13997438D02*
X84809523Y-13997438D01*
X84809523Y-13997438D02*
X84999999Y-13902200D01*
X84999999Y-13902200D02*
X85095237Y-13806961D01*
X85095237Y-13806961D02*
X85190475Y-13616485D01*
X85190475Y-13616485D02*
X85190475Y-11997438D01*
X85857142Y-11997438D02*
X86999999Y-11997438D01*
X86428570Y-13997438D02*
X86428570Y-11997438D01*
X89000000Y-11997438D02*
X90333333Y-11997438D01*
X90333333Y-11997438D02*
X89000000Y-13997438D01*
X89000000Y-13997438D02*
X90333333Y-13997438D01*
X91476190Y-11997438D02*
X91857143Y-11997438D01*
X91857143Y-11997438D02*
X92047619Y-12092676D01*
X92047619Y-12092676D02*
X92238095Y-12283152D01*
X92238095Y-12283152D02*
X92333333Y-12664104D01*
X92333333Y-12664104D02*
X92333333Y-13330771D01*
X92333333Y-13330771D02*
X92238095Y-13711723D01*
X92238095Y-13711723D02*
X92047619Y-13902200D01*
X92047619Y-13902200D02*
X91857143Y-13997438D01*
X91857143Y-13997438D02*
X91476190Y-13997438D01*
X91476190Y-13997438D02*
X91285714Y-13902200D01*
X91285714Y-13902200D02*
X91095238Y-13711723D01*
X91095238Y-13711723D02*
X91000000Y-13330771D01*
X91000000Y-13330771D02*
X91000000Y-12664104D01*
X91000000Y-12664104D02*
X91095238Y-12283152D01*
X91095238Y-12283152D02*
X91285714Y-12092676D01*
X91285714Y-12092676D02*
X91476190Y-11997438D01*
X93190476Y-13997438D02*
X93190476Y-11997438D01*
X93190476Y-11997438D02*
X94333333Y-13997438D01*
X94333333Y-13997438D02*
X94333333Y-11997438D01*
X95285714Y-12949819D02*
X95952381Y-12949819D01*
X96238095Y-13997438D02*
X95285714Y-13997438D01*
X95285714Y-13997438D02*
X95285714Y-11997438D01*
X95285714Y-11997438D02*
X96238095Y-11997438D01*
X81188095Y-22729104D02*
X81664285Y-22729104D01*
X81092857Y-23014819D02*
X81426190Y-22014819D01*
X81426190Y-22014819D02*
X81759523Y-23014819D01*
X82092857Y-22348152D02*
X82092857Y-23014819D01*
X82092857Y-22443390D02*
X82140476Y-22395771D01*
X82140476Y-22395771D02*
X82235714Y-22348152D01*
X82235714Y-22348152D02*
X82378571Y-22348152D01*
X82378571Y-22348152D02*
X82473809Y-22395771D01*
X82473809Y-22395771D02*
X82521428Y-22491009D01*
X82521428Y-22491009D02*
X82521428Y-23014819D01*
X82854762Y-22348152D02*
X83235714Y-22348152D01*
X82997619Y-22014819D02*
X82997619Y-22871961D01*
X82997619Y-22871961D02*
X83045238Y-22967200D01*
X83045238Y-22967200D02*
X83140476Y-23014819D01*
X83140476Y-23014819D02*
X83235714Y-23014819D01*
X83950000Y-22967200D02*
X83854762Y-23014819D01*
X83854762Y-23014819D02*
X83664286Y-23014819D01*
X83664286Y-23014819D02*
X83569048Y-22967200D01*
X83569048Y-22967200D02*
X83521429Y-22871961D01*
X83521429Y-22871961D02*
X83521429Y-22491009D01*
X83521429Y-22491009D02*
X83569048Y-22395771D01*
X83569048Y-22395771D02*
X83664286Y-22348152D01*
X83664286Y-22348152D02*
X83854762Y-22348152D01*
X83854762Y-22348152D02*
X83950000Y-22395771D01*
X83950000Y-22395771D02*
X83997619Y-22491009D01*
X83997619Y-22491009D02*
X83997619Y-22586247D01*
X83997619Y-22586247D02*
X83521429Y-22681485D01*
X84426191Y-22348152D02*
X84426191Y-23014819D01*
X84426191Y-22443390D02*
X84473810Y-22395771D01*
X84473810Y-22395771D02*
X84569048Y-22348152D01*
X84569048Y-22348152D02*
X84711905Y-22348152D01*
X84711905Y-22348152D02*
X84807143Y-22395771D01*
X84807143Y-22395771D02*
X84854762Y-22491009D01*
X84854762Y-22491009D02*
X84854762Y-23014819D01*
X85330953Y-22348152D02*
X85330953Y-23014819D01*
X85330953Y-22443390D02*
X85378572Y-22395771D01*
X85378572Y-22395771D02*
X85473810Y-22348152D01*
X85473810Y-22348152D02*
X85616667Y-22348152D01*
X85616667Y-22348152D02*
X85711905Y-22395771D01*
X85711905Y-22395771D02*
X85759524Y-22491009D01*
X85759524Y-22491009D02*
X85759524Y-23014819D01*
X86664286Y-23014819D02*
X86664286Y-22491009D01*
X86664286Y-22491009D02*
X86616667Y-22395771D01*
X86616667Y-22395771D02*
X86521429Y-22348152D01*
X86521429Y-22348152D02*
X86330953Y-22348152D01*
X86330953Y-22348152D02*
X86235715Y-22395771D01*
X86664286Y-22967200D02*
X86569048Y-23014819D01*
X86569048Y-23014819D02*
X86330953Y-23014819D01*
X86330953Y-23014819D02*
X86235715Y-22967200D01*
X86235715Y-22967200D02*
X86188096Y-22871961D01*
X86188096Y-22871961D02*
X86188096Y-22776723D01*
X86188096Y-22776723D02*
X86235715Y-22681485D01*
X86235715Y-22681485D02*
X86330953Y-22633866D01*
X86330953Y-22633866D02*
X86569048Y-22633866D01*
X86569048Y-22633866D02*
X86664286Y-22586247D01*
%TO.C,MH4*%
X9200000Y-94000000D02*
G75*
G02*
X2800000Y-94000000I-3200000J0D01*
G01*
X2800000Y-94000000D02*
G75*
G02*
X9200000Y-94000000I3200000J0D01*
G01*
%TO.C,MH1*%
X9200000Y-6000000D02*
G75*
G02*
X2800000Y-6000000I-3200000J0D01*
G01*
X2800000Y-6000000D02*
G75*
G02*
X9200000Y-6000000I3200000J0D01*
G01*
%TO.C,MH3*%
X117200000Y-94000000D02*
G75*
G02*
X110800000Y-94000000I-3200000J0D01*
G01*
X110800000Y-94000000D02*
G75*
G02*
X117200000Y-94000000I3200000J0D01*
G01*
%TO.C,MH2*%
X117200000Y-6000000D02*
G75*
G02*
X110800000Y-6000000I-3200000J0D01*
G01*
X110800000Y-6000000D02*
G75*
G02*
X117200000Y-6000000I3200000J0D01*
G01*
%TD*%
M02*
