%TF.GenerationSoftware,KiCad,Pcbnew,9.0.7+dfsg-1*%
%TF.CreationDate,2026-05-09T16:33:42-04:00*%
%TF.ProjectId,flipping-cool,666c6970-7069-46e6-972d-636f6f6c2e6b,rev?*%
%TF.SameCoordinates,Original*%
%TF.FileFunction,AssemblyDrawing,Top*%
%FSLAX46Y46*%
G04 Gerber Fmt 4.6, Leading zero omitted, Abs format (unit mm)*
G04 Created by KiCad (PCBNEW 9.0.7+dfsg-1) date 2026-05-09 16:33:42*
%MOMM*%
%LPD*%
G01*
G04 APERTURE LIST*
%ADD10C,0.080000*%
%ADD11C,0.150000*%
%ADD12C,0.110000*%
%ADD13C,0.075000*%
%ADD14C,0.100000*%
G04 APERTURE END LIST*
D10*
X49916666Y-8227149D02*
X49750000Y-7989054D01*
X49630952Y-8227149D02*
X49630952Y-7727149D01*
X49630952Y-7727149D02*
X49821428Y-7727149D01*
X49821428Y-7727149D02*
X49869047Y-7750959D01*
X49869047Y-7750959D02*
X49892857Y-7774768D01*
X49892857Y-7774768D02*
X49916666Y-7822387D01*
X49916666Y-7822387D02*
X49916666Y-7893816D01*
X49916666Y-7893816D02*
X49892857Y-7941435D01*
X49892857Y-7941435D02*
X49869047Y-7965244D01*
X49869047Y-7965244D02*
X49821428Y-7989054D01*
X49821428Y-7989054D02*
X49630952Y-7989054D01*
X50392857Y-8227149D02*
X50107143Y-8227149D01*
X50250000Y-8227149D02*
X50250000Y-7727149D01*
X50250000Y-7727149D02*
X50202381Y-7798578D01*
X50202381Y-7798578D02*
X50154762Y-7846197D01*
X50154762Y-7846197D02*
X50107143Y-7870006D01*
D11*
X16454819Y-48318094D02*
X17264342Y-48318094D01*
X17264342Y-48318094D02*
X17359580Y-48270475D01*
X17359580Y-48270475D02*
X17407200Y-48222856D01*
X17407200Y-48222856D02*
X17454819Y-48127618D01*
X17454819Y-48127618D02*
X17454819Y-47937142D01*
X17454819Y-47937142D02*
X17407200Y-47841904D01*
X17407200Y-47841904D02*
X17359580Y-47794285D01*
X17359580Y-47794285D02*
X17264342Y-47746666D01*
X17264342Y-47746666D02*
X16454819Y-47746666D01*
X16550057Y-47318094D02*
X16502438Y-47270475D01*
X16502438Y-47270475D02*
X16454819Y-47175237D01*
X16454819Y-47175237D02*
X16454819Y-46937142D01*
X16454819Y-46937142D02*
X16502438Y-46841904D01*
X16502438Y-46841904D02*
X16550057Y-46794285D01*
X16550057Y-46794285D02*
X16645295Y-46746666D01*
X16645295Y-46746666D02*
X16740533Y-46746666D01*
X16740533Y-46746666D02*
X16883390Y-46794285D01*
X16883390Y-46794285D02*
X17454819Y-47365713D01*
X17454819Y-47365713D02*
X17454819Y-46746666D01*
X16454819Y-46127618D02*
X16454819Y-46032380D01*
X16454819Y-46032380D02*
X16502438Y-45937142D01*
X16502438Y-45937142D02*
X16550057Y-45889523D01*
X16550057Y-45889523D02*
X16645295Y-45841904D01*
X16645295Y-45841904D02*
X16835771Y-45794285D01*
X16835771Y-45794285D02*
X17073866Y-45794285D01*
X17073866Y-45794285D02*
X17264342Y-45841904D01*
X17264342Y-45841904D02*
X17359580Y-45889523D01*
X17359580Y-45889523D02*
X17407200Y-45937142D01*
X17407200Y-45937142D02*
X17454819Y-46032380D01*
X17454819Y-46032380D02*
X17454819Y-46127618D01*
X17454819Y-46127618D02*
X17407200Y-46222856D01*
X17407200Y-46222856D02*
X17359580Y-46270475D01*
X17359580Y-46270475D02*
X17264342Y-46318094D01*
X17264342Y-46318094D02*
X17073866Y-46365713D01*
X17073866Y-46365713D02*
X16835771Y-46365713D01*
X16835771Y-46365713D02*
X16645295Y-46318094D01*
X16645295Y-46318094D02*
X16550057Y-46270475D01*
X16550057Y-46270475D02*
X16502438Y-46222856D01*
X16502438Y-46222856D02*
X16454819Y-46127618D01*
X4666667Y-94454819D02*
X4666667Y-93454819D01*
X4666667Y-93454819D02*
X5000000Y-94169104D01*
X5000000Y-94169104D02*
X5333333Y-93454819D01*
X5333333Y-93454819D02*
X5333333Y-94454819D01*
X5809524Y-94454819D02*
X5809524Y-93454819D01*
X5809524Y-93931009D02*
X6380952Y-93931009D01*
X6380952Y-94454819D02*
X6380952Y-93454819D01*
X7285714Y-93788152D02*
X7285714Y-94454819D01*
X7047619Y-93407200D02*
X6809524Y-94121485D01*
X6809524Y-94121485D02*
X7428571Y-94121485D01*
X31738095Y-50804819D02*
X32309523Y-50804819D01*
X32023809Y-51804819D02*
X32023809Y-50804819D01*
X32642857Y-51804819D02*
X32642857Y-50804819D01*
X32642857Y-50804819D02*
X33023809Y-50804819D01*
X33023809Y-50804819D02*
X33119047Y-50852438D01*
X33119047Y-50852438D02*
X33166666Y-50900057D01*
X33166666Y-50900057D02*
X33214285Y-50995295D01*
X33214285Y-50995295D02*
X33214285Y-51138152D01*
X33214285Y-51138152D02*
X33166666Y-51233390D01*
X33166666Y-51233390D02*
X33119047Y-51281009D01*
X33119047Y-51281009D02*
X33023809Y-51328628D01*
X33023809Y-51328628D02*
X32642857Y-51328628D01*
X34071428Y-51138152D02*
X34071428Y-51804819D01*
X33833333Y-50757200D02*
X33595238Y-51471485D01*
X33595238Y-51471485D02*
X34214285Y-51471485D01*
D10*
X42916666Y-29179530D02*
X42892857Y-29203340D01*
X42892857Y-29203340D02*
X42821428Y-29227149D01*
X42821428Y-29227149D02*
X42773809Y-29227149D01*
X42773809Y-29227149D02*
X42702381Y-29203340D01*
X42702381Y-29203340D02*
X42654762Y-29155720D01*
X42654762Y-29155720D02*
X42630952Y-29108101D01*
X42630952Y-29108101D02*
X42607143Y-29012863D01*
X42607143Y-29012863D02*
X42607143Y-28941435D01*
X42607143Y-28941435D02*
X42630952Y-28846197D01*
X42630952Y-28846197D02*
X42654762Y-28798578D01*
X42654762Y-28798578D02*
X42702381Y-28750959D01*
X42702381Y-28750959D02*
X42773809Y-28727149D01*
X42773809Y-28727149D02*
X42821428Y-28727149D01*
X42821428Y-28727149D02*
X42892857Y-28750959D01*
X42892857Y-28750959D02*
X42916666Y-28774768D01*
X43107143Y-28774768D02*
X43130952Y-28750959D01*
X43130952Y-28750959D02*
X43178571Y-28727149D01*
X43178571Y-28727149D02*
X43297619Y-28727149D01*
X43297619Y-28727149D02*
X43345238Y-28750959D01*
X43345238Y-28750959D02*
X43369047Y-28774768D01*
X43369047Y-28774768D02*
X43392857Y-28822387D01*
X43392857Y-28822387D02*
X43392857Y-28870006D01*
X43392857Y-28870006D02*
X43369047Y-28941435D01*
X43369047Y-28941435D02*
X43083333Y-29227149D01*
X43083333Y-29227149D02*
X43392857Y-29227149D01*
D11*
X32738095Y-3804819D02*
X33309523Y-3804819D01*
X33023809Y-4804819D02*
X33023809Y-3804819D01*
X33642857Y-4804819D02*
X33642857Y-3804819D01*
X33642857Y-3804819D02*
X34023809Y-3804819D01*
X34023809Y-3804819D02*
X34119047Y-3852438D01*
X34119047Y-3852438D02*
X34166666Y-3900057D01*
X34166666Y-3900057D02*
X34214285Y-3995295D01*
X34214285Y-3995295D02*
X34214285Y-4138152D01*
X34214285Y-4138152D02*
X34166666Y-4233390D01*
X34166666Y-4233390D02*
X34119047Y-4281009D01*
X34119047Y-4281009D02*
X34023809Y-4328628D01*
X34023809Y-4328628D02*
X33642857Y-4328628D01*
X34595238Y-3900057D02*
X34642857Y-3852438D01*
X34642857Y-3852438D02*
X34738095Y-3804819D01*
X34738095Y-3804819D02*
X34976190Y-3804819D01*
X34976190Y-3804819D02*
X35071428Y-3852438D01*
X35071428Y-3852438D02*
X35119047Y-3900057D01*
X35119047Y-3900057D02*
X35166666Y-3995295D01*
X35166666Y-3995295D02*
X35166666Y-4090533D01*
X35166666Y-4090533D02*
X35119047Y-4233390D01*
X35119047Y-4233390D02*
X34547619Y-4804819D01*
X34547619Y-4804819D02*
X35166666Y-4804819D01*
X30357142Y-42359580D02*
X30309523Y-42407200D01*
X30309523Y-42407200D02*
X30166666Y-42454819D01*
X30166666Y-42454819D02*
X30071428Y-42454819D01*
X30071428Y-42454819D02*
X29928571Y-42407200D01*
X29928571Y-42407200D02*
X29833333Y-42311961D01*
X29833333Y-42311961D02*
X29785714Y-42216723D01*
X29785714Y-42216723D02*
X29738095Y-42026247D01*
X29738095Y-42026247D02*
X29738095Y-41883390D01*
X29738095Y-41883390D02*
X29785714Y-41692914D01*
X29785714Y-41692914D02*
X29833333Y-41597676D01*
X29833333Y-41597676D02*
X29928571Y-41502438D01*
X29928571Y-41502438D02*
X30071428Y-41454819D01*
X30071428Y-41454819D02*
X30166666Y-41454819D01*
X30166666Y-41454819D02*
X30309523Y-41502438D01*
X30309523Y-41502438D02*
X30357142Y-41550057D01*
X30738095Y-41550057D02*
X30785714Y-41502438D01*
X30785714Y-41502438D02*
X30880952Y-41454819D01*
X30880952Y-41454819D02*
X31119047Y-41454819D01*
X31119047Y-41454819D02*
X31214285Y-41502438D01*
X31214285Y-41502438D02*
X31261904Y-41550057D01*
X31261904Y-41550057D02*
X31309523Y-41645295D01*
X31309523Y-41645295D02*
X31309523Y-41740533D01*
X31309523Y-41740533D02*
X31261904Y-41883390D01*
X31261904Y-41883390D02*
X30690476Y-42454819D01*
X30690476Y-42454819D02*
X31309523Y-42454819D01*
X31928571Y-41454819D02*
X32023809Y-41454819D01*
X32023809Y-41454819D02*
X32119047Y-41502438D01*
X32119047Y-41502438D02*
X32166666Y-41550057D01*
X32166666Y-41550057D02*
X32214285Y-41645295D01*
X32214285Y-41645295D02*
X32261904Y-41835771D01*
X32261904Y-41835771D02*
X32261904Y-42073866D01*
X32261904Y-42073866D02*
X32214285Y-42264342D01*
X32214285Y-42264342D02*
X32166666Y-42359580D01*
X32166666Y-42359580D02*
X32119047Y-42407200D01*
X32119047Y-42407200D02*
X32023809Y-42454819D01*
X32023809Y-42454819D02*
X31928571Y-42454819D01*
X31928571Y-42454819D02*
X31833333Y-42407200D01*
X31833333Y-42407200D02*
X31785714Y-42359580D01*
X31785714Y-42359580D02*
X31738095Y-42264342D01*
X31738095Y-42264342D02*
X31690476Y-42073866D01*
X31690476Y-42073866D02*
X31690476Y-41835771D01*
X31690476Y-41835771D02*
X31738095Y-41645295D01*
X31738095Y-41645295D02*
X31785714Y-41550057D01*
X31785714Y-41550057D02*
X31833333Y-41502438D01*
X31833333Y-41502438D02*
X31928571Y-41454819D01*
X44650476Y-78454819D02*
X44650476Y-79169104D01*
X44650476Y-79169104D02*
X44602857Y-79311961D01*
X44602857Y-79311961D02*
X44507619Y-79407200D01*
X44507619Y-79407200D02*
X44364762Y-79454819D01*
X44364762Y-79454819D02*
X44269524Y-79454819D01*
X45031429Y-78454819D02*
X45650476Y-78454819D01*
X45650476Y-78454819D02*
X45317143Y-78835771D01*
X45317143Y-78835771D02*
X45460000Y-78835771D01*
X45460000Y-78835771D02*
X45555238Y-78883390D01*
X45555238Y-78883390D02*
X45602857Y-78931009D01*
X45602857Y-78931009D02*
X45650476Y-79026247D01*
X45650476Y-79026247D02*
X45650476Y-79264342D01*
X45650476Y-79264342D02*
X45602857Y-79359580D01*
X45602857Y-79359580D02*
X45555238Y-79407200D01*
X45555238Y-79407200D02*
X45460000Y-79454819D01*
X45460000Y-79454819D02*
X45174286Y-79454819D01*
X45174286Y-79454819D02*
X45079048Y-79407200D01*
X45079048Y-79407200D02*
X45031429Y-79359580D01*
X46269524Y-78454819D02*
X46364762Y-78454819D01*
X46364762Y-78454819D02*
X46460000Y-78502438D01*
X46460000Y-78502438D02*
X46507619Y-78550057D01*
X46507619Y-78550057D02*
X46555238Y-78645295D01*
X46555238Y-78645295D02*
X46602857Y-78835771D01*
X46602857Y-78835771D02*
X46602857Y-79073866D01*
X46602857Y-79073866D02*
X46555238Y-79264342D01*
X46555238Y-79264342D02*
X46507619Y-79359580D01*
X46507619Y-79359580D02*
X46460000Y-79407200D01*
X46460000Y-79407200D02*
X46364762Y-79454819D01*
X46364762Y-79454819D02*
X46269524Y-79454819D01*
X46269524Y-79454819D02*
X46174286Y-79407200D01*
X46174286Y-79407200D02*
X46126667Y-79359580D01*
X46126667Y-79359580D02*
X46079048Y-79264342D01*
X46079048Y-79264342D02*
X46031429Y-79073866D01*
X46031429Y-79073866D02*
X46031429Y-78835771D01*
X46031429Y-78835771D02*
X46079048Y-78645295D01*
X46079048Y-78645295D02*
X46126667Y-78550057D01*
X46126667Y-78550057D02*
X46174286Y-78502438D01*
X46174286Y-78502438D02*
X46269524Y-78454819D01*
D12*
X69607365Y-66891428D02*
X70190222Y-66891428D01*
X70190222Y-66891428D02*
X70258794Y-66857142D01*
X70258794Y-66857142D02*
X70293080Y-66822857D01*
X70293080Y-66822857D02*
X70327365Y-66754285D01*
X70327365Y-66754285D02*
X70327365Y-66617142D01*
X70327365Y-66617142D02*
X70293080Y-66548571D01*
X70293080Y-66548571D02*
X70258794Y-66514285D01*
X70258794Y-66514285D02*
X70190222Y-66479999D01*
X70190222Y-66479999D02*
X69607365Y-66479999D01*
X69847365Y-65828571D02*
X70327365Y-65828571D01*
X69573080Y-65999999D02*
X70087365Y-66171428D01*
X70087365Y-66171428D02*
X70087365Y-65725713D01*
X70327365Y-65074285D02*
X70327365Y-65485714D01*
X70327365Y-65279999D02*
X69607365Y-65279999D01*
X69607365Y-65279999D02*
X69710222Y-65348571D01*
X69710222Y-65348571D02*
X69778794Y-65417142D01*
X69778794Y-65417142D02*
X69813080Y-65485714D01*
D11*
X33738095Y-69804819D02*
X34309523Y-69804819D01*
X34023809Y-70804819D02*
X34023809Y-69804819D01*
X34642857Y-70804819D02*
X34642857Y-69804819D01*
X34642857Y-69804819D02*
X35023809Y-69804819D01*
X35023809Y-69804819D02*
X35119047Y-69852438D01*
X35119047Y-69852438D02*
X35166666Y-69900057D01*
X35166666Y-69900057D02*
X35214285Y-69995295D01*
X35214285Y-69995295D02*
X35214285Y-70138152D01*
X35214285Y-70138152D02*
X35166666Y-70233390D01*
X35166666Y-70233390D02*
X35119047Y-70281009D01*
X35119047Y-70281009D02*
X35023809Y-70328628D01*
X35023809Y-70328628D02*
X34642857Y-70328628D01*
X36071428Y-69804819D02*
X35880952Y-69804819D01*
X35880952Y-69804819D02*
X35785714Y-69852438D01*
X35785714Y-69852438D02*
X35738095Y-69900057D01*
X35738095Y-69900057D02*
X35642857Y-70042914D01*
X35642857Y-70042914D02*
X35595238Y-70233390D01*
X35595238Y-70233390D02*
X35595238Y-70614342D01*
X35595238Y-70614342D02*
X35642857Y-70709580D01*
X35642857Y-70709580D02*
X35690476Y-70757200D01*
X35690476Y-70757200D02*
X35785714Y-70804819D01*
X35785714Y-70804819D02*
X35976190Y-70804819D01*
X35976190Y-70804819D02*
X36071428Y-70757200D01*
X36071428Y-70757200D02*
X36119047Y-70709580D01*
X36119047Y-70709580D02*
X36166666Y-70614342D01*
X36166666Y-70614342D02*
X36166666Y-70376247D01*
X36166666Y-70376247D02*
X36119047Y-70281009D01*
X36119047Y-70281009D02*
X36071428Y-70233390D01*
X36071428Y-70233390D02*
X35976190Y-70185771D01*
X35976190Y-70185771D02*
X35785714Y-70185771D01*
X35785714Y-70185771D02*
X35690476Y-70233390D01*
X35690476Y-70233390D02*
X35642857Y-70281009D01*
X35642857Y-70281009D02*
X35595238Y-70376247D01*
X50738095Y-67804819D02*
X51309523Y-67804819D01*
X51023809Y-68804819D02*
X51023809Y-67804819D01*
X51642857Y-68804819D02*
X51642857Y-67804819D01*
X51642857Y-67804819D02*
X52023809Y-67804819D01*
X52023809Y-67804819D02*
X52119047Y-67852438D01*
X52119047Y-67852438D02*
X52166666Y-67900057D01*
X52166666Y-67900057D02*
X52214285Y-67995295D01*
X52214285Y-67995295D02*
X52214285Y-68138152D01*
X52214285Y-68138152D02*
X52166666Y-68233390D01*
X52166666Y-68233390D02*
X52119047Y-68281009D01*
X52119047Y-68281009D02*
X52023809Y-68328628D01*
X52023809Y-68328628D02*
X51642857Y-68328628D01*
X52785714Y-68233390D02*
X52690476Y-68185771D01*
X52690476Y-68185771D02*
X52642857Y-68138152D01*
X52642857Y-68138152D02*
X52595238Y-68042914D01*
X52595238Y-68042914D02*
X52595238Y-67995295D01*
X52595238Y-67995295D02*
X52642857Y-67900057D01*
X52642857Y-67900057D02*
X52690476Y-67852438D01*
X52690476Y-67852438D02*
X52785714Y-67804819D01*
X52785714Y-67804819D02*
X52976190Y-67804819D01*
X52976190Y-67804819D02*
X53071428Y-67852438D01*
X53071428Y-67852438D02*
X53119047Y-67900057D01*
X53119047Y-67900057D02*
X53166666Y-67995295D01*
X53166666Y-67995295D02*
X53166666Y-68042914D01*
X53166666Y-68042914D02*
X53119047Y-68138152D01*
X53119047Y-68138152D02*
X53071428Y-68185771D01*
X53071428Y-68185771D02*
X52976190Y-68233390D01*
X52976190Y-68233390D02*
X52785714Y-68233390D01*
X52785714Y-68233390D02*
X52690476Y-68281009D01*
X52690476Y-68281009D02*
X52642857Y-68328628D01*
X52642857Y-68328628D02*
X52595238Y-68423866D01*
X52595238Y-68423866D02*
X52595238Y-68614342D01*
X52595238Y-68614342D02*
X52642857Y-68709580D01*
X52642857Y-68709580D02*
X52690476Y-68757200D01*
X52690476Y-68757200D02*
X52785714Y-68804819D01*
X52785714Y-68804819D02*
X52976190Y-68804819D01*
X52976190Y-68804819D02*
X53071428Y-68757200D01*
X53071428Y-68757200D02*
X53119047Y-68709580D01*
X53119047Y-68709580D02*
X53166666Y-68614342D01*
X53166666Y-68614342D02*
X53166666Y-68423866D01*
X53166666Y-68423866D02*
X53119047Y-68328628D01*
X53119047Y-68328628D02*
X53071428Y-68281009D01*
X53071428Y-68281009D02*
X52976190Y-68233390D01*
D10*
X97678571Y-92227149D02*
X97511905Y-91989054D01*
X97392857Y-92227149D02*
X97392857Y-91727149D01*
X97392857Y-91727149D02*
X97583333Y-91727149D01*
X97583333Y-91727149D02*
X97630952Y-91750959D01*
X97630952Y-91750959D02*
X97654762Y-91774768D01*
X97654762Y-91774768D02*
X97678571Y-91822387D01*
X97678571Y-91822387D02*
X97678571Y-91893816D01*
X97678571Y-91893816D02*
X97654762Y-91941435D01*
X97654762Y-91941435D02*
X97630952Y-91965244D01*
X97630952Y-91965244D02*
X97583333Y-91989054D01*
X97583333Y-91989054D02*
X97392857Y-91989054D01*
X98107143Y-91893816D02*
X98107143Y-92227149D01*
X97988095Y-91703340D02*
X97869048Y-92060482D01*
X97869048Y-92060482D02*
X98178571Y-92060482D01*
X98583333Y-91727149D02*
X98488095Y-91727149D01*
X98488095Y-91727149D02*
X98440476Y-91750959D01*
X98440476Y-91750959D02*
X98416666Y-91774768D01*
X98416666Y-91774768D02*
X98369047Y-91846197D01*
X98369047Y-91846197D02*
X98345238Y-91941435D01*
X98345238Y-91941435D02*
X98345238Y-92131911D01*
X98345238Y-92131911D02*
X98369047Y-92179530D01*
X98369047Y-92179530D02*
X98392857Y-92203340D01*
X98392857Y-92203340D02*
X98440476Y-92227149D01*
X98440476Y-92227149D02*
X98535714Y-92227149D01*
X98535714Y-92227149D02*
X98583333Y-92203340D01*
X98583333Y-92203340D02*
X98607142Y-92179530D01*
X98607142Y-92179530D02*
X98630952Y-92131911D01*
X98630952Y-92131911D02*
X98630952Y-92012863D01*
X98630952Y-92012863D02*
X98607142Y-91965244D01*
X98607142Y-91965244D02*
X98583333Y-91941435D01*
X98583333Y-91941435D02*
X98535714Y-91917625D01*
X98535714Y-91917625D02*
X98440476Y-91917625D01*
X98440476Y-91917625D02*
X98392857Y-91941435D01*
X98392857Y-91941435D02*
X98369047Y-91965244D01*
X98369047Y-91965244D02*
X98345238Y-92012863D01*
D11*
X63738095Y-50804819D02*
X64309523Y-50804819D01*
X64023809Y-51804819D02*
X64023809Y-50804819D01*
X64642857Y-51804819D02*
X64642857Y-50804819D01*
X64642857Y-50804819D02*
X65023809Y-50804819D01*
X65023809Y-50804819D02*
X65119047Y-50852438D01*
X65119047Y-50852438D02*
X65166666Y-50900057D01*
X65166666Y-50900057D02*
X65214285Y-50995295D01*
X65214285Y-50995295D02*
X65214285Y-51138152D01*
X65214285Y-51138152D02*
X65166666Y-51233390D01*
X65166666Y-51233390D02*
X65119047Y-51281009D01*
X65119047Y-51281009D02*
X65023809Y-51328628D01*
X65023809Y-51328628D02*
X64642857Y-51328628D01*
X66119047Y-50804819D02*
X65642857Y-50804819D01*
X65642857Y-50804819D02*
X65595238Y-51281009D01*
X65595238Y-51281009D02*
X65642857Y-51233390D01*
X65642857Y-51233390D02*
X65738095Y-51185771D01*
X65738095Y-51185771D02*
X65976190Y-51185771D01*
X65976190Y-51185771D02*
X66071428Y-51233390D01*
X66071428Y-51233390D02*
X66119047Y-51281009D01*
X66119047Y-51281009D02*
X66166666Y-51376247D01*
X66166666Y-51376247D02*
X66166666Y-51614342D01*
X66166666Y-51614342D02*
X66119047Y-51709580D01*
X66119047Y-51709580D02*
X66071428Y-51757200D01*
X66071428Y-51757200D02*
X65976190Y-51804819D01*
X65976190Y-51804819D02*
X65738095Y-51804819D01*
X65738095Y-51804819D02*
X65642857Y-51757200D01*
X65642857Y-51757200D02*
X65595238Y-51709580D01*
D10*
X85678571Y-64227149D02*
X85511905Y-63989054D01*
X85392857Y-64227149D02*
X85392857Y-63727149D01*
X85392857Y-63727149D02*
X85583333Y-63727149D01*
X85583333Y-63727149D02*
X85630952Y-63750959D01*
X85630952Y-63750959D02*
X85654762Y-63774768D01*
X85654762Y-63774768D02*
X85678571Y-63822387D01*
X85678571Y-63822387D02*
X85678571Y-63893816D01*
X85678571Y-63893816D02*
X85654762Y-63941435D01*
X85654762Y-63941435D02*
X85630952Y-63965244D01*
X85630952Y-63965244D02*
X85583333Y-63989054D01*
X85583333Y-63989054D02*
X85392857Y-63989054D01*
X86107143Y-63893816D02*
X86107143Y-64227149D01*
X85988095Y-63703340D02*
X85869048Y-64060482D01*
X85869048Y-64060482D02*
X86178571Y-64060482D01*
X86607142Y-63727149D02*
X86369047Y-63727149D01*
X86369047Y-63727149D02*
X86345238Y-63965244D01*
X86345238Y-63965244D02*
X86369047Y-63941435D01*
X86369047Y-63941435D02*
X86416666Y-63917625D01*
X86416666Y-63917625D02*
X86535714Y-63917625D01*
X86535714Y-63917625D02*
X86583333Y-63941435D01*
X86583333Y-63941435D02*
X86607142Y-63965244D01*
X86607142Y-63965244D02*
X86630952Y-64012863D01*
X86630952Y-64012863D02*
X86630952Y-64131911D01*
X86630952Y-64131911D02*
X86607142Y-64179530D01*
X86607142Y-64179530D02*
X86583333Y-64203340D01*
X86583333Y-64203340D02*
X86535714Y-64227149D01*
X86535714Y-64227149D02*
X86416666Y-64227149D01*
X86416666Y-64227149D02*
X86369047Y-64203340D01*
X86369047Y-64203340D02*
X86345238Y-64179530D01*
X71678571Y-52179530D02*
X71654762Y-52203340D01*
X71654762Y-52203340D02*
X71583333Y-52227149D01*
X71583333Y-52227149D02*
X71535714Y-52227149D01*
X71535714Y-52227149D02*
X71464286Y-52203340D01*
X71464286Y-52203340D02*
X71416667Y-52155720D01*
X71416667Y-52155720D02*
X71392857Y-52108101D01*
X71392857Y-52108101D02*
X71369048Y-52012863D01*
X71369048Y-52012863D02*
X71369048Y-51941435D01*
X71369048Y-51941435D02*
X71392857Y-51846197D01*
X71392857Y-51846197D02*
X71416667Y-51798578D01*
X71416667Y-51798578D02*
X71464286Y-51750959D01*
X71464286Y-51750959D02*
X71535714Y-51727149D01*
X71535714Y-51727149D02*
X71583333Y-51727149D01*
X71583333Y-51727149D02*
X71654762Y-51750959D01*
X71654762Y-51750959D02*
X71678571Y-51774768D01*
X72154762Y-52227149D02*
X71869048Y-52227149D01*
X72011905Y-52227149D02*
X72011905Y-51727149D01*
X72011905Y-51727149D02*
X71964286Y-51798578D01*
X71964286Y-51798578D02*
X71916667Y-51846197D01*
X71916667Y-51846197D02*
X71869048Y-51870006D01*
X72464285Y-51727149D02*
X72511904Y-51727149D01*
X72511904Y-51727149D02*
X72559523Y-51750959D01*
X72559523Y-51750959D02*
X72583333Y-51774768D01*
X72583333Y-51774768D02*
X72607142Y-51822387D01*
X72607142Y-51822387D02*
X72630952Y-51917625D01*
X72630952Y-51917625D02*
X72630952Y-52036673D01*
X72630952Y-52036673D02*
X72607142Y-52131911D01*
X72607142Y-52131911D02*
X72583333Y-52179530D01*
X72583333Y-52179530D02*
X72559523Y-52203340D01*
X72559523Y-52203340D02*
X72511904Y-52227149D01*
X72511904Y-52227149D02*
X72464285Y-52227149D01*
X72464285Y-52227149D02*
X72416666Y-52203340D01*
X72416666Y-52203340D02*
X72392857Y-52179530D01*
X72392857Y-52179530D02*
X72369047Y-52131911D01*
X72369047Y-52131911D02*
X72345238Y-52036673D01*
X72345238Y-52036673D02*
X72345238Y-51917625D01*
X72345238Y-51917625D02*
X72369047Y-51822387D01*
X72369047Y-51822387D02*
X72392857Y-51774768D01*
X72392857Y-51774768D02*
X72416666Y-51750959D01*
X72416666Y-51750959D02*
X72464285Y-51727149D01*
D11*
X50738095Y-70804819D02*
X51309523Y-70804819D01*
X51023809Y-71804819D02*
X51023809Y-70804819D01*
X51642857Y-71804819D02*
X51642857Y-70804819D01*
X51642857Y-70804819D02*
X52023809Y-70804819D01*
X52023809Y-70804819D02*
X52119047Y-70852438D01*
X52119047Y-70852438D02*
X52166666Y-70900057D01*
X52166666Y-70900057D02*
X52214285Y-70995295D01*
X52214285Y-70995295D02*
X52214285Y-71138152D01*
X52214285Y-71138152D02*
X52166666Y-71233390D01*
X52166666Y-71233390D02*
X52119047Y-71281009D01*
X52119047Y-71281009D02*
X52023809Y-71328628D01*
X52023809Y-71328628D02*
X51642857Y-71328628D01*
X52690476Y-71804819D02*
X52880952Y-71804819D01*
X52880952Y-71804819D02*
X52976190Y-71757200D01*
X52976190Y-71757200D02*
X53023809Y-71709580D01*
X53023809Y-71709580D02*
X53119047Y-71566723D01*
X53119047Y-71566723D02*
X53166666Y-71376247D01*
X53166666Y-71376247D02*
X53166666Y-70995295D01*
X53166666Y-70995295D02*
X53119047Y-70900057D01*
X53119047Y-70900057D02*
X53071428Y-70852438D01*
X53071428Y-70852438D02*
X52976190Y-70804819D01*
X52976190Y-70804819D02*
X52785714Y-70804819D01*
X52785714Y-70804819D02*
X52690476Y-70852438D01*
X52690476Y-70852438D02*
X52642857Y-70900057D01*
X52642857Y-70900057D02*
X52595238Y-70995295D01*
X52595238Y-70995295D02*
X52595238Y-71233390D01*
X52595238Y-71233390D02*
X52642857Y-71328628D01*
X52642857Y-71328628D02*
X52690476Y-71376247D01*
X52690476Y-71376247D02*
X52785714Y-71423866D01*
X52785714Y-71423866D02*
X52976190Y-71423866D01*
X52976190Y-71423866D02*
X53071428Y-71376247D01*
X53071428Y-71376247D02*
X53119047Y-71328628D01*
X53119047Y-71328628D02*
X53166666Y-71233390D01*
D10*
X58678571Y-94227149D02*
X58511905Y-93989054D01*
X58392857Y-94227149D02*
X58392857Y-93727149D01*
X58392857Y-93727149D02*
X58583333Y-93727149D01*
X58583333Y-93727149D02*
X58630952Y-93750959D01*
X58630952Y-93750959D02*
X58654762Y-93774768D01*
X58654762Y-93774768D02*
X58678571Y-93822387D01*
X58678571Y-93822387D02*
X58678571Y-93893816D01*
X58678571Y-93893816D02*
X58654762Y-93941435D01*
X58654762Y-93941435D02*
X58630952Y-93965244D01*
X58630952Y-93965244D02*
X58583333Y-93989054D01*
X58583333Y-93989054D02*
X58392857Y-93989054D01*
X59130952Y-93727149D02*
X58892857Y-93727149D01*
X58892857Y-93727149D02*
X58869048Y-93965244D01*
X58869048Y-93965244D02*
X58892857Y-93941435D01*
X58892857Y-93941435D02*
X58940476Y-93917625D01*
X58940476Y-93917625D02*
X59059524Y-93917625D01*
X59059524Y-93917625D02*
X59107143Y-93941435D01*
X59107143Y-93941435D02*
X59130952Y-93965244D01*
X59130952Y-93965244D02*
X59154762Y-94012863D01*
X59154762Y-94012863D02*
X59154762Y-94131911D01*
X59154762Y-94131911D02*
X59130952Y-94179530D01*
X59130952Y-94179530D02*
X59107143Y-94203340D01*
X59107143Y-94203340D02*
X59059524Y-94227149D01*
X59059524Y-94227149D02*
X58940476Y-94227149D01*
X58940476Y-94227149D02*
X58892857Y-94203340D01*
X58892857Y-94203340D02*
X58869048Y-94179530D01*
X59630952Y-94227149D02*
X59345238Y-94227149D01*
X59488095Y-94227149D02*
X59488095Y-93727149D01*
X59488095Y-93727149D02*
X59440476Y-93798578D01*
X59440476Y-93798578D02*
X59392857Y-93846197D01*
X59392857Y-93846197D02*
X59345238Y-93870006D01*
X49678571Y-94227149D02*
X49511905Y-93989054D01*
X49392857Y-94227149D02*
X49392857Y-93727149D01*
X49392857Y-93727149D02*
X49583333Y-93727149D01*
X49583333Y-93727149D02*
X49630952Y-93750959D01*
X49630952Y-93750959D02*
X49654762Y-93774768D01*
X49654762Y-93774768D02*
X49678571Y-93822387D01*
X49678571Y-93822387D02*
X49678571Y-93893816D01*
X49678571Y-93893816D02*
X49654762Y-93941435D01*
X49654762Y-93941435D02*
X49630952Y-93965244D01*
X49630952Y-93965244D02*
X49583333Y-93989054D01*
X49583333Y-93989054D02*
X49392857Y-93989054D01*
X50130952Y-93727149D02*
X49892857Y-93727149D01*
X49892857Y-93727149D02*
X49869048Y-93965244D01*
X49869048Y-93965244D02*
X49892857Y-93941435D01*
X49892857Y-93941435D02*
X49940476Y-93917625D01*
X49940476Y-93917625D02*
X50059524Y-93917625D01*
X50059524Y-93917625D02*
X50107143Y-93941435D01*
X50107143Y-93941435D02*
X50130952Y-93965244D01*
X50130952Y-93965244D02*
X50154762Y-94012863D01*
X50154762Y-94012863D02*
X50154762Y-94131911D01*
X50154762Y-94131911D02*
X50130952Y-94179530D01*
X50130952Y-94179530D02*
X50107143Y-94203340D01*
X50107143Y-94203340D02*
X50059524Y-94227149D01*
X50059524Y-94227149D02*
X49940476Y-94227149D01*
X49940476Y-94227149D02*
X49892857Y-94203340D01*
X49892857Y-94203340D02*
X49869048Y-94179530D01*
X50464285Y-93727149D02*
X50511904Y-93727149D01*
X50511904Y-93727149D02*
X50559523Y-93750959D01*
X50559523Y-93750959D02*
X50583333Y-93774768D01*
X50583333Y-93774768D02*
X50607142Y-93822387D01*
X50607142Y-93822387D02*
X50630952Y-93917625D01*
X50630952Y-93917625D02*
X50630952Y-94036673D01*
X50630952Y-94036673D02*
X50607142Y-94131911D01*
X50607142Y-94131911D02*
X50583333Y-94179530D01*
X50583333Y-94179530D02*
X50559523Y-94203340D01*
X50559523Y-94203340D02*
X50511904Y-94227149D01*
X50511904Y-94227149D02*
X50464285Y-94227149D01*
X50464285Y-94227149D02*
X50416666Y-94203340D01*
X50416666Y-94203340D02*
X50392857Y-94179530D01*
X50392857Y-94179530D02*
X50369047Y-94131911D01*
X50369047Y-94131911D02*
X50345238Y-94036673D01*
X50345238Y-94036673D02*
X50345238Y-93917625D01*
X50345238Y-93917625D02*
X50369047Y-93822387D01*
X50369047Y-93822387D02*
X50392857Y-93774768D01*
X50392857Y-93774768D02*
X50416666Y-93750959D01*
X50416666Y-93750959D02*
X50464285Y-93727149D01*
X78678571Y-60227149D02*
X78511905Y-59989054D01*
X78392857Y-60227149D02*
X78392857Y-59727149D01*
X78392857Y-59727149D02*
X78583333Y-59727149D01*
X78583333Y-59727149D02*
X78630952Y-59750959D01*
X78630952Y-59750959D02*
X78654762Y-59774768D01*
X78654762Y-59774768D02*
X78678571Y-59822387D01*
X78678571Y-59822387D02*
X78678571Y-59893816D01*
X78678571Y-59893816D02*
X78654762Y-59941435D01*
X78654762Y-59941435D02*
X78630952Y-59965244D01*
X78630952Y-59965244D02*
X78583333Y-59989054D01*
X78583333Y-59989054D02*
X78392857Y-59989054D01*
X79107143Y-59893816D02*
X79107143Y-60227149D01*
X78988095Y-59703340D02*
X78869048Y-60060482D01*
X78869048Y-60060482D02*
X79178571Y-60060482D01*
X79345238Y-59774768D02*
X79369047Y-59750959D01*
X79369047Y-59750959D02*
X79416666Y-59727149D01*
X79416666Y-59727149D02*
X79535714Y-59727149D01*
X79535714Y-59727149D02*
X79583333Y-59750959D01*
X79583333Y-59750959D02*
X79607142Y-59774768D01*
X79607142Y-59774768D02*
X79630952Y-59822387D01*
X79630952Y-59822387D02*
X79630952Y-59870006D01*
X79630952Y-59870006D02*
X79607142Y-59941435D01*
X79607142Y-59941435D02*
X79321428Y-60227149D01*
X79321428Y-60227149D02*
X79630952Y-60227149D01*
X67678571Y-46227149D02*
X67511905Y-45989054D01*
X67392857Y-46227149D02*
X67392857Y-45727149D01*
X67392857Y-45727149D02*
X67583333Y-45727149D01*
X67583333Y-45727149D02*
X67630952Y-45750959D01*
X67630952Y-45750959D02*
X67654762Y-45774768D01*
X67654762Y-45774768D02*
X67678571Y-45822387D01*
X67678571Y-45822387D02*
X67678571Y-45893816D01*
X67678571Y-45893816D02*
X67654762Y-45941435D01*
X67654762Y-45941435D02*
X67630952Y-45965244D01*
X67630952Y-45965244D02*
X67583333Y-45989054D01*
X67583333Y-45989054D02*
X67392857Y-45989054D01*
X68154762Y-46227149D02*
X67869048Y-46227149D01*
X68011905Y-46227149D02*
X68011905Y-45727149D01*
X68011905Y-45727149D02*
X67964286Y-45798578D01*
X67964286Y-45798578D02*
X67916667Y-45846197D01*
X67916667Y-45846197D02*
X67869048Y-45870006D01*
X68630952Y-46227149D02*
X68345238Y-46227149D01*
X68488095Y-46227149D02*
X68488095Y-45727149D01*
X68488095Y-45727149D02*
X68440476Y-45798578D01*
X68440476Y-45798578D02*
X68392857Y-45846197D01*
X68392857Y-45846197D02*
X68345238Y-45870006D01*
X52678571Y-42179530D02*
X52654762Y-42203340D01*
X52654762Y-42203340D02*
X52583333Y-42227149D01*
X52583333Y-42227149D02*
X52535714Y-42227149D01*
X52535714Y-42227149D02*
X52464286Y-42203340D01*
X52464286Y-42203340D02*
X52416667Y-42155720D01*
X52416667Y-42155720D02*
X52392857Y-42108101D01*
X52392857Y-42108101D02*
X52369048Y-42012863D01*
X52369048Y-42012863D02*
X52369048Y-41941435D01*
X52369048Y-41941435D02*
X52392857Y-41846197D01*
X52392857Y-41846197D02*
X52416667Y-41798578D01*
X52416667Y-41798578D02*
X52464286Y-41750959D01*
X52464286Y-41750959D02*
X52535714Y-41727149D01*
X52535714Y-41727149D02*
X52583333Y-41727149D01*
X52583333Y-41727149D02*
X52654762Y-41750959D01*
X52654762Y-41750959D02*
X52678571Y-41774768D01*
X52869048Y-41774768D02*
X52892857Y-41750959D01*
X52892857Y-41750959D02*
X52940476Y-41727149D01*
X52940476Y-41727149D02*
X53059524Y-41727149D01*
X53059524Y-41727149D02*
X53107143Y-41750959D01*
X53107143Y-41750959D02*
X53130952Y-41774768D01*
X53130952Y-41774768D02*
X53154762Y-41822387D01*
X53154762Y-41822387D02*
X53154762Y-41870006D01*
X53154762Y-41870006D02*
X53130952Y-41941435D01*
X53130952Y-41941435D02*
X52845238Y-42227149D01*
X52845238Y-42227149D02*
X53154762Y-42227149D01*
X53345238Y-41774768D02*
X53369047Y-41750959D01*
X53369047Y-41750959D02*
X53416666Y-41727149D01*
X53416666Y-41727149D02*
X53535714Y-41727149D01*
X53535714Y-41727149D02*
X53583333Y-41750959D01*
X53583333Y-41750959D02*
X53607142Y-41774768D01*
X53607142Y-41774768D02*
X53630952Y-41822387D01*
X53630952Y-41822387D02*
X53630952Y-41870006D01*
X53630952Y-41870006D02*
X53607142Y-41941435D01*
X53607142Y-41941435D02*
X53321428Y-42227149D01*
X53321428Y-42227149D02*
X53630952Y-42227149D01*
D11*
X19738095Y-4804819D02*
X20309523Y-4804819D01*
X20023809Y-5804819D02*
X20023809Y-4804819D01*
X20642857Y-5804819D02*
X20642857Y-4804819D01*
X20642857Y-4804819D02*
X21023809Y-4804819D01*
X21023809Y-4804819D02*
X21119047Y-4852438D01*
X21119047Y-4852438D02*
X21166666Y-4900057D01*
X21166666Y-4900057D02*
X21214285Y-4995295D01*
X21214285Y-4995295D02*
X21214285Y-5138152D01*
X21214285Y-5138152D02*
X21166666Y-5233390D01*
X21166666Y-5233390D02*
X21119047Y-5281009D01*
X21119047Y-5281009D02*
X21023809Y-5328628D01*
X21023809Y-5328628D02*
X20642857Y-5328628D01*
X22166666Y-5804819D02*
X21595238Y-5804819D01*
X21880952Y-5804819D02*
X21880952Y-4804819D01*
X21880952Y-4804819D02*
X21785714Y-4947676D01*
X21785714Y-4947676D02*
X21690476Y-5042914D01*
X21690476Y-5042914D02*
X21595238Y-5090533D01*
D12*
X61607365Y-66891428D02*
X62190222Y-66891428D01*
X62190222Y-66891428D02*
X62258794Y-66857142D01*
X62258794Y-66857142D02*
X62293080Y-66822857D01*
X62293080Y-66822857D02*
X62327365Y-66754285D01*
X62327365Y-66754285D02*
X62327365Y-66617142D01*
X62327365Y-66617142D02*
X62293080Y-66548571D01*
X62293080Y-66548571D02*
X62258794Y-66514285D01*
X62258794Y-66514285D02*
X62190222Y-66479999D01*
X62190222Y-66479999D02*
X61607365Y-66479999D01*
X61847365Y-65828571D02*
X62327365Y-65828571D01*
X61573080Y-65999999D02*
X62087365Y-66171428D01*
X62087365Y-66171428D02*
X62087365Y-65725713D01*
X61607365Y-65314285D02*
X61607365Y-65245714D01*
X61607365Y-65245714D02*
X61641651Y-65177142D01*
X61641651Y-65177142D02*
X61675937Y-65142857D01*
X61675937Y-65142857D02*
X61744508Y-65108571D01*
X61744508Y-65108571D02*
X61881651Y-65074285D01*
X61881651Y-65074285D02*
X62053080Y-65074285D01*
X62053080Y-65074285D02*
X62190222Y-65108571D01*
X62190222Y-65108571D02*
X62258794Y-65142857D01*
X62258794Y-65142857D02*
X62293080Y-65177142D01*
X62293080Y-65177142D02*
X62327365Y-65245714D01*
X62327365Y-65245714D02*
X62327365Y-65314285D01*
X62327365Y-65314285D02*
X62293080Y-65382857D01*
X62293080Y-65382857D02*
X62258794Y-65417142D01*
X62258794Y-65417142D02*
X62190222Y-65451428D01*
X62190222Y-65451428D02*
X62053080Y-65485714D01*
X62053080Y-65485714D02*
X61881651Y-65485714D01*
X61881651Y-65485714D02*
X61744508Y-65451428D01*
X61744508Y-65451428D02*
X61675937Y-65417142D01*
X61675937Y-65417142D02*
X61641651Y-65382857D01*
X61641651Y-65382857D02*
X61607365Y-65314285D01*
D11*
X7454819Y-48809523D02*
X8169104Y-48809523D01*
X8169104Y-48809523D02*
X8311961Y-48857142D01*
X8311961Y-48857142D02*
X8407200Y-48952380D01*
X8407200Y-48952380D02*
X8454819Y-49095237D01*
X8454819Y-49095237D02*
X8454819Y-49190475D01*
X7550057Y-48380951D02*
X7502438Y-48333332D01*
X7502438Y-48333332D02*
X7454819Y-48238094D01*
X7454819Y-48238094D02*
X7454819Y-47999999D01*
X7454819Y-47999999D02*
X7502438Y-47904761D01*
X7502438Y-47904761D02*
X7550057Y-47857142D01*
X7550057Y-47857142D02*
X7645295Y-47809523D01*
X7645295Y-47809523D02*
X7740533Y-47809523D01*
X7740533Y-47809523D02*
X7883390Y-47857142D01*
X7883390Y-47857142D02*
X8454819Y-48428570D01*
X8454819Y-48428570D02*
X8454819Y-47809523D01*
X7788152Y-46952380D02*
X8454819Y-46952380D01*
X7407200Y-47190475D02*
X8121485Y-47428570D01*
X8121485Y-47428570D02*
X8121485Y-46809523D01*
X16454819Y-68048094D02*
X17264342Y-68048094D01*
X17264342Y-68048094D02*
X17359580Y-68000475D01*
X17359580Y-68000475D02*
X17407200Y-67952856D01*
X17407200Y-67952856D02*
X17454819Y-67857618D01*
X17454819Y-67857618D02*
X17454819Y-67667142D01*
X17454819Y-67667142D02*
X17407200Y-67571904D01*
X17407200Y-67571904D02*
X17359580Y-67524285D01*
X17359580Y-67524285D02*
X17264342Y-67476666D01*
X17264342Y-67476666D02*
X16454819Y-67476666D01*
X16454819Y-67095713D02*
X16454819Y-66476666D01*
X16454819Y-66476666D02*
X16835771Y-66809999D01*
X16835771Y-66809999D02*
X16835771Y-66667142D01*
X16835771Y-66667142D02*
X16883390Y-66571904D01*
X16883390Y-66571904D02*
X16931009Y-66524285D01*
X16931009Y-66524285D02*
X17026247Y-66476666D01*
X17026247Y-66476666D02*
X17264342Y-66476666D01*
X17264342Y-66476666D02*
X17359580Y-66524285D01*
X17359580Y-66524285D02*
X17407200Y-66571904D01*
X17407200Y-66571904D02*
X17454819Y-66667142D01*
X17454819Y-66667142D02*
X17454819Y-66952856D01*
X17454819Y-66952856D02*
X17407200Y-67048094D01*
X17407200Y-67048094D02*
X17359580Y-67095713D01*
X16454819Y-65857618D02*
X16454819Y-65762380D01*
X16454819Y-65762380D02*
X16502438Y-65667142D01*
X16502438Y-65667142D02*
X16550057Y-65619523D01*
X16550057Y-65619523D02*
X16645295Y-65571904D01*
X16645295Y-65571904D02*
X16835771Y-65524285D01*
X16835771Y-65524285D02*
X17073866Y-65524285D01*
X17073866Y-65524285D02*
X17264342Y-65571904D01*
X17264342Y-65571904D02*
X17359580Y-65619523D01*
X17359580Y-65619523D02*
X17407200Y-65667142D01*
X17407200Y-65667142D02*
X17454819Y-65762380D01*
X17454819Y-65762380D02*
X17454819Y-65857618D01*
X17454819Y-65857618D02*
X17407200Y-65952856D01*
X17407200Y-65952856D02*
X17359580Y-66000475D01*
X17359580Y-66000475D02*
X17264342Y-66048094D01*
X17264342Y-66048094D02*
X17073866Y-66095713D01*
X17073866Y-66095713D02*
X16835771Y-66095713D01*
X16835771Y-66095713D02*
X16645295Y-66048094D01*
X16645295Y-66048094D02*
X16550057Y-66000475D01*
X16550057Y-66000475D02*
X16502438Y-65952856D01*
X16502438Y-65952856D02*
X16454819Y-65857618D01*
X91261905Y-53804819D02*
X91833333Y-53804819D01*
X91547619Y-54804819D02*
X91547619Y-53804819D01*
X92166667Y-54804819D02*
X92166667Y-53804819D01*
X92166667Y-53804819D02*
X92547619Y-53804819D01*
X92547619Y-53804819D02*
X92642857Y-53852438D01*
X92642857Y-53852438D02*
X92690476Y-53900057D01*
X92690476Y-53900057D02*
X92738095Y-53995295D01*
X92738095Y-53995295D02*
X92738095Y-54138152D01*
X92738095Y-54138152D02*
X92690476Y-54233390D01*
X92690476Y-54233390D02*
X92642857Y-54281009D01*
X92642857Y-54281009D02*
X92547619Y-54328628D01*
X92547619Y-54328628D02*
X92166667Y-54328628D01*
X93690476Y-54804819D02*
X93119048Y-54804819D01*
X93404762Y-54804819D02*
X93404762Y-53804819D01*
X93404762Y-53804819D02*
X93309524Y-53947676D01*
X93309524Y-53947676D02*
X93214286Y-54042914D01*
X93214286Y-54042914D02*
X93119048Y-54090533D01*
X94309524Y-53804819D02*
X94404762Y-53804819D01*
X94404762Y-53804819D02*
X94500000Y-53852438D01*
X94500000Y-53852438D02*
X94547619Y-53900057D01*
X94547619Y-53900057D02*
X94595238Y-53995295D01*
X94595238Y-53995295D02*
X94642857Y-54185771D01*
X94642857Y-54185771D02*
X94642857Y-54423866D01*
X94642857Y-54423866D02*
X94595238Y-54614342D01*
X94595238Y-54614342D02*
X94547619Y-54709580D01*
X94547619Y-54709580D02*
X94500000Y-54757200D01*
X94500000Y-54757200D02*
X94404762Y-54804819D01*
X94404762Y-54804819D02*
X94309524Y-54804819D01*
X94309524Y-54804819D02*
X94214286Y-54757200D01*
X94214286Y-54757200D02*
X94166667Y-54709580D01*
X94166667Y-54709580D02*
X94119048Y-54614342D01*
X94119048Y-54614342D02*
X94071429Y-54423866D01*
X94071429Y-54423866D02*
X94071429Y-54185771D01*
X94071429Y-54185771D02*
X94119048Y-53995295D01*
X94119048Y-53995295D02*
X94166667Y-53900057D01*
X94166667Y-53900057D02*
X94214286Y-53852438D01*
X94214286Y-53852438D02*
X94309524Y-53804819D01*
X38261905Y-81804819D02*
X38833333Y-81804819D01*
X38547619Y-82804819D02*
X38547619Y-81804819D01*
X39166667Y-82804819D02*
X39166667Y-81804819D01*
X39166667Y-81804819D02*
X39547619Y-81804819D01*
X39547619Y-81804819D02*
X39642857Y-81852438D01*
X39642857Y-81852438D02*
X39690476Y-81900057D01*
X39690476Y-81900057D02*
X39738095Y-81995295D01*
X39738095Y-81995295D02*
X39738095Y-82138152D01*
X39738095Y-82138152D02*
X39690476Y-82233390D01*
X39690476Y-82233390D02*
X39642857Y-82281009D01*
X39642857Y-82281009D02*
X39547619Y-82328628D01*
X39547619Y-82328628D02*
X39166667Y-82328628D01*
X40690476Y-82804819D02*
X40119048Y-82804819D01*
X40404762Y-82804819D02*
X40404762Y-81804819D01*
X40404762Y-81804819D02*
X40309524Y-81947676D01*
X40309524Y-81947676D02*
X40214286Y-82042914D01*
X40214286Y-82042914D02*
X40119048Y-82090533D01*
X41547619Y-82138152D02*
X41547619Y-82804819D01*
X41309524Y-81757200D02*
X41071429Y-82471485D01*
X41071429Y-82471485D02*
X41690476Y-82471485D01*
X82761905Y-30854819D02*
X82761905Y-31664342D01*
X82761905Y-31664342D02*
X82809524Y-31759580D01*
X82809524Y-31759580D02*
X82857143Y-31807200D01*
X82857143Y-31807200D02*
X82952381Y-31854819D01*
X82952381Y-31854819D02*
X83142857Y-31854819D01*
X83142857Y-31854819D02*
X83238095Y-31807200D01*
X83238095Y-31807200D02*
X83285714Y-31759580D01*
X83285714Y-31759580D02*
X83333333Y-31664342D01*
X83333333Y-31664342D02*
X83333333Y-30854819D01*
X84333333Y-31854819D02*
X83761905Y-31854819D01*
X84047619Y-31854819D02*
X84047619Y-30854819D01*
X84047619Y-30854819D02*
X83952381Y-30997676D01*
X83952381Y-30997676D02*
X83857143Y-31092914D01*
X83857143Y-31092914D02*
X83761905Y-31140533D01*
X84952381Y-30854819D02*
X85047619Y-30854819D01*
X85047619Y-30854819D02*
X85142857Y-30902438D01*
X85142857Y-30902438D02*
X85190476Y-30950057D01*
X85190476Y-30950057D02*
X85238095Y-31045295D01*
X85238095Y-31045295D02*
X85285714Y-31235771D01*
X85285714Y-31235771D02*
X85285714Y-31473866D01*
X85285714Y-31473866D02*
X85238095Y-31664342D01*
X85238095Y-31664342D02*
X85190476Y-31759580D01*
X85190476Y-31759580D02*
X85142857Y-31807200D01*
X85142857Y-31807200D02*
X85047619Y-31854819D01*
X85047619Y-31854819D02*
X84952381Y-31854819D01*
X84952381Y-31854819D02*
X84857143Y-31807200D01*
X84857143Y-31807200D02*
X84809524Y-31759580D01*
X84809524Y-31759580D02*
X84761905Y-31664342D01*
X84761905Y-31664342D02*
X84714286Y-31473866D01*
X84714286Y-31473866D02*
X84714286Y-31235771D01*
X84714286Y-31235771D02*
X84761905Y-31045295D01*
X84761905Y-31045295D02*
X84809524Y-30950057D01*
X84809524Y-30950057D02*
X84857143Y-30902438D01*
X84857143Y-30902438D02*
X84952381Y-30854819D01*
X56666667Y-57207200D02*
X56809524Y-57254819D01*
X56809524Y-57254819D02*
X57047619Y-57254819D01*
X57047619Y-57254819D02*
X57142857Y-57207200D01*
X57142857Y-57207200D02*
X57190476Y-57159580D01*
X57190476Y-57159580D02*
X57238095Y-57064342D01*
X57238095Y-57064342D02*
X57238095Y-56969104D01*
X57238095Y-56969104D02*
X57190476Y-56873866D01*
X57190476Y-56873866D02*
X57142857Y-56826247D01*
X57142857Y-56826247D02*
X57047619Y-56778628D01*
X57047619Y-56778628D02*
X56857143Y-56731009D01*
X56857143Y-56731009D02*
X56761905Y-56683390D01*
X56761905Y-56683390D02*
X56714286Y-56635771D01*
X56714286Y-56635771D02*
X56666667Y-56540533D01*
X56666667Y-56540533D02*
X56666667Y-56445295D01*
X56666667Y-56445295D02*
X56714286Y-56350057D01*
X56714286Y-56350057D02*
X56761905Y-56302438D01*
X56761905Y-56302438D02*
X56857143Y-56254819D01*
X56857143Y-56254819D02*
X57095238Y-56254819D01*
X57095238Y-56254819D02*
X57238095Y-56302438D01*
X57571429Y-56254819D02*
X57809524Y-57254819D01*
X57809524Y-57254819D02*
X58000000Y-56540533D01*
X58000000Y-56540533D02*
X58190476Y-57254819D01*
X58190476Y-57254819D02*
X58428572Y-56254819D01*
X59333333Y-57254819D02*
X58761905Y-57254819D01*
X59047619Y-57254819D02*
X59047619Y-56254819D01*
X59047619Y-56254819D02*
X58952381Y-56397676D01*
X58952381Y-56397676D02*
X58857143Y-56492914D01*
X58857143Y-56492914D02*
X58761905Y-56540533D01*
X108454819Y-44159523D02*
X109169104Y-44159523D01*
X109169104Y-44159523D02*
X109311961Y-44207142D01*
X109311961Y-44207142D02*
X109407200Y-44302380D01*
X109407200Y-44302380D02*
X109454819Y-44445237D01*
X109454819Y-44445237D02*
X109454819Y-44540475D01*
X109454819Y-43159523D02*
X109454819Y-43730951D01*
X109454819Y-43445237D02*
X108454819Y-43445237D01*
X108454819Y-43445237D02*
X108597676Y-43540475D01*
X108597676Y-43540475D02*
X108692914Y-43635713D01*
X108692914Y-43635713D02*
X108740533Y-43730951D01*
X108550057Y-42778570D02*
X108502438Y-42730951D01*
X108502438Y-42730951D02*
X108454819Y-42635713D01*
X108454819Y-42635713D02*
X108454819Y-42397618D01*
X108454819Y-42397618D02*
X108502438Y-42302380D01*
X108502438Y-42302380D02*
X108550057Y-42254761D01*
X108550057Y-42254761D02*
X108645295Y-42207142D01*
X108645295Y-42207142D02*
X108740533Y-42207142D01*
X108740533Y-42207142D02*
X108883390Y-42254761D01*
X108883390Y-42254761D02*
X109454819Y-42826189D01*
X109454819Y-42826189D02*
X109454819Y-42207142D01*
D10*
X85678571Y-56227149D02*
X85511905Y-55989054D01*
X85392857Y-56227149D02*
X85392857Y-55727149D01*
X85392857Y-55727149D02*
X85583333Y-55727149D01*
X85583333Y-55727149D02*
X85630952Y-55750959D01*
X85630952Y-55750959D02*
X85654762Y-55774768D01*
X85654762Y-55774768D02*
X85678571Y-55822387D01*
X85678571Y-55822387D02*
X85678571Y-55893816D01*
X85678571Y-55893816D02*
X85654762Y-55941435D01*
X85654762Y-55941435D02*
X85630952Y-55965244D01*
X85630952Y-55965244D02*
X85583333Y-55989054D01*
X85583333Y-55989054D02*
X85392857Y-55989054D01*
X86107143Y-55893816D02*
X86107143Y-56227149D01*
X85988095Y-55703340D02*
X85869048Y-56060482D01*
X85869048Y-56060482D02*
X86178571Y-56060482D01*
X86630952Y-56227149D02*
X86345238Y-56227149D01*
X86488095Y-56227149D02*
X86488095Y-55727149D01*
X86488095Y-55727149D02*
X86440476Y-55798578D01*
X86440476Y-55798578D02*
X86392857Y-55846197D01*
X86392857Y-55846197D02*
X86345238Y-55870006D01*
D11*
X32833333Y-24359580D02*
X32785714Y-24407200D01*
X32785714Y-24407200D02*
X32642857Y-24454819D01*
X32642857Y-24454819D02*
X32547619Y-24454819D01*
X32547619Y-24454819D02*
X32404762Y-24407200D01*
X32404762Y-24407200D02*
X32309524Y-24311961D01*
X32309524Y-24311961D02*
X32261905Y-24216723D01*
X32261905Y-24216723D02*
X32214286Y-24026247D01*
X32214286Y-24026247D02*
X32214286Y-23883390D01*
X32214286Y-23883390D02*
X32261905Y-23692914D01*
X32261905Y-23692914D02*
X32309524Y-23597676D01*
X32309524Y-23597676D02*
X32404762Y-23502438D01*
X32404762Y-23502438D02*
X32547619Y-23454819D01*
X32547619Y-23454819D02*
X32642857Y-23454819D01*
X32642857Y-23454819D02*
X32785714Y-23502438D01*
X32785714Y-23502438D02*
X32833333Y-23550057D01*
X33785714Y-24454819D02*
X33214286Y-24454819D01*
X33500000Y-24454819D02*
X33500000Y-23454819D01*
X33500000Y-23454819D02*
X33404762Y-23597676D01*
X33404762Y-23597676D02*
X33309524Y-23692914D01*
X33309524Y-23692914D02*
X33214286Y-23740533D01*
X91261905Y-61804819D02*
X91833333Y-61804819D01*
X91547619Y-62804819D02*
X91547619Y-61804819D01*
X92166667Y-62804819D02*
X92166667Y-61804819D01*
X92166667Y-61804819D02*
X92547619Y-61804819D01*
X92547619Y-61804819D02*
X92642857Y-61852438D01*
X92642857Y-61852438D02*
X92690476Y-61900057D01*
X92690476Y-61900057D02*
X92738095Y-61995295D01*
X92738095Y-61995295D02*
X92738095Y-62138152D01*
X92738095Y-62138152D02*
X92690476Y-62233390D01*
X92690476Y-62233390D02*
X92642857Y-62281009D01*
X92642857Y-62281009D02*
X92547619Y-62328628D01*
X92547619Y-62328628D02*
X92166667Y-62328628D01*
X93690476Y-62804819D02*
X93119048Y-62804819D01*
X93404762Y-62804819D02*
X93404762Y-61804819D01*
X93404762Y-61804819D02*
X93309524Y-61947676D01*
X93309524Y-61947676D02*
X93214286Y-62042914D01*
X93214286Y-62042914D02*
X93119048Y-62090533D01*
X94071429Y-61900057D02*
X94119048Y-61852438D01*
X94119048Y-61852438D02*
X94214286Y-61804819D01*
X94214286Y-61804819D02*
X94452381Y-61804819D01*
X94452381Y-61804819D02*
X94547619Y-61852438D01*
X94547619Y-61852438D02*
X94595238Y-61900057D01*
X94595238Y-61900057D02*
X94642857Y-61995295D01*
X94642857Y-61995295D02*
X94642857Y-62090533D01*
X94642857Y-62090533D02*
X94595238Y-62233390D01*
X94595238Y-62233390D02*
X94023810Y-62804819D01*
X94023810Y-62804819D02*
X94642857Y-62804819D01*
X86540476Y-85454819D02*
X86540476Y-86169104D01*
X86540476Y-86169104D02*
X86492857Y-86311961D01*
X86492857Y-86311961D02*
X86397619Y-86407200D01*
X86397619Y-86407200D02*
X86254762Y-86454819D01*
X86254762Y-86454819D02*
X86159524Y-86454819D01*
X87445238Y-85788152D02*
X87445238Y-86454819D01*
X87207143Y-85407200D02*
X86969048Y-86121485D01*
X86969048Y-86121485D02*
X87588095Y-86121485D01*
X87873810Y-85454819D02*
X88540476Y-85454819D01*
X88540476Y-85454819D02*
X88111905Y-86454819D01*
X42357142Y-42359580D02*
X42309523Y-42407200D01*
X42309523Y-42407200D02*
X42166666Y-42454819D01*
X42166666Y-42454819D02*
X42071428Y-42454819D01*
X42071428Y-42454819D02*
X41928571Y-42407200D01*
X41928571Y-42407200D02*
X41833333Y-42311961D01*
X41833333Y-42311961D02*
X41785714Y-42216723D01*
X41785714Y-42216723D02*
X41738095Y-42026247D01*
X41738095Y-42026247D02*
X41738095Y-41883390D01*
X41738095Y-41883390D02*
X41785714Y-41692914D01*
X41785714Y-41692914D02*
X41833333Y-41597676D01*
X41833333Y-41597676D02*
X41928571Y-41502438D01*
X41928571Y-41502438D02*
X42071428Y-41454819D01*
X42071428Y-41454819D02*
X42166666Y-41454819D01*
X42166666Y-41454819D02*
X42309523Y-41502438D01*
X42309523Y-41502438D02*
X42357142Y-41550057D01*
X42738095Y-41550057D02*
X42785714Y-41502438D01*
X42785714Y-41502438D02*
X42880952Y-41454819D01*
X42880952Y-41454819D02*
X43119047Y-41454819D01*
X43119047Y-41454819D02*
X43214285Y-41502438D01*
X43214285Y-41502438D02*
X43261904Y-41550057D01*
X43261904Y-41550057D02*
X43309523Y-41645295D01*
X43309523Y-41645295D02*
X43309523Y-41740533D01*
X43309523Y-41740533D02*
X43261904Y-41883390D01*
X43261904Y-41883390D02*
X42690476Y-42454819D01*
X42690476Y-42454819D02*
X43309523Y-42454819D01*
X44261904Y-42454819D02*
X43690476Y-42454819D01*
X43976190Y-42454819D02*
X43976190Y-41454819D01*
X43976190Y-41454819D02*
X43880952Y-41597676D01*
X43880952Y-41597676D02*
X43785714Y-41692914D01*
X43785714Y-41692914D02*
X43690476Y-41740533D01*
D10*
X52392857Y-96227149D02*
X52392857Y-95727149D01*
X52392857Y-95727149D02*
X52511905Y-95727149D01*
X52511905Y-95727149D02*
X52583333Y-95750959D01*
X52583333Y-95750959D02*
X52630952Y-95798578D01*
X52630952Y-95798578D02*
X52654762Y-95846197D01*
X52654762Y-95846197D02*
X52678571Y-95941435D01*
X52678571Y-95941435D02*
X52678571Y-96012863D01*
X52678571Y-96012863D02*
X52654762Y-96108101D01*
X52654762Y-96108101D02*
X52630952Y-96155720D01*
X52630952Y-96155720D02*
X52583333Y-96203340D01*
X52583333Y-96203340D02*
X52511905Y-96227149D01*
X52511905Y-96227149D02*
X52392857Y-96227149D01*
X53130952Y-95727149D02*
X52892857Y-95727149D01*
X52892857Y-95727149D02*
X52869048Y-95965244D01*
X52869048Y-95965244D02*
X52892857Y-95941435D01*
X52892857Y-95941435D02*
X52940476Y-95917625D01*
X52940476Y-95917625D02*
X53059524Y-95917625D01*
X53059524Y-95917625D02*
X53107143Y-95941435D01*
X53107143Y-95941435D02*
X53130952Y-95965244D01*
X53130952Y-95965244D02*
X53154762Y-96012863D01*
X53154762Y-96012863D02*
X53154762Y-96131911D01*
X53154762Y-96131911D02*
X53130952Y-96179530D01*
X53130952Y-96179530D02*
X53107143Y-96203340D01*
X53107143Y-96203340D02*
X53059524Y-96227149D01*
X53059524Y-96227149D02*
X52940476Y-96227149D01*
X52940476Y-96227149D02*
X52892857Y-96203340D01*
X52892857Y-96203340D02*
X52869048Y-96179530D01*
X53464285Y-95727149D02*
X53511904Y-95727149D01*
X53511904Y-95727149D02*
X53559523Y-95750959D01*
X53559523Y-95750959D02*
X53583333Y-95774768D01*
X53583333Y-95774768D02*
X53607142Y-95822387D01*
X53607142Y-95822387D02*
X53630952Y-95917625D01*
X53630952Y-95917625D02*
X53630952Y-96036673D01*
X53630952Y-96036673D02*
X53607142Y-96131911D01*
X53607142Y-96131911D02*
X53583333Y-96179530D01*
X53583333Y-96179530D02*
X53559523Y-96203340D01*
X53559523Y-96203340D02*
X53511904Y-96227149D01*
X53511904Y-96227149D02*
X53464285Y-96227149D01*
X53464285Y-96227149D02*
X53416666Y-96203340D01*
X53416666Y-96203340D02*
X53392857Y-96179530D01*
X53392857Y-96179530D02*
X53369047Y-96131911D01*
X53369047Y-96131911D02*
X53345238Y-96036673D01*
X53345238Y-96036673D02*
X53345238Y-95917625D01*
X53345238Y-95917625D02*
X53369047Y-95822387D01*
X53369047Y-95822387D02*
X53392857Y-95774768D01*
X53392857Y-95774768D02*
X53416666Y-95750959D01*
X53416666Y-95750959D02*
X53464285Y-95727149D01*
D11*
X112666667Y-94454819D02*
X112666667Y-93454819D01*
X112666667Y-93454819D02*
X113000000Y-94169104D01*
X113000000Y-94169104D02*
X113333333Y-93454819D01*
X113333333Y-93454819D02*
X113333333Y-94454819D01*
X113809524Y-94454819D02*
X113809524Y-93454819D01*
X113809524Y-93931009D02*
X114380952Y-93931009D01*
X114380952Y-94454819D02*
X114380952Y-93454819D01*
X114761905Y-93454819D02*
X115380952Y-93454819D01*
X115380952Y-93454819D02*
X115047619Y-93835771D01*
X115047619Y-93835771D02*
X115190476Y-93835771D01*
X115190476Y-93835771D02*
X115285714Y-93883390D01*
X115285714Y-93883390D02*
X115333333Y-93931009D01*
X115333333Y-93931009D02*
X115380952Y-94026247D01*
X115380952Y-94026247D02*
X115380952Y-94264342D01*
X115380952Y-94264342D02*
X115333333Y-94359580D01*
X115333333Y-94359580D02*
X115285714Y-94407200D01*
X115285714Y-94407200D02*
X115190476Y-94454819D01*
X115190476Y-94454819D02*
X114904762Y-94454819D01*
X114904762Y-94454819D02*
X114809524Y-94407200D01*
X114809524Y-94407200D02*
X114761905Y-94359580D01*
D10*
X41678571Y-63179530D02*
X41654762Y-63203340D01*
X41654762Y-63203340D02*
X41583333Y-63227149D01*
X41583333Y-63227149D02*
X41535714Y-63227149D01*
X41535714Y-63227149D02*
X41464286Y-63203340D01*
X41464286Y-63203340D02*
X41416667Y-63155720D01*
X41416667Y-63155720D02*
X41392857Y-63108101D01*
X41392857Y-63108101D02*
X41369048Y-63012863D01*
X41369048Y-63012863D02*
X41369048Y-62941435D01*
X41369048Y-62941435D02*
X41392857Y-62846197D01*
X41392857Y-62846197D02*
X41416667Y-62798578D01*
X41416667Y-62798578D02*
X41464286Y-62750959D01*
X41464286Y-62750959D02*
X41535714Y-62727149D01*
X41535714Y-62727149D02*
X41583333Y-62727149D01*
X41583333Y-62727149D02*
X41654762Y-62750959D01*
X41654762Y-62750959D02*
X41678571Y-62774768D01*
X41845238Y-62727149D02*
X42154762Y-62727149D01*
X42154762Y-62727149D02*
X41988095Y-62917625D01*
X41988095Y-62917625D02*
X42059524Y-62917625D01*
X42059524Y-62917625D02*
X42107143Y-62941435D01*
X42107143Y-62941435D02*
X42130952Y-62965244D01*
X42130952Y-62965244D02*
X42154762Y-63012863D01*
X42154762Y-63012863D02*
X42154762Y-63131911D01*
X42154762Y-63131911D02*
X42130952Y-63179530D01*
X42130952Y-63179530D02*
X42107143Y-63203340D01*
X42107143Y-63203340D02*
X42059524Y-63227149D01*
X42059524Y-63227149D02*
X41916667Y-63227149D01*
X41916667Y-63227149D02*
X41869048Y-63203340D01*
X41869048Y-63203340D02*
X41845238Y-63179530D01*
X42630952Y-63227149D02*
X42345238Y-63227149D01*
X42488095Y-63227149D02*
X42488095Y-62727149D01*
X42488095Y-62727149D02*
X42440476Y-62798578D01*
X42440476Y-62798578D02*
X42392857Y-62846197D01*
X42392857Y-62846197D02*
X42345238Y-62870006D01*
D11*
X86540476Y-93454819D02*
X86540476Y-94169104D01*
X86540476Y-94169104D02*
X86492857Y-94311961D01*
X86492857Y-94311961D02*
X86397619Y-94407200D01*
X86397619Y-94407200D02*
X86254762Y-94454819D01*
X86254762Y-94454819D02*
X86159524Y-94454819D01*
X87445238Y-93788152D02*
X87445238Y-94454819D01*
X87207143Y-93407200D02*
X86969048Y-94121485D01*
X86969048Y-94121485D02*
X87588095Y-94121485D01*
X88111905Y-93883390D02*
X88016667Y-93835771D01*
X88016667Y-93835771D02*
X87969048Y-93788152D01*
X87969048Y-93788152D02*
X87921429Y-93692914D01*
X87921429Y-93692914D02*
X87921429Y-93645295D01*
X87921429Y-93645295D02*
X87969048Y-93550057D01*
X87969048Y-93550057D02*
X88016667Y-93502438D01*
X88016667Y-93502438D02*
X88111905Y-93454819D01*
X88111905Y-93454819D02*
X88302381Y-93454819D01*
X88302381Y-93454819D02*
X88397619Y-93502438D01*
X88397619Y-93502438D02*
X88445238Y-93550057D01*
X88445238Y-93550057D02*
X88492857Y-93645295D01*
X88492857Y-93645295D02*
X88492857Y-93692914D01*
X88492857Y-93692914D02*
X88445238Y-93788152D01*
X88445238Y-93788152D02*
X88397619Y-93835771D01*
X88397619Y-93835771D02*
X88302381Y-93883390D01*
X88302381Y-93883390D02*
X88111905Y-93883390D01*
X88111905Y-93883390D02*
X88016667Y-93931009D01*
X88016667Y-93931009D02*
X87969048Y-93978628D01*
X87969048Y-93978628D02*
X87921429Y-94073866D01*
X87921429Y-94073866D02*
X87921429Y-94264342D01*
X87921429Y-94264342D02*
X87969048Y-94359580D01*
X87969048Y-94359580D02*
X88016667Y-94407200D01*
X88016667Y-94407200D02*
X88111905Y-94454819D01*
X88111905Y-94454819D02*
X88302381Y-94454819D01*
X88302381Y-94454819D02*
X88397619Y-94407200D01*
X88397619Y-94407200D02*
X88445238Y-94359580D01*
X88445238Y-94359580D02*
X88492857Y-94264342D01*
X88492857Y-94264342D02*
X88492857Y-94073866D01*
X88492857Y-94073866D02*
X88445238Y-93978628D01*
X88445238Y-93978628D02*
X88397619Y-93931009D01*
X88397619Y-93931009D02*
X88302381Y-93883390D01*
X59650476Y-87454819D02*
X59650476Y-88169104D01*
X59650476Y-88169104D02*
X59602857Y-88311961D01*
X59602857Y-88311961D02*
X59507619Y-88407200D01*
X59507619Y-88407200D02*
X59364762Y-88454819D01*
X59364762Y-88454819D02*
X59269524Y-88454819D01*
X60031429Y-87454819D02*
X60650476Y-87454819D01*
X60650476Y-87454819D02*
X60317143Y-87835771D01*
X60317143Y-87835771D02*
X60460000Y-87835771D01*
X60460000Y-87835771D02*
X60555238Y-87883390D01*
X60555238Y-87883390D02*
X60602857Y-87931009D01*
X60602857Y-87931009D02*
X60650476Y-88026247D01*
X60650476Y-88026247D02*
X60650476Y-88264342D01*
X60650476Y-88264342D02*
X60602857Y-88359580D01*
X60602857Y-88359580D02*
X60555238Y-88407200D01*
X60555238Y-88407200D02*
X60460000Y-88454819D01*
X60460000Y-88454819D02*
X60174286Y-88454819D01*
X60174286Y-88454819D02*
X60079048Y-88407200D01*
X60079048Y-88407200D02*
X60031429Y-88359580D01*
X60983810Y-87454819D02*
X61602857Y-87454819D01*
X61602857Y-87454819D02*
X61269524Y-87835771D01*
X61269524Y-87835771D02*
X61412381Y-87835771D01*
X61412381Y-87835771D02*
X61507619Y-87883390D01*
X61507619Y-87883390D02*
X61555238Y-87931009D01*
X61555238Y-87931009D02*
X61602857Y-88026247D01*
X61602857Y-88026247D02*
X61602857Y-88264342D01*
X61602857Y-88264342D02*
X61555238Y-88359580D01*
X61555238Y-88359580D02*
X61507619Y-88407200D01*
X61507619Y-88407200D02*
X61412381Y-88454819D01*
X61412381Y-88454819D02*
X61126667Y-88454819D01*
X61126667Y-88454819D02*
X61031429Y-88407200D01*
X61031429Y-88407200D02*
X60983810Y-88359580D01*
X41954819Y-21738094D02*
X40954819Y-21738094D01*
X40954819Y-21738094D02*
X40954819Y-21499999D01*
X40954819Y-21499999D02*
X41002438Y-21357142D01*
X41002438Y-21357142D02*
X41097676Y-21261904D01*
X41097676Y-21261904D02*
X41192914Y-21214285D01*
X41192914Y-21214285D02*
X41383390Y-21166666D01*
X41383390Y-21166666D02*
X41526247Y-21166666D01*
X41526247Y-21166666D02*
X41716723Y-21214285D01*
X41716723Y-21214285D02*
X41811961Y-21261904D01*
X41811961Y-21261904D02*
X41907200Y-21357142D01*
X41907200Y-21357142D02*
X41954819Y-21499999D01*
X41954819Y-21499999D02*
X41954819Y-21738094D01*
X41954819Y-20214285D02*
X41954819Y-20785713D01*
X41954819Y-20499999D02*
X40954819Y-20499999D01*
X40954819Y-20499999D02*
X41097676Y-20595237D01*
X41097676Y-20595237D02*
X41192914Y-20690475D01*
X41192914Y-20690475D02*
X41240533Y-20785713D01*
X105540476Y-57454819D02*
X105540476Y-58169104D01*
X105540476Y-58169104D02*
X105492857Y-58311961D01*
X105492857Y-58311961D02*
X105397619Y-58407200D01*
X105397619Y-58407200D02*
X105254762Y-58454819D01*
X105254762Y-58454819D02*
X105159524Y-58454819D01*
X106445238Y-57788152D02*
X106445238Y-58454819D01*
X106207143Y-57407200D02*
X105969048Y-58121485D01*
X105969048Y-58121485D02*
X106588095Y-58121485D01*
X107397619Y-57788152D02*
X107397619Y-58454819D01*
X107159524Y-57407200D02*
X106921429Y-58121485D01*
X106921429Y-58121485D02*
X107540476Y-58121485D01*
D10*
X55583334Y-46965244D02*
X55416667Y-46965244D01*
X55416667Y-47227149D02*
X55416667Y-46727149D01*
X55416667Y-46727149D02*
X55654762Y-46727149D01*
X56011905Y-46965244D02*
X56083333Y-46989054D01*
X56083333Y-46989054D02*
X56107143Y-47012863D01*
X56107143Y-47012863D02*
X56130952Y-47060482D01*
X56130952Y-47060482D02*
X56130952Y-47131911D01*
X56130952Y-47131911D02*
X56107143Y-47179530D01*
X56107143Y-47179530D02*
X56083333Y-47203340D01*
X56083333Y-47203340D02*
X56035714Y-47227149D01*
X56035714Y-47227149D02*
X55845238Y-47227149D01*
X55845238Y-47227149D02*
X55845238Y-46727149D01*
X55845238Y-46727149D02*
X56011905Y-46727149D01*
X56011905Y-46727149D02*
X56059524Y-46750959D01*
X56059524Y-46750959D02*
X56083333Y-46774768D01*
X56083333Y-46774768D02*
X56107143Y-46822387D01*
X56107143Y-46822387D02*
X56107143Y-46870006D01*
X56107143Y-46870006D02*
X56083333Y-46917625D01*
X56083333Y-46917625D02*
X56059524Y-46941435D01*
X56059524Y-46941435D02*
X56011905Y-46965244D01*
X56011905Y-46965244D02*
X55845238Y-46965244D01*
X56607143Y-47227149D02*
X56321429Y-47227149D01*
X56464286Y-47227149D02*
X56464286Y-46727149D01*
X56464286Y-46727149D02*
X56416667Y-46798578D01*
X56416667Y-46798578D02*
X56369048Y-46846197D01*
X56369048Y-46846197D02*
X56321429Y-46870006D01*
D11*
X42261905Y-81804819D02*
X42833333Y-81804819D01*
X42547619Y-82804819D02*
X42547619Y-81804819D01*
X43166667Y-82804819D02*
X43166667Y-81804819D01*
X43166667Y-81804819D02*
X43547619Y-81804819D01*
X43547619Y-81804819D02*
X43642857Y-81852438D01*
X43642857Y-81852438D02*
X43690476Y-81900057D01*
X43690476Y-81900057D02*
X43738095Y-81995295D01*
X43738095Y-81995295D02*
X43738095Y-82138152D01*
X43738095Y-82138152D02*
X43690476Y-82233390D01*
X43690476Y-82233390D02*
X43642857Y-82281009D01*
X43642857Y-82281009D02*
X43547619Y-82328628D01*
X43547619Y-82328628D02*
X43166667Y-82328628D01*
X44690476Y-82804819D02*
X44119048Y-82804819D01*
X44404762Y-82804819D02*
X44404762Y-81804819D01*
X44404762Y-81804819D02*
X44309524Y-81947676D01*
X44309524Y-81947676D02*
X44214286Y-82042914D01*
X44214286Y-82042914D02*
X44119048Y-82090533D01*
X45595238Y-81804819D02*
X45119048Y-81804819D01*
X45119048Y-81804819D02*
X45071429Y-82281009D01*
X45071429Y-82281009D02*
X45119048Y-82233390D01*
X45119048Y-82233390D02*
X45214286Y-82185771D01*
X45214286Y-82185771D02*
X45452381Y-82185771D01*
X45452381Y-82185771D02*
X45547619Y-82233390D01*
X45547619Y-82233390D02*
X45595238Y-82281009D01*
X45595238Y-82281009D02*
X45642857Y-82376247D01*
X45642857Y-82376247D02*
X45642857Y-82614342D01*
X45642857Y-82614342D02*
X45595238Y-82709580D01*
X45595238Y-82709580D02*
X45547619Y-82757200D01*
X45547619Y-82757200D02*
X45452381Y-82804819D01*
X45452381Y-82804819D02*
X45214286Y-82804819D01*
X45214286Y-82804819D02*
X45119048Y-82757200D01*
X45119048Y-82757200D02*
X45071429Y-82709580D01*
D13*
X87333334Y-48203600D02*
X87404762Y-48227409D01*
X87404762Y-48227409D02*
X87523810Y-48227409D01*
X87523810Y-48227409D02*
X87571429Y-48203600D01*
X87571429Y-48203600D02*
X87595238Y-48179790D01*
X87595238Y-48179790D02*
X87619048Y-48132171D01*
X87619048Y-48132171D02*
X87619048Y-48084552D01*
X87619048Y-48084552D02*
X87595238Y-48036933D01*
X87595238Y-48036933D02*
X87571429Y-48013123D01*
X87571429Y-48013123D02*
X87523810Y-47989314D01*
X87523810Y-47989314D02*
X87428572Y-47965504D01*
X87428572Y-47965504D02*
X87380953Y-47941695D01*
X87380953Y-47941695D02*
X87357143Y-47917885D01*
X87357143Y-47917885D02*
X87333334Y-47870266D01*
X87333334Y-47870266D02*
X87333334Y-47822647D01*
X87333334Y-47822647D02*
X87357143Y-47775028D01*
X87357143Y-47775028D02*
X87380953Y-47751219D01*
X87380953Y-47751219D02*
X87428572Y-47727409D01*
X87428572Y-47727409D02*
X87547619Y-47727409D01*
X87547619Y-47727409D02*
X87619048Y-47751219D01*
X87785714Y-47727409D02*
X87904762Y-48227409D01*
X87904762Y-48227409D02*
X88000000Y-47870266D01*
X88000000Y-47870266D02*
X88095238Y-48227409D01*
X88095238Y-48227409D02*
X88214286Y-47727409D01*
X88357143Y-47727409D02*
X88666667Y-47727409D01*
X88666667Y-47727409D02*
X88500000Y-47917885D01*
X88500000Y-47917885D02*
X88571429Y-47917885D01*
X88571429Y-47917885D02*
X88619048Y-47941695D01*
X88619048Y-47941695D02*
X88642857Y-47965504D01*
X88642857Y-47965504D02*
X88666667Y-48013123D01*
X88666667Y-48013123D02*
X88666667Y-48132171D01*
X88666667Y-48132171D02*
X88642857Y-48179790D01*
X88642857Y-48179790D02*
X88619048Y-48203600D01*
X88619048Y-48203600D02*
X88571429Y-48227409D01*
X88571429Y-48227409D02*
X88428572Y-48227409D01*
X88428572Y-48227409D02*
X88380953Y-48203600D01*
X88380953Y-48203600D02*
X88357143Y-48179790D01*
D12*
X61607365Y-74891428D02*
X62190222Y-74891428D01*
X62190222Y-74891428D02*
X62258794Y-74857142D01*
X62258794Y-74857142D02*
X62293080Y-74822857D01*
X62293080Y-74822857D02*
X62327365Y-74754285D01*
X62327365Y-74754285D02*
X62327365Y-74617142D01*
X62327365Y-74617142D02*
X62293080Y-74548571D01*
X62293080Y-74548571D02*
X62258794Y-74514285D01*
X62258794Y-74514285D02*
X62190222Y-74479999D01*
X62190222Y-74479999D02*
X61607365Y-74479999D01*
X61847365Y-73828571D02*
X62327365Y-73828571D01*
X61573080Y-73999999D02*
X62087365Y-74171428D01*
X62087365Y-74171428D02*
X62087365Y-73725713D01*
X61675937Y-73485714D02*
X61641651Y-73451428D01*
X61641651Y-73451428D02*
X61607365Y-73382857D01*
X61607365Y-73382857D02*
X61607365Y-73211428D01*
X61607365Y-73211428D02*
X61641651Y-73142857D01*
X61641651Y-73142857D02*
X61675937Y-73108571D01*
X61675937Y-73108571D02*
X61744508Y-73074285D01*
X61744508Y-73074285D02*
X61813080Y-73074285D01*
X61813080Y-73074285D02*
X61915937Y-73108571D01*
X61915937Y-73108571D02*
X62327365Y-73519999D01*
X62327365Y-73519999D02*
X62327365Y-73074285D01*
D11*
X12454819Y-16833333D02*
X13169104Y-16833333D01*
X13169104Y-16833333D02*
X13311961Y-16880952D01*
X13311961Y-16880952D02*
X13407200Y-16976190D01*
X13407200Y-16976190D02*
X13454819Y-17119047D01*
X13454819Y-17119047D02*
X13454819Y-17214285D01*
X13454819Y-15833333D02*
X13454819Y-16404761D01*
X13454819Y-16119047D02*
X12454819Y-16119047D01*
X12454819Y-16119047D02*
X12597676Y-16214285D01*
X12597676Y-16214285D02*
X12692914Y-16309523D01*
X12692914Y-16309523D02*
X12740533Y-16404761D01*
X112666667Y-6454819D02*
X112666667Y-5454819D01*
X112666667Y-5454819D02*
X113000000Y-6169104D01*
X113000000Y-6169104D02*
X113333333Y-5454819D01*
X113333333Y-5454819D02*
X113333333Y-6454819D01*
X113809524Y-6454819D02*
X113809524Y-5454819D01*
X113809524Y-5931009D02*
X114380952Y-5931009D01*
X114380952Y-6454819D02*
X114380952Y-5454819D01*
X114809524Y-5550057D02*
X114857143Y-5502438D01*
X114857143Y-5502438D02*
X114952381Y-5454819D01*
X114952381Y-5454819D02*
X115190476Y-5454819D01*
X115190476Y-5454819D02*
X115285714Y-5502438D01*
X115285714Y-5502438D02*
X115333333Y-5550057D01*
X115333333Y-5550057D02*
X115380952Y-5645295D01*
X115380952Y-5645295D02*
X115380952Y-5740533D01*
X115380952Y-5740533D02*
X115333333Y-5883390D01*
X115333333Y-5883390D02*
X114761905Y-6454819D01*
X114761905Y-6454819D02*
X115380952Y-6454819D01*
D10*
X70392857Y-96227149D02*
X70392857Y-95727149D01*
X70392857Y-95727149D02*
X70511905Y-95727149D01*
X70511905Y-95727149D02*
X70583333Y-95750959D01*
X70583333Y-95750959D02*
X70630952Y-95798578D01*
X70630952Y-95798578D02*
X70654762Y-95846197D01*
X70654762Y-95846197D02*
X70678571Y-95941435D01*
X70678571Y-95941435D02*
X70678571Y-96012863D01*
X70678571Y-96012863D02*
X70654762Y-96108101D01*
X70654762Y-96108101D02*
X70630952Y-96155720D01*
X70630952Y-96155720D02*
X70583333Y-96203340D01*
X70583333Y-96203340D02*
X70511905Y-96227149D01*
X70511905Y-96227149D02*
X70392857Y-96227149D01*
X71130952Y-95727149D02*
X70892857Y-95727149D01*
X70892857Y-95727149D02*
X70869048Y-95965244D01*
X70869048Y-95965244D02*
X70892857Y-95941435D01*
X70892857Y-95941435D02*
X70940476Y-95917625D01*
X70940476Y-95917625D02*
X71059524Y-95917625D01*
X71059524Y-95917625D02*
X71107143Y-95941435D01*
X71107143Y-95941435D02*
X71130952Y-95965244D01*
X71130952Y-95965244D02*
X71154762Y-96012863D01*
X71154762Y-96012863D02*
X71154762Y-96131911D01*
X71154762Y-96131911D02*
X71130952Y-96179530D01*
X71130952Y-96179530D02*
X71107143Y-96203340D01*
X71107143Y-96203340D02*
X71059524Y-96227149D01*
X71059524Y-96227149D02*
X70940476Y-96227149D01*
X70940476Y-96227149D02*
X70892857Y-96203340D01*
X70892857Y-96203340D02*
X70869048Y-96179530D01*
X71345238Y-95774768D02*
X71369047Y-95750959D01*
X71369047Y-95750959D02*
X71416666Y-95727149D01*
X71416666Y-95727149D02*
X71535714Y-95727149D01*
X71535714Y-95727149D02*
X71583333Y-95750959D01*
X71583333Y-95750959D02*
X71607142Y-95774768D01*
X71607142Y-95774768D02*
X71630952Y-95822387D01*
X71630952Y-95822387D02*
X71630952Y-95870006D01*
X71630952Y-95870006D02*
X71607142Y-95941435D01*
X71607142Y-95941435D02*
X71321428Y-96227149D01*
X71321428Y-96227149D02*
X71630952Y-96227149D01*
X71678571Y-44227149D02*
X71511905Y-43989054D01*
X71392857Y-44227149D02*
X71392857Y-43727149D01*
X71392857Y-43727149D02*
X71583333Y-43727149D01*
X71583333Y-43727149D02*
X71630952Y-43750959D01*
X71630952Y-43750959D02*
X71654762Y-43774768D01*
X71654762Y-43774768D02*
X71678571Y-43822387D01*
X71678571Y-43822387D02*
X71678571Y-43893816D01*
X71678571Y-43893816D02*
X71654762Y-43941435D01*
X71654762Y-43941435D02*
X71630952Y-43965244D01*
X71630952Y-43965244D02*
X71583333Y-43989054D01*
X71583333Y-43989054D02*
X71392857Y-43989054D01*
X72154762Y-44227149D02*
X71869048Y-44227149D01*
X72011905Y-44227149D02*
X72011905Y-43727149D01*
X72011905Y-43727149D02*
X71964286Y-43798578D01*
X71964286Y-43798578D02*
X71916667Y-43846197D01*
X71916667Y-43846197D02*
X71869048Y-43870006D01*
X72464285Y-43727149D02*
X72511904Y-43727149D01*
X72511904Y-43727149D02*
X72559523Y-43750959D01*
X72559523Y-43750959D02*
X72583333Y-43774768D01*
X72583333Y-43774768D02*
X72607142Y-43822387D01*
X72607142Y-43822387D02*
X72630952Y-43917625D01*
X72630952Y-43917625D02*
X72630952Y-44036673D01*
X72630952Y-44036673D02*
X72607142Y-44131911D01*
X72607142Y-44131911D02*
X72583333Y-44179530D01*
X72583333Y-44179530D02*
X72559523Y-44203340D01*
X72559523Y-44203340D02*
X72511904Y-44227149D01*
X72511904Y-44227149D02*
X72464285Y-44227149D01*
X72464285Y-44227149D02*
X72416666Y-44203340D01*
X72416666Y-44203340D02*
X72392857Y-44179530D01*
X72392857Y-44179530D02*
X72369047Y-44131911D01*
X72369047Y-44131911D02*
X72345238Y-44036673D01*
X72345238Y-44036673D02*
X72345238Y-43917625D01*
X72345238Y-43917625D02*
X72369047Y-43822387D01*
X72369047Y-43822387D02*
X72392857Y-43774768D01*
X72392857Y-43774768D02*
X72416666Y-43750959D01*
X72416666Y-43750959D02*
X72464285Y-43727149D01*
D11*
X4666667Y-6454819D02*
X4666667Y-5454819D01*
X4666667Y-5454819D02*
X5000000Y-6169104D01*
X5000000Y-6169104D02*
X5333333Y-5454819D01*
X5333333Y-5454819D02*
X5333333Y-6454819D01*
X5809524Y-6454819D02*
X5809524Y-5454819D01*
X5809524Y-5931009D02*
X6380952Y-5931009D01*
X6380952Y-6454819D02*
X6380952Y-5454819D01*
X7380952Y-6454819D02*
X6809524Y-6454819D01*
X7095238Y-6454819D02*
X7095238Y-5454819D01*
X7095238Y-5454819D02*
X7000000Y-5597676D01*
X7000000Y-5597676D02*
X6904762Y-5692914D01*
X6904762Y-5692914D02*
X6809524Y-5740533D01*
D10*
X75678571Y-52179530D02*
X75654762Y-52203340D01*
X75654762Y-52203340D02*
X75583333Y-52227149D01*
X75583333Y-52227149D02*
X75535714Y-52227149D01*
X75535714Y-52227149D02*
X75464286Y-52203340D01*
X75464286Y-52203340D02*
X75416667Y-52155720D01*
X75416667Y-52155720D02*
X75392857Y-52108101D01*
X75392857Y-52108101D02*
X75369048Y-52012863D01*
X75369048Y-52012863D02*
X75369048Y-51941435D01*
X75369048Y-51941435D02*
X75392857Y-51846197D01*
X75392857Y-51846197D02*
X75416667Y-51798578D01*
X75416667Y-51798578D02*
X75464286Y-51750959D01*
X75464286Y-51750959D02*
X75535714Y-51727149D01*
X75535714Y-51727149D02*
X75583333Y-51727149D01*
X75583333Y-51727149D02*
X75654762Y-51750959D01*
X75654762Y-51750959D02*
X75678571Y-51774768D01*
X76154762Y-52227149D02*
X75869048Y-52227149D01*
X76011905Y-52227149D02*
X76011905Y-51727149D01*
X76011905Y-51727149D02*
X75964286Y-51798578D01*
X75964286Y-51798578D02*
X75916667Y-51846197D01*
X75916667Y-51846197D02*
X75869048Y-51870006D01*
X76630952Y-52227149D02*
X76345238Y-52227149D01*
X76488095Y-52227149D02*
X76488095Y-51727149D01*
X76488095Y-51727149D02*
X76440476Y-51798578D01*
X76440476Y-51798578D02*
X76392857Y-51846197D01*
X76392857Y-51846197D02*
X76345238Y-51870006D01*
X78678571Y-56227149D02*
X78511905Y-55989054D01*
X78392857Y-56227149D02*
X78392857Y-55727149D01*
X78392857Y-55727149D02*
X78583333Y-55727149D01*
X78583333Y-55727149D02*
X78630952Y-55750959D01*
X78630952Y-55750959D02*
X78654762Y-55774768D01*
X78654762Y-55774768D02*
X78678571Y-55822387D01*
X78678571Y-55822387D02*
X78678571Y-55893816D01*
X78678571Y-55893816D02*
X78654762Y-55941435D01*
X78654762Y-55941435D02*
X78630952Y-55965244D01*
X78630952Y-55965244D02*
X78583333Y-55989054D01*
X78583333Y-55989054D02*
X78392857Y-55989054D01*
X79107143Y-55893816D02*
X79107143Y-56227149D01*
X78988095Y-55703340D02*
X78869048Y-56060482D01*
X78869048Y-56060482D02*
X79178571Y-56060482D01*
X79464285Y-55727149D02*
X79511904Y-55727149D01*
X79511904Y-55727149D02*
X79559523Y-55750959D01*
X79559523Y-55750959D02*
X79583333Y-55774768D01*
X79583333Y-55774768D02*
X79607142Y-55822387D01*
X79607142Y-55822387D02*
X79630952Y-55917625D01*
X79630952Y-55917625D02*
X79630952Y-56036673D01*
X79630952Y-56036673D02*
X79607142Y-56131911D01*
X79607142Y-56131911D02*
X79583333Y-56179530D01*
X79583333Y-56179530D02*
X79559523Y-56203340D01*
X79559523Y-56203340D02*
X79511904Y-56227149D01*
X79511904Y-56227149D02*
X79464285Y-56227149D01*
X79464285Y-56227149D02*
X79416666Y-56203340D01*
X79416666Y-56203340D02*
X79392857Y-56179530D01*
X79392857Y-56179530D02*
X79369047Y-56131911D01*
X79369047Y-56131911D02*
X79345238Y-56036673D01*
X79345238Y-56036673D02*
X79345238Y-55917625D01*
X79345238Y-55917625D02*
X79369047Y-55822387D01*
X79369047Y-55822387D02*
X79392857Y-55774768D01*
X79392857Y-55774768D02*
X79416666Y-55750959D01*
X79416666Y-55750959D02*
X79464285Y-55727149D01*
X78678571Y-64227149D02*
X78511905Y-63989054D01*
X78392857Y-64227149D02*
X78392857Y-63727149D01*
X78392857Y-63727149D02*
X78583333Y-63727149D01*
X78583333Y-63727149D02*
X78630952Y-63750959D01*
X78630952Y-63750959D02*
X78654762Y-63774768D01*
X78654762Y-63774768D02*
X78678571Y-63822387D01*
X78678571Y-63822387D02*
X78678571Y-63893816D01*
X78678571Y-63893816D02*
X78654762Y-63941435D01*
X78654762Y-63941435D02*
X78630952Y-63965244D01*
X78630952Y-63965244D02*
X78583333Y-63989054D01*
X78583333Y-63989054D02*
X78392857Y-63989054D01*
X79107143Y-63893816D02*
X79107143Y-64227149D01*
X78988095Y-63703340D02*
X78869048Y-64060482D01*
X78869048Y-64060482D02*
X79178571Y-64060482D01*
X79583333Y-63893816D02*
X79583333Y-64227149D01*
X79464285Y-63703340D02*
X79345238Y-64060482D01*
X79345238Y-64060482D02*
X79654761Y-64060482D01*
D11*
X45261905Y-81804819D02*
X45833333Y-81804819D01*
X45547619Y-82804819D02*
X45547619Y-81804819D01*
X46166667Y-82804819D02*
X46166667Y-81804819D01*
X46166667Y-81804819D02*
X46547619Y-81804819D01*
X46547619Y-81804819D02*
X46642857Y-81852438D01*
X46642857Y-81852438D02*
X46690476Y-81900057D01*
X46690476Y-81900057D02*
X46738095Y-81995295D01*
X46738095Y-81995295D02*
X46738095Y-82138152D01*
X46738095Y-82138152D02*
X46690476Y-82233390D01*
X46690476Y-82233390D02*
X46642857Y-82281009D01*
X46642857Y-82281009D02*
X46547619Y-82328628D01*
X46547619Y-82328628D02*
X46166667Y-82328628D01*
X47690476Y-82804819D02*
X47119048Y-82804819D01*
X47404762Y-82804819D02*
X47404762Y-81804819D01*
X47404762Y-81804819D02*
X47309524Y-81947676D01*
X47309524Y-81947676D02*
X47214286Y-82042914D01*
X47214286Y-82042914D02*
X47119048Y-82090533D01*
X48547619Y-81804819D02*
X48357143Y-81804819D01*
X48357143Y-81804819D02*
X48261905Y-81852438D01*
X48261905Y-81852438D02*
X48214286Y-81900057D01*
X48214286Y-81900057D02*
X48119048Y-82042914D01*
X48119048Y-82042914D02*
X48071429Y-82233390D01*
X48071429Y-82233390D02*
X48071429Y-82614342D01*
X48071429Y-82614342D02*
X48119048Y-82709580D01*
X48119048Y-82709580D02*
X48166667Y-82757200D01*
X48166667Y-82757200D02*
X48261905Y-82804819D01*
X48261905Y-82804819D02*
X48452381Y-82804819D01*
X48452381Y-82804819D02*
X48547619Y-82757200D01*
X48547619Y-82757200D02*
X48595238Y-82709580D01*
X48595238Y-82709580D02*
X48642857Y-82614342D01*
X48642857Y-82614342D02*
X48642857Y-82376247D01*
X48642857Y-82376247D02*
X48595238Y-82281009D01*
X48595238Y-82281009D02*
X48547619Y-82233390D01*
X48547619Y-82233390D02*
X48452381Y-82185771D01*
X48452381Y-82185771D02*
X48261905Y-82185771D01*
X48261905Y-82185771D02*
X48166667Y-82233390D01*
X48166667Y-82233390D02*
X48119048Y-82281009D01*
X48119048Y-82281009D02*
X48071429Y-82376247D01*
X59650476Y-78454819D02*
X59650476Y-79169104D01*
X59650476Y-79169104D02*
X59602857Y-79311961D01*
X59602857Y-79311961D02*
X59507619Y-79407200D01*
X59507619Y-79407200D02*
X59364762Y-79454819D01*
X59364762Y-79454819D02*
X59269524Y-79454819D01*
X60031429Y-78454819D02*
X60650476Y-78454819D01*
X60650476Y-78454819D02*
X60317143Y-78835771D01*
X60317143Y-78835771D02*
X60460000Y-78835771D01*
X60460000Y-78835771D02*
X60555238Y-78883390D01*
X60555238Y-78883390D02*
X60602857Y-78931009D01*
X60602857Y-78931009D02*
X60650476Y-79026247D01*
X60650476Y-79026247D02*
X60650476Y-79264342D01*
X60650476Y-79264342D02*
X60602857Y-79359580D01*
X60602857Y-79359580D02*
X60555238Y-79407200D01*
X60555238Y-79407200D02*
X60460000Y-79454819D01*
X60460000Y-79454819D02*
X60174286Y-79454819D01*
X60174286Y-79454819D02*
X60079048Y-79407200D01*
X60079048Y-79407200D02*
X60031429Y-79359580D01*
X61031429Y-78550057D02*
X61079048Y-78502438D01*
X61079048Y-78502438D02*
X61174286Y-78454819D01*
X61174286Y-78454819D02*
X61412381Y-78454819D01*
X61412381Y-78454819D02*
X61507619Y-78502438D01*
X61507619Y-78502438D02*
X61555238Y-78550057D01*
X61555238Y-78550057D02*
X61602857Y-78645295D01*
X61602857Y-78645295D02*
X61602857Y-78740533D01*
X61602857Y-78740533D02*
X61555238Y-78883390D01*
X61555238Y-78883390D02*
X60983810Y-79454819D01*
X60983810Y-79454819D02*
X61602857Y-79454819D01*
X30357142Y-64359580D02*
X30309523Y-64407200D01*
X30309523Y-64407200D02*
X30166666Y-64454819D01*
X30166666Y-64454819D02*
X30071428Y-64454819D01*
X30071428Y-64454819D02*
X29928571Y-64407200D01*
X29928571Y-64407200D02*
X29833333Y-64311961D01*
X29833333Y-64311961D02*
X29785714Y-64216723D01*
X29785714Y-64216723D02*
X29738095Y-64026247D01*
X29738095Y-64026247D02*
X29738095Y-63883390D01*
X29738095Y-63883390D02*
X29785714Y-63692914D01*
X29785714Y-63692914D02*
X29833333Y-63597676D01*
X29833333Y-63597676D02*
X29928571Y-63502438D01*
X29928571Y-63502438D02*
X30071428Y-63454819D01*
X30071428Y-63454819D02*
X30166666Y-63454819D01*
X30166666Y-63454819D02*
X30309523Y-63502438D01*
X30309523Y-63502438D02*
X30357142Y-63550057D01*
X30690476Y-63454819D02*
X31309523Y-63454819D01*
X31309523Y-63454819D02*
X30976190Y-63835771D01*
X30976190Y-63835771D02*
X31119047Y-63835771D01*
X31119047Y-63835771D02*
X31214285Y-63883390D01*
X31214285Y-63883390D02*
X31261904Y-63931009D01*
X31261904Y-63931009D02*
X31309523Y-64026247D01*
X31309523Y-64026247D02*
X31309523Y-64264342D01*
X31309523Y-64264342D02*
X31261904Y-64359580D01*
X31261904Y-64359580D02*
X31214285Y-64407200D01*
X31214285Y-64407200D02*
X31119047Y-64454819D01*
X31119047Y-64454819D02*
X30833333Y-64454819D01*
X30833333Y-64454819D02*
X30738095Y-64407200D01*
X30738095Y-64407200D02*
X30690476Y-64359580D01*
X31928571Y-63454819D02*
X32023809Y-63454819D01*
X32023809Y-63454819D02*
X32119047Y-63502438D01*
X32119047Y-63502438D02*
X32166666Y-63550057D01*
X32166666Y-63550057D02*
X32214285Y-63645295D01*
X32214285Y-63645295D02*
X32261904Y-63835771D01*
X32261904Y-63835771D02*
X32261904Y-64073866D01*
X32261904Y-64073866D02*
X32214285Y-64264342D01*
X32214285Y-64264342D02*
X32166666Y-64359580D01*
X32166666Y-64359580D02*
X32119047Y-64407200D01*
X32119047Y-64407200D02*
X32023809Y-64454819D01*
X32023809Y-64454819D02*
X31928571Y-64454819D01*
X31928571Y-64454819D02*
X31833333Y-64407200D01*
X31833333Y-64407200D02*
X31785714Y-64359580D01*
X31785714Y-64359580D02*
X31738095Y-64264342D01*
X31738095Y-64264342D02*
X31690476Y-64073866D01*
X31690476Y-64073866D02*
X31690476Y-63835771D01*
X31690476Y-63835771D02*
X31738095Y-63645295D01*
X31738095Y-63645295D02*
X31785714Y-63550057D01*
X31785714Y-63550057D02*
X31833333Y-63502438D01*
X31833333Y-63502438D02*
X31928571Y-63454819D01*
D10*
X85678571Y-60227149D02*
X85511905Y-59989054D01*
X85392857Y-60227149D02*
X85392857Y-59727149D01*
X85392857Y-59727149D02*
X85583333Y-59727149D01*
X85583333Y-59727149D02*
X85630952Y-59750959D01*
X85630952Y-59750959D02*
X85654762Y-59774768D01*
X85654762Y-59774768D02*
X85678571Y-59822387D01*
X85678571Y-59822387D02*
X85678571Y-59893816D01*
X85678571Y-59893816D02*
X85654762Y-59941435D01*
X85654762Y-59941435D02*
X85630952Y-59965244D01*
X85630952Y-59965244D02*
X85583333Y-59989054D01*
X85583333Y-59989054D02*
X85392857Y-59989054D01*
X86107143Y-59893816D02*
X86107143Y-60227149D01*
X85988095Y-59703340D02*
X85869048Y-60060482D01*
X85869048Y-60060482D02*
X86178571Y-60060482D01*
X86321428Y-59727149D02*
X86630952Y-59727149D01*
X86630952Y-59727149D02*
X86464285Y-59917625D01*
X86464285Y-59917625D02*
X86535714Y-59917625D01*
X86535714Y-59917625D02*
X86583333Y-59941435D01*
X86583333Y-59941435D02*
X86607142Y-59965244D01*
X86607142Y-59965244D02*
X86630952Y-60012863D01*
X86630952Y-60012863D02*
X86630952Y-60131911D01*
X86630952Y-60131911D02*
X86607142Y-60179530D01*
X86607142Y-60179530D02*
X86583333Y-60203340D01*
X86583333Y-60203340D02*
X86535714Y-60227149D01*
X86535714Y-60227149D02*
X86392857Y-60227149D01*
X86392857Y-60227149D02*
X86345238Y-60203340D01*
X86345238Y-60203340D02*
X86321428Y-60179530D01*
D11*
X26396666Y-11454819D02*
X26396666Y-12169104D01*
X26396666Y-12169104D02*
X26349047Y-12311961D01*
X26349047Y-12311961D02*
X26253809Y-12407200D01*
X26253809Y-12407200D02*
X26110952Y-12454819D01*
X26110952Y-12454819D02*
X26015714Y-12454819D01*
X26825238Y-11550057D02*
X26872857Y-11502438D01*
X26872857Y-11502438D02*
X26968095Y-11454819D01*
X26968095Y-11454819D02*
X27206190Y-11454819D01*
X27206190Y-11454819D02*
X27301428Y-11502438D01*
X27301428Y-11502438D02*
X27349047Y-11550057D01*
X27349047Y-11550057D02*
X27396666Y-11645295D01*
X27396666Y-11645295D02*
X27396666Y-11740533D01*
X27396666Y-11740533D02*
X27349047Y-11883390D01*
X27349047Y-11883390D02*
X26777619Y-12454819D01*
X26777619Y-12454819D02*
X27396666Y-12454819D01*
X91261905Y-57804819D02*
X91833333Y-57804819D01*
X91547619Y-58804819D02*
X91547619Y-57804819D01*
X92166667Y-58804819D02*
X92166667Y-57804819D01*
X92166667Y-57804819D02*
X92547619Y-57804819D01*
X92547619Y-57804819D02*
X92642857Y-57852438D01*
X92642857Y-57852438D02*
X92690476Y-57900057D01*
X92690476Y-57900057D02*
X92738095Y-57995295D01*
X92738095Y-57995295D02*
X92738095Y-58138152D01*
X92738095Y-58138152D02*
X92690476Y-58233390D01*
X92690476Y-58233390D02*
X92642857Y-58281009D01*
X92642857Y-58281009D02*
X92547619Y-58328628D01*
X92547619Y-58328628D02*
X92166667Y-58328628D01*
X93690476Y-58804819D02*
X93119048Y-58804819D01*
X93404762Y-58804819D02*
X93404762Y-57804819D01*
X93404762Y-57804819D02*
X93309524Y-57947676D01*
X93309524Y-57947676D02*
X93214286Y-58042914D01*
X93214286Y-58042914D02*
X93119048Y-58090533D01*
X94642857Y-58804819D02*
X94071429Y-58804819D01*
X94357143Y-58804819D02*
X94357143Y-57804819D01*
X94357143Y-57804819D02*
X94261905Y-57947676D01*
X94261905Y-57947676D02*
X94166667Y-58042914D01*
X94166667Y-58042914D02*
X94071429Y-58090533D01*
X7454819Y-34809523D02*
X8169104Y-34809523D01*
X8169104Y-34809523D02*
X8311961Y-34857142D01*
X8311961Y-34857142D02*
X8407200Y-34952380D01*
X8407200Y-34952380D02*
X8454819Y-35095237D01*
X8454819Y-35095237D02*
X8454819Y-35190475D01*
X7550057Y-34380951D02*
X7502438Y-34333332D01*
X7502438Y-34333332D02*
X7454819Y-34238094D01*
X7454819Y-34238094D02*
X7454819Y-33999999D01*
X7454819Y-33999999D02*
X7502438Y-33904761D01*
X7502438Y-33904761D02*
X7550057Y-33857142D01*
X7550057Y-33857142D02*
X7645295Y-33809523D01*
X7645295Y-33809523D02*
X7740533Y-33809523D01*
X7740533Y-33809523D02*
X7883390Y-33857142D01*
X7883390Y-33857142D02*
X8454819Y-34428570D01*
X8454819Y-34428570D02*
X8454819Y-33809523D01*
X7454819Y-33476189D02*
X7454819Y-32857142D01*
X7454819Y-32857142D02*
X7835771Y-33190475D01*
X7835771Y-33190475D02*
X7835771Y-33047618D01*
X7835771Y-33047618D02*
X7883390Y-32952380D01*
X7883390Y-32952380D02*
X7931009Y-32904761D01*
X7931009Y-32904761D02*
X8026247Y-32857142D01*
X8026247Y-32857142D02*
X8264342Y-32857142D01*
X8264342Y-32857142D02*
X8359580Y-32904761D01*
X8359580Y-32904761D02*
X8407200Y-32952380D01*
X8407200Y-32952380D02*
X8454819Y-33047618D01*
X8454819Y-33047618D02*
X8454819Y-33333332D01*
X8454819Y-33333332D02*
X8407200Y-33428570D01*
X8407200Y-33428570D02*
X8359580Y-33476189D01*
D10*
X97678571Y-96227149D02*
X97511905Y-95989054D01*
X97392857Y-96227149D02*
X97392857Y-95727149D01*
X97392857Y-95727149D02*
X97583333Y-95727149D01*
X97583333Y-95727149D02*
X97630952Y-95750959D01*
X97630952Y-95750959D02*
X97654762Y-95774768D01*
X97654762Y-95774768D02*
X97678571Y-95822387D01*
X97678571Y-95822387D02*
X97678571Y-95893816D01*
X97678571Y-95893816D02*
X97654762Y-95941435D01*
X97654762Y-95941435D02*
X97630952Y-95965244D01*
X97630952Y-95965244D02*
X97583333Y-95989054D01*
X97583333Y-95989054D02*
X97392857Y-95989054D01*
X98107143Y-95893816D02*
X98107143Y-96227149D01*
X97988095Y-95703340D02*
X97869048Y-96060482D01*
X97869048Y-96060482D02*
X98178571Y-96060482D01*
X98321428Y-95727149D02*
X98654761Y-95727149D01*
X98654761Y-95727149D02*
X98440476Y-96227149D01*
D13*
X77333334Y-48203600D02*
X77404762Y-48227409D01*
X77404762Y-48227409D02*
X77523810Y-48227409D01*
X77523810Y-48227409D02*
X77571429Y-48203600D01*
X77571429Y-48203600D02*
X77595238Y-48179790D01*
X77595238Y-48179790D02*
X77619048Y-48132171D01*
X77619048Y-48132171D02*
X77619048Y-48084552D01*
X77619048Y-48084552D02*
X77595238Y-48036933D01*
X77595238Y-48036933D02*
X77571429Y-48013123D01*
X77571429Y-48013123D02*
X77523810Y-47989314D01*
X77523810Y-47989314D02*
X77428572Y-47965504D01*
X77428572Y-47965504D02*
X77380953Y-47941695D01*
X77380953Y-47941695D02*
X77357143Y-47917885D01*
X77357143Y-47917885D02*
X77333334Y-47870266D01*
X77333334Y-47870266D02*
X77333334Y-47822647D01*
X77333334Y-47822647D02*
X77357143Y-47775028D01*
X77357143Y-47775028D02*
X77380953Y-47751219D01*
X77380953Y-47751219D02*
X77428572Y-47727409D01*
X77428572Y-47727409D02*
X77547619Y-47727409D01*
X77547619Y-47727409D02*
X77619048Y-47751219D01*
X77785714Y-47727409D02*
X77904762Y-48227409D01*
X77904762Y-48227409D02*
X78000000Y-47870266D01*
X78000000Y-47870266D02*
X78095238Y-48227409D01*
X78095238Y-48227409D02*
X78214286Y-47727409D01*
X78380953Y-47775028D02*
X78404762Y-47751219D01*
X78404762Y-47751219D02*
X78452381Y-47727409D01*
X78452381Y-47727409D02*
X78571429Y-47727409D01*
X78571429Y-47727409D02*
X78619048Y-47751219D01*
X78619048Y-47751219D02*
X78642857Y-47775028D01*
X78642857Y-47775028D02*
X78666667Y-47822647D01*
X78666667Y-47822647D02*
X78666667Y-47870266D01*
X78666667Y-47870266D02*
X78642857Y-47941695D01*
X78642857Y-47941695D02*
X78357143Y-48227409D01*
X78357143Y-48227409D02*
X78666667Y-48227409D01*
D10*
X63678571Y-47179530D02*
X63654762Y-47203340D01*
X63654762Y-47203340D02*
X63583333Y-47227149D01*
X63583333Y-47227149D02*
X63535714Y-47227149D01*
X63535714Y-47227149D02*
X63464286Y-47203340D01*
X63464286Y-47203340D02*
X63416667Y-47155720D01*
X63416667Y-47155720D02*
X63392857Y-47108101D01*
X63392857Y-47108101D02*
X63369048Y-47012863D01*
X63369048Y-47012863D02*
X63369048Y-46941435D01*
X63369048Y-46941435D02*
X63392857Y-46846197D01*
X63392857Y-46846197D02*
X63416667Y-46798578D01*
X63416667Y-46798578D02*
X63464286Y-46750959D01*
X63464286Y-46750959D02*
X63535714Y-46727149D01*
X63535714Y-46727149D02*
X63583333Y-46727149D01*
X63583333Y-46727149D02*
X63654762Y-46750959D01*
X63654762Y-46750959D02*
X63678571Y-46774768D01*
X63869048Y-46774768D02*
X63892857Y-46750959D01*
X63892857Y-46750959D02*
X63940476Y-46727149D01*
X63940476Y-46727149D02*
X64059524Y-46727149D01*
X64059524Y-46727149D02*
X64107143Y-46750959D01*
X64107143Y-46750959D02*
X64130952Y-46774768D01*
X64130952Y-46774768D02*
X64154762Y-46822387D01*
X64154762Y-46822387D02*
X64154762Y-46870006D01*
X64154762Y-46870006D02*
X64130952Y-46941435D01*
X64130952Y-46941435D02*
X63845238Y-47227149D01*
X63845238Y-47227149D02*
X64154762Y-47227149D01*
X64321428Y-46727149D02*
X64630952Y-46727149D01*
X64630952Y-46727149D02*
X64464285Y-46917625D01*
X64464285Y-46917625D02*
X64535714Y-46917625D01*
X64535714Y-46917625D02*
X64583333Y-46941435D01*
X64583333Y-46941435D02*
X64607142Y-46965244D01*
X64607142Y-46965244D02*
X64630952Y-47012863D01*
X64630952Y-47012863D02*
X64630952Y-47131911D01*
X64630952Y-47131911D02*
X64607142Y-47179530D01*
X64607142Y-47179530D02*
X64583333Y-47203340D01*
X64583333Y-47203340D02*
X64535714Y-47227149D01*
X64535714Y-47227149D02*
X64392857Y-47227149D01*
X64392857Y-47227149D02*
X64345238Y-47203340D01*
X64345238Y-47203340D02*
X64321428Y-47179530D01*
D11*
X44650476Y-87454819D02*
X44650476Y-88169104D01*
X44650476Y-88169104D02*
X44602857Y-88311961D01*
X44602857Y-88311961D02*
X44507619Y-88407200D01*
X44507619Y-88407200D02*
X44364762Y-88454819D01*
X44364762Y-88454819D02*
X44269524Y-88454819D01*
X45031429Y-87454819D02*
X45650476Y-87454819D01*
X45650476Y-87454819D02*
X45317143Y-87835771D01*
X45317143Y-87835771D02*
X45460000Y-87835771D01*
X45460000Y-87835771D02*
X45555238Y-87883390D01*
X45555238Y-87883390D02*
X45602857Y-87931009D01*
X45602857Y-87931009D02*
X45650476Y-88026247D01*
X45650476Y-88026247D02*
X45650476Y-88264342D01*
X45650476Y-88264342D02*
X45602857Y-88359580D01*
X45602857Y-88359580D02*
X45555238Y-88407200D01*
X45555238Y-88407200D02*
X45460000Y-88454819D01*
X45460000Y-88454819D02*
X45174286Y-88454819D01*
X45174286Y-88454819D02*
X45079048Y-88407200D01*
X45079048Y-88407200D02*
X45031429Y-88359580D01*
X46602857Y-88454819D02*
X46031429Y-88454819D01*
X46317143Y-88454819D02*
X46317143Y-87454819D01*
X46317143Y-87454819D02*
X46221905Y-87597676D01*
X46221905Y-87597676D02*
X46126667Y-87692914D01*
X46126667Y-87692914D02*
X46031429Y-87740533D01*
X108540476Y-85454819D02*
X108540476Y-86169104D01*
X108540476Y-86169104D02*
X108492857Y-86311961D01*
X108492857Y-86311961D02*
X108397619Y-86407200D01*
X108397619Y-86407200D02*
X108254762Y-86454819D01*
X108254762Y-86454819D02*
X108159524Y-86454819D01*
X109445238Y-85788152D02*
X109445238Y-86454819D01*
X109207143Y-85407200D02*
X108969048Y-86121485D01*
X108969048Y-86121485D02*
X109588095Y-86121485D01*
X110397619Y-85454819D02*
X110207143Y-85454819D01*
X110207143Y-85454819D02*
X110111905Y-85502438D01*
X110111905Y-85502438D02*
X110064286Y-85550057D01*
X110064286Y-85550057D02*
X109969048Y-85692914D01*
X109969048Y-85692914D02*
X109921429Y-85883390D01*
X109921429Y-85883390D02*
X109921429Y-86264342D01*
X109921429Y-86264342D02*
X109969048Y-86359580D01*
X109969048Y-86359580D02*
X110016667Y-86407200D01*
X110016667Y-86407200D02*
X110111905Y-86454819D01*
X110111905Y-86454819D02*
X110302381Y-86454819D01*
X110302381Y-86454819D02*
X110397619Y-86407200D01*
X110397619Y-86407200D02*
X110445238Y-86359580D01*
X110445238Y-86359580D02*
X110492857Y-86264342D01*
X110492857Y-86264342D02*
X110492857Y-86026247D01*
X110492857Y-86026247D02*
X110445238Y-85931009D01*
X110445238Y-85931009D02*
X110397619Y-85883390D01*
X110397619Y-85883390D02*
X110302381Y-85835771D01*
X110302381Y-85835771D02*
X110111905Y-85835771D01*
X110111905Y-85835771D02*
X110016667Y-85883390D01*
X110016667Y-85883390D02*
X109969048Y-85931009D01*
X109969048Y-85931009D02*
X109921429Y-86026247D01*
X113190476Y-63454819D02*
X113190476Y-64169104D01*
X113190476Y-64169104D02*
X113142857Y-64311961D01*
X113142857Y-64311961D02*
X113047619Y-64407200D01*
X113047619Y-64407200D02*
X112904762Y-64454819D01*
X112904762Y-64454819D02*
X112809524Y-64454819D01*
X114190476Y-64454819D02*
X113619048Y-64454819D01*
X113904762Y-64454819D02*
X113904762Y-63454819D01*
X113904762Y-63454819D02*
X113809524Y-63597676D01*
X113809524Y-63597676D02*
X113714286Y-63692914D01*
X113714286Y-63692914D02*
X113619048Y-63740533D01*
X115142857Y-64454819D02*
X114571429Y-64454819D01*
X114857143Y-64454819D02*
X114857143Y-63454819D01*
X114857143Y-63454819D02*
X114761905Y-63597676D01*
X114761905Y-63597676D02*
X114666667Y-63692914D01*
X114666667Y-63692914D02*
X114571429Y-63740533D01*
D10*
X67678571Y-94227149D02*
X67511905Y-93989054D01*
X67392857Y-94227149D02*
X67392857Y-93727149D01*
X67392857Y-93727149D02*
X67583333Y-93727149D01*
X67583333Y-93727149D02*
X67630952Y-93750959D01*
X67630952Y-93750959D02*
X67654762Y-93774768D01*
X67654762Y-93774768D02*
X67678571Y-93822387D01*
X67678571Y-93822387D02*
X67678571Y-93893816D01*
X67678571Y-93893816D02*
X67654762Y-93941435D01*
X67654762Y-93941435D02*
X67630952Y-93965244D01*
X67630952Y-93965244D02*
X67583333Y-93989054D01*
X67583333Y-93989054D02*
X67392857Y-93989054D01*
X68130952Y-93727149D02*
X67892857Y-93727149D01*
X67892857Y-93727149D02*
X67869048Y-93965244D01*
X67869048Y-93965244D02*
X67892857Y-93941435D01*
X67892857Y-93941435D02*
X67940476Y-93917625D01*
X67940476Y-93917625D02*
X68059524Y-93917625D01*
X68059524Y-93917625D02*
X68107143Y-93941435D01*
X68107143Y-93941435D02*
X68130952Y-93965244D01*
X68130952Y-93965244D02*
X68154762Y-94012863D01*
X68154762Y-94012863D02*
X68154762Y-94131911D01*
X68154762Y-94131911D02*
X68130952Y-94179530D01*
X68130952Y-94179530D02*
X68107143Y-94203340D01*
X68107143Y-94203340D02*
X68059524Y-94227149D01*
X68059524Y-94227149D02*
X67940476Y-94227149D01*
X67940476Y-94227149D02*
X67892857Y-94203340D01*
X67892857Y-94203340D02*
X67869048Y-94179530D01*
X68345238Y-93774768D02*
X68369047Y-93750959D01*
X68369047Y-93750959D02*
X68416666Y-93727149D01*
X68416666Y-93727149D02*
X68535714Y-93727149D01*
X68535714Y-93727149D02*
X68583333Y-93750959D01*
X68583333Y-93750959D02*
X68607142Y-93774768D01*
X68607142Y-93774768D02*
X68630952Y-93822387D01*
X68630952Y-93822387D02*
X68630952Y-93870006D01*
X68630952Y-93870006D02*
X68607142Y-93941435D01*
X68607142Y-93941435D02*
X68321428Y-94227149D01*
X68321428Y-94227149D02*
X68630952Y-94227149D01*
D11*
X29454819Y-82619523D02*
X30169104Y-82619523D01*
X30169104Y-82619523D02*
X30311961Y-82667142D01*
X30311961Y-82667142D02*
X30407200Y-82762380D01*
X30407200Y-82762380D02*
X30454819Y-82905237D01*
X30454819Y-82905237D02*
X30454819Y-83000475D01*
X29550057Y-82190951D02*
X29502438Y-82143332D01*
X29502438Y-82143332D02*
X29454819Y-82048094D01*
X29454819Y-82048094D02*
X29454819Y-81809999D01*
X29454819Y-81809999D02*
X29502438Y-81714761D01*
X29502438Y-81714761D02*
X29550057Y-81667142D01*
X29550057Y-81667142D02*
X29645295Y-81619523D01*
X29645295Y-81619523D02*
X29740533Y-81619523D01*
X29740533Y-81619523D02*
X29883390Y-81667142D01*
X29883390Y-81667142D02*
X30454819Y-82238570D01*
X30454819Y-82238570D02*
X30454819Y-81619523D01*
X30454819Y-80667142D02*
X30454819Y-81238570D01*
X30454819Y-80952856D02*
X29454819Y-80952856D01*
X29454819Y-80952856D02*
X29597676Y-81048094D01*
X29597676Y-81048094D02*
X29692914Y-81143332D01*
X29692914Y-81143332D02*
X29740533Y-81238570D01*
X35261905Y-81804819D02*
X35833333Y-81804819D01*
X35547619Y-82804819D02*
X35547619Y-81804819D01*
X36166667Y-82804819D02*
X36166667Y-81804819D01*
X36166667Y-81804819D02*
X36547619Y-81804819D01*
X36547619Y-81804819D02*
X36642857Y-81852438D01*
X36642857Y-81852438D02*
X36690476Y-81900057D01*
X36690476Y-81900057D02*
X36738095Y-81995295D01*
X36738095Y-81995295D02*
X36738095Y-82138152D01*
X36738095Y-82138152D02*
X36690476Y-82233390D01*
X36690476Y-82233390D02*
X36642857Y-82281009D01*
X36642857Y-82281009D02*
X36547619Y-82328628D01*
X36547619Y-82328628D02*
X36166667Y-82328628D01*
X37690476Y-82804819D02*
X37119048Y-82804819D01*
X37404762Y-82804819D02*
X37404762Y-81804819D01*
X37404762Y-81804819D02*
X37309524Y-81947676D01*
X37309524Y-81947676D02*
X37214286Y-82042914D01*
X37214286Y-82042914D02*
X37119048Y-82090533D01*
X38023810Y-81804819D02*
X38642857Y-81804819D01*
X38642857Y-81804819D02*
X38309524Y-82185771D01*
X38309524Y-82185771D02*
X38452381Y-82185771D01*
X38452381Y-82185771D02*
X38547619Y-82233390D01*
X38547619Y-82233390D02*
X38595238Y-82281009D01*
X38595238Y-82281009D02*
X38642857Y-82376247D01*
X38642857Y-82376247D02*
X38642857Y-82614342D01*
X38642857Y-82614342D02*
X38595238Y-82709580D01*
X38595238Y-82709580D02*
X38547619Y-82757200D01*
X38547619Y-82757200D02*
X38452381Y-82804819D01*
X38452381Y-82804819D02*
X38166667Y-82804819D01*
X38166667Y-82804819D02*
X38071429Y-82757200D01*
X38071429Y-82757200D02*
X38023810Y-82709580D01*
X7454819Y-70809523D02*
X8169104Y-70809523D01*
X8169104Y-70809523D02*
X8311961Y-70857142D01*
X8311961Y-70857142D02*
X8407200Y-70952380D01*
X8407200Y-70952380D02*
X8454819Y-71095237D01*
X8454819Y-71095237D02*
X8454819Y-71190475D01*
X7550057Y-70380951D02*
X7502438Y-70333332D01*
X7502438Y-70333332D02*
X7454819Y-70238094D01*
X7454819Y-70238094D02*
X7454819Y-69999999D01*
X7454819Y-69999999D02*
X7502438Y-69904761D01*
X7502438Y-69904761D02*
X7550057Y-69857142D01*
X7550057Y-69857142D02*
X7645295Y-69809523D01*
X7645295Y-69809523D02*
X7740533Y-69809523D01*
X7740533Y-69809523D02*
X7883390Y-69857142D01*
X7883390Y-69857142D02*
X8454819Y-70428570D01*
X8454819Y-70428570D02*
X8454819Y-69809523D01*
X7454819Y-68952380D02*
X7454819Y-69142856D01*
X7454819Y-69142856D02*
X7502438Y-69238094D01*
X7502438Y-69238094D02*
X7550057Y-69285713D01*
X7550057Y-69285713D02*
X7692914Y-69380951D01*
X7692914Y-69380951D02*
X7883390Y-69428570D01*
X7883390Y-69428570D02*
X8264342Y-69428570D01*
X8264342Y-69428570D02*
X8359580Y-69380951D01*
X8359580Y-69380951D02*
X8407200Y-69333332D01*
X8407200Y-69333332D02*
X8454819Y-69238094D01*
X8454819Y-69238094D02*
X8454819Y-69047618D01*
X8454819Y-69047618D02*
X8407200Y-68952380D01*
X8407200Y-68952380D02*
X8359580Y-68904761D01*
X8359580Y-68904761D02*
X8264342Y-68857142D01*
X8264342Y-68857142D02*
X8026247Y-68857142D01*
X8026247Y-68857142D02*
X7931009Y-68904761D01*
X7931009Y-68904761D02*
X7883390Y-68952380D01*
X7883390Y-68952380D02*
X7835771Y-69047618D01*
X7835771Y-69047618D02*
X7835771Y-69238094D01*
X7835771Y-69238094D02*
X7883390Y-69333332D01*
X7883390Y-69333332D02*
X7931009Y-69380951D01*
X7931009Y-69380951D02*
X8026247Y-69428570D01*
X7454819Y-62809523D02*
X8169104Y-62809523D01*
X8169104Y-62809523D02*
X8311961Y-62857142D01*
X8311961Y-62857142D02*
X8407200Y-62952380D01*
X8407200Y-62952380D02*
X8454819Y-63095237D01*
X8454819Y-63095237D02*
X8454819Y-63190475D01*
X7550057Y-62380951D02*
X7502438Y-62333332D01*
X7502438Y-62333332D02*
X7454819Y-62238094D01*
X7454819Y-62238094D02*
X7454819Y-61999999D01*
X7454819Y-61999999D02*
X7502438Y-61904761D01*
X7502438Y-61904761D02*
X7550057Y-61857142D01*
X7550057Y-61857142D02*
X7645295Y-61809523D01*
X7645295Y-61809523D02*
X7740533Y-61809523D01*
X7740533Y-61809523D02*
X7883390Y-61857142D01*
X7883390Y-61857142D02*
X8454819Y-62428570D01*
X8454819Y-62428570D02*
X8454819Y-61809523D01*
X7454819Y-60904761D02*
X7454819Y-61380951D01*
X7454819Y-61380951D02*
X7931009Y-61428570D01*
X7931009Y-61428570D02*
X7883390Y-61380951D01*
X7883390Y-61380951D02*
X7835771Y-61285713D01*
X7835771Y-61285713D02*
X7835771Y-61047618D01*
X7835771Y-61047618D02*
X7883390Y-60952380D01*
X7883390Y-60952380D02*
X7931009Y-60904761D01*
X7931009Y-60904761D02*
X8026247Y-60857142D01*
X8026247Y-60857142D02*
X8264342Y-60857142D01*
X8264342Y-60857142D02*
X8359580Y-60904761D01*
X8359580Y-60904761D02*
X8407200Y-60952380D01*
X8407200Y-60952380D02*
X8454819Y-61047618D01*
X8454819Y-61047618D02*
X8454819Y-61285713D01*
X8454819Y-61285713D02*
X8407200Y-61380951D01*
X8407200Y-61380951D02*
X8359580Y-61428570D01*
X100080476Y-71454819D02*
X100080476Y-72169104D01*
X100080476Y-72169104D02*
X100032857Y-72311961D01*
X100032857Y-72311961D02*
X99937619Y-72407200D01*
X99937619Y-72407200D02*
X99794762Y-72454819D01*
X99794762Y-72454819D02*
X99699524Y-72454819D01*
X101080476Y-72454819D02*
X100509048Y-72454819D01*
X100794762Y-72454819D02*
X100794762Y-71454819D01*
X100794762Y-71454819D02*
X100699524Y-71597676D01*
X100699524Y-71597676D02*
X100604286Y-71692914D01*
X100604286Y-71692914D02*
X100509048Y-71740533D01*
X101699524Y-71454819D02*
X101794762Y-71454819D01*
X101794762Y-71454819D02*
X101890000Y-71502438D01*
X101890000Y-71502438D02*
X101937619Y-71550057D01*
X101937619Y-71550057D02*
X101985238Y-71645295D01*
X101985238Y-71645295D02*
X102032857Y-71835771D01*
X102032857Y-71835771D02*
X102032857Y-72073866D01*
X102032857Y-72073866D02*
X101985238Y-72264342D01*
X101985238Y-72264342D02*
X101937619Y-72359580D01*
X101937619Y-72359580D02*
X101890000Y-72407200D01*
X101890000Y-72407200D02*
X101794762Y-72454819D01*
X101794762Y-72454819D02*
X101699524Y-72454819D01*
X101699524Y-72454819D02*
X101604286Y-72407200D01*
X101604286Y-72407200D02*
X101556667Y-72359580D01*
X101556667Y-72359580D02*
X101509048Y-72264342D01*
X101509048Y-72264342D02*
X101461429Y-72073866D01*
X101461429Y-72073866D02*
X101461429Y-71835771D01*
X101461429Y-71835771D02*
X101509048Y-71645295D01*
X101509048Y-71645295D02*
X101556667Y-71550057D01*
X101556667Y-71550057D02*
X101604286Y-71502438D01*
X101604286Y-71502438D02*
X101699524Y-71454819D01*
D12*
X69607365Y-74891428D02*
X70190222Y-74891428D01*
X70190222Y-74891428D02*
X70258794Y-74857142D01*
X70258794Y-74857142D02*
X70293080Y-74822857D01*
X70293080Y-74822857D02*
X70327365Y-74754285D01*
X70327365Y-74754285D02*
X70327365Y-74617142D01*
X70327365Y-74617142D02*
X70293080Y-74548571D01*
X70293080Y-74548571D02*
X70258794Y-74514285D01*
X70258794Y-74514285D02*
X70190222Y-74479999D01*
X70190222Y-74479999D02*
X69607365Y-74479999D01*
X69847365Y-73828571D02*
X70327365Y-73828571D01*
X69573080Y-73999999D02*
X70087365Y-74171428D01*
X70087365Y-74171428D02*
X70087365Y-73725713D01*
X69607365Y-73519999D02*
X69607365Y-73074285D01*
X69607365Y-73074285D02*
X69881651Y-73314285D01*
X69881651Y-73314285D02*
X69881651Y-73211428D01*
X69881651Y-73211428D02*
X69915937Y-73142857D01*
X69915937Y-73142857D02*
X69950222Y-73108571D01*
X69950222Y-73108571D02*
X70018794Y-73074285D01*
X70018794Y-73074285D02*
X70190222Y-73074285D01*
X70190222Y-73074285D02*
X70258794Y-73108571D01*
X70258794Y-73108571D02*
X70293080Y-73142857D01*
X70293080Y-73142857D02*
X70327365Y-73211428D01*
X70327365Y-73211428D02*
X70327365Y-73417142D01*
X70327365Y-73417142D02*
X70293080Y-73485714D01*
X70293080Y-73485714D02*
X70258794Y-73519999D01*
D11*
X42738095Y-3804819D02*
X43309523Y-3804819D01*
X43023809Y-4804819D02*
X43023809Y-3804819D01*
X43642857Y-4804819D02*
X43642857Y-3804819D01*
X43642857Y-3804819D02*
X44023809Y-3804819D01*
X44023809Y-3804819D02*
X44119047Y-3852438D01*
X44119047Y-3852438D02*
X44166666Y-3900057D01*
X44166666Y-3900057D02*
X44214285Y-3995295D01*
X44214285Y-3995295D02*
X44214285Y-4138152D01*
X44214285Y-4138152D02*
X44166666Y-4233390D01*
X44166666Y-4233390D02*
X44119047Y-4281009D01*
X44119047Y-4281009D02*
X44023809Y-4328628D01*
X44023809Y-4328628D02*
X43642857Y-4328628D01*
X44547619Y-3804819D02*
X45166666Y-3804819D01*
X45166666Y-3804819D02*
X44833333Y-4185771D01*
X44833333Y-4185771D02*
X44976190Y-4185771D01*
X44976190Y-4185771D02*
X45071428Y-4233390D01*
X45071428Y-4233390D02*
X45119047Y-4281009D01*
X45119047Y-4281009D02*
X45166666Y-4376247D01*
X45166666Y-4376247D02*
X45166666Y-4614342D01*
X45166666Y-4614342D02*
X45119047Y-4709580D01*
X45119047Y-4709580D02*
X45071428Y-4757200D01*
X45071428Y-4757200D02*
X44976190Y-4804819D01*
X44976190Y-4804819D02*
X44690476Y-4804819D01*
X44690476Y-4804819D02*
X44595238Y-4757200D01*
X44595238Y-4757200D02*
X44547619Y-4709580D01*
X104190476Y-93454819D02*
X104190476Y-94169104D01*
X104190476Y-94169104D02*
X104142857Y-94311961D01*
X104142857Y-94311961D02*
X104047619Y-94407200D01*
X104047619Y-94407200D02*
X103904762Y-94454819D01*
X103904762Y-94454819D02*
X103809524Y-94454819D01*
X105095238Y-93788152D02*
X105095238Y-94454819D01*
X104857143Y-93407200D02*
X104619048Y-94121485D01*
X104619048Y-94121485D02*
X105238095Y-94121485D01*
X105666667Y-94454819D02*
X105857143Y-94454819D01*
X105857143Y-94454819D02*
X105952381Y-94407200D01*
X105952381Y-94407200D02*
X106000000Y-94359580D01*
X106000000Y-94359580D02*
X106095238Y-94216723D01*
X106095238Y-94216723D02*
X106142857Y-94026247D01*
X106142857Y-94026247D02*
X106142857Y-93645295D01*
X106142857Y-93645295D02*
X106095238Y-93550057D01*
X106095238Y-93550057D02*
X106047619Y-93502438D01*
X106047619Y-93502438D02*
X105952381Y-93454819D01*
X105952381Y-93454819D02*
X105761905Y-93454819D01*
X105761905Y-93454819D02*
X105666667Y-93502438D01*
X105666667Y-93502438D02*
X105619048Y-93550057D01*
X105619048Y-93550057D02*
X105571429Y-93645295D01*
X105571429Y-93645295D02*
X105571429Y-93883390D01*
X105571429Y-93883390D02*
X105619048Y-93978628D01*
X105619048Y-93978628D02*
X105666667Y-94026247D01*
X105666667Y-94026247D02*
X105761905Y-94073866D01*
X105761905Y-94073866D02*
X105952381Y-94073866D01*
X105952381Y-94073866D02*
X106047619Y-94026247D01*
X106047619Y-94026247D02*
X106095238Y-93978628D01*
X106095238Y-93978628D02*
X106142857Y-93883390D01*
X50738095Y-64804819D02*
X51309523Y-64804819D01*
X51023809Y-65804819D02*
X51023809Y-64804819D01*
X51642857Y-65804819D02*
X51642857Y-64804819D01*
X51642857Y-64804819D02*
X52023809Y-64804819D01*
X52023809Y-64804819D02*
X52119047Y-64852438D01*
X52119047Y-64852438D02*
X52166666Y-64900057D01*
X52166666Y-64900057D02*
X52214285Y-64995295D01*
X52214285Y-64995295D02*
X52214285Y-65138152D01*
X52214285Y-65138152D02*
X52166666Y-65233390D01*
X52166666Y-65233390D02*
X52119047Y-65281009D01*
X52119047Y-65281009D02*
X52023809Y-65328628D01*
X52023809Y-65328628D02*
X51642857Y-65328628D01*
X52547619Y-64804819D02*
X53214285Y-64804819D01*
X53214285Y-64804819D02*
X52785714Y-65804819D01*
D10*
X61392857Y-96227149D02*
X61392857Y-95727149D01*
X61392857Y-95727149D02*
X61511905Y-95727149D01*
X61511905Y-95727149D02*
X61583333Y-95750959D01*
X61583333Y-95750959D02*
X61630952Y-95798578D01*
X61630952Y-95798578D02*
X61654762Y-95846197D01*
X61654762Y-95846197D02*
X61678571Y-95941435D01*
X61678571Y-95941435D02*
X61678571Y-96012863D01*
X61678571Y-96012863D02*
X61654762Y-96108101D01*
X61654762Y-96108101D02*
X61630952Y-96155720D01*
X61630952Y-96155720D02*
X61583333Y-96203340D01*
X61583333Y-96203340D02*
X61511905Y-96227149D01*
X61511905Y-96227149D02*
X61392857Y-96227149D01*
X62130952Y-95727149D02*
X61892857Y-95727149D01*
X61892857Y-95727149D02*
X61869048Y-95965244D01*
X61869048Y-95965244D02*
X61892857Y-95941435D01*
X61892857Y-95941435D02*
X61940476Y-95917625D01*
X61940476Y-95917625D02*
X62059524Y-95917625D01*
X62059524Y-95917625D02*
X62107143Y-95941435D01*
X62107143Y-95941435D02*
X62130952Y-95965244D01*
X62130952Y-95965244D02*
X62154762Y-96012863D01*
X62154762Y-96012863D02*
X62154762Y-96131911D01*
X62154762Y-96131911D02*
X62130952Y-96179530D01*
X62130952Y-96179530D02*
X62107143Y-96203340D01*
X62107143Y-96203340D02*
X62059524Y-96227149D01*
X62059524Y-96227149D02*
X61940476Y-96227149D01*
X61940476Y-96227149D02*
X61892857Y-96203340D01*
X61892857Y-96203340D02*
X61869048Y-96179530D01*
X62630952Y-96227149D02*
X62345238Y-96227149D01*
X62488095Y-96227149D02*
X62488095Y-95727149D01*
X62488095Y-95727149D02*
X62440476Y-95798578D01*
X62440476Y-95798578D02*
X62392857Y-95846197D01*
X62392857Y-95846197D02*
X62345238Y-95870006D01*
D11*
X40666666Y-9931009D02*
X40333333Y-9931009D01*
X40333333Y-10454819D02*
X40333333Y-9454819D01*
X40333333Y-9454819D02*
X40809523Y-9454819D01*
X41714285Y-10454819D02*
X41142857Y-10454819D01*
X41428571Y-10454819D02*
X41428571Y-9454819D01*
X41428571Y-9454819D02*
X41333333Y-9597676D01*
X41333333Y-9597676D02*
X41238095Y-9692914D01*
X41238095Y-9692914D02*
X41142857Y-9740533D01*
D10*
X55630952Y-8227149D02*
X55630952Y-7727149D01*
X55630952Y-7727149D02*
X55750000Y-7727149D01*
X55750000Y-7727149D02*
X55821428Y-7750959D01*
X55821428Y-7750959D02*
X55869047Y-7798578D01*
X55869047Y-7798578D02*
X55892857Y-7846197D01*
X55892857Y-7846197D02*
X55916666Y-7941435D01*
X55916666Y-7941435D02*
X55916666Y-8012863D01*
X55916666Y-8012863D02*
X55892857Y-8108101D01*
X55892857Y-8108101D02*
X55869047Y-8155720D01*
X55869047Y-8155720D02*
X55821428Y-8203340D01*
X55821428Y-8203340D02*
X55750000Y-8227149D01*
X55750000Y-8227149D02*
X55630952Y-8227149D01*
X56107143Y-7774768D02*
X56130952Y-7750959D01*
X56130952Y-7750959D02*
X56178571Y-7727149D01*
X56178571Y-7727149D02*
X56297619Y-7727149D01*
X56297619Y-7727149D02*
X56345238Y-7750959D01*
X56345238Y-7750959D02*
X56369047Y-7774768D01*
X56369047Y-7774768D02*
X56392857Y-7822387D01*
X56392857Y-7822387D02*
X56392857Y-7870006D01*
X56392857Y-7870006D02*
X56369047Y-7941435D01*
X56369047Y-7941435D02*
X56083333Y-8227149D01*
X56083333Y-8227149D02*
X56392857Y-8227149D01*
D11*
X12454819Y-83309523D02*
X13169104Y-83309523D01*
X13169104Y-83309523D02*
X13311961Y-83357142D01*
X13311961Y-83357142D02*
X13407200Y-83452380D01*
X13407200Y-83452380D02*
X13454819Y-83595237D01*
X13454819Y-83595237D02*
X13454819Y-83690475D01*
X12550057Y-82880951D02*
X12502438Y-82833332D01*
X12502438Y-82833332D02*
X12454819Y-82738094D01*
X12454819Y-82738094D02*
X12454819Y-82499999D01*
X12454819Y-82499999D02*
X12502438Y-82404761D01*
X12502438Y-82404761D02*
X12550057Y-82357142D01*
X12550057Y-82357142D02*
X12645295Y-82309523D01*
X12645295Y-82309523D02*
X12740533Y-82309523D01*
X12740533Y-82309523D02*
X12883390Y-82357142D01*
X12883390Y-82357142D02*
X13454819Y-82928570D01*
X13454819Y-82928570D02*
X13454819Y-82309523D01*
X12454819Y-81690475D02*
X12454819Y-81595237D01*
X12454819Y-81595237D02*
X12502438Y-81499999D01*
X12502438Y-81499999D02*
X12550057Y-81452380D01*
X12550057Y-81452380D02*
X12645295Y-81404761D01*
X12645295Y-81404761D02*
X12835771Y-81357142D01*
X12835771Y-81357142D02*
X13073866Y-81357142D01*
X13073866Y-81357142D02*
X13264342Y-81404761D01*
X13264342Y-81404761D02*
X13359580Y-81452380D01*
X13359580Y-81452380D02*
X13407200Y-81499999D01*
X13407200Y-81499999D02*
X13454819Y-81595237D01*
X13454819Y-81595237D02*
X13454819Y-81690475D01*
X13454819Y-81690475D02*
X13407200Y-81785713D01*
X13407200Y-81785713D02*
X13359580Y-81833332D01*
X13359580Y-81833332D02*
X13264342Y-81880951D01*
X13264342Y-81880951D02*
X13073866Y-81928570D01*
X13073866Y-81928570D02*
X12835771Y-81928570D01*
X12835771Y-81928570D02*
X12645295Y-81880951D01*
X12645295Y-81880951D02*
X12550057Y-81833332D01*
X12550057Y-81833332D02*
X12502438Y-81785713D01*
X12502438Y-81785713D02*
X12454819Y-81690475D01*
%TO.C,R1*%
D14*
X49000000Y-7375000D02*
X51000000Y-7375000D01*
X51000000Y-8625000D01*
X49000000Y-8625000D01*
X49000000Y-7375000D01*
%TO.C,U20*%
X15730000Y-41365000D02*
X16365000Y-40730000D01*
X15730000Y-53430000D02*
X15730000Y-41365000D01*
X16365000Y-40730000D02*
X18270000Y-40730000D01*
X18270000Y-40730000D02*
X18270000Y-53430000D01*
X18270000Y-53430000D02*
X15730000Y-53430000D01*
%TO.C,C2*%
X42000000Y-28375000D02*
X44000000Y-28375000D01*
X44000000Y-29625000D01*
X42000000Y-29625000D01*
X42000000Y-28375000D01*
%TO.C,C20*%
X27700000Y-39700000D02*
X27700000Y-44300000D01*
X27700000Y-39700000D02*
X28700000Y-38700000D01*
X27700000Y-44300000D02*
X28700000Y-45300000D01*
X28295162Y-40670000D02*
X28925162Y-40670000D01*
X28610162Y-40355000D02*
X28610162Y-40985000D01*
X28700000Y-38700000D02*
X34300000Y-38700000D01*
X28700000Y-45300000D02*
X34300000Y-45300000D01*
X34300000Y-38700000D02*
X34300000Y-45300000D01*
X34150000Y-42000000D02*
G75*
G02*
X27850000Y-42000000I-3150000J0D01*
G01*
X27850000Y-42000000D02*
G75*
G02*
X34150000Y-42000000I3150000J0D01*
G01*
%TO.C,J30*%
X41650000Y-77730000D02*
X48635000Y-77730000D01*
X41650000Y-80270000D02*
X41650000Y-77730000D01*
X48635000Y-77730000D02*
X49270000Y-78365000D01*
X49270000Y-78365000D02*
X49270000Y-80270000D01*
X49270000Y-80270000D02*
X41650000Y-80270000D01*
%TO.C,U41*%
X70800000Y-67450000D02*
X69200000Y-67450000D01*
X69200000Y-64950000D01*
X69600000Y-64550000D01*
X70800000Y-64550000D01*
X70800000Y-67450000D01*
%TO.C,R46*%
X97000000Y-91375000D02*
X99000000Y-91375000D01*
X99000000Y-92625000D01*
X97000000Y-92625000D01*
X97000000Y-91375000D01*
%TO.C,R45*%
X85000000Y-63375000D02*
X87000000Y-63375000D01*
X87000000Y-64625000D01*
X85000000Y-64625000D01*
X85000000Y-63375000D01*
%TO.C,C10*%
X71000000Y-51375000D02*
X73000000Y-51375000D01*
X73000000Y-52625000D01*
X71000000Y-52625000D01*
X71000000Y-51375000D01*
%TO.C,R51*%
X58000000Y-93375000D02*
X60000000Y-93375000D01*
X60000000Y-94625000D01*
X58000000Y-94625000D01*
X58000000Y-93375000D01*
%TO.C,R50*%
X49000000Y-93375000D02*
X51000000Y-93375000D01*
X51000000Y-94625000D01*
X49000000Y-94625000D01*
X49000000Y-93375000D01*
%TO.C,R42*%
X78000000Y-59375000D02*
X80000000Y-59375000D01*
X80000000Y-60625000D01*
X78000000Y-60625000D01*
X78000000Y-59375000D01*
%TO.C,R11*%
X67000000Y-45375000D02*
X69000000Y-45375000D01*
X69000000Y-46625000D01*
X67000000Y-46625000D01*
X67000000Y-45375000D01*
%TO.C,C22*%
X52000000Y-41375000D02*
X54000000Y-41375000D01*
X54000000Y-42625000D01*
X52000000Y-42625000D01*
X52000000Y-41375000D01*
%TO.C,U40*%
X62800000Y-67450000D02*
X61200000Y-67450000D01*
X61200000Y-64950000D01*
X61600000Y-64550000D01*
X62800000Y-64550000D01*
X62800000Y-67450000D01*
%TO.C,J24*%
X2750000Y-50750000D02*
X13250000Y-50750000D01*
X13250000Y-45250000D01*
X2750000Y-45250000D01*
X2750000Y-50750000D01*
%TO.C,U30*%
X15730000Y-62365000D02*
X16365000Y-61730000D01*
X15730000Y-71890000D02*
X15730000Y-62365000D01*
X16365000Y-61730000D02*
X18270000Y-61730000D01*
X18270000Y-61730000D02*
X18270000Y-71890000D01*
X18270000Y-71890000D02*
X15730000Y-71890000D01*
%TO.C,U10*%
X75000000Y-19250000D02*
X93000000Y-19250000D01*
X75000000Y-25250000D02*
X93000000Y-25250000D01*
X75000000Y-44750000D02*
X75000000Y-19250000D01*
X75000000Y-44750000D02*
X93000000Y-44750000D01*
X93000000Y-44750000D02*
X93000000Y-19250000D01*
%TO.C,SW1*%
X53150000Y-59050000D02*
X62850000Y-59050000D01*
X53150000Y-61600000D02*
X53150000Y-59050000D01*
X57350000Y-61600000D02*
X57350000Y-62900000D01*
X57350000Y-62900000D02*
X57550000Y-63100000D01*
X57550000Y-63100000D02*
X58400000Y-63100000D01*
X58400000Y-63100000D02*
X58550000Y-62950000D01*
X58550000Y-62950000D02*
X58650000Y-62850000D01*
X58650000Y-62850000D02*
X58650000Y-61600000D01*
X62850000Y-59050000D02*
X62850000Y-61600000D01*
X62850000Y-61600000D02*
X53200000Y-61600000D01*
%TO.C,J12*%
X107730000Y-36365000D02*
X108365000Y-35730000D01*
X107730000Y-50970000D02*
X107730000Y-36365000D01*
X108365000Y-35730000D02*
X110270000Y-35730000D01*
X110270000Y-35730000D02*
X110270000Y-50970000D01*
X110270000Y-50970000D02*
X107730000Y-50970000D01*
%TO.C,R41*%
X85000000Y-55375000D02*
X87000000Y-55375000D01*
X87000000Y-56625000D01*
X85000000Y-56625000D01*
X85000000Y-55375000D01*
%TO.C,C1*%
X29700000Y-21700000D02*
X29700000Y-26300000D01*
X29700000Y-21700000D02*
X30700000Y-20700000D01*
X29700000Y-26300000D02*
X30700000Y-27300000D01*
X30295162Y-22670000D02*
X30925162Y-22670000D01*
X30610162Y-22355000D02*
X30610162Y-22985000D01*
X30700000Y-20700000D02*
X36300000Y-20700000D01*
X30700000Y-27300000D02*
X36300000Y-27300000D01*
X36300000Y-20700000D02*
X36300000Y-27300000D01*
X36150000Y-24000000D02*
G75*
G02*
X29850000Y-24000000I-3150000J0D01*
G01*
X29850000Y-24000000D02*
G75*
G02*
X36150000Y-24000000I3150000J0D01*
G01*
%TO.C,J47*%
X79730000Y-84730000D02*
X94970000Y-84730000D01*
X79730000Y-86635000D02*
X79730000Y-84730000D01*
X80365000Y-87270000D02*
X79730000Y-86635000D01*
X94970000Y-84730000D02*
X94970000Y-87270000D01*
X94970000Y-87270000D02*
X80365000Y-87270000D01*
%TO.C,C21*%
X39700000Y-39700000D02*
X39700000Y-44300000D01*
X39700000Y-39700000D02*
X40700000Y-38700000D01*
X39700000Y-44300000D02*
X40700000Y-45300000D01*
X40295162Y-40670000D02*
X40925162Y-40670000D01*
X40610162Y-40355000D02*
X40610162Y-40985000D01*
X40700000Y-38700000D02*
X46300000Y-38700000D01*
X40700000Y-45300000D02*
X46300000Y-45300000D01*
X46300000Y-38700000D02*
X46300000Y-45300000D01*
X46150000Y-42000000D02*
G75*
G02*
X39850000Y-42000000I-3150000J0D01*
G01*
X39850000Y-42000000D02*
G75*
G02*
X46150000Y-42000000I3150000J0D01*
G01*
%TO.C,D50*%
X52000000Y-95700000D02*
X52000000Y-96600000D01*
X52000000Y-96600000D02*
X54000000Y-96600000D01*
X52300000Y-95400000D02*
X52000000Y-95700000D01*
X54000000Y-95400000D02*
X52300000Y-95400000D01*
X54000000Y-96600000D02*
X54000000Y-95400000D01*
%TO.C,C31*%
X41000000Y-62375000D02*
X43000000Y-62375000D01*
X43000000Y-63625000D01*
X41000000Y-63625000D01*
X41000000Y-62375000D01*
%TO.C,J48*%
X79730000Y-92730000D02*
X94970000Y-92730000D01*
X79730000Y-94635000D02*
X79730000Y-92730000D01*
X80365000Y-95270000D02*
X79730000Y-94635000D01*
X94970000Y-92730000D02*
X94970000Y-95270000D01*
X94970000Y-95270000D02*
X80365000Y-95270000D01*
%TO.C,J33*%
X56650000Y-86730000D02*
X63635000Y-86730000D01*
X56650000Y-89270000D02*
X56650000Y-86730000D01*
X63635000Y-86730000D02*
X64270000Y-87365000D01*
X64270000Y-87365000D02*
X64270000Y-89270000D01*
X64270000Y-89270000D02*
X56650000Y-89270000D01*
%TO.C,D1*%
X42500000Y-18700000D02*
X42500000Y-23300000D01*
X42500000Y-18700000D02*
X45500000Y-18700000D01*
X43200920Y-21649440D02*
X44801120Y-21649440D01*
X44001020Y-20498820D02*
X44001020Y-19500600D01*
X44001020Y-21649440D02*
X43200920Y-20498820D01*
X44001020Y-21649440D02*
X44001020Y-22551140D01*
X44001020Y-21649440D02*
X44750320Y-20498820D01*
X44750320Y-20498820D02*
X43200920Y-20498820D01*
X45500000Y-18700000D02*
X45500000Y-23300000D01*
X45500000Y-23300000D02*
X42500000Y-23300000D01*
%TO.C,J44*%
X98730000Y-56730000D02*
X113970000Y-56730000D01*
X98730000Y-58635000D02*
X98730000Y-56730000D01*
X99365000Y-59270000D02*
X98730000Y-58635000D01*
X113970000Y-56730000D02*
X113970000Y-59270000D01*
X113970000Y-59270000D02*
X99365000Y-59270000D01*
%TO.C,FB1*%
X55000000Y-46375000D02*
X57000000Y-46375000D01*
X57000000Y-47625000D01*
X55000000Y-47625000D01*
X55000000Y-46375000D01*
%TO.C,SW3*%
X84250000Y-46150000D02*
X84250000Y-46850000D01*
X84250000Y-46850000D02*
X85750000Y-46850000D01*
X84250000Y-49150000D02*
X84250000Y-49850000D01*
X84250000Y-49850000D02*
X85750000Y-49850000D01*
X85000000Y-46150000D02*
X85000000Y-46850000D01*
X85000000Y-49150000D02*
X85000000Y-49850000D01*
X85750000Y-45750000D02*
X90250000Y-45750000D01*
X85750000Y-46150000D02*
X84250000Y-46150000D01*
X85750000Y-49150000D02*
X84250000Y-49150000D01*
X85750000Y-50250000D02*
X85750000Y-45750000D01*
X90250000Y-45750000D02*
X90250000Y-50250000D01*
X90250000Y-46850000D02*
X91750000Y-46850000D01*
X90250000Y-49150000D02*
X91750000Y-49150000D01*
X90250000Y-50250000D02*
X85750000Y-50250000D01*
X91000000Y-46150000D02*
X91000000Y-46850000D01*
X91000000Y-49150000D02*
X91000000Y-49850000D01*
X91750000Y-46150000D02*
X90250000Y-46150000D01*
X91750000Y-46850000D02*
X91750000Y-46150000D01*
X91750000Y-49150000D02*
X91750000Y-49850000D01*
X91750000Y-49850000D02*
X90250000Y-49850000D01*
X89250000Y-48000000D02*
G75*
G02*
X86750000Y-48000000I-1250000J0D01*
G01*
X86750000Y-48000000D02*
G75*
G02*
X89250000Y-48000000I1250000J0D01*
G01*
%TO.C,U42*%
X62800000Y-75450000D02*
X61200000Y-75450000D01*
X61200000Y-72950000D01*
X61600000Y-72550000D01*
X62800000Y-72550000D01*
X62800000Y-75450000D01*
%TO.C,J1*%
X10400000Y-11400000D02*
X15600000Y-11400000D01*
X10400000Y-19900000D02*
X10400000Y-11400000D01*
X11700000Y-21600000D02*
X10400000Y-19900000D01*
X11700000Y-21600000D02*
X14300000Y-21600000D01*
X14300000Y-21600000D02*
X15600000Y-19900000D01*
X15600000Y-19900000D02*
X15600000Y-11400000D01*
%TO.C,D52*%
X70000000Y-95700000D02*
X70000000Y-96600000D01*
X70000000Y-96600000D02*
X72000000Y-96600000D01*
X70300000Y-95400000D02*
X70000000Y-95700000D01*
X72000000Y-95400000D02*
X70300000Y-95400000D01*
X72000000Y-96600000D02*
X72000000Y-95400000D01*
%TO.C,R10*%
X71000000Y-43375000D02*
X73000000Y-43375000D01*
X73000000Y-44625000D01*
X71000000Y-44625000D01*
X71000000Y-43375000D01*
%TO.C,C11*%
X75000000Y-51375000D02*
X77000000Y-51375000D01*
X77000000Y-52625000D01*
X75000000Y-52625000D01*
X75000000Y-51375000D01*
%TO.C,R40*%
X78000000Y-55375000D02*
X80000000Y-55375000D01*
X80000000Y-56625000D01*
X78000000Y-56625000D01*
X78000000Y-55375000D01*
%TO.C,R44*%
X78000000Y-63375000D02*
X80000000Y-63375000D01*
X80000000Y-64625000D01*
X78000000Y-64625000D01*
X78000000Y-63375000D01*
%TO.C,J32*%
X56650000Y-77730000D02*
X63635000Y-77730000D01*
X56650000Y-80270000D02*
X56650000Y-77730000D01*
X63635000Y-77730000D02*
X64270000Y-78365000D01*
X64270000Y-78365000D02*
X64270000Y-80270000D01*
X64270000Y-80270000D02*
X56650000Y-80270000D01*
%TO.C,C30*%
X27700000Y-61700000D02*
X27700000Y-66300000D01*
X27700000Y-61700000D02*
X28700000Y-60700000D01*
X27700000Y-66300000D02*
X28700000Y-67300000D01*
X28295162Y-62670000D02*
X28925162Y-62670000D01*
X28610162Y-62355000D02*
X28610162Y-62985000D01*
X28700000Y-60700000D02*
X34300000Y-60700000D01*
X28700000Y-67300000D02*
X34300000Y-67300000D01*
X34300000Y-60700000D02*
X34300000Y-67300000D01*
X34150000Y-64000000D02*
G75*
G02*
X27850000Y-64000000I-3150000J0D01*
G01*
X27850000Y-64000000D02*
G75*
G02*
X34150000Y-64000000I3150000J0D01*
G01*
%TO.C,R43*%
X85000000Y-59375000D02*
X87000000Y-59375000D01*
X87000000Y-60625000D01*
X85000000Y-60625000D01*
X85000000Y-59375000D01*
%TO.C,J2*%
X24190000Y-10730000D02*
X28635000Y-10730000D01*
X24190000Y-13270000D02*
X24190000Y-10730000D01*
X28635000Y-10730000D02*
X29270000Y-11365000D01*
X29270000Y-11365000D02*
X29270000Y-13270000D01*
X29270000Y-13270000D02*
X24190000Y-13270000D01*
%TO.C,J23*%
X2750000Y-36750000D02*
X13250000Y-36750000D01*
X13250000Y-31250000D01*
X2750000Y-31250000D01*
X2750000Y-36750000D01*
%TO.C,R47*%
X97000000Y-95375000D02*
X99000000Y-95375000D01*
X99000000Y-96625000D01*
X97000000Y-96625000D01*
X97000000Y-95375000D01*
%TO.C,SW2*%
X74250000Y-46150000D02*
X74250000Y-46850000D01*
X74250000Y-46850000D02*
X75750000Y-46850000D01*
X74250000Y-49150000D02*
X74250000Y-49850000D01*
X74250000Y-49850000D02*
X75750000Y-49850000D01*
X75000000Y-46150000D02*
X75000000Y-46850000D01*
X75000000Y-49150000D02*
X75000000Y-49850000D01*
X75750000Y-45750000D02*
X80250000Y-45750000D01*
X75750000Y-46150000D02*
X74250000Y-46150000D01*
X75750000Y-49150000D02*
X74250000Y-49150000D01*
X75750000Y-50250000D02*
X75750000Y-45750000D01*
X80250000Y-45750000D02*
X80250000Y-50250000D01*
X80250000Y-46850000D02*
X81750000Y-46850000D01*
X80250000Y-49150000D02*
X81750000Y-49150000D01*
X80250000Y-50250000D02*
X75750000Y-50250000D01*
X81000000Y-46150000D02*
X81000000Y-46850000D01*
X81000000Y-49150000D02*
X81000000Y-49850000D01*
X81750000Y-46150000D02*
X80250000Y-46150000D01*
X81750000Y-46850000D02*
X81750000Y-46150000D01*
X81750000Y-49150000D02*
X81750000Y-49850000D01*
X81750000Y-49850000D02*
X80250000Y-49850000D01*
X79250000Y-48000000D02*
G75*
G02*
X76750000Y-48000000I-1250000J0D01*
G01*
X76750000Y-48000000D02*
G75*
G02*
X79250000Y-48000000I1250000J0D01*
G01*
%TO.C,C23*%
X63000000Y-46375000D02*
X65000000Y-46375000D01*
X65000000Y-47625000D01*
X63000000Y-47625000D01*
X63000000Y-46375000D01*
%TO.C,J31*%
X41650000Y-86730000D02*
X48635000Y-86730000D01*
X41650000Y-89270000D02*
X41650000Y-86730000D01*
X48635000Y-86730000D02*
X49270000Y-87365000D01*
X49270000Y-87365000D02*
X49270000Y-89270000D01*
X49270000Y-89270000D02*
X41650000Y-89270000D01*
%TO.C,J46*%
X101730000Y-84730000D02*
X116970000Y-84730000D01*
X101730000Y-86635000D02*
X101730000Y-84730000D01*
X102365000Y-87270000D02*
X101730000Y-86635000D01*
X116970000Y-84730000D02*
X116970000Y-87270000D01*
X116970000Y-87270000D02*
X102365000Y-87270000D01*
%TO.C,J11*%
X111000000Y-65675000D02*
X111000000Y-61425000D01*
X115500000Y-64967893D02*
X115000000Y-65675000D01*
X116000000Y-65675000D02*
X115500000Y-64967893D01*
X117000000Y-61425000D02*
X111000000Y-61425000D01*
X117000000Y-65675000D02*
X111000000Y-65675000D01*
X117000000Y-65675000D02*
X117000000Y-61425000D01*
%TO.C,R52*%
X67000000Y-93375000D02*
X69000000Y-93375000D01*
X69000000Y-94625000D01*
X67000000Y-94625000D01*
X67000000Y-93375000D01*
%TO.C,J21*%
X28730000Y-77365000D02*
X29365000Y-76730000D01*
X28730000Y-86890000D02*
X28730000Y-77365000D01*
X29365000Y-76730000D02*
X31270000Y-76730000D01*
X31270000Y-76730000D02*
X31270000Y-86890000D01*
X31270000Y-86890000D02*
X28730000Y-86890000D01*
%TO.C,J26*%
X2750000Y-72750000D02*
X13250000Y-72750000D01*
X13250000Y-67250000D01*
X2750000Y-67250000D01*
X2750000Y-72750000D01*
%TO.C,J25*%
X2750000Y-64750000D02*
X13250000Y-64750000D01*
X13250000Y-59250000D01*
X2750000Y-59250000D01*
X2750000Y-64750000D01*
%TO.C,J10*%
X90730000Y-70730000D02*
X111050000Y-70730000D01*
X90730000Y-72635000D02*
X90730000Y-70730000D01*
X91365000Y-73270000D02*
X90730000Y-72635000D01*
X111050000Y-70730000D02*
X111050000Y-73270000D01*
X111050000Y-73270000D02*
X91365000Y-73270000D01*
%TO.C,U43*%
X70800000Y-75450000D02*
X69200000Y-75450000D01*
X69200000Y-72950000D01*
X69600000Y-72550000D01*
X70800000Y-72550000D01*
X70800000Y-75450000D01*
%TO.C,J49*%
X102000000Y-95675000D02*
X102000000Y-91425000D01*
X106500000Y-94967893D02*
X106000000Y-95675000D01*
X107000000Y-95675000D02*
X106500000Y-94967893D01*
X108000000Y-91425000D02*
X102000000Y-91425000D01*
X108000000Y-95675000D02*
X102000000Y-95675000D01*
X108000000Y-95675000D02*
X108000000Y-91425000D01*
%TO.C,D51*%
X61000000Y-95700000D02*
X61000000Y-96600000D01*
X61000000Y-96600000D02*
X63000000Y-96600000D01*
X61300000Y-95400000D02*
X61000000Y-95700000D01*
X63000000Y-95400000D02*
X61300000Y-95400000D01*
X63000000Y-96600000D02*
X63000000Y-95400000D01*
%TO.C,F1*%
X38750000Y-8400000D02*
X43250000Y-8400000D01*
X43250000Y-11600000D01*
X38750000Y-11600000D01*
X38750000Y-8400000D01*
%TO.C,D2*%
X55000000Y-7700000D02*
X55000000Y-8600000D01*
X55000000Y-8600000D02*
X57000000Y-8600000D01*
X55300000Y-7400000D02*
X55000000Y-7700000D01*
X57000000Y-7400000D02*
X55300000Y-7400000D01*
X57000000Y-8600000D02*
X57000000Y-7400000D01*
%TO.C,J20*%
X10400000Y-79100000D02*
X10400000Y-87600000D01*
X11700000Y-77400000D02*
X10400000Y-79100000D01*
X14300000Y-77400000D02*
X11700000Y-77400000D01*
X14300000Y-77400000D02*
X15600000Y-79100000D01*
X15600000Y-79100000D02*
X15600000Y-87600000D01*
X15600000Y-87600000D02*
X10400000Y-87600000D01*
%TD*%
M02*
