%TF.GenerationSoftware,KiCad,Pcbnew,9.0.7+dfsg-1*%
%TF.CreationDate,2026-05-09T16:33:42-04:00*%
%TF.ProjectId,flipping-cool,666c6970-7069-46e6-972d-636f6f6c2e6b,rev?*%
%TF.SameCoordinates,Original*%
%TF.FileFunction,Other,Comment*%
%FSLAX46Y46*%
G04 Gerber Fmt 4.6, Leading zero omitted, Abs format (unit mm)*
G04 Created by KiCad (PCBNEW 9.0.7+dfsg-1) date 2026-05-09 16:33:42*
%MOMM*%
%LPD*%
G01*
G04 APERTURE LIST*
%ADD10C,0.120000*%
%ADD11C,0.150000*%
G04 APERTURE END LIST*
D10*
X60000000Y-25000000D02*
X108000000Y-25000000D01*
X60000000Y-4000000D02*
X60000000Y-25000000D01*
X108000000Y-4000000D02*
X108000000Y-25000000D01*
X60000000Y-4000000D02*
X108000000Y-4000000D01*
D11*
X8635714Y-65008557D02*
X8850000Y-65908557D01*
X8850000Y-65908557D02*
X9021428Y-65265700D01*
X9021428Y-65265700D02*
X9192857Y-65908557D01*
X9192857Y-65908557D02*
X9407143Y-65008557D01*
X9749999Y-65437128D02*
X10049999Y-65437128D01*
X10178571Y-65908557D02*
X9749999Y-65908557D01*
X9749999Y-65908557D02*
X9749999Y-65008557D01*
X9749999Y-65008557D02*
X10178571Y-65008557D01*
X10564285Y-65908557D02*
X10564285Y-65008557D01*
X11078571Y-65908557D02*
X10692857Y-65394271D01*
X11078571Y-65008557D02*
X10564285Y-65522842D01*
X11421428Y-65651414D02*
X11850000Y-65651414D01*
X11335714Y-65908557D02*
X11635714Y-65008557D01*
X11635714Y-65008557D02*
X11935714Y-65908557D01*
X12021429Y-65994271D02*
X12707143Y-65994271D01*
X12921428Y-65908557D02*
X12921428Y-65008557D01*
X12921428Y-65008557D02*
X13221428Y-65651414D01*
X13221428Y-65651414D02*
X13521428Y-65008557D01*
X13521428Y-65008557D02*
X13521428Y-65908557D01*
X13907142Y-65094271D02*
X13949999Y-65051414D01*
X13949999Y-65051414D02*
X14035714Y-65008557D01*
X14035714Y-65008557D02*
X14249999Y-65008557D01*
X14249999Y-65008557D02*
X14335714Y-65051414D01*
X14335714Y-65051414D02*
X14378571Y-65094271D01*
X14378571Y-65094271D02*
X14421428Y-65179985D01*
X14421428Y-65179985D02*
X14421428Y-65265700D01*
X14421428Y-65265700D02*
X14378571Y-65394271D01*
X14378571Y-65394271D02*
X13864285Y-65908557D01*
X13864285Y-65908557D02*
X14421428Y-65908557D01*
X15107142Y-65437128D02*
X15235714Y-65479985D01*
X15235714Y-65479985D02*
X15278571Y-65522842D01*
X15278571Y-65522842D02*
X15321428Y-65608557D01*
X15321428Y-65608557D02*
X15321428Y-65737128D01*
X15321428Y-65737128D02*
X15278571Y-65822842D01*
X15278571Y-65822842D02*
X15235714Y-65865700D01*
X15235714Y-65865700D02*
X15149999Y-65908557D01*
X15149999Y-65908557D02*
X14807142Y-65908557D01*
X14807142Y-65908557D02*
X14807142Y-65008557D01*
X14807142Y-65008557D02*
X15107142Y-65008557D01*
X15107142Y-65008557D02*
X15192857Y-65051414D01*
X15192857Y-65051414D02*
X15235714Y-65094271D01*
X15235714Y-65094271D02*
X15278571Y-65179985D01*
X15278571Y-65179985D02*
X15278571Y-65265700D01*
X15278571Y-65265700D02*
X15235714Y-65351414D01*
X15235714Y-65351414D02*
X15192857Y-65394271D01*
X15192857Y-65394271D02*
X15107142Y-65437128D01*
X15107142Y-65437128D02*
X14807142Y-65437128D01*
X40592857Y-54365700D02*
X40721429Y-54408557D01*
X40721429Y-54408557D02*
X40935714Y-54408557D01*
X40935714Y-54408557D02*
X41021429Y-54365700D01*
X41021429Y-54365700D02*
X41064286Y-54322842D01*
X41064286Y-54322842D02*
X41107143Y-54237128D01*
X41107143Y-54237128D02*
X41107143Y-54151414D01*
X41107143Y-54151414D02*
X41064286Y-54065700D01*
X41064286Y-54065700D02*
X41021429Y-54022842D01*
X41021429Y-54022842D02*
X40935714Y-53979985D01*
X40935714Y-53979985D02*
X40764286Y-53937128D01*
X40764286Y-53937128D02*
X40678571Y-53894271D01*
X40678571Y-53894271D02*
X40635714Y-53851414D01*
X40635714Y-53851414D02*
X40592857Y-53765700D01*
X40592857Y-53765700D02*
X40592857Y-53679985D01*
X40592857Y-53679985D02*
X40635714Y-53594271D01*
X40635714Y-53594271D02*
X40678571Y-53551414D01*
X40678571Y-53551414D02*
X40764286Y-53508557D01*
X40764286Y-53508557D02*
X40978571Y-53508557D01*
X40978571Y-53508557D02*
X41107143Y-53551414D01*
X41407143Y-53508557D02*
X41621429Y-54408557D01*
X41621429Y-54408557D02*
X41792857Y-53765700D01*
X41792857Y-53765700D02*
X41964286Y-54408557D01*
X41964286Y-54408557D02*
X42178572Y-53508557D01*
X42992857Y-54408557D02*
X42478571Y-54408557D01*
X42735714Y-54408557D02*
X42735714Y-53508557D01*
X42735714Y-53508557D02*
X42650000Y-53637128D01*
X42650000Y-53637128D02*
X42564285Y-53722842D01*
X42564285Y-53722842D02*
X42478571Y-53765700D01*
X43378571Y-54322842D02*
X43421428Y-54365700D01*
X43421428Y-54365700D02*
X43378571Y-54408557D01*
X43378571Y-54408557D02*
X43335714Y-54365700D01*
X43335714Y-54365700D02*
X43378571Y-54322842D01*
X43378571Y-54322842D02*
X43378571Y-54408557D01*
X43378571Y-53851414D02*
X43421428Y-53894271D01*
X43421428Y-53894271D02*
X43378571Y-53937128D01*
X43378571Y-53937128D02*
X43335714Y-53894271D01*
X43335714Y-53894271D02*
X43378571Y-53851414D01*
X43378571Y-53851414D02*
X43378571Y-53937128D01*
X44449999Y-54365700D02*
X44578571Y-54408557D01*
X44578571Y-54408557D02*
X44792856Y-54408557D01*
X44792856Y-54408557D02*
X44878571Y-54365700D01*
X44878571Y-54365700D02*
X44921428Y-54322842D01*
X44921428Y-54322842D02*
X44964285Y-54237128D01*
X44964285Y-54237128D02*
X44964285Y-54151414D01*
X44964285Y-54151414D02*
X44921428Y-54065700D01*
X44921428Y-54065700D02*
X44878571Y-54022842D01*
X44878571Y-54022842D02*
X44792856Y-53979985D01*
X44792856Y-53979985D02*
X44621428Y-53937128D01*
X44621428Y-53937128D02*
X44535713Y-53894271D01*
X44535713Y-53894271D02*
X44492856Y-53851414D01*
X44492856Y-53851414D02*
X44449999Y-53765700D01*
X44449999Y-53765700D02*
X44449999Y-53679985D01*
X44449999Y-53679985D02*
X44492856Y-53594271D01*
X44492856Y-53594271D02*
X44535713Y-53551414D01*
X44535713Y-53551414D02*
X44621428Y-53508557D01*
X44621428Y-53508557D02*
X44835713Y-53508557D01*
X44835713Y-53508557D02*
X44964285Y-53551414D01*
X45307142Y-54151414D02*
X45735714Y-54151414D01*
X45221428Y-54408557D02*
X45521428Y-53508557D01*
X45521428Y-53508557D02*
X45821428Y-54408557D01*
X46421428Y-53937128D02*
X46121428Y-53937128D01*
X46121428Y-54408557D02*
X46121428Y-53508557D01*
X46121428Y-53508557D02*
X46550000Y-53508557D01*
X46892857Y-53937128D02*
X47192857Y-53937128D01*
X47321429Y-54408557D02*
X46892857Y-54408557D01*
X46892857Y-54408557D02*
X46892857Y-53508557D01*
X46892857Y-53508557D02*
X47321429Y-53508557D01*
X48607143Y-54708557D02*
X48607143Y-53422842D01*
X50450000Y-54408557D02*
X50150000Y-53979985D01*
X49935714Y-54408557D02*
X49935714Y-53508557D01*
X49935714Y-53508557D02*
X50278571Y-53508557D01*
X50278571Y-53508557D02*
X50364286Y-53551414D01*
X50364286Y-53551414D02*
X50407143Y-53594271D01*
X50407143Y-53594271D02*
X50450000Y-53679985D01*
X50450000Y-53679985D02*
X50450000Y-53808557D01*
X50450000Y-53808557D02*
X50407143Y-53894271D01*
X50407143Y-53894271D02*
X50364286Y-53937128D01*
X50364286Y-53937128D02*
X50278571Y-53979985D01*
X50278571Y-53979985D02*
X49935714Y-53979985D01*
X50750000Y-53508557D02*
X51350000Y-54408557D01*
X51350000Y-53508557D02*
X50750000Y-54408557D01*
X52592857Y-54708557D02*
X52592857Y-53422842D01*
X53921428Y-54408557D02*
X53921428Y-53508557D01*
X53921428Y-53508557D02*
X54221428Y-54151414D01*
X54221428Y-54151414D02*
X54521428Y-53508557D01*
X54521428Y-53508557D02*
X54521428Y-54408557D01*
X55464285Y-54322842D02*
X55421428Y-54365700D01*
X55421428Y-54365700D02*
X55292856Y-54408557D01*
X55292856Y-54408557D02*
X55207142Y-54408557D01*
X55207142Y-54408557D02*
X55078571Y-54365700D01*
X55078571Y-54365700D02*
X54992856Y-54279985D01*
X54992856Y-54279985D02*
X54949999Y-54194271D01*
X54949999Y-54194271D02*
X54907142Y-54022842D01*
X54907142Y-54022842D02*
X54907142Y-53894271D01*
X54907142Y-53894271D02*
X54949999Y-53722842D01*
X54949999Y-53722842D02*
X54992856Y-53637128D01*
X54992856Y-53637128D02*
X55078571Y-53551414D01*
X55078571Y-53551414D02*
X55207142Y-53508557D01*
X55207142Y-53508557D02*
X55292856Y-53508557D01*
X55292856Y-53508557D02*
X55421428Y-53551414D01*
X55421428Y-53551414D02*
X55464285Y-53594271D01*
X55849999Y-53508557D02*
X55849999Y-54237128D01*
X55849999Y-54237128D02*
X55892856Y-54322842D01*
X55892856Y-54322842D02*
X55935714Y-54365700D01*
X55935714Y-54365700D02*
X56021428Y-54408557D01*
X56021428Y-54408557D02*
X56192856Y-54408557D01*
X56192856Y-54408557D02*
X56278571Y-54365700D01*
X56278571Y-54365700D02*
X56321428Y-54322842D01*
X56321428Y-54322842D02*
X56364285Y-54237128D01*
X56364285Y-54237128D02*
X56364285Y-53508557D01*
X8635714Y-43008557D02*
X8850000Y-43908557D01*
X8850000Y-43908557D02*
X9021428Y-43265700D01*
X9021428Y-43265700D02*
X9192857Y-43908557D01*
X9192857Y-43908557D02*
X9407143Y-43008557D01*
X9749999Y-43437128D02*
X10049999Y-43437128D01*
X10178571Y-43908557D02*
X9749999Y-43908557D01*
X9749999Y-43908557D02*
X9749999Y-43008557D01*
X9749999Y-43008557D02*
X10178571Y-43008557D01*
X10564285Y-43908557D02*
X10564285Y-43008557D01*
X11078571Y-43908557D02*
X10692857Y-43394271D01*
X11078571Y-43008557D02*
X10564285Y-43522842D01*
X11421428Y-43651414D02*
X11850000Y-43651414D01*
X11335714Y-43908557D02*
X11635714Y-43008557D01*
X11635714Y-43008557D02*
X11935714Y-43908557D01*
X12021429Y-43994271D02*
X12707143Y-43994271D01*
X12921428Y-43908557D02*
X12921428Y-43008557D01*
X12921428Y-43008557D02*
X13221428Y-43651414D01*
X13221428Y-43651414D02*
X13521428Y-43008557D01*
X13521428Y-43008557D02*
X13521428Y-43908557D01*
X14421428Y-43908557D02*
X13907142Y-43908557D01*
X14164285Y-43908557D02*
X14164285Y-43008557D01*
X14164285Y-43008557D02*
X14078571Y-43137128D01*
X14078571Y-43137128D02*
X13992856Y-43222842D01*
X13992856Y-43222842D02*
X13907142Y-43265700D01*
X15107142Y-43437128D02*
X15235714Y-43479985D01*
X15235714Y-43479985D02*
X15278571Y-43522842D01*
X15278571Y-43522842D02*
X15321428Y-43608557D01*
X15321428Y-43608557D02*
X15321428Y-43737128D01*
X15321428Y-43737128D02*
X15278571Y-43822842D01*
X15278571Y-43822842D02*
X15235714Y-43865700D01*
X15235714Y-43865700D02*
X15149999Y-43908557D01*
X15149999Y-43908557D02*
X14807142Y-43908557D01*
X14807142Y-43908557D02*
X14807142Y-43008557D01*
X14807142Y-43008557D02*
X15107142Y-43008557D01*
X15107142Y-43008557D02*
X15192857Y-43051414D01*
X15192857Y-43051414D02*
X15235714Y-43094271D01*
X15235714Y-43094271D02*
X15278571Y-43179985D01*
X15278571Y-43179985D02*
X15278571Y-43265700D01*
X15278571Y-43265700D02*
X15235714Y-43351414D01*
X15235714Y-43351414D02*
X15192857Y-43394271D01*
X15192857Y-43394271D02*
X15107142Y-43437128D01*
X15107142Y-43437128D02*
X14807142Y-43437128D01*
X-3328571Y-13408557D02*
X-3628571Y-12979985D01*
X-3842857Y-13408557D02*
X-3842857Y-12508557D01*
X-3842857Y-12508557D02*
X-3500000Y-12508557D01*
X-3500000Y-12508557D02*
X-3414285Y-12551414D01*
X-3414285Y-12551414D02*
X-3371428Y-12594271D01*
X-3371428Y-12594271D02*
X-3328571Y-12679985D01*
X-3328571Y-12679985D02*
X-3328571Y-12808557D01*
X-3328571Y-12808557D02*
X-3371428Y-12894271D01*
X-3371428Y-12894271D02*
X-3414285Y-12937128D01*
X-3414285Y-12937128D02*
X-3500000Y-12979985D01*
X-3500000Y-12979985D02*
X-3842857Y-12979985D01*
X-2771428Y-12508557D02*
X-2600000Y-12508557D01*
X-2600000Y-12508557D02*
X-2514285Y-12551414D01*
X-2514285Y-12551414D02*
X-2428571Y-12637128D01*
X-2428571Y-12637128D02*
X-2385714Y-12808557D01*
X-2385714Y-12808557D02*
X-2385714Y-13108557D01*
X-2385714Y-13108557D02*
X-2428571Y-13279985D01*
X-2428571Y-13279985D02*
X-2514285Y-13365700D01*
X-2514285Y-13365700D02*
X-2600000Y-13408557D01*
X-2600000Y-13408557D02*
X-2771428Y-13408557D01*
X-2771428Y-13408557D02*
X-2857143Y-13365700D01*
X-2857143Y-13365700D02*
X-2942857Y-13279985D01*
X-2942857Y-13279985D02*
X-2985714Y-13108557D01*
X-2985714Y-13108557D02*
X-2985714Y-12808557D01*
X-2985714Y-12808557D02*
X-2942857Y-12637128D01*
X-2942857Y-12637128D02*
X-2857143Y-12551414D01*
X-2857143Y-12551414D02*
X-2771428Y-12508557D01*
X-2000000Y-12508557D02*
X-2000000Y-13237128D01*
X-2000000Y-13237128D02*
X-1957143Y-13322842D01*
X-1957143Y-13322842D02*
X-1914286Y-13365700D01*
X-1914286Y-13365700D02*
X-1828571Y-13408557D01*
X-1828571Y-13408557D02*
X-1657143Y-13408557D01*
X-1657143Y-13408557D02*
X-1571428Y-13365700D01*
X-1571428Y-13365700D02*
X-1528571Y-13322842D01*
X-1528571Y-13322842D02*
X-1485714Y-13237128D01*
X-1485714Y-13237128D02*
X-1485714Y-12508557D01*
X-1185714Y-12508557D02*
X-671429Y-12508557D01*
X-928571Y-13408557D02*
X-928571Y-12508557D01*
X-371429Y-12937128D02*
X-71429Y-12937128D01*
X57142Y-13408557D02*
X-371429Y-13408557D01*
X-371429Y-13408557D02*
X-371429Y-12508557D01*
X-371429Y-12508557D02*
X57142Y-12508557D01*
X1642856Y-13408557D02*
X1342856Y-12979985D01*
X1128570Y-13408557D02*
X1128570Y-12508557D01*
X1128570Y-12508557D02*
X1471427Y-12508557D01*
X1471427Y-12508557D02*
X1557142Y-12551414D01*
X1557142Y-12551414D02*
X1599999Y-12594271D01*
X1599999Y-12594271D02*
X1642856Y-12679985D01*
X1642856Y-12679985D02*
X1642856Y-12808557D01*
X1642856Y-12808557D02*
X1599999Y-12894271D01*
X1599999Y-12894271D02*
X1557142Y-12937128D01*
X1557142Y-12937128D02*
X1471427Y-12979985D01*
X1471427Y-12979985D02*
X1128570Y-12979985D01*
X2028570Y-12937128D02*
X2328570Y-12937128D01*
X2457142Y-13408557D02*
X2028570Y-13408557D01*
X2028570Y-13408557D02*
X2028570Y-12508557D01*
X2028570Y-12508557D02*
X2457142Y-12508557D01*
X2714285Y-12508557D02*
X3014285Y-13408557D01*
X3014285Y-13408557D02*
X3314285Y-12508557D01*
X3614285Y-13408557D02*
X3614285Y-12508557D01*
X4042856Y-12937128D02*
X4342856Y-12937128D01*
X4471428Y-13408557D02*
X4042856Y-13408557D01*
X4042856Y-13408557D02*
X4042856Y-12508557D01*
X4042856Y-12508557D02*
X4471428Y-12508557D01*
X4771428Y-12508557D02*
X4985714Y-13408557D01*
X4985714Y-13408557D02*
X5157142Y-12765700D01*
X5157142Y-12765700D02*
X5328571Y-13408557D01*
X5328571Y-13408557D02*
X5542857Y-12508557D01*
X5885713Y-13322842D02*
X5928570Y-13365700D01*
X5928570Y-13365700D02*
X5885713Y-13408557D01*
X5885713Y-13408557D02*
X5842856Y-13365700D01*
X5842856Y-13365700D02*
X5885713Y-13322842D01*
X5885713Y-13322842D02*
X5885713Y-13408557D01*
X5885713Y-12851414D02*
X5928570Y-12894271D01*
X5928570Y-12894271D02*
X5885713Y-12937128D01*
X5885713Y-12937128D02*
X5842856Y-12894271D01*
X5842856Y-12894271D02*
X5885713Y-12851414D01*
X5885713Y-12851414D02*
X5885713Y-12937128D01*
X7471427Y-13408557D02*
X6957141Y-13408557D01*
X7214284Y-13408557D02*
X7214284Y-12508557D01*
X7214284Y-12508557D02*
X7128570Y-12637128D01*
X7128570Y-12637128D02*
X7042855Y-12722842D01*
X7042855Y-12722842D02*
X6957141Y-12765700D01*
X8671427Y-13408557D02*
X8585712Y-13365700D01*
X8585712Y-13365700D02*
X8542855Y-13322842D01*
X8542855Y-13322842D02*
X8499998Y-13237128D01*
X8499998Y-13237128D02*
X8499998Y-12979985D01*
X8499998Y-12979985D02*
X8542855Y-12894271D01*
X8542855Y-12894271D02*
X8585712Y-12851414D01*
X8585712Y-12851414D02*
X8671427Y-12808557D01*
X8671427Y-12808557D02*
X8799998Y-12808557D01*
X8799998Y-12808557D02*
X8885712Y-12851414D01*
X8885712Y-12851414D02*
X8928570Y-12894271D01*
X8928570Y-12894271D02*
X8971427Y-12979985D01*
X8971427Y-12979985D02*
X8971427Y-13237128D01*
X8971427Y-13237128D02*
X8928570Y-13322842D01*
X8928570Y-13322842D02*
X8885712Y-13365700D01*
X8885712Y-13365700D02*
X8799998Y-13408557D01*
X8799998Y-13408557D02*
X8671427Y-13408557D01*
X9357141Y-12808557D02*
X9357141Y-13708557D01*
X9357141Y-12851414D02*
X9442856Y-12808557D01*
X9442856Y-12808557D02*
X9614284Y-12808557D01*
X9614284Y-12808557D02*
X9699998Y-12851414D01*
X9699998Y-12851414D02*
X9742856Y-12894271D01*
X9742856Y-12894271D02*
X9785713Y-12979985D01*
X9785713Y-12979985D02*
X9785713Y-13237128D01*
X9785713Y-13237128D02*
X9742856Y-13322842D01*
X9742856Y-13322842D02*
X9699998Y-13365700D01*
X9699998Y-13365700D02*
X9614284Y-13408557D01*
X9614284Y-13408557D02*
X9442856Y-13408557D01*
X9442856Y-13408557D02*
X9357141Y-13365700D01*
X10514284Y-13365700D02*
X10428570Y-13408557D01*
X10428570Y-13408557D02*
X10257142Y-13408557D01*
X10257142Y-13408557D02*
X10171427Y-13365700D01*
X10171427Y-13365700D02*
X10128570Y-13279985D01*
X10128570Y-13279985D02*
X10128570Y-12937128D01*
X10128570Y-12937128D02*
X10171427Y-12851414D01*
X10171427Y-12851414D02*
X10257142Y-12808557D01*
X10257142Y-12808557D02*
X10428570Y-12808557D01*
X10428570Y-12808557D02*
X10514284Y-12851414D01*
X10514284Y-12851414D02*
X10557142Y-12937128D01*
X10557142Y-12937128D02*
X10557142Y-13022842D01*
X10557142Y-13022842D02*
X10128570Y-13108557D01*
X10942856Y-12808557D02*
X10942856Y-13408557D01*
X10942856Y-12894271D02*
X10985713Y-12851414D01*
X10985713Y-12851414D02*
X11071428Y-12808557D01*
X11071428Y-12808557D02*
X11199999Y-12808557D01*
X11199999Y-12808557D02*
X11285713Y-12851414D01*
X11285713Y-12851414D02*
X11328571Y-12937128D01*
X11328571Y-12937128D02*
X11328571Y-13408557D01*
X12442856Y-12808557D02*
X12442856Y-13408557D01*
X12442856Y-12894271D02*
X12485713Y-12851414D01*
X12485713Y-12851414D02*
X12571428Y-12808557D01*
X12571428Y-12808557D02*
X12699999Y-12808557D01*
X12699999Y-12808557D02*
X12785713Y-12851414D01*
X12785713Y-12851414D02*
X12828571Y-12937128D01*
X12828571Y-12937128D02*
X12828571Y-13408557D01*
X13599999Y-13365700D02*
X13514285Y-13408557D01*
X13514285Y-13408557D02*
X13342857Y-13408557D01*
X13342857Y-13408557D02*
X13257142Y-13365700D01*
X13257142Y-13365700D02*
X13214285Y-13279985D01*
X13214285Y-13279985D02*
X13214285Y-12937128D01*
X13214285Y-12937128D02*
X13257142Y-12851414D01*
X13257142Y-12851414D02*
X13342857Y-12808557D01*
X13342857Y-12808557D02*
X13514285Y-12808557D01*
X13514285Y-12808557D02*
X13599999Y-12851414D01*
X13599999Y-12851414D02*
X13642857Y-12937128D01*
X13642857Y-12937128D02*
X13642857Y-13022842D01*
X13642857Y-13022842D02*
X13214285Y-13108557D01*
X13900000Y-12808557D02*
X14242857Y-12808557D01*
X14028571Y-12508557D02*
X14028571Y-13279985D01*
X14028571Y-13279985D02*
X14071428Y-13365700D01*
X14071428Y-13365700D02*
X14157143Y-13408557D01*
X14157143Y-13408557D02*
X14242857Y-13408557D01*
X14500000Y-13365700D02*
X14585714Y-13408557D01*
X14585714Y-13408557D02*
X14757143Y-13408557D01*
X14757143Y-13408557D02*
X14842857Y-13365700D01*
X14842857Y-13365700D02*
X14885714Y-13279985D01*
X14885714Y-13279985D02*
X14885714Y-13237128D01*
X14885714Y-13237128D02*
X14842857Y-13151414D01*
X14842857Y-13151414D02*
X14757143Y-13108557D01*
X14757143Y-13108557D02*
X14628572Y-13108557D01*
X14628572Y-13108557D02*
X14542857Y-13065700D01*
X14542857Y-13065700D02*
X14500000Y-12979985D01*
X14500000Y-12979985D02*
X14500000Y-12937128D01*
X14500000Y-12937128D02*
X14542857Y-12851414D01*
X14542857Y-12851414D02*
X14628572Y-12808557D01*
X14628572Y-12808557D02*
X14757143Y-12808557D01*
X14757143Y-12808557D02*
X14842857Y-12851414D01*
X8700000Y-57008557D02*
X8914286Y-57908557D01*
X8914286Y-57908557D02*
X9085714Y-57265700D01*
X9085714Y-57265700D02*
X9257143Y-57908557D01*
X9257143Y-57908557D02*
X9471429Y-57008557D01*
X9814285Y-57437128D02*
X10114285Y-57437128D01*
X10242857Y-57908557D02*
X9814285Y-57908557D01*
X9814285Y-57908557D02*
X9814285Y-57008557D01*
X9814285Y-57008557D02*
X10242857Y-57008557D01*
X10628571Y-57908557D02*
X10628571Y-57008557D01*
X11142857Y-57908557D02*
X10757143Y-57394271D01*
X11142857Y-57008557D02*
X10628571Y-57522842D01*
X11485714Y-57651414D02*
X11914286Y-57651414D01*
X11400000Y-57908557D02*
X11700000Y-57008557D01*
X11700000Y-57008557D02*
X12000000Y-57908557D01*
X12085715Y-57994271D02*
X12771429Y-57994271D01*
X12985714Y-57908557D02*
X12985714Y-57008557D01*
X12985714Y-57008557D02*
X13285714Y-57651414D01*
X13285714Y-57651414D02*
X13585714Y-57008557D01*
X13585714Y-57008557D02*
X13585714Y-57908557D01*
X13971428Y-57094271D02*
X14014285Y-57051414D01*
X14014285Y-57051414D02*
X14100000Y-57008557D01*
X14100000Y-57008557D02*
X14314285Y-57008557D01*
X14314285Y-57008557D02*
X14400000Y-57051414D01*
X14400000Y-57051414D02*
X14442857Y-57094271D01*
X14442857Y-57094271D02*
X14485714Y-57179985D01*
X14485714Y-57179985D02*
X14485714Y-57265700D01*
X14485714Y-57265700D02*
X14442857Y-57394271D01*
X14442857Y-57394271D02*
X13928571Y-57908557D01*
X13928571Y-57908557D02*
X14485714Y-57908557D01*
X14828571Y-57651414D02*
X15257143Y-57651414D01*
X14742857Y-57908557D02*
X15042857Y-57008557D01*
X15042857Y-57008557D02*
X15342857Y-57908557D01*
X8700000Y-29008557D02*
X8914286Y-29908557D01*
X8914286Y-29908557D02*
X9085714Y-29265700D01*
X9085714Y-29265700D02*
X9257143Y-29908557D01*
X9257143Y-29908557D02*
X9471429Y-29008557D01*
X9814285Y-29437128D02*
X10114285Y-29437128D01*
X10242857Y-29908557D02*
X9814285Y-29908557D01*
X9814285Y-29908557D02*
X9814285Y-29008557D01*
X9814285Y-29008557D02*
X10242857Y-29008557D01*
X10628571Y-29908557D02*
X10628571Y-29008557D01*
X11142857Y-29908557D02*
X10757143Y-29394271D01*
X11142857Y-29008557D02*
X10628571Y-29522842D01*
X11485714Y-29651414D02*
X11914286Y-29651414D01*
X11400000Y-29908557D02*
X11700000Y-29008557D01*
X11700000Y-29008557D02*
X12000000Y-29908557D01*
X12085715Y-29994271D02*
X12771429Y-29994271D01*
X12985714Y-29908557D02*
X12985714Y-29008557D01*
X12985714Y-29008557D02*
X13285714Y-29651414D01*
X13285714Y-29651414D02*
X13585714Y-29008557D01*
X13585714Y-29008557D02*
X13585714Y-29908557D01*
X14485714Y-29908557D02*
X13971428Y-29908557D01*
X14228571Y-29908557D02*
X14228571Y-29008557D01*
X14228571Y-29008557D02*
X14142857Y-29137128D01*
X14142857Y-29137128D02*
X14057142Y-29222842D01*
X14057142Y-29222842D02*
X13971428Y-29265700D01*
X14828571Y-29651414D02*
X15257143Y-29651414D01*
X14742857Y-29908557D02*
X15042857Y-29008557D01*
X15042857Y-29008557D02*
X15342857Y-29908557D01*
X71857142Y-13997438D02*
X71857142Y-11997438D01*
X72999999Y-13997438D02*
X72142856Y-12854580D01*
X72999999Y-11997438D02*
X71857142Y-13140295D01*
X73857142Y-12949819D02*
X74523809Y-12949819D01*
X74809523Y-13997438D02*
X73857142Y-13997438D01*
X73857142Y-13997438D02*
X73857142Y-11997438D01*
X73857142Y-11997438D02*
X74809523Y-11997438D01*
X75666666Y-12949819D02*
X76333333Y-12949819D01*
X76619047Y-13997438D02*
X75666666Y-13997438D01*
X75666666Y-13997438D02*
X75666666Y-11997438D01*
X75666666Y-11997438D02*
X76619047Y-11997438D01*
X77476190Y-13997438D02*
X77476190Y-11997438D01*
X77476190Y-11997438D02*
X78238095Y-11997438D01*
X78238095Y-11997438D02*
X78428571Y-12092676D01*
X78428571Y-12092676D02*
X78523809Y-12187914D01*
X78523809Y-12187914D02*
X78619047Y-12378390D01*
X78619047Y-12378390D02*
X78619047Y-12664104D01*
X78619047Y-12664104D02*
X78523809Y-12854580D01*
X78523809Y-12854580D02*
X78428571Y-12949819D01*
X78428571Y-12949819D02*
X78238095Y-13045057D01*
X78238095Y-13045057D02*
X77476190Y-13045057D01*
X79476190Y-13235533D02*
X81000000Y-13235533D01*
X82333332Y-11997438D02*
X82714285Y-11997438D01*
X82714285Y-11997438D02*
X82904761Y-12092676D01*
X82904761Y-12092676D02*
X83095237Y-12283152D01*
X83095237Y-12283152D02*
X83190475Y-12664104D01*
X83190475Y-12664104D02*
X83190475Y-13330771D01*
X83190475Y-13330771D02*
X83095237Y-13711723D01*
X83095237Y-13711723D02*
X82904761Y-13902200D01*
X82904761Y-13902200D02*
X82714285Y-13997438D01*
X82714285Y-13997438D02*
X82333332Y-13997438D01*
X82333332Y-13997438D02*
X82142856Y-13902200D01*
X82142856Y-13902200D02*
X81952380Y-13711723D01*
X81952380Y-13711723D02*
X81857142Y-13330771D01*
X81857142Y-13330771D02*
X81857142Y-12664104D01*
X81857142Y-12664104D02*
X81952380Y-12283152D01*
X81952380Y-12283152D02*
X82142856Y-12092676D01*
X82142856Y-12092676D02*
X82333332Y-11997438D01*
X84047618Y-11997438D02*
X84047618Y-13616485D01*
X84047618Y-13616485D02*
X84142856Y-13806961D01*
X84142856Y-13806961D02*
X84238094Y-13902200D01*
X84238094Y-13902200D02*
X84428570Y-13997438D01*
X84428570Y-13997438D02*
X84809523Y-13997438D01*
X84809523Y-13997438D02*
X84999999Y-13902200D01*
X84999999Y-13902200D02*
X85095237Y-13806961D01*
X85095237Y-13806961D02*
X85190475Y-13616485D01*
X85190475Y-13616485D02*
X85190475Y-11997438D01*
X85857142Y-11997438D02*
X86999999Y-11997438D01*
X86428570Y-13997438D02*
X86428570Y-11997438D01*
X89000000Y-11997438D02*
X90333333Y-11997438D01*
X90333333Y-11997438D02*
X89000000Y-13997438D01*
X89000000Y-13997438D02*
X90333333Y-13997438D01*
X91476190Y-11997438D02*
X91857143Y-11997438D01*
X91857143Y-11997438D02*
X92047619Y-12092676D01*
X92047619Y-12092676D02*
X92238095Y-12283152D01*
X92238095Y-12283152D02*
X92333333Y-12664104D01*
X92333333Y-12664104D02*
X92333333Y-13330771D01*
X92333333Y-13330771D02*
X92238095Y-13711723D01*
X92238095Y-13711723D02*
X92047619Y-13902200D01*
X92047619Y-13902200D02*
X91857143Y-13997438D01*
X91857143Y-13997438D02*
X91476190Y-13997438D01*
X91476190Y-13997438D02*
X91285714Y-13902200D01*
X91285714Y-13902200D02*
X91095238Y-13711723D01*
X91095238Y-13711723D02*
X91000000Y-13330771D01*
X91000000Y-13330771D02*
X91000000Y-12664104D01*
X91000000Y-12664104D02*
X91095238Y-12283152D01*
X91095238Y-12283152D02*
X91285714Y-12092676D01*
X91285714Y-12092676D02*
X91476190Y-11997438D01*
X93190476Y-13997438D02*
X93190476Y-11997438D01*
X93190476Y-11997438D02*
X94333333Y-13997438D01*
X94333333Y-13997438D02*
X94333333Y-11997438D01*
X95285714Y-12949819D02*
X95952381Y-12949819D01*
X96238095Y-13997438D02*
X95285714Y-13997438D01*
X95285714Y-13997438D02*
X95285714Y-11997438D01*
X95285714Y-11997438D02*
X96238095Y-11997438D01*
X81188095Y-22729104D02*
X81664285Y-22729104D01*
X81092857Y-23014819D02*
X81426190Y-22014819D01*
X81426190Y-22014819D02*
X81759523Y-23014819D01*
X82092857Y-22348152D02*
X82092857Y-23014819D01*
X82092857Y-22443390D02*
X82140476Y-22395771D01*
X82140476Y-22395771D02*
X82235714Y-22348152D01*
X82235714Y-22348152D02*
X82378571Y-22348152D01*
X82378571Y-22348152D02*
X82473809Y-22395771D01*
X82473809Y-22395771D02*
X82521428Y-22491009D01*
X82521428Y-22491009D02*
X82521428Y-23014819D01*
X82854762Y-22348152D02*
X83235714Y-22348152D01*
X82997619Y-22014819D02*
X82997619Y-22871961D01*
X82997619Y-22871961D02*
X83045238Y-22967200D01*
X83045238Y-22967200D02*
X83140476Y-23014819D01*
X83140476Y-23014819D02*
X83235714Y-23014819D01*
X83950000Y-22967200D02*
X83854762Y-23014819D01*
X83854762Y-23014819D02*
X83664286Y-23014819D01*
X83664286Y-23014819D02*
X83569048Y-22967200D01*
X83569048Y-22967200D02*
X83521429Y-22871961D01*
X83521429Y-22871961D02*
X83521429Y-22491009D01*
X83521429Y-22491009D02*
X83569048Y-22395771D01*
X83569048Y-22395771D02*
X83664286Y-22348152D01*
X83664286Y-22348152D02*
X83854762Y-22348152D01*
X83854762Y-22348152D02*
X83950000Y-22395771D01*
X83950000Y-22395771D02*
X83997619Y-22491009D01*
X83997619Y-22491009D02*
X83997619Y-22586247D01*
X83997619Y-22586247D02*
X83521429Y-22681485D01*
X84426191Y-22348152D02*
X84426191Y-23014819D01*
X84426191Y-22443390D02*
X84473810Y-22395771D01*
X84473810Y-22395771D02*
X84569048Y-22348152D01*
X84569048Y-22348152D02*
X84711905Y-22348152D01*
X84711905Y-22348152D02*
X84807143Y-22395771D01*
X84807143Y-22395771D02*
X84854762Y-22491009D01*
X84854762Y-22491009D02*
X84854762Y-23014819D01*
X85330953Y-22348152D02*
X85330953Y-23014819D01*
X85330953Y-22443390D02*
X85378572Y-22395771D01*
X85378572Y-22395771D02*
X85473810Y-22348152D01*
X85473810Y-22348152D02*
X85616667Y-22348152D01*
X85616667Y-22348152D02*
X85711905Y-22395771D01*
X85711905Y-22395771D02*
X85759524Y-22491009D01*
X85759524Y-22491009D02*
X85759524Y-23014819D01*
X86664286Y-23014819D02*
X86664286Y-22491009D01*
X86664286Y-22491009D02*
X86616667Y-22395771D01*
X86616667Y-22395771D02*
X86521429Y-22348152D01*
X86521429Y-22348152D02*
X86330953Y-22348152D01*
X86330953Y-22348152D02*
X86235715Y-22395771D01*
X86664286Y-22967200D02*
X86569048Y-23014819D01*
X86569048Y-23014819D02*
X86330953Y-23014819D01*
X86330953Y-23014819D02*
X86235715Y-22967200D01*
X86235715Y-22967200D02*
X86188096Y-22871961D01*
X86188096Y-22871961D02*
X86188096Y-22776723D01*
X86188096Y-22776723D02*
X86235715Y-22681485D01*
X86235715Y-22681485D02*
X86330953Y-22633866D01*
X86330953Y-22633866D02*
X86569048Y-22633866D01*
X86569048Y-22633866D02*
X86664286Y-22586247D01*
%TO.C,MH4*%
X9200000Y-94000000D02*
G75*
G02*
X2800000Y-94000000I-3200000J0D01*
G01*
X2800000Y-94000000D02*
G75*
G02*
X9200000Y-94000000I3200000J0D01*
G01*
%TO.C,MH3*%
X117200000Y-94000000D02*
G75*
G02*
X110800000Y-94000000I-3200000J0D01*
G01*
X110800000Y-94000000D02*
G75*
G02*
X117200000Y-94000000I3200000J0D01*
G01*
%TO.C,MH2*%
X117200000Y-6000000D02*
G75*
G02*
X110800000Y-6000000I-3200000J0D01*
G01*
X110800000Y-6000000D02*
G75*
G02*
X117200000Y-6000000I3200000J0D01*
G01*
%TO.C,MH1*%
X9200000Y-6000000D02*
G75*
G02*
X2800000Y-6000000I-3200000J0D01*
G01*
X2800000Y-6000000D02*
G75*
G02*
X9200000Y-6000000I3200000J0D01*
G01*
%TD*%
M02*
