%TF.GenerationSoftware,KiCad,Pcbnew,9.0.7+dfsg-1*%
%TF.CreationDate,2026-05-09T16:33:42-04:00*%
%TF.ProjectId,flipping-cool,666c6970-7069-46e6-972d-636f6f6c2e6b,rev?*%
%TF.SameCoordinates,Original*%
%TF.FileFunction,Other,User*%
%FSLAX46Y46*%
G04 Gerber Fmt 4.6, Leading zero omitted, Abs format (unit mm)*
G04 Created by KiCad (PCBNEW 9.0.7+dfsg-1) date 2026-05-09 16:33:42*
%MOMM*%
%LPD*%
G01*
G04 APERTURE LIST*
%ADD10C,0.050000*%
G04 APERTURE END LIST*
%TO.C,R1*%
D10*
X48320000Y-7050000D02*
X51680000Y-7050000D01*
X51680000Y-8950000D01*
X48320000Y-8950000D01*
X48320000Y-7050000D01*
%TO.C,U20*%
X15230000Y-40230000D02*
X18770000Y-40230000D01*
X18770000Y-53930000D01*
X15230000Y-53930000D01*
X15230000Y-40230000D01*
%TO.C,MH4*%
X9450000Y-94000000D02*
G75*
G02*
X2550000Y-94000000I-3450000J0D01*
G01*
X2550000Y-94000000D02*
G75*
G02*
X9450000Y-94000000I3450000J0D01*
G01*
%TO.C,TP4*%
X34250000Y-53000000D02*
G75*
G02*
X31750000Y-53000000I-1250000J0D01*
G01*
X31750000Y-53000000D02*
G75*
G02*
X34250000Y-53000000I1250000J0D01*
G01*
%TO.C,C2*%
X41300000Y-28020000D02*
X44700000Y-28020000D01*
X44700000Y-29980000D01*
X41300000Y-29980000D01*
X41300000Y-28020000D01*
%TO.C,TP2*%
X35250000Y-6000000D02*
G75*
G02*
X32750000Y-6000000I-1250000J0D01*
G01*
X32750000Y-6000000D02*
G75*
G02*
X35250000Y-6000000I1250000J0D01*
G01*
%TO.C,C20*%
X26300000Y-40950000D02*
X26300000Y-43050000D01*
X26300000Y-43050000D02*
X27450000Y-43050000D01*
X27450000Y-39600000D02*
X27450000Y-40950000D01*
X27450000Y-39600000D02*
X28600000Y-38450000D01*
X27450000Y-40950000D02*
X26300000Y-40950000D01*
X27450000Y-43050000D02*
X27450000Y-44400000D01*
X27450000Y-44400000D02*
X28600000Y-45550000D01*
X28600000Y-38450000D02*
X34550000Y-38450000D01*
X28600000Y-45550000D02*
X34550000Y-45550000D01*
X34550000Y-38450000D02*
X34550000Y-40950000D01*
X34550000Y-40950000D02*
X35700000Y-40950000D01*
X34550000Y-43050000D02*
X34550000Y-45550000D01*
X35700000Y-40950000D02*
X35700000Y-43050000D01*
X35700000Y-43050000D02*
X34550000Y-43050000D01*
%TO.C,J30*%
X49770000Y-77230000D02*
X41150000Y-77230000D01*
X41150000Y-80770000D01*
X49770000Y-80770000D01*
X49770000Y-77230000D01*
%TO.C,U41*%
X67950000Y-64500000D02*
X68950000Y-64500000D01*
X67950000Y-67500000D02*
X67950000Y-64500000D01*
X68950000Y-64300000D02*
X71050000Y-64300000D01*
X68950000Y-64500000D02*
X68950000Y-64300000D01*
X68950000Y-67500000D02*
X67950000Y-67500000D01*
X68950000Y-67700000D02*
X68950000Y-67500000D01*
X71050000Y-64300000D02*
X71050000Y-64500000D01*
X71050000Y-64500000D02*
X72050000Y-64500000D01*
X71050000Y-67500000D02*
X71050000Y-67700000D01*
X71050000Y-67700000D02*
X68950000Y-67700000D01*
X72050000Y-64500000D02*
X72050000Y-67500000D01*
X72050000Y-67500000D02*
X71050000Y-67500000D01*
%TO.C,TP6*%
X36250000Y-72000000D02*
G75*
G02*
X33750000Y-72000000I-1250000J0D01*
G01*
X33750000Y-72000000D02*
G75*
G02*
X36250000Y-72000000I1250000J0D01*
G01*
%TO.C,TP8*%
X53250000Y-70000000D02*
G75*
G02*
X50750000Y-70000000I-1250000J0D01*
G01*
X50750000Y-70000000D02*
G75*
G02*
X53250000Y-70000000I1250000J0D01*
G01*
%TO.C,R46*%
X96320000Y-91050000D02*
X99680000Y-91050000D01*
X99680000Y-92950000D01*
X96320000Y-92950000D01*
X96320000Y-91050000D01*
%TO.C,TP5*%
X66250000Y-53000000D02*
G75*
G02*
X63750000Y-53000000I-1250000J0D01*
G01*
X63750000Y-53000000D02*
G75*
G02*
X66250000Y-53000000I1250000J0D01*
G01*
%TO.C,R45*%
X84320000Y-63050000D02*
X87680000Y-63050000D01*
X87680000Y-64950000D01*
X84320000Y-64950000D01*
X84320000Y-63050000D01*
%TO.C,C10*%
X70300000Y-51020000D02*
X73700000Y-51020000D01*
X73700000Y-52980000D01*
X70300000Y-52980000D01*
X70300000Y-51020000D01*
%TO.C,TP9*%
X53250000Y-73000000D02*
G75*
G02*
X50750000Y-73000000I-1250000J0D01*
G01*
X50750000Y-73000000D02*
G75*
G02*
X53250000Y-73000000I1250000J0D01*
G01*
%TO.C,R51*%
X57320000Y-93050000D02*
X60680000Y-93050000D01*
X60680000Y-94950000D01*
X57320000Y-94950000D01*
X57320000Y-93050000D01*
%TO.C,R50*%
X48320000Y-93050000D02*
X51680000Y-93050000D01*
X51680000Y-94950000D01*
X48320000Y-94950000D01*
X48320000Y-93050000D01*
%TO.C,R42*%
X77320000Y-59050000D02*
X80680000Y-59050000D01*
X80680000Y-60950000D01*
X77320000Y-60950000D01*
X77320000Y-59050000D01*
%TO.C,R11*%
X66320000Y-45050000D02*
X69680000Y-45050000D01*
X69680000Y-46950000D01*
X66320000Y-46950000D01*
X66320000Y-45050000D01*
%TO.C,C22*%
X51300000Y-41020000D02*
X54700000Y-41020000D01*
X54700000Y-42980000D01*
X51300000Y-42980000D01*
X51300000Y-41020000D01*
%TO.C,TP1*%
X22250000Y-7000000D02*
G75*
G02*
X19750000Y-7000000I-1250000J0D01*
G01*
X19750000Y-7000000D02*
G75*
G02*
X22250000Y-7000000I1250000J0D01*
G01*
%TO.C,U40*%
X59950000Y-64500000D02*
X60950000Y-64500000D01*
X59950000Y-67500000D02*
X59950000Y-64500000D01*
X60950000Y-64300000D02*
X63050000Y-64300000D01*
X60950000Y-64500000D02*
X60950000Y-64300000D01*
X60950000Y-67500000D02*
X59950000Y-67500000D01*
X60950000Y-67700000D02*
X60950000Y-67500000D01*
X63050000Y-64300000D02*
X63050000Y-64500000D01*
X63050000Y-64500000D02*
X64050000Y-64500000D01*
X63050000Y-67500000D02*
X63050000Y-67700000D01*
X63050000Y-67700000D02*
X60950000Y-67700000D01*
X64050000Y-64500000D02*
X64050000Y-67500000D01*
X64050000Y-67500000D02*
X63050000Y-67500000D01*
%TO.C,J24*%
X2850000Y-50650000D02*
X13150000Y-50650000D01*
X13150000Y-45350000D01*
X2850000Y-45350000D01*
X2850000Y-50650000D01*
%TO.C,U30*%
X15230000Y-61230000D02*
X18770000Y-61230000D01*
X18770000Y-72390000D01*
X15230000Y-72390000D01*
X15230000Y-61230000D01*
%TO.C,TP10*%
X94250000Y-56000000D02*
G75*
G02*
X91750000Y-56000000I-1250000J0D01*
G01*
X91750000Y-56000000D02*
G75*
G02*
X94250000Y-56000000I1250000J0D01*
G01*
%TO.C,TP14*%
X41250000Y-84000000D02*
G75*
G02*
X38750000Y-84000000I-1250000J0D01*
G01*
X38750000Y-84000000D02*
G75*
G02*
X41250000Y-84000000I1250000J0D01*
G01*
%TO.C,U10*%
X60000000Y-4250000D02*
X60000000Y-25250000D01*
X60000000Y-25250000D02*
X74250000Y-25250000D01*
X74250000Y-45450000D02*
X74250000Y-25250000D01*
X74250000Y-45450000D02*
X93750000Y-45450000D01*
X93750000Y-25250000D02*
X93750000Y-45450000D01*
X93750000Y-25250000D02*
X108000000Y-25250000D01*
X108000000Y-4250000D02*
X60000000Y-4250000D01*
X108000000Y-25250000D02*
X108000000Y-4250000D01*
%TO.C,SW1*%
X52100000Y-57550000D02*
X63900000Y-57550000D01*
X52100000Y-62100000D02*
X52100000Y-57550000D01*
X55600000Y-62100000D02*
X52100000Y-62100000D01*
X55600000Y-63400000D02*
X55600000Y-62100000D01*
X60400000Y-62100000D02*
X60400000Y-63400000D01*
X60400000Y-63400000D02*
X55600000Y-63400000D01*
X63900000Y-57550000D02*
X63900000Y-62100000D01*
X63900000Y-62100000D02*
X60400000Y-62100000D01*
%TO.C,J12*%
X107230000Y-35230000D02*
X110770000Y-35230000D01*
X110770000Y-51470000D01*
X107230000Y-51470000D01*
X107230000Y-35230000D01*
%TO.C,R41*%
X84320000Y-55050000D02*
X87680000Y-55050000D01*
X87680000Y-56950000D01*
X84320000Y-56950000D01*
X84320000Y-55050000D01*
%TO.C,C1*%
X28300000Y-22950000D02*
X28300000Y-25050000D01*
X28300000Y-25050000D02*
X29450000Y-25050000D01*
X29450000Y-21600000D02*
X29450000Y-22950000D01*
X29450000Y-21600000D02*
X30600000Y-20450000D01*
X29450000Y-22950000D02*
X28300000Y-22950000D01*
X29450000Y-25050000D02*
X29450000Y-26400000D01*
X29450000Y-26400000D02*
X30600000Y-27550000D01*
X30600000Y-20450000D02*
X36550000Y-20450000D01*
X30600000Y-27550000D02*
X36550000Y-27550000D01*
X36550000Y-20450000D02*
X36550000Y-22950000D01*
X36550000Y-22950000D02*
X37700000Y-22950000D01*
X36550000Y-25050000D02*
X36550000Y-27550000D01*
X37700000Y-22950000D02*
X37700000Y-25050000D01*
X37700000Y-25050000D02*
X36550000Y-25050000D01*
%TO.C,TP12*%
X94250000Y-64000000D02*
G75*
G02*
X91750000Y-64000000I-1250000J0D01*
G01*
X91750000Y-64000000D02*
G75*
G02*
X94250000Y-64000000I1250000J0D01*
G01*
%TO.C,J47*%
X79230000Y-87770000D02*
X95470000Y-87770000D01*
X95470000Y-84230000D01*
X79230000Y-84230000D01*
X79230000Y-87770000D01*
%TO.C,C21*%
X38300000Y-40950000D02*
X38300000Y-43050000D01*
X38300000Y-43050000D02*
X39450000Y-43050000D01*
X39450000Y-39600000D02*
X39450000Y-40950000D01*
X39450000Y-39600000D02*
X40600000Y-38450000D01*
X39450000Y-40950000D02*
X38300000Y-40950000D01*
X39450000Y-43050000D02*
X39450000Y-44400000D01*
X39450000Y-44400000D02*
X40600000Y-45550000D01*
X40600000Y-38450000D02*
X46550000Y-38450000D01*
X40600000Y-45550000D02*
X46550000Y-45550000D01*
X46550000Y-38450000D02*
X46550000Y-40950000D01*
X46550000Y-40950000D02*
X47700000Y-40950000D01*
X46550000Y-43050000D02*
X46550000Y-45550000D01*
X47700000Y-40950000D02*
X47700000Y-43050000D01*
X47700000Y-43050000D02*
X46550000Y-43050000D01*
%TO.C,D50*%
X51320000Y-95050000D02*
X54680000Y-95050000D01*
X54680000Y-96950000D01*
X51320000Y-96950000D01*
X51320000Y-95050000D01*
%TO.C,MH3*%
X117450000Y-94000000D02*
G75*
G02*
X110550000Y-94000000I-3450000J0D01*
G01*
X110550000Y-94000000D02*
G75*
G02*
X117450000Y-94000000I3450000J0D01*
G01*
%TO.C,C31*%
X40300000Y-62020000D02*
X43700000Y-62020000D01*
X43700000Y-63980000D01*
X40300000Y-63980000D01*
X40300000Y-62020000D01*
%TO.C,J48*%
X79230000Y-95770000D02*
X95470000Y-95770000D01*
X95470000Y-92230000D01*
X79230000Y-92230000D01*
X79230000Y-95770000D01*
%TO.C,J33*%
X64770000Y-86230000D02*
X56150000Y-86230000D01*
X56150000Y-89770000D01*
X64770000Y-89770000D01*
X64770000Y-86230000D01*
%TO.C,D1*%
X42250000Y-17500000D02*
X45750000Y-17500000D01*
X42250000Y-24500000D02*
X42250000Y-17500000D01*
X45750000Y-17500000D02*
X45750000Y-24500000D01*
X45750000Y-24500000D02*
X42250000Y-24500000D01*
%TO.C,J44*%
X98230000Y-59770000D02*
X114470000Y-59770000D01*
X114470000Y-56230000D01*
X98230000Y-56230000D01*
X98230000Y-59770000D01*
%TO.C,FB1*%
X54320000Y-46050000D02*
X57680000Y-46050000D01*
X57680000Y-47950000D01*
X54320000Y-47950000D01*
X54320000Y-46050000D01*
%TO.C,TP15*%
X45250000Y-84000000D02*
G75*
G02*
X42750000Y-84000000I-1250000J0D01*
G01*
X42750000Y-84000000D02*
G75*
G02*
X45250000Y-84000000I1250000J0D01*
G01*
%TO.C,SW3*%
X83350000Y-45500000D02*
X92650000Y-45500000D01*
X83350000Y-50500000D02*
X83350000Y-45500000D01*
X92650000Y-45500000D02*
X92650000Y-50500000D01*
X92650000Y-50500000D02*
X83350000Y-50500000D01*
%TO.C,U42*%
X59950000Y-72500000D02*
X60950000Y-72500000D01*
X59950000Y-75500000D02*
X59950000Y-72500000D01*
X60950000Y-72300000D02*
X63050000Y-72300000D01*
X60950000Y-72500000D02*
X60950000Y-72300000D01*
X60950000Y-75500000D02*
X59950000Y-75500000D01*
X60950000Y-75700000D02*
X60950000Y-75500000D01*
X63050000Y-72300000D02*
X63050000Y-72500000D01*
X63050000Y-72500000D02*
X64050000Y-72500000D01*
X63050000Y-75500000D02*
X63050000Y-75700000D01*
X63050000Y-75700000D02*
X60950000Y-75700000D01*
X64050000Y-72500000D02*
X64050000Y-75500000D01*
X64050000Y-75500000D02*
X63050000Y-75500000D01*
%TO.C,J1*%
X9900000Y-10900000D02*
X16100000Y-10900000D01*
X9900000Y-20400000D02*
X9900000Y-10900000D01*
X11200000Y-22100000D02*
X9900000Y-20400000D01*
X11200000Y-22100000D02*
X14800000Y-22100000D01*
X14800000Y-22100000D02*
X16100000Y-20400000D01*
X16100000Y-20400000D02*
X16100000Y-10900000D01*
%TO.C,MH2*%
X117450000Y-6000000D02*
G75*
G02*
X110550000Y-6000000I-3450000J0D01*
G01*
X110550000Y-6000000D02*
G75*
G02*
X117450000Y-6000000I3450000J0D01*
G01*
%TO.C,D52*%
X69320000Y-95050000D02*
X72680000Y-95050000D01*
X72680000Y-96950000D01*
X69320000Y-96950000D01*
X69320000Y-95050000D01*
%TO.C,R10*%
X70320000Y-43050000D02*
X73680000Y-43050000D01*
X73680000Y-44950000D01*
X70320000Y-44950000D01*
X70320000Y-43050000D01*
%TO.C,MH1*%
X9450000Y-6000000D02*
G75*
G02*
X2550000Y-6000000I-3450000J0D01*
G01*
X2550000Y-6000000D02*
G75*
G02*
X9450000Y-6000000I3450000J0D01*
G01*
%TO.C,C11*%
X74300000Y-51020000D02*
X77700000Y-51020000D01*
X77700000Y-52980000D01*
X74300000Y-52980000D01*
X74300000Y-51020000D01*
%TO.C,R40*%
X77320000Y-55050000D02*
X80680000Y-55050000D01*
X80680000Y-56950000D01*
X77320000Y-56950000D01*
X77320000Y-55050000D01*
%TO.C,R44*%
X77320000Y-63050000D02*
X80680000Y-63050000D01*
X80680000Y-64950000D01*
X77320000Y-64950000D01*
X77320000Y-63050000D01*
%TO.C,TP16*%
X48250000Y-84000000D02*
G75*
G02*
X45750000Y-84000000I-1250000J0D01*
G01*
X45750000Y-84000000D02*
G75*
G02*
X48250000Y-84000000I1250000J0D01*
G01*
%TO.C,J32*%
X64770000Y-77230000D02*
X56150000Y-77230000D01*
X56150000Y-80770000D01*
X64770000Y-80770000D01*
X64770000Y-77230000D01*
%TO.C,C30*%
X26300000Y-62950000D02*
X26300000Y-65050000D01*
X26300000Y-65050000D02*
X27450000Y-65050000D01*
X27450000Y-61600000D02*
X27450000Y-62950000D01*
X27450000Y-61600000D02*
X28600000Y-60450000D01*
X27450000Y-62950000D02*
X26300000Y-62950000D01*
X27450000Y-65050000D02*
X27450000Y-66400000D01*
X27450000Y-66400000D02*
X28600000Y-67550000D01*
X28600000Y-60450000D02*
X34550000Y-60450000D01*
X28600000Y-67550000D02*
X34550000Y-67550000D01*
X34550000Y-60450000D02*
X34550000Y-62950000D01*
X34550000Y-62950000D02*
X35700000Y-62950000D01*
X34550000Y-65050000D02*
X34550000Y-67550000D01*
X35700000Y-62950000D02*
X35700000Y-65050000D01*
X35700000Y-65050000D02*
X34550000Y-65050000D01*
%TO.C,R43*%
X84320000Y-59050000D02*
X87680000Y-59050000D01*
X87680000Y-60950000D01*
X84320000Y-60950000D01*
X84320000Y-59050000D01*
%TO.C,J2*%
X29770000Y-10230000D02*
X23680000Y-10230000D01*
X23680000Y-13770000D01*
X29770000Y-13770000D01*
X29770000Y-10230000D01*
%TO.C,TP11*%
X94250000Y-60000000D02*
G75*
G02*
X91750000Y-60000000I-1250000J0D01*
G01*
X91750000Y-60000000D02*
G75*
G02*
X94250000Y-60000000I1250000J0D01*
G01*
%TO.C,J23*%
X2850000Y-36650000D02*
X13150000Y-36650000D01*
X13150000Y-31350000D01*
X2850000Y-31350000D01*
X2850000Y-36650000D01*
%TO.C,R47*%
X96320000Y-95050000D02*
X99680000Y-95050000D01*
X99680000Y-96950000D01*
X96320000Y-96950000D01*
X96320000Y-95050000D01*
%TO.C,SW2*%
X73350000Y-45500000D02*
X82650000Y-45500000D01*
X73350000Y-50500000D02*
X73350000Y-45500000D01*
X82650000Y-45500000D02*
X82650000Y-50500000D01*
X82650000Y-50500000D02*
X73350000Y-50500000D01*
%TO.C,C23*%
X62300000Y-46020000D02*
X65700000Y-46020000D01*
X65700000Y-47980000D01*
X62300000Y-47980000D01*
X62300000Y-46020000D01*
%TO.C,J31*%
X49770000Y-86230000D02*
X41150000Y-86230000D01*
X41150000Y-89770000D01*
X49770000Y-89770000D01*
X49770000Y-86230000D01*
%TO.C,J46*%
X101230000Y-87770000D02*
X117470000Y-87770000D01*
X117470000Y-84230000D01*
X101230000Y-84230000D01*
X101230000Y-87770000D01*
%TO.C,J11*%
X110100000Y-60720000D02*
X112310000Y-60720000D01*
X110100000Y-63530000D02*
X110100000Y-60720000D01*
X110500000Y-63530000D02*
X110100000Y-63530000D01*
X110500000Y-66180000D02*
X110500000Y-63530000D01*
X111700000Y-66180000D02*
X110500000Y-66180000D01*
X111700000Y-67280000D02*
X111700000Y-66180000D01*
X112310000Y-60720000D02*
X112310000Y-60920000D01*
X112310000Y-60920000D02*
X115690000Y-60920000D01*
X115690000Y-60720000D02*
X117900000Y-60720000D01*
X115690000Y-60920000D02*
X115690000Y-60720000D01*
X116300000Y-66180000D02*
X116300000Y-67280000D01*
X116300000Y-67280000D02*
X111700000Y-67280000D01*
X117500000Y-63530000D02*
X117500000Y-66180000D01*
X117500000Y-66180000D02*
X116300000Y-66180000D01*
X117900000Y-60720000D02*
X117900000Y-63530000D01*
X117900000Y-63530000D02*
X117500000Y-63530000D01*
%TO.C,R52*%
X66320000Y-93050000D02*
X69680000Y-93050000D01*
X69680000Y-94950000D01*
X66320000Y-94950000D01*
X66320000Y-93050000D01*
%TO.C,J21*%
X28230000Y-76230000D02*
X31770000Y-76230000D01*
X31770000Y-87390000D01*
X28230000Y-87390000D01*
X28230000Y-76230000D01*
%TO.C,TP13*%
X38250000Y-84000000D02*
G75*
G02*
X35750000Y-84000000I-1250000J0D01*
G01*
X35750000Y-84000000D02*
G75*
G02*
X38250000Y-84000000I1250000J0D01*
G01*
%TO.C,J26*%
X2850000Y-72650000D02*
X13150000Y-72650000D01*
X13150000Y-67350000D01*
X2850000Y-67350000D01*
X2850000Y-72650000D01*
%TO.C,J25*%
X2850000Y-64650000D02*
X13150000Y-64650000D01*
X13150000Y-59350000D01*
X2850000Y-59350000D01*
X2850000Y-64650000D01*
%TO.C,J10*%
X90230000Y-73770000D02*
X111550000Y-73770000D01*
X111550000Y-70230000D01*
X90230000Y-70230000D01*
X90230000Y-73770000D01*
%TO.C,U43*%
X67950000Y-72500000D02*
X68950000Y-72500000D01*
X67950000Y-75500000D02*
X67950000Y-72500000D01*
X68950000Y-72300000D02*
X71050000Y-72300000D01*
X68950000Y-72500000D02*
X68950000Y-72300000D01*
X68950000Y-75500000D02*
X67950000Y-75500000D01*
X68950000Y-75700000D02*
X68950000Y-75500000D01*
X71050000Y-72300000D02*
X71050000Y-72500000D01*
X71050000Y-72500000D02*
X72050000Y-72500000D01*
X71050000Y-75500000D02*
X71050000Y-75700000D01*
X71050000Y-75700000D02*
X68950000Y-75700000D01*
X72050000Y-72500000D02*
X72050000Y-75500000D01*
X72050000Y-75500000D02*
X71050000Y-75500000D01*
%TO.C,TP3*%
X45250000Y-6000000D02*
G75*
G02*
X42750000Y-6000000I-1250000J0D01*
G01*
X42750000Y-6000000D02*
G75*
G02*
X45250000Y-6000000I1250000J0D01*
G01*
%TO.C,J49*%
X101100000Y-90720000D02*
X103310000Y-90720000D01*
X101100000Y-93530000D02*
X101100000Y-90720000D01*
X101500000Y-93530000D02*
X101100000Y-93530000D01*
X101500000Y-96180000D02*
X101500000Y-93530000D01*
X102700000Y-96180000D02*
X101500000Y-96180000D01*
X102700000Y-97280000D02*
X102700000Y-96180000D01*
X103310000Y-90720000D02*
X103310000Y-90920000D01*
X103310000Y-90920000D02*
X106690000Y-90920000D01*
X106690000Y-90720000D02*
X108900000Y-90720000D01*
X106690000Y-90920000D02*
X106690000Y-90720000D01*
X107300000Y-96180000D02*
X107300000Y-97280000D01*
X107300000Y-97280000D02*
X102700000Y-97280000D01*
X108500000Y-93530000D02*
X108500000Y-96180000D01*
X108500000Y-96180000D02*
X107300000Y-96180000D01*
X108900000Y-90720000D02*
X108900000Y-93530000D01*
X108900000Y-93530000D02*
X108500000Y-93530000D01*
%TO.C,TP7*%
X53250000Y-67000000D02*
G75*
G02*
X50750000Y-67000000I-1250000J0D01*
G01*
X50750000Y-67000000D02*
G75*
G02*
X53250000Y-67000000I1250000J0D01*
G01*
%TO.C,D51*%
X60320000Y-95050000D02*
X63680000Y-95050000D01*
X63680000Y-96950000D01*
X60320000Y-96950000D01*
X60320000Y-95050000D01*
%TO.C,F1*%
X38050000Y-8050000D02*
X43950000Y-8050000D01*
X43950000Y-11950000D01*
X38050000Y-11950000D01*
X38050000Y-8050000D01*
%TO.C,D2*%
X54320000Y-7050000D02*
X57680000Y-7050000D01*
X57680000Y-8950000D01*
X54320000Y-8950000D01*
X54320000Y-7050000D01*
%TO.C,J20*%
X9900000Y-78600000D02*
X9900000Y-88100000D01*
X11200000Y-76900000D02*
X9900000Y-78600000D01*
X14800000Y-76900000D02*
X11200000Y-76900000D01*
X14800000Y-76900000D02*
X16100000Y-78600000D01*
X16100000Y-78600000D02*
X16100000Y-88100000D01*
X16100000Y-88100000D02*
X9900000Y-88100000D01*
%TD*%
M02*
