M48
; DRILL file {KiCad 9.0.7+dfsg-1} date 2026-05-09T16:33:42-0400
; FORMAT={-:-/ absolute / metric / decimal}
; #@! TF.CreationDate,2026-05-09T16:33:42-04:00
; #@! TF.GenerationSoftware,Kicad,Pcbnew,9.0.7+dfsg-1
; #@! TF.FileFunction,MixedPlating,1,4
FMAT,2
METRIC
; #@! TA.AperFunction,Plated,PTH,ViaDrill
T1C0.200
; #@! TA.AperFunction,Plated,PTH,ComponentDrill
T2C0.200
; #@! TA.AperFunction,Plated,PTH,ViaDrill
T3C0.300
; #@! TA.AperFunction,Plated,PTH,ComponentDrill
T4C1.000
; #@! TA.AperFunction,Plated,PTH,ComponentDrill
T5C1.800
; #@! TA.AperFunction,NonPlated,NPTH,ComponentDrill
T6C0.900
; #@! TA.AperFunction,NonPlated,NPTH,ComponentDrill
T7C3.200
%
G90
G05
T1
X19.5Y-62.0
X19.5Y-63.0
X26.0Y-65.0
X27.5Y-77.5
X28.3Y-64.0
X28.5Y-73.0
X28.5Y-77.5
X35.0Y-72.0
X37.0Y-84.0
X38.0Y-64.0
X40.0Y-84.0
X41.05Y-63.0
X43.0Y-37.5
X43.137Y-10.0
X43.5Y-58.0
X44.0Y-40.5
X44.0Y-84.0
X44.5Y-86.5
X46.5Y-80.5
X47.0Y-84.0
X48.5Y-55.0
X48.5Y-76.5
X49.0Y-40.5
X49.087Y-94.0
X49.5Y-55.0
X49.5Y-84.5
X50.5Y-55.0
X50.5Y-72.0
X50.5Y-87.5
X50.912Y-8.0
X50.912Y-94.0
X51.0Y-41.0
X51.5Y-36.5
X52.0Y-67.0
X52.0Y-70.0
X52.0Y-73.0
X52.062Y-96.0
X52.5Y-58.0
X53.0Y-71.5
X53.938Y-96.0
X54.0Y-54.5
X54.0Y-57.0
X55.0Y-58.57
X55.062Y-8.0
X56.5Y-39.0
X56.5Y-44.5
X56.5Y-58.57
X56.912Y-47.0
X57.5Y-39.0
X58.0Y-58.0
X58.0Y-62.5
X58.087Y-94.0
X58.5Y-75.0
X59.5Y-58.57
X59.912Y-94.0
X60.0Y-41.0
X60.862Y-65.05
X60.862Y-66.95
X60.862Y-73.05
X60.862Y-74.95
X61.0Y-58.57
X61.062Y-96.0
X61.5Y-46.0
X61.5Y-86.5
X62.0Y-35.0
X62.5Y-77.5
X62.938Y-96.0
X63.0Y-57.0
X63.05Y-47.0
X63.137Y-65.05
X63.137Y-66.0
X63.137Y-66.95
X63.137Y-73.05
X63.137Y-74.0
X63.137Y-74.95
X64.0Y-57.0
X64.5Y-72.5
X64.5Y-77.5
X65.0Y-53.0
X65.5Y-64.5
X65.5Y-68.5
X66.0Y-81.0
X67.087Y-46.0
X67.087Y-94.0
X68.0Y-82.5
X68.0Y-83.5
X68.862Y-65.05
X68.862Y-66.95
X68.862Y-73.05
X68.862Y-74.95
X68.912Y-46.0
X68.912Y-94.0
X70.0Y-31.0
X70.0Y-33.0
X70.0Y-34.5
X70.0Y-40.5
X70.062Y-96.0
X70.5Y-76.5
X71.05Y-52.0
X71.087Y-44.0
X71.138Y-65.05
X71.138Y-66.0
X71.138Y-66.95
X71.138Y-73.05
X71.138Y-74.0
X71.138Y-74.95
X71.938Y-96.0
X72.0Y-31.0
X72.0Y-39.5
X72.912Y-44.0
X74.0Y-38.0
X74.4Y-46.5
X75.05Y-52.0
X75.25Y-28.01
X75.25Y-29.28
X75.25Y-30.55
X75.25Y-31.82
X75.25Y-33.09
X75.25Y-34.36
X75.25Y-35.63
X75.25Y-36.9
X75.25Y-39.44
X75.25Y-40.71
X77.0Y-49.0
X77.015Y-44.5
X78.087Y-64.0
X78.285Y-44.5
X78.5Y-50.5
X78.5Y-91.0
X79.0Y-79.5
X79.0Y-80.5
X79.555Y-44.5
X79.912Y-56.0
X79.912Y-60.0
X79.912Y-64.0
X80.5Y-47.0
X80.825Y-44.5
X81.0Y-84.5
X82.095Y-44.5
X82.5Y-80.5
X82.5Y-81.5
X83.0Y-95.5
X83.365Y-44.5
X83.5Y-82.5
X84.0Y-51.0
X84.4Y-46.5
X84.5Y-82.5
X84.5Y-89.5
X85.087Y-56.0
X85.087Y-60.0
X85.087Y-64.0
X89.715Y-44.5
X91.0Y-82.5
X92.75Y-30.55
X92.75Y-31.82
X92.75Y-33.09
X92.75Y-34.36
X93.0Y-48.5
X93.0Y-56.0
X93.0Y-60.0
X93.0Y-64.0
X93.5Y-81.5
X96.0Y-83.5
X96.0Y-90.5
X97.087Y-92.0
X97.087Y-96.0
X98.912Y-92.0
X98.912Y-96.0
X100.5Y-93.5
X103.5Y-96.0
X104.5Y-96.0
X105.5Y-96.0
X106.5Y-60.5
X108.5Y-63.5
X112.5Y-61.5
X112.5Y-66.0
X113.5Y-66.0
X114.5Y-66.0
X115.5Y-61.5
X117.0Y-64.0
X118.0Y-84.5
T2
X81.1Y-33.76
X81.1Y-35.16
X81.8Y-33.06
X81.8Y-34.46
X81.8Y-35.86
X82.5Y-33.76
X82.5Y-35.16
X83.2Y-33.06
X83.2Y-34.46
X83.2Y-35.86
X83.9Y-33.76
X83.9Y-35.16
T3
X21.0Y-7.0
X28.3Y-42.0
X30.3Y-24.0
X33.0Y-53.0
X34.0Y-6.0
X38.862Y-10.0
X40.3Y-42.0
X42.05Y-29.0
X44.0Y-23.0
X49.087Y-8.0
X52.05Y-42.0
X55.087Y-47.0
X78.087Y-56.0
X78.087Y-60.0
T4
X17.0Y-42.0
X17.0Y-44.54
X17.0Y-47.08
X17.0Y-49.62
X17.0Y-52.16
X17.0Y-63.0
X17.0Y-65.54
X17.0Y-68.08
X17.0Y-70.62
X25.46Y-12.0
X28.0Y-12.0
X30.0Y-78.0
X30.0Y-80.54
X30.0Y-83.08
X30.0Y-85.62
X42.92Y-79.0
X42.92Y-88.0
X45.46Y-79.0
X45.46Y-88.0
X48.0Y-79.0
X48.0Y-88.0
X57.92Y-79.0
X57.92Y-88.0
X60.46Y-79.0
X60.46Y-88.0
X63.0Y-79.0
X63.0Y-88.0
X81.0Y-86.0
X81.0Y-94.0
X83.54Y-86.0
X83.54Y-94.0
X86.08Y-86.0
X86.08Y-94.0
X88.62Y-86.0
X88.62Y-94.0
X91.16Y-86.0
X91.16Y-94.0
X92.0Y-72.0
X93.7Y-86.0
X93.7Y-94.0
X94.54Y-72.0
X97.08Y-72.0
X99.62Y-72.0
X100.0Y-58.0
X102.16Y-72.0
X102.54Y-58.0
X103.0Y-86.0
X104.7Y-72.0
X105.08Y-58.0
X105.54Y-86.0
X107.24Y-72.0
X107.62Y-58.0
X108.08Y-86.0
X109.0Y-37.0
X109.0Y-39.54
X109.0Y-42.08
X109.0Y-44.62
X109.0Y-47.16
X109.0Y-49.7
X109.78Y-72.0
X110.16Y-58.0
X110.62Y-86.0
X112.7Y-58.0
X113.16Y-86.0
X115.7Y-86.0
T5
X13.0Y-14.0
X13.0Y-19.0
X13.0Y-80.0
X13.0Y-85.0
T6
X55.5Y-60.33
X60.5Y-60.33
T7
X6.0Y-6.0
X6.0Y-94.0
X114.0Y-6.0
X114.0Y-94.0
M30
