%TF.GenerationSoftware,KiCad,Pcbnew,9.0.7+dfsg-1*%
%TF.CreationDate,2026-05-09T00:43:28-04:00*%
%TF.ProjectId,flipping-cool,666c6970-7069-46e6-972d-636f6f6c2e6b,rev?*%
%TF.SameCoordinates,Original*%
%TF.FileFunction,Copper,L3,Inr*%
%TF.FilePolarity,Positive*%
%FSLAX46Y46*%
G04 Gerber Fmt 4.6, Leading zero omitted, Abs format (unit mm)*
G04 Created by KiCad (PCBNEW 9.0.7+dfsg-1) date 2026-05-09 00:43:28*
%MOMM*%
%LPD*%
G01*
G04 APERTURE LIST*
G04 Aperture macros list*
%AMRoundRect*
0 Rectangle with rounded corners*
0 $1 Rounding radius*
0 $2 $3 $4 $5 $6 $7 $8 $9 X,Y pos of 4 corners*
0 Add a 4 corners polygon primitive as box body*
4,1,4,$2,$3,$4,$5,$6,$7,$8,$9,$2,$3,0*
0 Add four circle primitives for the rounded corners*
1,1,$1+$1,$2,$3*
1,1,$1+$1,$4,$5*
1,1,$1+$1,$6,$7*
1,1,$1+$1,$8,$9*
0 Add four rect primitives between the rounded corners*
20,1,$1+$1,$2,$3,$4,$5,0*
20,1,$1+$1,$4,$5,$6,$7,0*
20,1,$1+$1,$6,$7,$8,$9,0*
20,1,$1+$1,$8,$9,$2,$3,0*%
G04 Aperture macros list end*
%TA.AperFunction,ComponentPad*%
%ADD10R,1.700000X1.700000*%
%TD*%
%TA.AperFunction,ComponentPad*%
%ADD11C,1.700000*%
%TD*%
%TA.AperFunction,ComponentPad*%
%ADD12RoundRect,0.750000X-0.750000X0.750000X-0.750000X-0.750000X0.750000X-0.750000X0.750000X0.750000X0*%
%TD*%
%TA.AperFunction,ComponentPad*%
%ADD13C,3.000000*%
%TD*%
%TA.AperFunction,ComponentPad*%
%ADD14RoundRect,0.750000X0.750000X-0.750000X0.750000X0.750000X-0.750000X0.750000X-0.750000X-0.750000X0*%
%TD*%
%TA.AperFunction,HeatsinkPad*%
%ADD15C,0.600000*%
%TD*%
%TA.AperFunction,ViaPad*%
%ADD16C,0.750000*%
%TD*%
%TA.AperFunction,ViaPad*%
%ADD17C,0.450000*%
%TD*%
%TA.AperFunction,Conductor*%
%ADD18C,0.800000*%
%TD*%
%TA.AperFunction,Conductor*%
%ADD19C,0.240000*%
%TD*%
G04 APERTURE END LIST*
D10*
%TO.N,GND_PWR*%
%TO.C,J32*%
X63000000Y-79000000D03*
D11*
%TO.N,SERVO_6V*%
X60460000Y-79000000D03*
%TO.N,PWM_SERVO_SPARE1*%
X57920000Y-79000000D03*
%TD*%
D10*
%TO.N,GND_PWR*%
%TO.C,J30*%
X48000000Y-79000000D03*
D11*
%TO.N,SERVO_6V*%
X45460000Y-79000000D03*
%TO.N,PWM_WEAPON_FR*%
X42920000Y-79000000D03*
%TD*%
D10*
%TO.N,I2C_SDA*%
%TO.C,J47*%
X81000000Y-86000000D03*
D11*
%TO.N,I2C_SCL*%
X83540000Y-86000000D03*
%TO.N,PWM_DRIVE_LEFT*%
X86080000Y-86000000D03*
%TO.N,PWM_DRIVE_RIGHT*%
X88620000Y-86000000D03*
%TO.N,PWM_WEAPON_FR*%
X91160000Y-86000000D03*
%TO.N,PWM_WEAPON_LR*%
X93700000Y-86000000D03*
%TD*%
D10*
%TO.N,GND_PWR*%
%TO.C,J31*%
X48000000Y-88000000D03*
D11*
%TO.N,SERVO_6V*%
X45460000Y-88000000D03*
%TO.N,PWM_WEAPON_LR*%
X42920000Y-88000000D03*
%TD*%
D10*
%TO.N,GND_PWR*%
%TO.C,J12*%
X109000000Y-37000000D03*
D11*
%TO.N,AUX_3V3*%
X109000000Y-39540000D03*
%TO.N,UART0_TXD*%
X109000000Y-42080000D03*
%TO.N,UART0_RXD*%
X109000000Y-44620000D03*
%TO.N,ESP_EN*%
X109000000Y-47160000D03*
%TO.N,ESP_BOOT*%
X109000000Y-49700000D03*
%TD*%
D10*
%TO.N,AUX_3V3_SHDN*%
%TO.C,U30*%
X17000000Y-63000000D03*
D11*
%TO.N,VBAT_SW_FUSED*%
X17000000Y-65540000D03*
%TO.N,GND_PWR*%
X17000000Y-68080000D03*
%TO.N,AUX_3V3*%
X17000000Y-70620000D03*
%TD*%
D12*
%TO.N,VBAT_SW*%
%TO.C,J20*%
X13000000Y-80000000D03*
D13*
%TO.N,GND_PWR*%
X13000000Y-85000000D03*
%TD*%
D10*
%TO.N,GND_PWR*%
%TO.C,J10*%
X92000000Y-72000000D03*
D11*
%TO.N,RX_6V*%
X94540000Y-72000000D03*
%TO.N,RX_PWM_DRIVE_LEFT*%
X97080000Y-72000000D03*
%TO.N,RX_PWM_DRIVE_RIGHT*%
X99620000Y-72000000D03*
%TO.N,RX_PWM_WEAPON_FR*%
X102160000Y-72000000D03*
%TO.N,RX_PWM_WEAPON_LR*%
X104700000Y-72000000D03*
%TO.N,PWM_RX_SPARE1*%
X107240000Y-72000000D03*
%TO.N,PWM_RX_SPARE2*%
X109780000Y-72000000D03*
%TD*%
D10*
%TO.N,GND_PWR*%
%TO.C,J46*%
X103000000Y-86000000D03*
D11*
%TO.N,AUX_3V3*%
X105540000Y-86000000D03*
%TO.N,BUCK6_PG*%
X108080000Y-86000000D03*
%TO.N,AUX_3V3_SHDN*%
X110620000Y-86000000D03*
%TO.N,CRSF_TX_TO_RX*%
X113160000Y-86000000D03*
%TO.N,CRSF_RX_FROM_RX*%
X115700000Y-86000000D03*
%TD*%
D14*
%TO.N,VBAT_RAW*%
%TO.C,J1*%
X13000000Y-19000000D03*
D13*
%TO.N,GND_PWR*%
X13000000Y-14000000D03*
%TD*%
D10*
%TO.N,VBAT_RAW*%
%TO.C,J2*%
X28000000Y-12000000D03*
D11*
%TO.N,VBAT_SW*%
X25460000Y-12000000D03*
%TD*%
D10*
%TO.N,GND_PWR*%
%TO.C,J44*%
X106000000Y-52000000D03*
D11*
%TO.N,VBAT_SW*%
X108540000Y-52000000D03*
%TO.N,SERVO_6V*%
X111080000Y-52000000D03*
%TO.N,RX_6V*%
X113620000Y-52000000D03*
%TO.N,CRSF_TX_TO_RX*%
X116160000Y-52000000D03*
%TO.N,CRSF_RX_FROM_RX*%
X118700000Y-52000000D03*
%TD*%
D15*
%TO.N,GND_PWR*%
%TO.C,U10*%
X81100000Y-33760000D03*
%TO.N,N/C*%
X81100000Y-35160000D03*
X81800000Y-33060000D03*
X81800000Y-34460000D03*
X81800000Y-35860000D03*
X82500000Y-33760000D03*
X82500000Y-35160000D03*
X83200000Y-33060000D03*
X83200000Y-34460000D03*
X83200000Y-35860000D03*
X83900000Y-33760000D03*
X83900000Y-35160000D03*
%TD*%
D10*
%TO.N,VBAT_SW*%
%TO.C,U20*%
X17000000Y-42000000D03*
D11*
%TO.N,GND_PWR*%
X17000000Y-44540000D03*
%TO.N,SERVO_6V*%
X17000000Y-47080000D03*
%TO.N,BUCK6_EN*%
X17000000Y-49620000D03*
%TO.N,BUCK6_PG*%
X17000000Y-52160000D03*
%TD*%
D10*
%TO.N,GND_PWR*%
%TO.C,J33*%
X63000000Y-88000000D03*
D11*
%TO.N,SERVO_6V*%
X60460000Y-88000000D03*
%TO.N,PWM_SERVO_SPARE2*%
X57920000Y-88000000D03*
%TD*%
D10*
%TO.N,ADC_VBAT*%
%TO.C,J48*%
X81000000Y-94000000D03*
D11*
%TO.N,ADC_SERVO_6V*%
X83540000Y-94000000D03*
%TO.N,ADC_RX_6V*%
X86080000Y-94000000D03*
%TO.N,STATUS_LED_R_N*%
X88620000Y-94000000D03*
%TO.N,STATUS_LED_G_N*%
X91160000Y-94000000D03*
%TO.N,STATUS_LED_B_N*%
X93700000Y-94000000D03*
%TD*%
D10*
%TO.N,GND_PWR*%
%TO.C,J21*%
X30000000Y-78000000D03*
D11*
%TO.N,WEKA_5V_BEC_NC_MON*%
X30000000Y-80540000D03*
%TO.N,PWM_DRIVE_LEFT*%
X30000000Y-83080000D03*
%TO.N,PWM_DRIVE_RIGHT*%
X30000000Y-85620000D03*
%TD*%
D16*
%TO.N,VBAT_RAW*%
X21000000Y-7000000D03*
X21000000Y-7000000D03*
%TO.N,VBAT_SW*%
X78087500Y-56000000D03*
X30300000Y-24000000D03*
X49087500Y-8000000D03*
X42050000Y-29000000D03*
X38000000Y-7000000D03*
X44000000Y-23000000D03*
X38862500Y-10000000D03*
%TO.N,SERVO_6V*%
X78087500Y-60000000D03*
X40300000Y-42000000D03*
X28300000Y-42000000D03*
X55087500Y-47000000D03*
X52050000Y-42000000D03*
X33000000Y-53000000D03*
X19000000Y-54500000D03*
X17000000Y-54500000D03*
D17*
%TO.N,RX_6V*%
X63050000Y-47000000D03*
X108500000Y-73000000D03*
X56912500Y-47000000D03*
X78087500Y-64000000D03*
X65000000Y-53000000D03*
%TO.N,AUX_3V3*%
X78087500Y-35000000D03*
X64500000Y-40000000D03*
X67087500Y-94000000D03*
X105500000Y-96000000D03*
X67087500Y-94000000D03*
X18000000Y-40000000D03*
X67087500Y-94000000D03*
X67087500Y-94000000D03*
X24500000Y-35000000D03*
X18000000Y-28000000D03*
X71137500Y-65050000D03*
X24500000Y-39500000D03*
X79050000Y-40000000D03*
X58087500Y-94000000D03*
X97087500Y-96000000D03*
X28300000Y-64000000D03*
X67087500Y-94000000D03*
X56500000Y-58570000D03*
X97087500Y-92000000D03*
X41050000Y-63000000D03*
X67087500Y-94000000D03*
X64500000Y-39500000D03*
X64500000Y-40000000D03*
X18000000Y-35000000D03*
X24500000Y-28000000D03*
X67087500Y-94000000D03*
X67087500Y-94000000D03*
X63137500Y-65050000D03*
X67087500Y-94000000D03*
X24500000Y-40000000D03*
X67087500Y-94000000D03*
X24500000Y-40000000D03*
X67087500Y-94000000D03*
X67087500Y-94000000D03*
X75250000Y-28010000D03*
X67087500Y-94000000D03*
X49087500Y-94000000D03*
X63137500Y-73050000D03*
X83050000Y-40000000D03*
X67087500Y-94000000D03*
X71137500Y-73050000D03*
X18000000Y-39500000D03*
X67087500Y-94000000D03*
X67087500Y-94000000D03*
X35000000Y-72000000D03*
X67087500Y-94000000D03*
X67087500Y-94000000D03*
X67087500Y-94000000D03*
X67087500Y-94000000D03*
X18000000Y-40000000D03*
%TO.N,MODE_SAFE*%
X64500000Y-43500000D03*
X48000000Y-37500000D03*
X46000000Y-33000000D03*
X80825000Y-44500000D03*
X62500000Y-43500000D03*
X58000000Y-38000000D03*
X24500000Y-32000000D03*
X10500000Y-62500000D03*
X52000000Y-67000000D03*
X66000000Y-43500000D03*
X52000000Y-67000000D03*
X17500000Y-73500000D03*
X19000000Y-67500000D03*
X55000000Y-58570000D03*
%TO.N,MODE_RX_DIRECT*%
X14000000Y-34500000D03*
X82095000Y-44500000D03*
X45500000Y-33000000D03*
X57500000Y-38000000D03*
X24500000Y-32500000D03*
X46500000Y-73000000D03*
X48000000Y-38000000D03*
X52000000Y-70000000D03*
%TO.N,MODE_MCU_CONTROL*%
X65500000Y-39000000D03*
X52000000Y-73000000D03*
X59000000Y-67500000D03*
X63137500Y-74000000D03*
X24500000Y-33000000D03*
X63500000Y-70000000D03*
X66500000Y-70000000D03*
X61000000Y-58570000D03*
X83365000Y-44500000D03*
X71137500Y-74000000D03*
X52000000Y-73000000D03*
X48000000Y-38500000D03*
X59500000Y-73000000D03*
X71137500Y-66000000D03*
X63137500Y-66000000D03*
X64500000Y-39000000D03*
X45000000Y-33000000D03*
X66500000Y-67500000D03*
X64000000Y-67500000D03*
X52000000Y-73000000D03*
X14000000Y-35000000D03*
X59500000Y-70000000D03*
X52000000Y-73000000D03*
X59500000Y-74000000D03*
X52000000Y-73000000D03*
X52000000Y-73000000D03*
%TO.N,VBAT_SW_FUSED*%
X43137500Y-10000000D03*
%TO.N,PWR_LED_A*%
X55062500Y-8000000D03*
X50912500Y-8000000D03*
%TO.N,BUCK6_PG*%
X91000000Y-84000000D03*
X80000000Y-84000000D03*
X19000000Y-58000000D03*
X18000000Y-57000000D03*
%TO.N,AUX_3V3_SHDN*%
X18500000Y-64500000D03*
X80000000Y-84500000D03*
X46500000Y-69000000D03*
X58500000Y-69000000D03*
%TO.N,PWM_DRIVE_LEFT*%
X40500000Y-68000000D03*
X37000000Y-88000000D03*
X57500000Y-68000000D03*
X37000000Y-88000000D03*
X58500000Y-68000000D03*
X82500000Y-92500000D03*
X67500000Y-95000000D03*
X37000000Y-88000000D03*
X63137500Y-66950000D03*
%TO.N,PWM_DRIVE_RIGHT*%
X78500000Y-83000000D03*
X71137500Y-66950000D03*
X64000000Y-70000000D03*
X40000000Y-88000000D03*
X68000000Y-93000000D03*
X64500000Y-67500000D03*
X58500000Y-74500000D03*
X40000000Y-88000000D03*
X68000000Y-95000000D03*
X46500000Y-75500000D03*
X40000000Y-88000000D03*
X78500000Y-85000000D03*
%TO.N,RX_PWM_DRIVE_LEFT*%
X90000000Y-72000000D03*
X78500000Y-72000000D03*
X60862500Y-65050000D03*
%TO.N,RX_PWM_DRIVE_RIGHT*%
X90000000Y-70500000D03*
X74500000Y-70500000D03*
X78500000Y-70500000D03*
X68862500Y-65050000D03*
X94000000Y-70500000D03*
%TO.N,RX_PWM_WEAPON_FR*%
X61500000Y-65500000D03*
X62500000Y-63000000D03*
X94000000Y-70000000D03*
X78500000Y-70000000D03*
X90000000Y-70000000D03*
X60862500Y-73050000D03*
%TO.N,RX_PWM_WEAPON_LR*%
X78500000Y-73500000D03*
X90000000Y-73500000D03*
X68862500Y-73050000D03*
%TO.N,CRSF_RX_FROM_RX*%
X92750000Y-31820000D03*
X107500000Y-73000000D03*
%TO.N,CRSF_TX_TO_RX*%
X92750000Y-30550000D03*
X106500000Y-73000000D03*
%TO.N,MCU_PWM_DRIVE_LEFT*%
X57500000Y-67000000D03*
X75250000Y-30550000D03*
X44500000Y-67000000D03*
X19000000Y-38000000D03*
X59500000Y-67000000D03*
X60862500Y-66950000D03*
X12000000Y-61500000D03*
X14500000Y-61500000D03*
%TO.N,MCU_PWM_DRIVE_RIGHT*%
X64500000Y-30000000D03*
X14500000Y-61000000D03*
X68862500Y-66950000D03*
X44500000Y-64500000D03*
X19000000Y-37500000D03*
X59500000Y-64500000D03*
X75250000Y-31820000D03*
X57500000Y-64500000D03*
X66500000Y-67000000D03*
X11500000Y-61000000D03*
X62500000Y-64500000D03*
%TO.N,MCU_PWM_WEAPON_FR*%
X59500000Y-75000000D03*
X12000000Y-75000000D03*
X19000000Y-36500000D03*
X61500000Y-33000000D03*
X50000000Y-33500000D03*
X75250000Y-33090000D03*
X60862500Y-74950000D03*
X56000000Y-75000000D03*
%TO.N,MCU_PWM_WEAPON_LR*%
X62500000Y-64000000D03*
X57500000Y-64000000D03*
X68862500Y-74950000D03*
X50000000Y-35500000D03*
X63500000Y-64000000D03*
X14500000Y-60500000D03*
X11500000Y-51000000D03*
X24500000Y-35500000D03*
X63500000Y-34500000D03*
X59500000Y-64000000D03*
X75250000Y-34360000D03*
X44500000Y-64000000D03*
%TO.N,ESP_EN*%
X85500000Y-47000000D03*
X75250000Y-29280000D03*
X74400000Y-46500000D03*
X79912500Y-35000000D03*
X64000000Y-35500000D03*
X64000000Y-38000000D03*
X64000000Y-35500000D03*
X64000000Y-38000000D03*
%TO.N,I2C_SDA*%
X104500000Y-96000000D03*
X75250000Y-35630000D03*
X98912500Y-92000000D03*
X84000000Y-91000000D03*
X84000000Y-91000000D03*
X98912500Y-92000000D03*
X98912500Y-92000000D03*
X19500000Y-57500000D03*
X14000000Y-36000000D03*
X24500000Y-36000000D03*
X63500000Y-36000000D03*
X14000000Y-56000000D03*
%TO.N,I2C_SCL*%
X83500000Y-88000000D03*
X14000000Y-37000000D03*
X103500000Y-96000000D03*
X75250000Y-36900000D03*
X24500000Y-37000000D03*
X98912500Y-96000000D03*
X98912500Y-96000000D03*
X63500000Y-37000000D03*
X98912500Y-96000000D03*
%TO.N,STATUS_LED_R_N*%
X74500000Y-41500000D03*
X53937500Y-96000000D03*
X40000000Y-30500000D03*
X56500000Y-42000000D03*
X24500000Y-30500000D03*
X41000000Y-41500000D03*
X75250000Y-38170000D03*
X53937500Y-96000000D03*
X51000000Y-42000000D03*
X64500000Y-42000000D03*
%TO.N,STATUS_LED_G_N*%
X43000000Y-31000000D03*
X74500000Y-95000000D03*
X24500000Y-31000000D03*
X43000000Y-41500000D03*
X64500000Y-41500000D03*
X80000000Y-95000000D03*
X62937500Y-96000000D03*
X56500000Y-41500000D03*
X75250000Y-39440000D03*
X74500000Y-41000000D03*
X51500000Y-41500000D03*
X62937500Y-96000000D03*
%TO.N,STATUS_LED_B_N*%
X46500000Y-33000000D03*
X24500000Y-31500000D03*
X75250000Y-40710000D03*
X71937500Y-96000000D03*
X50000000Y-36500000D03*
X64500000Y-41000000D03*
X14000000Y-33500000D03*
X48000000Y-36500000D03*
X66000000Y-41000000D03*
X71937500Y-96000000D03*
X56500000Y-40500000D03*
%TO.N,ADC_VBAT*%
X85087500Y-56000000D03*
X93000000Y-56000000D03*
X15000000Y-55500000D03*
X93000000Y-56000000D03*
X14000000Y-43500000D03*
X93000000Y-56000000D03*
X93000000Y-56000000D03*
X24500000Y-39000000D03*
X63500000Y-39000000D03*
X79912500Y-56000000D03*
X77015000Y-44500000D03*
X20000000Y-54500000D03*
X79000000Y-87000000D03*
%TO.N,ADC_SERVO_6V*%
X93000000Y-60000000D03*
X64500000Y-44000000D03*
X79500000Y-87000000D03*
X93000000Y-60000000D03*
X14000000Y-54500000D03*
X19000000Y-39000000D03*
X78285000Y-44500000D03*
X93000000Y-60000000D03*
X85087500Y-60000000D03*
X93000000Y-60000000D03*
X79912500Y-60000000D03*
X14000000Y-44000000D03*
X19500000Y-55000000D03*
%TO.N,ADC_RX_6V*%
X93000000Y-64000000D03*
X85087500Y-64000000D03*
X14000000Y-44500000D03*
X64500000Y-44500000D03*
X24500000Y-41000000D03*
X93000000Y-64000000D03*
X19000000Y-55500000D03*
X93000000Y-64000000D03*
X93000000Y-64000000D03*
X79912500Y-64000000D03*
X14500000Y-54500000D03*
X79555000Y-44500000D03*
%TO.N,ESP_BOOT*%
X84912500Y-35000000D03*
X89715000Y-44500000D03*
X65500000Y-38000000D03*
X84400000Y-46500000D03*
X64500000Y-38000000D03*
%TO.N,UART0_RXD*%
X80500000Y-45000000D03*
X65500000Y-51500000D03*
X85500000Y-44500000D03*
X39500000Y-51500000D03*
X92750000Y-34360000D03*
X37000000Y-41500000D03*
X37000000Y-30000000D03*
%TO.N,UART0_TXD*%
X39000000Y-51500000D03*
X84000000Y-43500000D03*
X65500000Y-52000000D03*
X36500000Y-41500000D03*
X92750000Y-33090000D03*
X37000000Y-29500000D03*
%TO.N,STATUS_LED_R_A*%
X50912500Y-94000000D03*
X52062500Y-96000000D03*
%TO.N,STATUS_LED_G_A*%
X61062500Y-96000000D03*
X59912500Y-94000000D03*
%TO.N,STATUS_LED_B_A*%
X70062500Y-96000000D03*
X68912500Y-94000000D03*
%TD*%
D18*
%TO.N,SERVO_6V*%
X109500000Y-53000000D02*
X109500000Y-53500000D01*
X109500000Y-53500000D02*
X40500000Y-53500000D01*
X110000000Y-52000000D02*
X110000000Y-53000000D01*
X109500000Y-53500000D02*
X19000000Y-53500000D01*
X110000000Y-53000000D02*
X109500000Y-53000000D01*
X110000000Y-52000000D02*
X110000000Y-53000000D01*
X16000000Y-53500000D02*
X16000000Y-53000000D01*
X109500000Y-53000000D02*
X109500000Y-53500000D01*
X33000000Y-53500000D02*
X33000000Y-53000000D01*
X52000000Y-53500000D02*
X52000000Y-42000000D01*
X110000000Y-53000000D02*
X109500000Y-53000000D01*
X15500000Y-53000000D02*
X15500000Y-47000000D01*
X110000000Y-52000000D02*
X110000000Y-53000000D01*
X17000000Y-53500000D02*
X16000000Y-53500000D01*
X28500000Y-53500000D02*
X28500000Y-42000000D01*
X55000000Y-53500000D02*
X55000000Y-47000000D01*
X109500000Y-53000000D02*
X109500000Y-53500000D01*
X109500000Y-53500000D02*
X52000000Y-53500000D01*
X111000000Y-52000000D02*
X110000000Y-52000000D01*
X16000000Y-53000000D02*
X15500000Y-53000000D01*
X111000000Y-52000000D02*
X110000000Y-52000000D01*
X40500000Y-53500000D02*
X40500000Y-42000000D01*
X17000000Y-54500000D02*
X17000000Y-53500000D01*
X110000000Y-53000000D02*
X109500000Y-53000000D01*
X15500000Y-47000000D02*
X17000000Y-47000000D01*
X111000000Y-52000000D02*
X110000000Y-52000000D01*
X111000000Y-52000000D02*
X110000000Y-52000000D01*
X111000000Y-52000000D02*
X110000000Y-52000000D01*
X110000000Y-53000000D02*
X109500000Y-53000000D01*
X111000000Y-52000000D02*
X110000000Y-52000000D01*
X110000000Y-53000000D02*
X109500000Y-53000000D01*
X109500000Y-53500000D02*
X33000000Y-53500000D01*
X109500000Y-53000000D02*
X109500000Y-53500000D01*
X110000000Y-53000000D02*
X109500000Y-53000000D01*
X109500000Y-53000000D02*
X109500000Y-53500000D01*
X110000000Y-52000000D02*
X110000000Y-53000000D01*
X109500000Y-53500000D02*
X55000000Y-53500000D01*
X110000000Y-52000000D02*
X110000000Y-53000000D01*
X109500000Y-53000000D02*
X109500000Y-53500000D01*
X109500000Y-53500000D02*
X28500000Y-53500000D01*
X110000000Y-52000000D02*
X110000000Y-53000000D01*
X19000000Y-53500000D02*
X19000000Y-54500000D01*
D19*
%TO.N,RX_6V*%
X85000000Y-36000000D02*
X85000000Y-36500000D01*
X112500000Y-51000000D02*
X112000000Y-51000000D01*
X112500000Y-52000000D02*
X112500000Y-51000000D01*
X85500000Y-35500000D02*
X85500000Y-36000000D01*
X65000000Y-37500000D02*
X65000000Y-53000000D01*
X84500000Y-37000000D02*
X84000000Y-37000000D01*
X84500000Y-36500000D02*
X84500000Y-37000000D01*
X85500000Y-36000000D02*
X85000000Y-36000000D01*
X110500000Y-50500000D02*
X110500000Y-36000000D01*
X113500000Y-52000000D02*
X112500000Y-52000000D01*
X110000000Y-35500000D02*
X85500000Y-35500000D01*
X85000000Y-36500000D02*
X84500000Y-36500000D01*
X112000000Y-50500000D02*
X110500000Y-50500000D01*
X84000000Y-37000000D02*
X84000000Y-37500000D01*
X110500000Y-36000000D02*
X110000000Y-36000000D01*
X84000000Y-37500000D02*
X65000000Y-37500000D01*
X112000000Y-51000000D02*
X112000000Y-50500000D01*
X110000000Y-36000000D02*
X110000000Y-35500000D01*
%TO.N,AUX_3V3*%
X16000000Y-69000000D02*
X15500000Y-69000000D01*
X16000000Y-69000000D02*
X15500000Y-69000000D01*
X15000000Y-54000000D02*
X15000000Y-53500000D01*
X14500000Y-39500000D02*
X18000000Y-39500000D01*
X24500000Y-40000000D02*
X64500000Y-40000000D01*
X14500000Y-53500000D02*
X14500000Y-28000000D01*
X15500000Y-69000000D02*
X15500000Y-54000000D01*
X15000000Y-54000000D02*
X15000000Y-53500000D01*
X14500000Y-53500000D02*
X14500000Y-40000000D01*
X67000000Y-94000000D02*
X67000000Y-69500000D01*
X15500000Y-69000000D02*
X15500000Y-54000000D01*
X15000000Y-53500000D02*
X14500000Y-53500000D01*
X58000000Y-59000000D02*
X57500000Y-59000000D01*
X24500000Y-28000000D02*
X75000000Y-28000000D01*
X15500000Y-54000000D02*
X15000000Y-54000000D01*
X16000000Y-69000000D02*
X15500000Y-69000000D01*
X67000000Y-69500000D02*
X16000000Y-69500000D01*
X67000000Y-94000000D02*
X67000000Y-69500000D01*
X15000000Y-53500000D02*
X14500000Y-53500000D01*
X15000000Y-53500000D02*
X14500000Y-53500000D01*
X64500000Y-94000000D02*
X64500000Y-78000000D01*
X15000000Y-54000000D02*
X15000000Y-53500000D01*
X15000000Y-53500000D02*
X14500000Y-53500000D01*
X24500000Y-40000000D02*
X64500000Y-40000000D01*
X16000000Y-69500000D02*
X16000000Y-69000000D01*
X16000000Y-69500000D02*
X16000000Y-69000000D01*
X15500000Y-54000000D02*
X15000000Y-54000000D01*
X15500000Y-54000000D02*
X15000000Y-54000000D01*
X16000000Y-69500000D02*
X16000000Y-69000000D01*
X64000000Y-78000000D02*
X64000000Y-77500000D01*
X67000000Y-69500000D02*
X16000000Y-69500000D01*
X24500000Y-35000000D02*
X78000000Y-35000000D01*
X14500000Y-53500000D02*
X14500000Y-39500000D01*
X57500000Y-59000000D02*
X57500000Y-58500000D01*
X15500000Y-54000000D02*
X15000000Y-54000000D01*
X64000000Y-77500000D02*
X58000000Y-77500000D01*
X16000000Y-69000000D02*
X15500000Y-69000000D01*
X14500000Y-28000000D02*
X18000000Y-28000000D01*
X15000000Y-54000000D02*
X15000000Y-53500000D01*
X16000000Y-69500000D02*
X16000000Y-69000000D01*
X14500000Y-40000000D02*
X18000000Y-40000000D01*
X14500000Y-53500000D02*
X14500000Y-40000000D01*
X64500000Y-78000000D02*
X64000000Y-78000000D01*
X67000000Y-94000000D02*
X67000000Y-69500000D01*
X67000000Y-94000000D02*
X67000000Y-69500000D01*
X15500000Y-54000000D02*
X15000000Y-54000000D01*
X24500000Y-39500000D02*
X64500000Y-39500000D01*
X57500000Y-58500000D02*
X56500000Y-58500000D01*
X16000000Y-69500000D02*
X16000000Y-69000000D01*
X15000000Y-54000000D02*
X15000000Y-53500000D01*
X14500000Y-40000000D02*
X18000000Y-40000000D01*
X67000000Y-69500000D02*
X16000000Y-69500000D01*
X67000000Y-94000000D02*
X64500000Y-94000000D01*
X67000000Y-94000000D02*
X67000000Y-69500000D01*
X14500000Y-35000000D02*
X18000000Y-35000000D01*
X15500000Y-69000000D02*
X15500000Y-54000000D01*
X16000000Y-69000000D02*
X15500000Y-69000000D01*
X58000000Y-77500000D02*
X58000000Y-59000000D01*
X15500000Y-69000000D02*
X15500000Y-54000000D01*
X15500000Y-69000000D02*
X15500000Y-54000000D01*
X67000000Y-69500000D02*
X16000000Y-69500000D01*
X15000000Y-53500000D02*
X14500000Y-53500000D01*
X67000000Y-69500000D02*
X16000000Y-69500000D01*
X14500000Y-53500000D02*
X14500000Y-35000000D01*
%TO.N,MODE_SAFE*%
X13500000Y-71000000D02*
X13500000Y-63000000D01*
X62500000Y-43500000D02*
X64500000Y-43500000D01*
X17500000Y-73500000D02*
X14500000Y-73500000D01*
X24500000Y-32000000D02*
X46000000Y-32000000D01*
X14000000Y-73000000D02*
X14000000Y-71000000D01*
X52000000Y-67500000D02*
X19000000Y-67500000D01*
X14500000Y-73000000D02*
X14000000Y-73000000D01*
X52000000Y-67000000D02*
X52000000Y-67500000D01*
X14500000Y-73500000D02*
X14500000Y-73000000D01*
X10500000Y-63000000D02*
X10500000Y-62500000D01*
X66000000Y-44000000D02*
X81000000Y-44000000D01*
X46000000Y-32000000D02*
X46000000Y-33000000D01*
X13500000Y-63000000D02*
X10500000Y-63000000D01*
X81000000Y-44000000D02*
X81000000Y-44500000D01*
X48000000Y-37500000D02*
X58000000Y-37500000D01*
X14000000Y-71000000D02*
X13500000Y-71000000D01*
X66000000Y-43500000D02*
X66000000Y-44000000D01*
X58000000Y-37500000D02*
X58000000Y-38000000D01*
%TO.N,MODE_RX_DIRECT*%
X46500000Y-73000000D02*
X15000000Y-73000000D01*
X14500000Y-70500000D02*
X14000000Y-70500000D01*
X10500000Y-44000000D02*
X11000000Y-44000000D01*
X11000000Y-44000000D02*
X11000000Y-35000000D01*
X13500000Y-35000000D02*
X13500000Y-34500000D01*
X15000000Y-72500000D02*
X14500000Y-72500000D01*
X10500000Y-62000000D02*
X10500000Y-44000000D01*
X24500000Y-32500000D02*
X45500000Y-32500000D01*
X14500000Y-72500000D02*
X14500000Y-70500000D01*
X14000000Y-62500000D02*
X11000000Y-62500000D01*
X11000000Y-62000000D02*
X10500000Y-62000000D01*
X45500000Y-32500000D02*
X45500000Y-33000000D01*
X11000000Y-62500000D02*
X11000000Y-62000000D01*
X14000000Y-70500000D02*
X14000000Y-62500000D01*
X48000000Y-38000000D02*
X57500000Y-38000000D01*
X13500000Y-34500000D02*
X14000000Y-34500000D01*
X11000000Y-35000000D02*
X13500000Y-35000000D01*
X15000000Y-73000000D02*
X15000000Y-72500000D01*
%TO.N,MODE_MCU_CONTROL*%
X11500000Y-35500000D02*
X14000000Y-35500000D01*
X52000000Y-73000000D02*
X52000000Y-72500000D01*
X15000000Y-70000000D02*
X14500000Y-70000000D01*
X64000000Y-39000000D02*
X64500000Y-39000000D01*
X59000000Y-66000000D02*
X63000000Y-66000000D01*
X14000000Y-35500000D02*
X14000000Y-35000000D01*
X64000000Y-66000000D02*
X71000000Y-66000000D01*
X59500000Y-70000000D02*
X63500000Y-70000000D01*
X66500000Y-67500000D02*
X69000000Y-67500000D01*
X65500000Y-44500000D02*
X83500000Y-44500000D01*
X66500000Y-73000000D02*
X66500000Y-70000000D01*
X52000000Y-72500000D02*
X15500000Y-72500000D01*
X11500000Y-44500000D02*
X11500000Y-35500000D01*
X48000000Y-38500000D02*
X64000000Y-38500000D01*
X11000000Y-44500000D02*
X11500000Y-44500000D01*
X15500000Y-72500000D02*
X15500000Y-72000000D01*
X69000000Y-74000000D02*
X71000000Y-74000000D01*
X11500000Y-61500000D02*
X11000000Y-61500000D01*
X15500000Y-72000000D02*
X15000000Y-72000000D01*
X24500000Y-33000000D02*
X45000000Y-33000000D01*
X14500000Y-62000000D02*
X11500000Y-62000000D01*
X69000000Y-67500000D02*
X69000000Y-74000000D01*
X11500000Y-62000000D02*
X11500000Y-61500000D01*
X64000000Y-67500000D02*
X64000000Y-66000000D01*
X15000000Y-72000000D02*
X15000000Y-70000000D01*
X65500000Y-39000000D02*
X65500000Y-44500000D01*
X14500000Y-70000000D02*
X14500000Y-62000000D01*
X64000000Y-38500000D02*
X64000000Y-39000000D01*
X59500000Y-74000000D02*
X63000000Y-74000000D01*
X59000000Y-67500000D02*
X59000000Y-66000000D01*
X11000000Y-61500000D02*
X11000000Y-44500000D01*
X59500000Y-73000000D02*
X66500000Y-73000000D01*
%TO.N,VBAT_SW_FUSED*%
X18500000Y-64000000D02*
X18500000Y-10000000D01*
X18500000Y-10000000D02*
X43000000Y-10000000D01*
X17000000Y-64500000D02*
X18000000Y-64500000D01*
X17000000Y-65500000D02*
X17000000Y-64500000D01*
X18000000Y-64000000D02*
X18500000Y-64000000D01*
X18000000Y-64500000D02*
X18000000Y-64000000D01*
%TO.N,BUCK6_PG*%
X17500000Y-52500000D02*
X17000000Y-52500000D01*
X62000000Y-58500000D02*
X62000000Y-58000000D01*
X63000000Y-68500000D02*
X63000000Y-59000000D01*
X17500000Y-53000000D02*
X17500000Y-52500000D01*
X106500000Y-85000000D02*
X106500000Y-84500000D01*
X108000000Y-86000000D02*
X107000000Y-86000000D01*
X68000000Y-68500000D02*
X63000000Y-68500000D01*
X95000000Y-84500000D02*
X95000000Y-84000000D01*
X62500000Y-59000000D02*
X62500000Y-58500000D01*
X18000000Y-57000000D02*
X18000000Y-53000000D01*
X107000000Y-86000000D02*
X107000000Y-85000000D01*
X62000000Y-58000000D02*
X19000000Y-58000000D01*
X107000000Y-85000000D02*
X106500000Y-85000000D01*
X106500000Y-84500000D02*
X95000000Y-84500000D01*
X63000000Y-59000000D02*
X62500000Y-59000000D01*
X95000000Y-84000000D02*
X91000000Y-84000000D01*
X17000000Y-52500000D02*
X17000000Y-52000000D01*
X62500000Y-58500000D02*
X62000000Y-58500000D01*
X80000000Y-84000000D02*
X68000000Y-84000000D01*
X68000000Y-84000000D02*
X68000000Y-68500000D01*
X18000000Y-53000000D02*
X17500000Y-53000000D01*
%TO.N,AUX_3V3_SHDN*%
X46500000Y-69000000D02*
X18500000Y-69000000D01*
X67500000Y-84500000D02*
X67500000Y-69000000D01*
X18500000Y-69000000D02*
X18500000Y-64500000D01*
X67500000Y-69000000D02*
X58500000Y-69000000D01*
X80000000Y-84500000D02*
X67500000Y-84500000D01*
%TO.N,PWM_DRIVE_LEFT*%
X41500000Y-89000000D02*
X42000000Y-89000000D01*
X59500000Y-67500000D02*
X61500000Y-67500000D01*
X63500000Y-90000000D02*
X63500000Y-95000000D01*
X84500000Y-87000000D02*
X85000000Y-87000000D01*
X31000000Y-84500000D02*
X31000000Y-84000000D01*
X82500000Y-92500000D02*
X82500000Y-91500000D01*
X42000000Y-89500000D02*
X56500000Y-89500000D01*
X31000000Y-84000000D02*
X30000000Y-84000000D01*
X42000000Y-89000000D02*
X42000000Y-89500000D01*
X37000000Y-88000000D02*
X31500000Y-88000000D01*
X61500000Y-67500000D02*
X61500000Y-67000000D01*
X85000000Y-87000000D02*
X85000000Y-86000000D01*
X84500000Y-91500000D02*
X84500000Y-87000000D01*
X56500000Y-90000000D02*
X63500000Y-90000000D01*
X59500000Y-68000000D02*
X59500000Y-67500000D01*
X37000000Y-88000000D02*
X41500000Y-88000000D01*
X40500000Y-68000000D02*
X57500000Y-68000000D01*
X41500000Y-88000000D02*
X41500000Y-89000000D01*
X61500000Y-67000000D02*
X63000000Y-67000000D01*
X58500000Y-68000000D02*
X59500000Y-68000000D01*
X31500000Y-88000000D02*
X31500000Y-84500000D01*
X63500000Y-95000000D02*
X67500000Y-95000000D01*
X56500000Y-89500000D02*
X56500000Y-90000000D01*
X30000000Y-84000000D02*
X30000000Y-83000000D01*
X85000000Y-86000000D02*
X86000000Y-86000000D01*
X31500000Y-84500000D02*
X31000000Y-84500000D01*
X82500000Y-91500000D02*
X84500000Y-91500000D01*
%TO.N,PWM_DRIVE_RIGHT*%
X40000000Y-88000000D02*
X40000000Y-88500000D01*
X87500000Y-85000000D02*
X87500000Y-86000000D01*
X87500000Y-86000000D02*
X88500000Y-86000000D01*
X69500000Y-67000000D02*
X71000000Y-67000000D01*
X40000000Y-88500000D02*
X30000000Y-88500000D01*
X30000000Y-88500000D02*
X30000000Y-85500000D01*
X63000000Y-90500000D02*
X63000000Y-95500000D01*
X87000000Y-85000000D02*
X87500000Y-85000000D01*
X78500000Y-83000000D02*
X81000000Y-83000000D01*
X68000000Y-86000000D02*
X78500000Y-86000000D01*
X87000000Y-84500000D02*
X87000000Y-85000000D01*
X66000000Y-66500000D02*
X69500000Y-66500000D01*
X56000000Y-90500000D02*
X63000000Y-90500000D01*
X58500000Y-70500000D02*
X64000000Y-70500000D01*
X64000000Y-70500000D02*
X64000000Y-70000000D01*
X78500000Y-86000000D02*
X78500000Y-85000000D01*
X56000000Y-90000000D02*
X56000000Y-90500000D01*
X64500000Y-67000000D02*
X66000000Y-67000000D01*
X64500000Y-67500000D02*
X64500000Y-67000000D01*
X63000000Y-95500000D02*
X68000000Y-95500000D01*
X81000000Y-84500000D02*
X87000000Y-84500000D01*
X68000000Y-93000000D02*
X68000000Y-86000000D01*
X40000000Y-88500000D02*
X41000000Y-88500000D01*
X66000000Y-67000000D02*
X66000000Y-66500000D01*
X58500000Y-74500000D02*
X58500000Y-70500000D01*
X40000000Y-88000000D02*
X40000000Y-88500000D01*
X40000000Y-75500000D02*
X46500000Y-75500000D01*
X69500000Y-66500000D02*
X69500000Y-67000000D01*
X41000000Y-89500000D02*
X41500000Y-89500000D01*
X41500000Y-90000000D02*
X56000000Y-90000000D01*
X41500000Y-89500000D02*
X41500000Y-90000000D01*
X68000000Y-95500000D02*
X68000000Y-95000000D01*
X41000000Y-88500000D02*
X41000000Y-89500000D01*
X40000000Y-88000000D02*
X40000000Y-75500000D01*
X81000000Y-83000000D02*
X81000000Y-84500000D01*
%TO.N,RX_PWM_DRIVE_LEFT*%
X78500000Y-72000000D02*
X90000000Y-72000000D01*
%TO.N,RX_PWM_DRIVE_RIGHT*%
X69000000Y-65500000D02*
X71500000Y-65500000D01*
X94000000Y-70500000D02*
X98000000Y-70500000D01*
X98500000Y-72000000D02*
X99500000Y-72000000D01*
X71500000Y-65500000D02*
X71500000Y-70500000D01*
X98500000Y-71000000D02*
X98500000Y-72000000D01*
X69000000Y-65000000D02*
X69000000Y-65500000D01*
X98000000Y-70500000D02*
X98000000Y-71000000D01*
X78500000Y-70500000D02*
X90000000Y-70500000D01*
X71500000Y-70500000D02*
X74500000Y-70500000D01*
X98000000Y-71000000D02*
X98500000Y-71000000D01*
%TO.N,RX_PWM_WEAPON_FR*%
X98500000Y-70000000D02*
X98500000Y-70500000D01*
X101000000Y-72000000D02*
X102000000Y-72000000D01*
X59000000Y-65500000D02*
X59000000Y-63500000D01*
X94000000Y-70000000D02*
X98500000Y-70000000D01*
X78500000Y-70000000D02*
X90000000Y-70000000D01*
X61500000Y-65500000D02*
X59000000Y-65500000D01*
X59000000Y-63500000D02*
X62500000Y-63500000D01*
X100500000Y-71000000D02*
X101000000Y-71000000D01*
X101000000Y-71000000D02*
X101000000Y-72000000D01*
X62500000Y-63500000D02*
X62500000Y-63000000D01*
X100500000Y-70500000D02*
X100500000Y-71000000D01*
X98500000Y-70500000D02*
X100500000Y-70500000D01*
%TO.N,RX_PWM_WEAPON_LR*%
X78500000Y-73500000D02*
X90000000Y-73500000D01*
%TO.N,CRSF_TX_TO_RX*%
X112000000Y-85000000D02*
X111500000Y-85000000D01*
X115000000Y-52000000D02*
X116000000Y-52000000D01*
X115000000Y-53000000D02*
X115000000Y-51000000D01*
X93000000Y-35000000D02*
X93000000Y-30500000D01*
X107000000Y-84000000D02*
X106500000Y-84000000D01*
X112500000Y-50000000D02*
X111000000Y-50000000D01*
X114500000Y-50500000D02*
X112500000Y-50500000D01*
X111000000Y-35500000D02*
X110500000Y-35500000D01*
X114500000Y-53000000D02*
X115000000Y-53000000D01*
X113000000Y-86000000D02*
X113000000Y-53500000D01*
X115000000Y-53000000D02*
X115000000Y-52000000D01*
X113000000Y-53500000D02*
X114500000Y-53500000D01*
X107000000Y-84500000D02*
X107000000Y-84000000D01*
X113000000Y-86000000D02*
X112000000Y-86000000D01*
X110500000Y-35500000D02*
X110500000Y-35000000D01*
X112500000Y-50500000D02*
X112500000Y-50000000D01*
X111500000Y-85000000D02*
X111500000Y-84500000D01*
X111500000Y-84500000D02*
X107000000Y-84500000D01*
X114500000Y-51000000D02*
X114500000Y-50500000D01*
X114500000Y-53500000D02*
X114500000Y-53000000D01*
X114500000Y-53000000D02*
X115000000Y-53000000D01*
X113000000Y-86000000D02*
X113000000Y-53500000D01*
X113000000Y-53500000D02*
X114500000Y-53500000D01*
X106500000Y-84000000D02*
X106500000Y-73000000D01*
X111000000Y-50000000D02*
X111000000Y-35500000D01*
X114500000Y-53500000D02*
X114500000Y-53000000D01*
X110500000Y-35000000D02*
X93000000Y-35000000D01*
X112000000Y-86000000D02*
X112000000Y-85000000D01*
X115000000Y-51000000D02*
X114500000Y-51000000D01*
%TO.N,MCU_PWM_DRIVE_LEFT*%
X75000000Y-30500000D02*
X61000000Y-30500000D01*
X12000000Y-61500000D02*
X14500000Y-61500000D01*
X44500000Y-67000000D02*
X57500000Y-67000000D01*
X24000000Y-34500000D02*
X24000000Y-38000000D01*
X24000000Y-38000000D02*
X19000000Y-38000000D01*
X61000000Y-30500000D02*
X61000000Y-34500000D01*
X59500000Y-67000000D02*
X61000000Y-67000000D01*
X61000000Y-34500000D02*
X24000000Y-34500000D01*
%TO.N,MCU_PWM_DRIVE_RIGHT*%
X66500000Y-67000000D02*
X69000000Y-67000000D01*
X59500000Y-64500000D02*
X62500000Y-64500000D01*
X60500000Y-34000000D02*
X23500000Y-34000000D01*
X23500000Y-37500000D02*
X19000000Y-37500000D01*
X44500000Y-64500000D02*
X57500000Y-64500000D01*
X23500000Y-34000000D02*
X23500000Y-37500000D01*
X64500000Y-30000000D02*
X60500000Y-30000000D01*
X60500000Y-30000000D02*
X60500000Y-34000000D01*
X11500000Y-61000000D02*
X14500000Y-61000000D01*
%TO.N,MCU_PWM_WEAPON_FR*%
X12000000Y-75000000D02*
X56000000Y-75000000D01*
X50000000Y-33500000D02*
X23000000Y-33500000D01*
X23000000Y-33500000D02*
X23000000Y-36500000D01*
X75000000Y-33000000D02*
X61500000Y-33000000D01*
X59500000Y-75000000D02*
X61000000Y-75000000D01*
X23000000Y-36500000D02*
X19000000Y-36500000D01*
%TO.N,MCU_PWM_WEAPON_LR*%
X11500000Y-51000000D02*
X11500000Y-60500000D01*
X63500000Y-68000000D02*
X68500000Y-68000000D01*
X44500000Y-64000000D02*
X57500000Y-64000000D01*
X11500000Y-60500000D02*
X14500000Y-60500000D01*
X68500000Y-75000000D02*
X69000000Y-75000000D01*
X68500000Y-68000000D02*
X68500000Y-75000000D01*
X63500000Y-64000000D02*
X63500000Y-68000000D01*
X59500000Y-64000000D02*
X62500000Y-64000000D01*
X75000000Y-34500000D02*
X63500000Y-34500000D01*
X50000000Y-35500000D02*
X24500000Y-35500000D01*
%TO.N,ESP_EN*%
X64000000Y-38000000D02*
X64000000Y-35500000D01*
X64000000Y-38000000D02*
X64000000Y-35500000D01*
X109000000Y-47000000D02*
X85500000Y-47000000D01*
%TO.N,I2C_SDA*%
X80500000Y-91000000D02*
X80500000Y-83500000D01*
X14000000Y-56000000D02*
X12000000Y-56000000D01*
X75000000Y-57500000D02*
X19500000Y-57500000D01*
X81000000Y-91000000D02*
X81000000Y-86000000D01*
X80500000Y-83500000D02*
X75000000Y-83500000D01*
X12000000Y-36000000D02*
X14000000Y-36000000D01*
X84000000Y-91000000D02*
X81000000Y-91000000D01*
X24500000Y-36000000D02*
X63500000Y-36000000D01*
X12000000Y-56000000D02*
X12000000Y-36000000D01*
X75000000Y-83500000D02*
X75000000Y-57500000D01*
X84000000Y-91000000D02*
X80500000Y-91000000D01*
%TO.N,I2C_SCL*%
X16000000Y-72000000D02*
X16000000Y-71500000D01*
X15000000Y-56000000D02*
X14500000Y-56000000D01*
X64000000Y-89500000D02*
X57000000Y-89500000D01*
X83500000Y-88000000D02*
X83500000Y-86000000D01*
X75000000Y-94500000D02*
X64000000Y-94500000D01*
X16000000Y-71500000D02*
X15500000Y-71500000D01*
X15500000Y-69500000D02*
X15000000Y-69500000D01*
X99000000Y-96000000D02*
X103500000Y-96000000D01*
X57000000Y-89000000D02*
X56500000Y-89000000D01*
X24500000Y-37000000D02*
X63500000Y-37000000D01*
X56500000Y-89000000D02*
X56500000Y-72000000D01*
X14500000Y-55500000D02*
X12500000Y-55500000D01*
X12500000Y-37000000D02*
X14000000Y-37000000D01*
X56500000Y-72000000D02*
X16000000Y-72000000D01*
X64000000Y-94500000D02*
X64000000Y-89500000D01*
X57000000Y-89500000D02*
X57000000Y-89000000D01*
X12500000Y-55500000D02*
X12500000Y-37000000D01*
X15000000Y-69500000D02*
X15000000Y-56000000D01*
X15500000Y-71500000D02*
X15500000Y-69500000D01*
X99000000Y-96000000D02*
X75000000Y-96000000D01*
X75000000Y-96000000D02*
X75000000Y-94500000D01*
X14500000Y-56000000D02*
X14500000Y-55500000D01*
%TO.N,STATUS_LED_R_N*%
X41000000Y-41500000D02*
X42500000Y-41500000D01*
X62000000Y-96000000D02*
X62000000Y-96500000D01*
X74500000Y-41500000D02*
X76000000Y-41500000D01*
X73000000Y-96500000D02*
X104000000Y-96500000D01*
X94500000Y-93000000D02*
X94500000Y-92500000D01*
X73000000Y-97000000D02*
X73000000Y-96500000D01*
X95000000Y-95500000D02*
X95000000Y-93000000D01*
X76000000Y-39500000D02*
X75500000Y-39500000D01*
X42500000Y-42000000D02*
X51000000Y-42000000D01*
X95000000Y-93000000D02*
X94500000Y-93000000D01*
X62500000Y-97000000D02*
X73000000Y-97000000D01*
X54000000Y-96000000D02*
X62000000Y-96000000D01*
X75500000Y-39000000D02*
X75000000Y-39000000D01*
X76000000Y-41500000D02*
X76000000Y-39500000D01*
X75000000Y-39000000D02*
X75000000Y-38000000D01*
X56500000Y-42000000D02*
X64500000Y-42000000D01*
X104000000Y-95500000D02*
X95000000Y-95500000D01*
X88500000Y-92500000D02*
X88500000Y-94000000D01*
X94500000Y-92500000D02*
X88500000Y-92500000D01*
X75500000Y-39500000D02*
X75500000Y-39000000D01*
X42500000Y-41500000D02*
X42500000Y-42000000D01*
X104000000Y-96500000D02*
X104000000Y-95500000D01*
X24500000Y-30500000D02*
X40000000Y-30500000D01*
X62500000Y-96500000D02*
X62500000Y-97000000D01*
X62000000Y-96500000D02*
X62500000Y-96500000D01*
%TO.N,STATUS_LED_G_N*%
X90000000Y-94000000D02*
X91000000Y-94000000D01*
X63000000Y-96500000D02*
X72500000Y-96500000D01*
X89500000Y-95000000D02*
X90000000Y-95000000D01*
X63000000Y-96000000D02*
X63000000Y-96500000D01*
X75500000Y-40000000D02*
X75000000Y-40000000D01*
X75000000Y-40000000D02*
X75000000Y-39500000D01*
X80000000Y-95500000D02*
X89500000Y-95500000D01*
X75500000Y-41000000D02*
X75500000Y-40000000D01*
X24500000Y-31000000D02*
X43000000Y-31000000D01*
X89500000Y-95500000D02*
X89500000Y-95000000D01*
X80000000Y-95000000D02*
X80000000Y-95500000D01*
X90000000Y-95000000D02*
X90000000Y-94000000D01*
X56500000Y-41500000D02*
X64500000Y-41500000D01*
X72500000Y-95000000D02*
X74500000Y-95000000D01*
X72500000Y-96500000D02*
X72500000Y-95000000D01*
X43000000Y-41500000D02*
X51500000Y-41500000D01*
X74500000Y-41000000D02*
X75500000Y-41000000D01*
%TO.N,STATUS_LED_B_N*%
X41000000Y-90500000D02*
X41000000Y-90000000D01*
X55500000Y-91000000D02*
X55500000Y-90500000D01*
X28500000Y-75500000D02*
X11500000Y-75500000D01*
X72000000Y-96000000D02*
X62500000Y-96000000D01*
X14000000Y-34000000D02*
X14000000Y-33500000D01*
X66000000Y-41000000D02*
X66000000Y-40500000D01*
X13000000Y-34500000D02*
X13000000Y-34000000D01*
X46500000Y-31500000D02*
X46500000Y-33000000D01*
X24500000Y-31500000D02*
X46500000Y-31500000D01*
X10000000Y-40500000D02*
X10500000Y-40500000D01*
X48000000Y-36500000D02*
X50000000Y-36500000D01*
X64500000Y-40500000D02*
X64500000Y-41000000D01*
X28500000Y-86500000D02*
X28500000Y-75500000D01*
X40500000Y-89000000D02*
X29500000Y-89000000D01*
X41000000Y-90000000D02*
X40500000Y-90000000D01*
X29500000Y-87000000D02*
X29000000Y-87000000D01*
X66000000Y-40500000D02*
X75000000Y-40500000D01*
X62500000Y-91000000D02*
X55500000Y-91000000D01*
X11500000Y-75500000D02*
X11500000Y-63500000D01*
X13000000Y-34000000D02*
X14000000Y-34000000D01*
X10500000Y-40500000D02*
X10500000Y-34500000D01*
X10000000Y-63500000D02*
X10000000Y-40500000D01*
X11500000Y-63500000D02*
X10000000Y-63500000D01*
X55500000Y-90500000D02*
X41000000Y-90500000D01*
X29000000Y-86500000D02*
X28500000Y-86500000D01*
X29500000Y-89000000D02*
X29500000Y-87000000D01*
X40500000Y-90000000D02*
X40500000Y-89000000D01*
X29000000Y-87000000D02*
X29000000Y-86500000D01*
X56500000Y-40500000D02*
X64500000Y-40500000D01*
X62500000Y-96000000D02*
X62500000Y-91000000D01*
X10500000Y-34500000D02*
X13000000Y-34500000D01*
%TO.N,ADC_VBAT*%
X80500000Y-56000000D02*
X80500000Y-54500000D01*
X13000000Y-43500000D02*
X14000000Y-43500000D01*
X13000000Y-55000000D02*
X13000000Y-43500000D01*
X80500000Y-54500000D02*
X20000000Y-54500000D01*
X15000000Y-55500000D02*
X15000000Y-55000000D01*
X24500000Y-39000000D02*
X63500000Y-39000000D01*
X79000000Y-87000000D02*
X79000000Y-94000000D01*
X93000000Y-56000000D02*
X80500000Y-56000000D01*
X79000000Y-94000000D02*
X81000000Y-94000000D01*
X15000000Y-55000000D02*
X13000000Y-55000000D01*
%TO.N,ADC_SERVO_6V*%
X79500000Y-92500000D02*
X82000000Y-92500000D01*
X82000000Y-92500000D02*
X82000000Y-93000000D01*
X13500000Y-44000000D02*
X14000000Y-44000000D01*
X79500000Y-87000000D02*
X79500000Y-92500000D01*
X53000000Y-40500000D02*
X53000000Y-41000000D01*
X82500000Y-93000000D02*
X82500000Y-94000000D01*
X19000000Y-40500000D02*
X53000000Y-40500000D01*
X93000000Y-60000000D02*
X80000000Y-60000000D01*
X53500000Y-44000000D02*
X64500000Y-44000000D01*
X53500000Y-41000000D02*
X53500000Y-44000000D01*
X13500000Y-54500000D02*
X13500000Y-44000000D01*
X53000000Y-41000000D02*
X53500000Y-41000000D01*
X82500000Y-94000000D02*
X83500000Y-94000000D01*
X80000000Y-55000000D02*
X19500000Y-55000000D01*
X19000000Y-39000000D02*
X19000000Y-40500000D01*
X14000000Y-54500000D02*
X13500000Y-54500000D01*
X80000000Y-60000000D02*
X80000000Y-55000000D01*
X82000000Y-93000000D02*
X82500000Y-93000000D01*
%TO.N,ADC_RX_6V*%
X95000000Y-87000000D02*
X94500000Y-87000000D01*
X93000000Y-64000000D02*
X90500000Y-64000000D01*
X14500000Y-54000000D02*
X14000000Y-54000000D01*
X90500000Y-64000000D02*
X90500000Y-84500000D01*
X52500000Y-41500000D02*
X53000000Y-41500000D01*
X90500000Y-84500000D02*
X94500000Y-84500000D01*
X53000000Y-41500000D02*
X53000000Y-44500000D01*
X52500000Y-41000000D02*
X52500000Y-41500000D01*
X95000000Y-85000000D02*
X95000000Y-87000000D01*
X94500000Y-87500000D02*
X86000000Y-87500000D01*
X94500000Y-85000000D02*
X95000000Y-85000000D01*
X94500000Y-84500000D02*
X94500000Y-85000000D01*
X86000000Y-87500000D02*
X86000000Y-94000000D01*
X24500000Y-41000000D02*
X52500000Y-41000000D01*
X14500000Y-54500000D02*
X14500000Y-54000000D01*
X53000000Y-44500000D02*
X64500000Y-44500000D01*
X93000000Y-64000000D02*
X79500000Y-64000000D01*
X14000000Y-54000000D02*
X14000000Y-44500000D01*
X79500000Y-55500000D02*
X19000000Y-55500000D01*
X79500000Y-64000000D02*
X79500000Y-55500000D01*
X94500000Y-87000000D02*
X94500000Y-87500000D01*
%TO.N,ESP_BOOT*%
X64500000Y-38000000D02*
X64500000Y-35500000D01*
X85500000Y-34500000D02*
X85000000Y-34500000D01*
X80000000Y-33000000D02*
X80000000Y-32500000D01*
X109000000Y-49500000D02*
X85000000Y-49500000D01*
X85500000Y-33000000D02*
X85500000Y-34500000D01*
X84500000Y-32500000D02*
X85000000Y-32500000D01*
X78500000Y-35500000D02*
X78500000Y-35000000D01*
X85000000Y-49500000D02*
X85000000Y-38000000D01*
X85000000Y-32500000D02*
X85000000Y-33000000D01*
X79500000Y-33000000D02*
X80000000Y-33000000D01*
X85000000Y-38000000D02*
X65500000Y-38000000D01*
X84500000Y-32000000D02*
X84500000Y-32500000D01*
X80000000Y-32500000D02*
X80500000Y-32500000D01*
X84000000Y-32000000D02*
X84500000Y-32000000D01*
X80500000Y-32500000D02*
X80500000Y-32000000D01*
X64500000Y-35500000D02*
X78500000Y-35500000D01*
X81000000Y-31500000D02*
X84000000Y-31500000D01*
X85000000Y-33000000D02*
X85500000Y-33000000D01*
X79500000Y-35000000D02*
X79500000Y-33000000D01*
X78500000Y-35000000D02*
X79500000Y-35000000D01*
X81000000Y-32000000D02*
X81000000Y-31500000D01*
X80500000Y-32000000D02*
X81000000Y-32000000D01*
X84000000Y-31500000D02*
X84000000Y-32000000D01*
X85000000Y-34500000D02*
X85000000Y-35000000D01*
%TO.N,UART0_RXD*%
X65000000Y-29500000D02*
X65000000Y-30000000D01*
X39500000Y-41500000D02*
X37000000Y-41500000D01*
X86000000Y-32500000D02*
X86000000Y-34500000D01*
X84500000Y-31000000D02*
X84500000Y-31500000D01*
X109000000Y-44500000D02*
X85500000Y-44500000D01*
X60000000Y-30000000D02*
X60000000Y-29500000D01*
X65500000Y-45000000D02*
X65500000Y-51500000D01*
X85500000Y-32000000D02*
X85500000Y-32500000D01*
X85000000Y-31500000D02*
X85000000Y-32000000D01*
X84500000Y-31500000D02*
X85000000Y-31500000D01*
X75500000Y-31000000D02*
X84500000Y-31000000D01*
X85500000Y-32500000D02*
X86000000Y-32500000D01*
X37000000Y-30000000D02*
X60000000Y-30000000D01*
X60000000Y-29500000D02*
X65000000Y-29500000D01*
X80500000Y-45000000D02*
X65500000Y-45000000D01*
X75500000Y-30000000D02*
X75500000Y-31000000D01*
X85000000Y-32000000D02*
X85500000Y-32000000D01*
X39500000Y-51500000D02*
X39500000Y-41500000D01*
X86000000Y-34500000D02*
X93000000Y-34500000D01*
X65000000Y-30000000D02*
X75500000Y-30000000D01*
%TO.N,UART0_TXD*%
X39000000Y-42000000D02*
X36500000Y-42000000D01*
X65500000Y-29000000D02*
X65500000Y-29500000D01*
X84000000Y-43500000D02*
X84000000Y-45000000D01*
X84000000Y-45000000D02*
X81000000Y-45000000D01*
X76000000Y-30500000D02*
X85000000Y-30500000D01*
X37000000Y-29500000D02*
X59500000Y-29500000D01*
X85500000Y-31500000D02*
X86000000Y-31500000D01*
X85000000Y-31000000D02*
X85500000Y-31000000D01*
X76000000Y-29500000D02*
X76000000Y-30500000D01*
X39000000Y-51500000D02*
X39000000Y-42000000D01*
X36500000Y-42000000D02*
X36500000Y-41500000D01*
X86500000Y-32000000D02*
X86500000Y-33000000D01*
X85500000Y-31000000D02*
X85500000Y-31500000D01*
X85000000Y-30500000D02*
X85000000Y-31000000D01*
X86500000Y-33000000D02*
X93000000Y-33000000D01*
X59500000Y-29500000D02*
X59500000Y-29000000D01*
X86000000Y-31500000D02*
X86000000Y-32000000D01*
X65500000Y-29500000D02*
X76000000Y-29500000D01*
X81000000Y-45500000D02*
X66000000Y-45500000D01*
X86000000Y-32000000D02*
X86500000Y-32000000D01*
X66000000Y-52000000D02*
X65500000Y-52000000D01*
X81000000Y-45000000D02*
X81000000Y-45500000D01*
X66000000Y-45500000D02*
X66000000Y-52000000D01*
X59500000Y-29000000D02*
X65500000Y-29000000D01*
%TO.N,STATUS_LED_R_A*%
X51000000Y-96000000D02*
X51000000Y-94000000D01*
X52000000Y-96000000D02*
X51000000Y-96000000D01*
%TD*%
%TA.AperFunction,Conductor*%
%TO.N,GND_PWR*%
G36*
X59943039Y-2019685D02*
G01*
X59988794Y-2072489D01*
X60000000Y-2124000D01*
X60000000Y-26000000D01*
X117876000Y-26000000D01*
X117943039Y-26019685D01*
X117988794Y-26072489D01*
X118000000Y-26124000D01*
X118000000Y-51023301D01*
X117980315Y-51090340D01*
X117953625Y-51118605D01*
X117954204Y-51119283D01*
X117950496Y-51122449D01*
X117822445Y-51250500D01*
X117822441Y-51250505D01*
X117716006Y-51397002D01*
X117633788Y-51558360D01*
X117633787Y-51558363D01*
X117577829Y-51730589D01*
X117552473Y-51890678D01*
X117522544Y-51953813D01*
X117463232Y-51990744D01*
X117393369Y-51989746D01*
X117335137Y-51951136D01*
X117307527Y-51890678D01*
X117293740Y-51803639D01*
X117282171Y-51730591D01*
X117239708Y-51599901D01*
X117226212Y-51558363D01*
X117226211Y-51558360D01*
X117173860Y-51455617D01*
X117143996Y-51397006D01*
X117097091Y-51332446D01*
X117037558Y-51250505D01*
X117037554Y-51250500D01*
X116909499Y-51122445D01*
X116909494Y-51122441D01*
X116762997Y-51016006D01*
X116762996Y-51016005D01*
X116762994Y-51016004D01*
X116701877Y-50984863D01*
X116601639Y-50933788D01*
X116601636Y-50933787D01*
X116429410Y-50877829D01*
X116250551Y-50849500D01*
X116250546Y-50849500D01*
X116069454Y-50849500D01*
X116069449Y-50849500D01*
X115890589Y-50877829D01*
X115718363Y-50933787D01*
X115718360Y-50933788D01*
X115590160Y-50999111D01*
X115521491Y-51012007D01*
X115456750Y-50985731D01*
X115416493Y-50928625D01*
X115414094Y-50920734D01*
X115391843Y-50837693D01*
X115336483Y-50741807D01*
X115258193Y-50663517D01*
X115162307Y-50608157D01*
X115055360Y-50579500D01*
X115055358Y-50579500D01*
X115044500Y-50579500D01*
X114977461Y-50559815D01*
X114931706Y-50507011D01*
X114920500Y-50455500D01*
X114920500Y-50444641D01*
X114920500Y-50444640D01*
X114891843Y-50337693D01*
X114836483Y-50241807D01*
X114758193Y-50163517D01*
X114662307Y-50108157D01*
X114555360Y-50079500D01*
X114555358Y-50079500D01*
X113044500Y-50079500D01*
X112977461Y-50059815D01*
X112931706Y-50007011D01*
X112920500Y-49955500D01*
X112920500Y-49944641D01*
X112919306Y-49940185D01*
X112891843Y-49837693D01*
X112836483Y-49741807D01*
X112758193Y-49663517D01*
X112662307Y-49608157D01*
X112555360Y-49579500D01*
X112555358Y-49579500D01*
X111544500Y-49579500D01*
X111477461Y-49559815D01*
X111431706Y-49507011D01*
X111420500Y-49455500D01*
X111420500Y-35444641D01*
X111414033Y-35420505D01*
X111391843Y-35337693D01*
X111336483Y-35241807D01*
X111258193Y-35163517D01*
X111162307Y-35108157D01*
X111055360Y-35079500D01*
X111055358Y-35079500D01*
X111044500Y-35079500D01*
X110977461Y-35059815D01*
X110931706Y-35007011D01*
X110920500Y-34955500D01*
X110920500Y-34944641D01*
X110916099Y-34928216D01*
X110891843Y-34837693D01*
X110836483Y-34741807D01*
X110758193Y-34663517D01*
X110662307Y-34608157D01*
X110555360Y-34579500D01*
X110555358Y-34579500D01*
X93544500Y-34579500D01*
X93477461Y-34559815D01*
X93431706Y-34507011D01*
X93420500Y-34455500D01*
X93420500Y-30444641D01*
X93414116Y-30420816D01*
X93391843Y-30337693D01*
X93336483Y-30241807D01*
X93258193Y-30163517D01*
X93162307Y-30108157D01*
X93055360Y-30079500D01*
X93055358Y-30079500D01*
X93019296Y-30079500D01*
X92957296Y-30062887D01*
X92952838Y-30060313D01*
X92952837Y-30060312D01*
X92952836Y-30060312D01*
X92819183Y-30024500D01*
X92680817Y-30024500D01*
X92547164Y-30060312D01*
X92547161Y-30060313D01*
X92427338Y-30129492D01*
X92427333Y-30129496D01*
X92329496Y-30227333D01*
X92329492Y-30227338D01*
X92260313Y-30347161D01*
X92260312Y-30347164D01*
X92224500Y-30480817D01*
X92224500Y-30619183D01*
X92249019Y-30710687D01*
X92260312Y-30752835D01*
X92260313Y-30752838D01*
X92329492Y-30872661D01*
X92329494Y-30872664D01*
X92329495Y-30872665D01*
X92427335Y-30970505D01*
X92517501Y-31022562D01*
X92525783Y-31031248D01*
X92536703Y-31036235D01*
X92549448Y-31056066D01*
X92565715Y-31073127D01*
X92568931Y-31086383D01*
X92574477Y-31095013D01*
X92579500Y-31129948D01*
X92579500Y-31240050D01*
X92559815Y-31307089D01*
X92517501Y-31347437D01*
X92427335Y-31399494D01*
X92329496Y-31497333D01*
X92329492Y-31497338D01*
X92260313Y-31617161D01*
X92260312Y-31617164D01*
X92224500Y-31750817D01*
X92224500Y-31889183D01*
X92260233Y-32022539D01*
X92260312Y-32022835D01*
X92260313Y-32022838D01*
X92329492Y-32142661D01*
X92329494Y-32142664D01*
X92329495Y-32142665D01*
X92427335Y-32240505D01*
X92517501Y-32292562D01*
X92525783Y-32301248D01*
X92536703Y-32306235D01*
X92549448Y-32326066D01*
X92565715Y-32343127D01*
X92568931Y-32356383D01*
X92574477Y-32365013D01*
X92579500Y-32399948D01*
X92579500Y-32455500D01*
X92559815Y-32522539D01*
X92507011Y-32568294D01*
X92455500Y-32579500D01*
X87044500Y-32579500D01*
X86977461Y-32559815D01*
X86931706Y-32507011D01*
X86920500Y-32455500D01*
X86920500Y-31944641D01*
X86916796Y-31930817D01*
X86891843Y-31837693D01*
X86836483Y-31741807D01*
X86758193Y-31663517D01*
X86662307Y-31608157D01*
X86555360Y-31579500D01*
X86555358Y-31579500D01*
X86544500Y-31579500D01*
X86477461Y-31559815D01*
X86431706Y-31507011D01*
X86420500Y-31455500D01*
X86420500Y-31444641D01*
X86416796Y-31430817D01*
X86391843Y-31337693D01*
X86336483Y-31241807D01*
X86258193Y-31163517D01*
X86162307Y-31108157D01*
X86055360Y-31079500D01*
X86055358Y-31079500D01*
X86044500Y-31079500D01*
X85977461Y-31059815D01*
X85931706Y-31007011D01*
X85920500Y-30955500D01*
X85920500Y-30944641D01*
X85917034Y-30931706D01*
X85891843Y-30837693D01*
X85836483Y-30741807D01*
X85758193Y-30663517D01*
X85662307Y-30608157D01*
X85555360Y-30579500D01*
X85555358Y-30579500D01*
X85544500Y-30579500D01*
X85477461Y-30559815D01*
X85431706Y-30507011D01*
X85420500Y-30455500D01*
X85420500Y-30444641D01*
X85414116Y-30420816D01*
X85391843Y-30337693D01*
X85336483Y-30241807D01*
X85258193Y-30163517D01*
X85162307Y-30108157D01*
X85055360Y-30079500D01*
X85055358Y-30079500D01*
X76544500Y-30079500D01*
X76477461Y-30059815D01*
X76431706Y-30007011D01*
X76420500Y-29955500D01*
X76420500Y-29444641D01*
X76416796Y-29430817D01*
X76391843Y-29337693D01*
X76336483Y-29241807D01*
X76258193Y-29163517D01*
X76162307Y-29108157D01*
X76055360Y-29079500D01*
X76055358Y-29079500D01*
X75812628Y-29079500D01*
X75745589Y-29059815D01*
X75705241Y-29017500D01*
X75670505Y-28957335D01*
X75572665Y-28859495D01*
X75572664Y-28859494D01*
X75572661Y-28859492D01*
X75452838Y-28790313D01*
X75452837Y-28790312D01*
X75452836Y-28790312D01*
X75357526Y-28764774D01*
X75297867Y-28728410D01*
X75267338Y-28665563D01*
X75275633Y-28596188D01*
X75320118Y-28542310D01*
X75357525Y-28525226D01*
X75452836Y-28499688D01*
X75572665Y-28430505D01*
X75670505Y-28332665D01*
X75739688Y-28212836D01*
X75775500Y-28079183D01*
X75775500Y-27940817D01*
X75739688Y-27807164D01*
X75670505Y-27687335D01*
X75572665Y-27589495D01*
X75572664Y-27589494D01*
X75572661Y-27589492D01*
X75452838Y-27520313D01*
X75452837Y-27520312D01*
X75452836Y-27520312D01*
X75319183Y-27484500D01*
X75180817Y-27484500D01*
X75047164Y-27520312D01*
X75047161Y-27520313D01*
X74973422Y-27562887D01*
X74911422Y-27579500D01*
X24855899Y-27579500D01*
X24793899Y-27562887D01*
X24702838Y-27510313D01*
X24702837Y-27510312D01*
X24702836Y-27510312D01*
X24569183Y-27474500D01*
X24430817Y-27474500D01*
X24297164Y-27510312D01*
X24297161Y-27510313D01*
X24177338Y-27579492D01*
X24177333Y-27579496D01*
X24079496Y-27677333D01*
X24079492Y-27677338D01*
X24010313Y-27797161D01*
X24010312Y-27797164D01*
X23974500Y-27930817D01*
X23974500Y-28069183D01*
X23977180Y-28079183D01*
X24010312Y-28202835D01*
X24010313Y-28202838D01*
X24079492Y-28322661D01*
X24079494Y-28322664D01*
X24079495Y-28322665D01*
X24177335Y-28420505D01*
X24177336Y-28420506D01*
X24177338Y-28420507D01*
X24206101Y-28437113D01*
X24297164Y-28489688D01*
X24430817Y-28525500D01*
X24430819Y-28525500D01*
X24569181Y-28525500D01*
X24569183Y-28525500D01*
X24702836Y-28489688D01*
X24793899Y-28437113D01*
X24855899Y-28420500D01*
X41392805Y-28420500D01*
X41459844Y-28440185D01*
X41505599Y-28492989D01*
X41515543Y-28562147D01*
X41495908Y-28613390D01*
X41451382Y-28680027D01*
X41451376Y-28680038D01*
X41400461Y-28802959D01*
X41400458Y-28802969D01*
X41374500Y-28933466D01*
X41374500Y-28955500D01*
X41354815Y-29022539D01*
X41302011Y-29068294D01*
X41250500Y-29079500D01*
X37355899Y-29079500D01*
X37293899Y-29062887D01*
X37202838Y-29010313D01*
X37202837Y-29010312D01*
X37202836Y-29010312D01*
X37069183Y-28974500D01*
X36930817Y-28974500D01*
X36797164Y-29010312D01*
X36797161Y-29010313D01*
X36677338Y-29079492D01*
X36677333Y-29079496D01*
X36579496Y-29177333D01*
X36579492Y-29177338D01*
X36510313Y-29297161D01*
X36510312Y-29297164D01*
X36474500Y-29430817D01*
X36474500Y-29569182D01*
X36512416Y-29710687D01*
X36511107Y-29711037D01*
X36517659Y-29772026D01*
X36516745Y-29776598D01*
X36513404Y-29791806D01*
X36510312Y-29797164D01*
X36474500Y-29930817D01*
X36474500Y-29968956D01*
X36471614Y-29982098D01*
X36461019Y-30001409D01*
X36454815Y-30022539D01*
X36444544Y-30031438D01*
X36438007Y-30043355D01*
X36418653Y-30053872D01*
X36402011Y-30068294D01*
X36385515Y-30071882D01*
X36376618Y-30076718D01*
X36366654Y-30075985D01*
X36350500Y-30079500D01*
X24855899Y-30079500D01*
X24793899Y-30062887D01*
X24702838Y-30010313D01*
X24702837Y-30010312D01*
X24702836Y-30010312D01*
X24569183Y-29974500D01*
X24430817Y-29974500D01*
X24297164Y-30010312D01*
X24297161Y-30010313D01*
X24177338Y-30079492D01*
X24177333Y-30079496D01*
X24079496Y-30177333D01*
X24079492Y-30177338D01*
X24010313Y-30297161D01*
X24010312Y-30297164D01*
X23974500Y-30430817D01*
X23974500Y-30569183D01*
X23987897Y-30619183D01*
X24012416Y-30710687D01*
X24011107Y-30711037D01*
X24017659Y-30772026D01*
X24010668Y-30795833D01*
X23990081Y-30872666D01*
X23974500Y-30930817D01*
X23974500Y-31069183D01*
X24001402Y-31169584D01*
X24012416Y-31210687D01*
X24011107Y-31211037D01*
X24017659Y-31272026D01*
X24010668Y-31295833D01*
X23999452Y-31337693D01*
X23974500Y-31430817D01*
X23974500Y-31569183D01*
X23999775Y-31663512D01*
X24012416Y-31710687D01*
X24011107Y-31711037D01*
X24017659Y-31772026D01*
X24010668Y-31795833D01*
X23999452Y-31837693D01*
X23974500Y-31930817D01*
X23974500Y-32069183D01*
X23999452Y-32162307D01*
X24012416Y-32210687D01*
X24011107Y-32211037D01*
X24017659Y-32272026D01*
X24010668Y-32295833D01*
X23994847Y-32354879D01*
X23974500Y-32430817D01*
X23974500Y-32569183D01*
X24007218Y-32691290D01*
X24012416Y-32710687D01*
X24011107Y-32711037D01*
X24017659Y-32772026D01*
X24016745Y-32776598D01*
X24013404Y-32791806D01*
X24010312Y-32797164D01*
X23974500Y-32930817D01*
X23974500Y-32968956D01*
X23971614Y-32982098D01*
X23961019Y-33001409D01*
X23954815Y-33022539D01*
X23944544Y-33031438D01*
X23938007Y-33043355D01*
X23918653Y-33053872D01*
X23902011Y-33068294D01*
X23885515Y-33071882D01*
X23876618Y-33076718D01*
X23866654Y-33075985D01*
X23850500Y-33079500D01*
X23055360Y-33079500D01*
X22944640Y-33079500D01*
X22873342Y-33098604D01*
X22837692Y-33108157D01*
X22741807Y-33163517D01*
X22741804Y-33163519D01*
X22663519Y-33241804D01*
X22663517Y-33241807D01*
X22608157Y-33337692D01*
X22608157Y-33337693D01*
X22583204Y-33430819D01*
X22579500Y-33444641D01*
X22579500Y-35955500D01*
X22559815Y-36022539D01*
X22507011Y-36068294D01*
X22455500Y-36079500D01*
X19355899Y-36079500D01*
X19293899Y-36062887D01*
X19202838Y-36010313D01*
X19202837Y-36010312D01*
X19202836Y-36010312D01*
X19069183Y-35974500D01*
X19044500Y-35974500D01*
X18977461Y-35954815D01*
X18931706Y-35902011D01*
X18920500Y-35850500D01*
X18920500Y-24066533D01*
X29624499Y-24066533D01*
X29650458Y-24197030D01*
X29650461Y-24197040D01*
X29701376Y-24319961D01*
X29701386Y-24319979D01*
X29775301Y-24430601D01*
X29775307Y-24430609D01*
X29869390Y-24524692D01*
X29869398Y-24524698D01*
X29980020Y-24598613D01*
X29980023Y-24598614D01*
X29980031Y-24598620D01*
X30102964Y-24649540D01*
X30102968Y-24649540D01*
X30102969Y-24649541D01*
X30233466Y-24675500D01*
X30233469Y-24675500D01*
X30366533Y-24675500D01*
X30454325Y-24658035D01*
X30497036Y-24649540D01*
X30619969Y-24598620D01*
X30730606Y-24524695D01*
X30824695Y-24430606D01*
X30898620Y-24319969D01*
X30949540Y-24197036D01*
X30975500Y-24066531D01*
X30975500Y-23933469D01*
X30975500Y-23933466D01*
X30949541Y-23802969D01*
X30949540Y-23802968D01*
X30949540Y-23802964D01*
X30898620Y-23680031D01*
X30895592Y-23675500D01*
X30824698Y-23569398D01*
X30824692Y-23569390D01*
X30730609Y-23475307D01*
X30730601Y-23475301D01*
X30619979Y-23401386D01*
X30619972Y-23401382D01*
X30619969Y-23401380D01*
X30619965Y-23401378D01*
X30619961Y-23401376D01*
X30497040Y-23350461D01*
X30497030Y-23350458D01*
X30366533Y-23324500D01*
X30366531Y-23324500D01*
X30233469Y-23324500D01*
X30233467Y-23324500D01*
X30102969Y-23350458D01*
X30102959Y-23350461D01*
X29980038Y-23401376D01*
X29980020Y-23401386D01*
X29869398Y-23475301D01*
X29869390Y-23475307D01*
X29775307Y-23569390D01*
X29775301Y-23569398D01*
X29701386Y-23680020D01*
X29701376Y-23680038D01*
X29650461Y-23802959D01*
X29650458Y-23802969D01*
X29624500Y-23933466D01*
X29624500Y-23933469D01*
X29624500Y-24066531D01*
X29624500Y-24066533D01*
X29624499Y-24066533D01*
X18920500Y-24066533D01*
X18920500Y-23066533D01*
X43324499Y-23066533D01*
X43350458Y-23197030D01*
X43350461Y-23197040D01*
X43401376Y-23319961D01*
X43401386Y-23319979D01*
X43475301Y-23430601D01*
X43475307Y-23430609D01*
X43569390Y-23524692D01*
X43569398Y-23524698D01*
X43680020Y-23598613D01*
X43680023Y-23598614D01*
X43680031Y-23598620D01*
X43802964Y-23649540D01*
X43802968Y-23649540D01*
X43802969Y-23649541D01*
X43933466Y-23675500D01*
X43933469Y-23675500D01*
X44066533Y-23675500D01*
X44154325Y-23658035D01*
X44197036Y-23649540D01*
X44319969Y-23598620D01*
X44430606Y-23524695D01*
X44524695Y-23430606D01*
X44598620Y-23319969D01*
X44649540Y-23197036D01*
X44675500Y-23066531D01*
X44675500Y-22933469D01*
X44675500Y-22933466D01*
X44649541Y-22802969D01*
X44649540Y-22802968D01*
X44649540Y-22802964D01*
X44598620Y-22680031D01*
X44524695Y-22569394D01*
X44524692Y-22569390D01*
X44430609Y-22475307D01*
X44430601Y-22475301D01*
X44319979Y-22401386D01*
X44319972Y-22401382D01*
X44319969Y-22401380D01*
X44319965Y-22401378D01*
X44319961Y-22401376D01*
X44197040Y-22350461D01*
X44197030Y-22350458D01*
X44066533Y-22324500D01*
X44066531Y-22324500D01*
X43933469Y-22324500D01*
X43933467Y-22324500D01*
X43802969Y-22350458D01*
X43802959Y-22350461D01*
X43680038Y-22401376D01*
X43680020Y-22401386D01*
X43569398Y-22475301D01*
X43569390Y-22475307D01*
X43475307Y-22569390D01*
X43475301Y-22569398D01*
X43401386Y-22680020D01*
X43401376Y-22680038D01*
X43350461Y-22802959D01*
X43350458Y-22802969D01*
X43324500Y-22933466D01*
X43324500Y-22933469D01*
X43324500Y-23066531D01*
X43324500Y-23066533D01*
X43324499Y-23066533D01*
X18920500Y-23066533D01*
X18920500Y-11909448D01*
X24309500Y-11909448D01*
X24309500Y-12090551D01*
X24337829Y-12269410D01*
X24393787Y-12441636D01*
X24393788Y-12441639D01*
X24476006Y-12602997D01*
X24582441Y-12749494D01*
X24582445Y-12749499D01*
X24710500Y-12877554D01*
X24710505Y-12877558D01*
X24838287Y-12970396D01*
X24857006Y-12983996D01*
X24933094Y-13022765D01*
X25018360Y-13066211D01*
X25018363Y-13066212D01*
X25104476Y-13094191D01*
X25190591Y-13122171D01*
X25268977Y-13134586D01*
X25369449Y-13150500D01*
X25369454Y-13150500D01*
X25550551Y-13150500D01*
X25651023Y-13134586D01*
X25729409Y-13122171D01*
X25901639Y-13066211D01*
X26062994Y-12983996D01*
X26209501Y-12877553D01*
X26337553Y-12749501D01*
X26443996Y-12602994D01*
X26526211Y-12441639D01*
X26582171Y-12269409D01*
X26603027Y-12137729D01*
X26632956Y-12074595D01*
X26692267Y-12037663D01*
X26762130Y-12038661D01*
X26820363Y-12077271D01*
X26848477Y-12141234D01*
X26849500Y-12157127D01*
X26849500Y-12894856D01*
X26849502Y-12894882D01*
X26852413Y-12919987D01*
X26852415Y-12919991D01*
X26897793Y-13022764D01*
X26897794Y-13022765D01*
X26977235Y-13102206D01*
X27080009Y-13147585D01*
X27105135Y-13150500D01*
X28894864Y-13150499D01*
X28894879Y-13150497D01*
X28894882Y-13150497D01*
X28919987Y-13147586D01*
X28919988Y-13147585D01*
X28919991Y-13147585D01*
X29022765Y-13102206D01*
X29102206Y-13022765D01*
X29147585Y-12919991D01*
X29150500Y-12894865D01*
X29150499Y-11105136D01*
X29150497Y-11105117D01*
X29147586Y-11080012D01*
X29147585Y-11080010D01*
X29147585Y-11080009D01*
X29102206Y-10977235D01*
X29022765Y-10897794D01*
X29022763Y-10897793D01*
X28919992Y-10852415D01*
X28894865Y-10849500D01*
X27105143Y-10849500D01*
X27105117Y-10849502D01*
X27080012Y-10852413D01*
X27080008Y-10852415D01*
X26977235Y-10897793D01*
X26897794Y-10977234D01*
X26852415Y-11080006D01*
X26852415Y-11080008D01*
X26849500Y-11105131D01*
X26849500Y-11842871D01*
X26829815Y-11909910D01*
X26777011Y-11955665D01*
X26707853Y-11965609D01*
X26644297Y-11936584D01*
X26606523Y-11877806D01*
X26603027Y-11862269D01*
X26596107Y-11818585D01*
X26582171Y-11730591D01*
X26526211Y-11558361D01*
X26526211Y-11558360D01*
X26497740Y-11502484D01*
X26443996Y-11397006D01*
X26430396Y-11378287D01*
X26337558Y-11250505D01*
X26337554Y-11250500D01*
X26209499Y-11122445D01*
X26209494Y-11122441D01*
X26062997Y-11016006D01*
X26062996Y-11016005D01*
X26062994Y-11016004D01*
X25986906Y-10977235D01*
X25901639Y-10933788D01*
X25901636Y-10933787D01*
X25729410Y-10877829D01*
X25550551Y-10849500D01*
X25550546Y-10849500D01*
X25369454Y-10849500D01*
X25369449Y-10849500D01*
X25190589Y-10877829D01*
X25018363Y-10933787D01*
X25018360Y-10933788D01*
X24857002Y-11016006D01*
X24710505Y-11122441D01*
X24710500Y-11122445D01*
X24582445Y-11250500D01*
X24582441Y-11250505D01*
X24476006Y-11397002D01*
X24393788Y-11558360D01*
X24393787Y-11558363D01*
X24337829Y-11730589D01*
X24309500Y-11909448D01*
X18920500Y-11909448D01*
X18920500Y-10544500D01*
X18940185Y-10477461D01*
X18992989Y-10431706D01*
X19044500Y-10420500D01*
X38276337Y-10420500D01*
X38343376Y-10440185D01*
X38364013Y-10456814D01*
X38431894Y-10524695D01*
X38431896Y-10524697D01*
X38431898Y-10524698D01*
X38542520Y-10598613D01*
X38542523Y-10598614D01*
X38542531Y-10598620D01*
X38665464Y-10649540D01*
X38665468Y-10649540D01*
X38665469Y-10649541D01*
X38795966Y-10675500D01*
X38795969Y-10675500D01*
X38929033Y-10675500D01*
X39016825Y-10658035D01*
X39059536Y-10649540D01*
X39182469Y-10598620D01*
X39293106Y-10524695D01*
X39360983Y-10456817D01*
X39422304Y-10423334D01*
X39448663Y-10420500D01*
X42781601Y-10420500D01*
X42843601Y-10437113D01*
X42934664Y-10489688D01*
X43068317Y-10525500D01*
X43068319Y-10525500D01*
X43206681Y-10525500D01*
X43206683Y-10525500D01*
X43340336Y-10489688D01*
X43460165Y-10420505D01*
X43558005Y-10322665D01*
X43627188Y-10202836D01*
X43663000Y-10069183D01*
X43663000Y-9930817D01*
X43627188Y-9797164D01*
X43558005Y-9677335D01*
X43460165Y-9579495D01*
X43460164Y-9579494D01*
X43460161Y-9579492D01*
X43340338Y-9510313D01*
X43340337Y-9510312D01*
X43340336Y-9510312D01*
X43206683Y-9474500D01*
X43068317Y-9474500D01*
X42934664Y-9510312D01*
X42934661Y-9510313D01*
X42843601Y-9562887D01*
X42781601Y-9579500D01*
X39448663Y-9579500D01*
X39381624Y-9559815D01*
X39360986Y-9543185D01*
X39293106Y-9475305D01*
X39293105Y-9475304D01*
X39293103Y-9475302D01*
X39293101Y-9475301D01*
X39182479Y-9401386D01*
X39182472Y-9401382D01*
X39182469Y-9401380D01*
X39182465Y-9401378D01*
X39182461Y-9401376D01*
X39059540Y-9350461D01*
X39059530Y-9350458D01*
X38929033Y-9324500D01*
X38929031Y-9324500D01*
X38795969Y-9324500D01*
X38795967Y-9324500D01*
X38665469Y-9350458D01*
X38665459Y-9350461D01*
X38542538Y-9401376D01*
X38542520Y-9401386D01*
X38431898Y-9475301D01*
X38431896Y-9475302D01*
X38397957Y-9509241D01*
X38364016Y-9543182D01*
X38302696Y-9576666D01*
X38276337Y-9579500D01*
X18555360Y-9579500D01*
X18444640Y-9579500D01*
X18373342Y-9598604D01*
X18337692Y-9608157D01*
X18241807Y-9663517D01*
X18241804Y-9663519D01*
X18163519Y-9741804D01*
X18163517Y-9741807D01*
X18108157Y-9837692D01*
X18108157Y-9837693D01*
X18083204Y-9930819D01*
X18079500Y-9944641D01*
X18079500Y-27350500D01*
X18059815Y-27417539D01*
X18007011Y-27463294D01*
X17955500Y-27474500D01*
X17930817Y-27474500D01*
X17797164Y-27510312D01*
X17797161Y-27510313D01*
X17706101Y-27562887D01*
X17644101Y-27579500D01*
X14555360Y-27579500D01*
X14444640Y-27579500D01*
X14373342Y-27598604D01*
X14337692Y-27608157D01*
X14241807Y-27663517D01*
X14241804Y-27663519D01*
X14163519Y-27741804D01*
X14163517Y-27741807D01*
X14108157Y-27837692D01*
X14108157Y-27837693D01*
X14080525Y-27940817D01*
X14079500Y-27944641D01*
X14079500Y-32850500D01*
X14059815Y-32917539D01*
X14007011Y-32963294D01*
X13955500Y-32974500D01*
X13930817Y-32974500D01*
X13797164Y-33010312D01*
X13797161Y-33010313D01*
X13677338Y-33079492D01*
X13677333Y-33079496D01*
X13579496Y-33177333D01*
X13579492Y-33177338D01*
X13510313Y-33297161D01*
X13510312Y-33297164D01*
X13474500Y-33430817D01*
X13474500Y-33455500D01*
X13454815Y-33522539D01*
X13402011Y-33568294D01*
X13350500Y-33579500D01*
X13055360Y-33579500D01*
X12944640Y-33579500D01*
X12873342Y-33598604D01*
X12837692Y-33608157D01*
X12741807Y-33663517D01*
X12741804Y-33663519D01*
X12663519Y-33741804D01*
X12663517Y-33741807D01*
X12608157Y-33837692D01*
X12599416Y-33870313D01*
X12580879Y-33939496D01*
X12579500Y-33944641D01*
X12579500Y-33955500D01*
X12559815Y-34022539D01*
X12507011Y-34068294D01*
X12455500Y-34079500D01*
X10555360Y-34079500D01*
X10444640Y-34079500D01*
X10373342Y-34098604D01*
X10337692Y-34108157D01*
X10241807Y-34163517D01*
X10241804Y-34163519D01*
X10163519Y-34241804D01*
X10163517Y-34241807D01*
X10108157Y-34337692D01*
X10102046Y-34360500D01*
X10083643Y-34429181D01*
X10079500Y-34444641D01*
X10079500Y-39955500D01*
X10059815Y-40022539D01*
X10007011Y-40068294D01*
X9955500Y-40079500D01*
X9944640Y-40079500D01*
X9873342Y-40098604D01*
X9837692Y-40108157D01*
X9741807Y-40163517D01*
X9741804Y-40163519D01*
X9663519Y-40241804D01*
X9663517Y-40241807D01*
X9608157Y-40337692D01*
X9608157Y-40337693D01*
X9579500Y-40444640D01*
X9579500Y-63444640D01*
X9579500Y-63555360D01*
X9608157Y-63662307D01*
X9663517Y-63758193D01*
X9741807Y-63836483D01*
X9837693Y-63891843D01*
X9944640Y-63920500D01*
X10955500Y-63920500D01*
X11022539Y-63940185D01*
X11068294Y-63992989D01*
X11079500Y-64044500D01*
X11079500Y-75555360D01*
X11108157Y-75662307D01*
X11163517Y-75758193D01*
X11241807Y-75836483D01*
X11337693Y-75891843D01*
X11444640Y-75920500D01*
X11555360Y-75920500D01*
X27955500Y-75920500D01*
X28022539Y-75940185D01*
X28068294Y-75992989D01*
X28079500Y-76044500D01*
X28079500Y-86444640D01*
X28079500Y-86555360D01*
X28108157Y-86662307D01*
X28163517Y-86758193D01*
X28241807Y-86836483D01*
X28337693Y-86891843D01*
X28444640Y-86920500D01*
X28455500Y-86920500D01*
X28522539Y-86940185D01*
X28568294Y-86992989D01*
X28579500Y-87044500D01*
X28579500Y-87055360D01*
X28608157Y-87162307D01*
X28663517Y-87258193D01*
X28741807Y-87336483D01*
X28837693Y-87391843D01*
X28944640Y-87420500D01*
X28955500Y-87420500D01*
X29022539Y-87440185D01*
X29068294Y-87492989D01*
X29079500Y-87544500D01*
X29079500Y-89055360D01*
X29108157Y-89162307D01*
X29163517Y-89258193D01*
X29241807Y-89336483D01*
X29337693Y-89391843D01*
X29444640Y-89420500D01*
X29555360Y-89420500D01*
X39955500Y-89420500D01*
X40022539Y-89440185D01*
X40068294Y-89492989D01*
X40079500Y-89544500D01*
X40079500Y-90055360D01*
X40108157Y-90162307D01*
X40163517Y-90258193D01*
X40241807Y-90336483D01*
X40337693Y-90391843D01*
X40444640Y-90420500D01*
X40455500Y-90420500D01*
X40522539Y-90440185D01*
X40568294Y-90492989D01*
X40579500Y-90544500D01*
X40579500Y-90555360D01*
X40608157Y-90662307D01*
X40663517Y-90758193D01*
X40741807Y-90836483D01*
X40837693Y-90891843D01*
X40944640Y-90920500D01*
X54955500Y-90920500D01*
X55022539Y-90940185D01*
X55068294Y-90992989D01*
X55079500Y-91044500D01*
X55079500Y-91055360D01*
X55108157Y-91162307D01*
X55163517Y-91258193D01*
X55241807Y-91336483D01*
X55337693Y-91391843D01*
X55444640Y-91420500D01*
X61955500Y-91420500D01*
X62022539Y-91440185D01*
X62068294Y-91492989D01*
X62079500Y-91544500D01*
X62079500Y-95455500D01*
X62059815Y-95522539D01*
X62007011Y-95568294D01*
X61955500Y-95579500D01*
X61418399Y-95579500D01*
X61356399Y-95562887D01*
X61265338Y-95510313D01*
X61265337Y-95510312D01*
X61265336Y-95510312D01*
X61131683Y-95474500D01*
X60993317Y-95474500D01*
X60859664Y-95510312D01*
X60859661Y-95510313D01*
X60768601Y-95562887D01*
X60706601Y-95579500D01*
X54293399Y-95579500D01*
X54231399Y-95562887D01*
X54140338Y-95510313D01*
X54140337Y-95510312D01*
X54140336Y-95510312D01*
X54006683Y-95474500D01*
X53868317Y-95474500D01*
X53734664Y-95510312D01*
X53734661Y-95510313D01*
X53614838Y-95579492D01*
X53614833Y-95579496D01*
X53516996Y-95677333D01*
X53516992Y-95677338D01*
X53447813Y-95797161D01*
X53447812Y-95797164D01*
X53412000Y-95930817D01*
X53412000Y-96069183D01*
X53436953Y-96162307D01*
X53447812Y-96202835D01*
X53447813Y-96202838D01*
X53516992Y-96322661D01*
X53516994Y-96322664D01*
X53516995Y-96322665D01*
X53614835Y-96420505D01*
X53734664Y-96489688D01*
X53868317Y-96525500D01*
X53868319Y-96525500D01*
X54006681Y-96525500D01*
X54006683Y-96525500D01*
X54140336Y-96489688D01*
X54231399Y-96437113D01*
X54293399Y-96420500D01*
X60706601Y-96420500D01*
X60768601Y-96437113D01*
X60859664Y-96489688D01*
X60993317Y-96525500D01*
X60993319Y-96525500D01*
X61131681Y-96525500D01*
X61131683Y-96525500D01*
X61265336Y-96489688D01*
X61356399Y-96437113D01*
X61371887Y-96432962D01*
X61383464Y-96425523D01*
X61418399Y-96420500D01*
X61455500Y-96420500D01*
X61522539Y-96440185D01*
X61568294Y-96492989D01*
X61579500Y-96544500D01*
X61579500Y-96555360D01*
X61608157Y-96662307D01*
X61663517Y-96758193D01*
X61741807Y-96836483D01*
X61837693Y-96891843D01*
X61944640Y-96920500D01*
X61955500Y-96920500D01*
X62022539Y-96940185D01*
X62068294Y-96992989D01*
X62079500Y-97044500D01*
X62079500Y-97055360D01*
X62108157Y-97162307D01*
X62163517Y-97258193D01*
X62241807Y-97336483D01*
X62337693Y-97391843D01*
X62444640Y-97420500D01*
X62444642Y-97420500D01*
X73055358Y-97420500D01*
X73055360Y-97420500D01*
X73162307Y-97391843D01*
X73258193Y-97336483D01*
X73336483Y-97258193D01*
X73391843Y-97162307D01*
X73420500Y-97055360D01*
X73420500Y-97044500D01*
X73440185Y-96977461D01*
X73492989Y-96931706D01*
X73544500Y-96920500D01*
X104055358Y-96920500D01*
X104055360Y-96920500D01*
X104162307Y-96891843D01*
X104258193Y-96836483D01*
X104336483Y-96758193D01*
X104391843Y-96662307D01*
X104403874Y-96617404D01*
X104440239Y-96557746D01*
X104503086Y-96527217D01*
X104523649Y-96525500D01*
X104569181Y-96525500D01*
X104569183Y-96525500D01*
X104702836Y-96489688D01*
X104822665Y-96420505D01*
X104912319Y-96330851D01*
X104973642Y-96297366D01*
X105043334Y-96302350D01*
X105087681Y-96330851D01*
X105177335Y-96420505D01*
X105297164Y-96489688D01*
X105430817Y-96525500D01*
X105430819Y-96525500D01*
X105569181Y-96525500D01*
X105569183Y-96525500D01*
X105702836Y-96489688D01*
X105822665Y-96420505D01*
X105920505Y-96322665D01*
X105989688Y-96202836D01*
X106025500Y-96069183D01*
X106025500Y-95930817D01*
X105989688Y-95797164D01*
X105920505Y-95677335D01*
X105822665Y-95579495D01*
X105822664Y-95579494D01*
X105822661Y-95579492D01*
X105702838Y-95510313D01*
X105702837Y-95510312D01*
X105702836Y-95510312D01*
X105569183Y-95474500D01*
X105430817Y-95474500D01*
X105297164Y-95510312D01*
X105297161Y-95510313D01*
X105177338Y-95579492D01*
X105177333Y-95579496D01*
X105087681Y-95669149D01*
X105026358Y-95702634D01*
X104956666Y-95697650D01*
X104912319Y-95669149D01*
X104822666Y-95579496D01*
X104822661Y-95579492D01*
X104702838Y-95510313D01*
X104702837Y-95510312D01*
X104702836Y-95510312D01*
X104569183Y-95474500D01*
X104523649Y-95474500D01*
X104456610Y-95454815D01*
X104410855Y-95402011D01*
X104403874Y-95382594D01*
X104396721Y-95355899D01*
X104391843Y-95337693D01*
X104336483Y-95241807D01*
X104258193Y-95163517D01*
X104162307Y-95108157D01*
X104055360Y-95079500D01*
X104055358Y-95079500D01*
X95544500Y-95079500D01*
X95477461Y-95059815D01*
X95431706Y-95007011D01*
X95420500Y-94955500D01*
X95420500Y-92944641D01*
X95417034Y-92931706D01*
X95391843Y-92837693D01*
X95336483Y-92741807D01*
X95258193Y-92663517D01*
X95162307Y-92608157D01*
X95055360Y-92579500D01*
X95055358Y-92579500D01*
X95044500Y-92579500D01*
X94977461Y-92559815D01*
X94931706Y-92507011D01*
X94920500Y-92455500D01*
X94920500Y-92444641D01*
X94920500Y-92444640D01*
X94891843Y-92337693D01*
X94836483Y-92241807D01*
X94758193Y-92163517D01*
X94662307Y-92108157D01*
X94555360Y-92079500D01*
X88555360Y-92079500D01*
X88444640Y-92079500D01*
X88373342Y-92098604D01*
X88337692Y-92108157D01*
X88241807Y-92163517D01*
X88241804Y-92163519D01*
X88163519Y-92241804D01*
X88163517Y-92241807D01*
X88108157Y-92337692D01*
X88108157Y-92337693D01*
X88083204Y-92430819D01*
X88079500Y-92444641D01*
X88079500Y-92908264D01*
X88059815Y-92975303D01*
X88020290Y-93013991D01*
X88017004Y-93016004D01*
X87870505Y-93122441D01*
X87870500Y-93122445D01*
X87742445Y-93250500D01*
X87742441Y-93250505D01*
X87636006Y-93397002D01*
X87553788Y-93558360D01*
X87553787Y-93558363D01*
X87497829Y-93730589D01*
X87472473Y-93890678D01*
X87442544Y-93953813D01*
X87383232Y-93990744D01*
X87313369Y-93989746D01*
X87255137Y-93951136D01*
X87227527Y-93890678D01*
X87212715Y-93797161D01*
X87202171Y-93730591D01*
X87162562Y-93608684D01*
X87146212Y-93558363D01*
X87146211Y-93558360D01*
X87075968Y-93420503D01*
X87063996Y-93397006D01*
X87009985Y-93322666D01*
X86957558Y-93250505D01*
X86957554Y-93250500D01*
X86829499Y-93122445D01*
X86829494Y-93122441D01*
X86682997Y-93016006D01*
X86682996Y-93016005D01*
X86682994Y-93016004D01*
X86521639Y-92933789D01*
X86518454Y-92932754D01*
X86506176Y-92928764D01*
X86448503Y-92889324D01*
X86421308Y-92824964D01*
X86420500Y-92810835D01*
X86420500Y-91930817D01*
X96562000Y-91930817D01*
X96562000Y-92069183D01*
X96595227Y-92193186D01*
X96597812Y-92202835D01*
X96597813Y-92202838D01*
X96666992Y-92322661D01*
X96666994Y-92322664D01*
X96666995Y-92322665D01*
X96764835Y-92420505D01*
X96884664Y-92489688D01*
X97018317Y-92525500D01*
X97018319Y-92525500D01*
X97156681Y-92525500D01*
X97156683Y-92525500D01*
X97290336Y-92489688D01*
X97410165Y-92420505D01*
X97508005Y-92322665D01*
X97577188Y-92202836D01*
X97613000Y-92069183D01*
X97613000Y-91930817D01*
X98387000Y-91930817D01*
X98387000Y-92069183D01*
X98420227Y-92193186D01*
X98422812Y-92202835D01*
X98422813Y-92202838D01*
X98491992Y-92322661D01*
X98491994Y-92322664D01*
X98491995Y-92322665D01*
X98589835Y-92420505D01*
X98709664Y-92489688D01*
X98843317Y-92525500D01*
X98843319Y-92525500D01*
X98981681Y-92525500D01*
X98981683Y-92525500D01*
X99115336Y-92489688D01*
X99235165Y-92420505D01*
X99333005Y-92322665D01*
X99402188Y-92202836D01*
X99438000Y-92069183D01*
X99438000Y-91930817D01*
X99402188Y-91797164D01*
X99333005Y-91677335D01*
X99235165Y-91579495D01*
X99235164Y-91579494D01*
X99235161Y-91579492D01*
X99115338Y-91510313D01*
X99115337Y-91510312D01*
X99115336Y-91510312D01*
X98981683Y-91474500D01*
X98843317Y-91474500D01*
X98709664Y-91510312D01*
X98709661Y-91510313D01*
X98589838Y-91579492D01*
X98589833Y-91579496D01*
X98491996Y-91677333D01*
X98491992Y-91677338D01*
X98422813Y-91797161D01*
X98422812Y-91797164D01*
X98387000Y-91930817D01*
X97613000Y-91930817D01*
X97577188Y-91797164D01*
X97508005Y-91677335D01*
X97410165Y-91579495D01*
X97410164Y-91579494D01*
X97410161Y-91579492D01*
X97290338Y-91510313D01*
X97290337Y-91510312D01*
X97290336Y-91510312D01*
X97156683Y-91474500D01*
X97018317Y-91474500D01*
X96884664Y-91510312D01*
X96884661Y-91510313D01*
X96764838Y-91579492D01*
X96764833Y-91579496D01*
X96666996Y-91677333D01*
X96666992Y-91677338D01*
X96597813Y-91797161D01*
X96597812Y-91797164D01*
X96562000Y-91930817D01*
X86420500Y-91930817D01*
X86420500Y-88044500D01*
X86440185Y-87977461D01*
X86492989Y-87931706D01*
X86544500Y-87920500D01*
X94555358Y-87920500D01*
X94555360Y-87920500D01*
X94662307Y-87891843D01*
X94758193Y-87836483D01*
X94836483Y-87758193D01*
X94891843Y-87662307D01*
X94920500Y-87555360D01*
X94920500Y-87544500D01*
X94940185Y-87477461D01*
X94992989Y-87431706D01*
X95044500Y-87420500D01*
X95055358Y-87420500D01*
X95055360Y-87420500D01*
X95162307Y-87391843D01*
X95258193Y-87336483D01*
X95336483Y-87258193D01*
X95391843Y-87162307D01*
X95420500Y-87055360D01*
X95420500Y-85044500D01*
X95440185Y-84977461D01*
X95492989Y-84931706D01*
X95544500Y-84920500D01*
X101531486Y-84920500D01*
X101598525Y-84940185D01*
X101644280Y-84992989D01*
X101654775Y-85057757D01*
X101650000Y-85102158D01*
X101650000Y-85750000D01*
X102566988Y-85750000D01*
X102534075Y-85807007D01*
X102500000Y-85934174D01*
X102500000Y-86065826D01*
X102534075Y-86192993D01*
X102566988Y-86250000D01*
X101650000Y-86250000D01*
X101650000Y-86897844D01*
X101656401Y-86957372D01*
X101656403Y-86957379D01*
X101706645Y-87092086D01*
X101706649Y-87092093D01*
X101792809Y-87207187D01*
X101792812Y-87207190D01*
X101907906Y-87293350D01*
X101907913Y-87293354D01*
X102042620Y-87343596D01*
X102042627Y-87343598D01*
X102102155Y-87349999D01*
X102102172Y-87350000D01*
X102750000Y-87350000D01*
X102750000Y-86433012D01*
X102807007Y-86465925D01*
X102934174Y-86500000D01*
X103065826Y-86500000D01*
X103192993Y-86465925D01*
X103250000Y-86433012D01*
X103250000Y-87350000D01*
X103897828Y-87350000D01*
X103897844Y-87349999D01*
X103957372Y-87343598D01*
X103957379Y-87343596D01*
X104092086Y-87293354D01*
X104092093Y-87293350D01*
X104207187Y-87207190D01*
X104207190Y-87207187D01*
X104293350Y-87092093D01*
X104293354Y-87092086D01*
X104343596Y-86957379D01*
X104343598Y-86957372D01*
X104349999Y-86897844D01*
X104350000Y-86897827D01*
X104350000Y-86701087D01*
X104369685Y-86634048D01*
X104422489Y-86588293D01*
X104491647Y-86578349D01*
X104555203Y-86607374D01*
X104574318Y-86628202D01*
X104662441Y-86749495D01*
X104790500Y-86877554D01*
X104790505Y-86877558D01*
X104900361Y-86957372D01*
X104937006Y-86983996D01*
X105011793Y-87022102D01*
X105098360Y-87066211D01*
X105098363Y-87066212D01*
X105159497Y-87086075D01*
X105270591Y-87122171D01*
X105353429Y-87135291D01*
X105449449Y-87150500D01*
X105449454Y-87150500D01*
X105630551Y-87150500D01*
X105717259Y-87136765D01*
X105809409Y-87122171D01*
X105981639Y-87066211D01*
X106142994Y-86983996D01*
X106289501Y-86877553D01*
X106417553Y-86749501D01*
X106523996Y-86602994D01*
X106606211Y-86441639D01*
X106609080Y-86432809D01*
X106648516Y-86375132D01*
X106712874Y-86347933D01*
X106769156Y-86354506D01*
X106779495Y-86358242D01*
X106837693Y-86391843D01*
X106944640Y-86420500D01*
X106951770Y-86420500D01*
X106968492Y-86426543D01*
X106986266Y-86439567D01*
X107006421Y-86448481D01*
X107017479Y-86462438D01*
X107024851Y-86467840D01*
X107027768Y-86475425D01*
X107036832Y-86486865D01*
X107096004Y-86602995D01*
X107202441Y-86749494D01*
X107202445Y-86749499D01*
X107330500Y-86877554D01*
X107330505Y-86877558D01*
X107440361Y-86957372D01*
X107477006Y-86983996D01*
X107551793Y-87022102D01*
X107638360Y-87066211D01*
X107638363Y-87066212D01*
X107699497Y-87086075D01*
X107810591Y-87122171D01*
X107893429Y-87135291D01*
X107989449Y-87150500D01*
X107989454Y-87150500D01*
X108170551Y-87150500D01*
X108257259Y-87136765D01*
X108349409Y-87122171D01*
X108521639Y-87066211D01*
X108682994Y-86983996D01*
X108829501Y-86877553D01*
X108957553Y-86749501D01*
X109063996Y-86602994D01*
X109146211Y-86441639D01*
X109202171Y-86269409D01*
X109219134Y-86162307D01*
X109227527Y-86109321D01*
X109257456Y-86046186D01*
X109316768Y-86009255D01*
X109386630Y-86010253D01*
X109444863Y-86048863D01*
X109472473Y-86109321D01*
X109497829Y-86269410D01*
X109553787Y-86441636D01*
X109553788Y-86441639D01*
X109592523Y-86517659D01*
X109633726Y-86598524D01*
X109636006Y-86602997D01*
X109742441Y-86749494D01*
X109742445Y-86749499D01*
X109870500Y-86877554D01*
X109870505Y-86877558D01*
X109980361Y-86957372D01*
X110017006Y-86983996D01*
X110091793Y-87022102D01*
X110178360Y-87066211D01*
X110178363Y-87066212D01*
X110239497Y-87086075D01*
X110350591Y-87122171D01*
X110433429Y-87135291D01*
X110529449Y-87150500D01*
X110529454Y-87150500D01*
X110710551Y-87150500D01*
X110797259Y-87136765D01*
X110889409Y-87122171D01*
X111061639Y-87066211D01*
X111222994Y-86983996D01*
X111369501Y-86877553D01*
X111497553Y-86749501D01*
X111603996Y-86602994D01*
X111681522Y-86450840D01*
X111729497Y-86400045D01*
X111797318Y-86383250D01*
X111813236Y-86384967D01*
X111831185Y-86388086D01*
X111837693Y-86391843D01*
X111944640Y-86420500D01*
X112017723Y-86420500D01*
X112028260Y-86422331D01*
X112050396Y-86433233D01*
X112074070Y-86440185D01*
X112081753Y-86448677D01*
X112090940Y-86453202D01*
X112101070Y-86470028D01*
X112117515Y-86488204D01*
X112173726Y-86598524D01*
X112176006Y-86602997D01*
X112282441Y-86749494D01*
X112282445Y-86749499D01*
X112410500Y-86877554D01*
X112410505Y-86877558D01*
X112520361Y-86957372D01*
X112557006Y-86983996D01*
X112631793Y-87022102D01*
X112718360Y-87066211D01*
X112718363Y-87066212D01*
X112779497Y-87086075D01*
X112890591Y-87122171D01*
X112973429Y-87135291D01*
X113069449Y-87150500D01*
X113069454Y-87150500D01*
X113250551Y-87150500D01*
X113337259Y-87136765D01*
X113429409Y-87122171D01*
X113601639Y-87066211D01*
X113762994Y-86983996D01*
X113909501Y-86877553D01*
X114037553Y-86749501D01*
X114143996Y-86602994D01*
X114226211Y-86441639D01*
X114282171Y-86269409D01*
X114299134Y-86162307D01*
X114307527Y-86109321D01*
X114337456Y-86046186D01*
X114396768Y-86009255D01*
X114466630Y-86010253D01*
X114524863Y-86048863D01*
X114552473Y-86109321D01*
X114577829Y-86269410D01*
X114633787Y-86441636D01*
X114633788Y-86441639D01*
X114672523Y-86517659D01*
X114713726Y-86598524D01*
X114716006Y-86602997D01*
X114822441Y-86749494D01*
X114822445Y-86749499D01*
X114950500Y-86877554D01*
X114950505Y-86877558D01*
X115060361Y-86957372D01*
X115097006Y-86983996D01*
X115171793Y-87022102D01*
X115258360Y-87066211D01*
X115258363Y-87066212D01*
X115319497Y-87086075D01*
X115430591Y-87122171D01*
X115513429Y-87135291D01*
X115609449Y-87150500D01*
X115609454Y-87150500D01*
X115790551Y-87150500D01*
X115877259Y-87136765D01*
X115969409Y-87122171D01*
X116141639Y-87066211D01*
X116302994Y-86983996D01*
X116449501Y-86877553D01*
X116577553Y-86749501D01*
X116683996Y-86602994D01*
X116766211Y-86441639D01*
X116822171Y-86269409D01*
X116839134Y-86162307D01*
X116850500Y-86090551D01*
X116850500Y-85909448D01*
X116823947Y-85741807D01*
X116822171Y-85730591D01*
X116784827Y-85615656D01*
X116766212Y-85558363D01*
X116766211Y-85558360D01*
X116713800Y-85455500D01*
X116683996Y-85397006D01*
X116652426Y-85353553D01*
X116577558Y-85250505D01*
X116577554Y-85250500D01*
X116449499Y-85122445D01*
X116449494Y-85122441D01*
X116302997Y-85016006D01*
X116302996Y-85016005D01*
X116302994Y-85016004D01*
X116213080Y-84970190D01*
X116141639Y-84933788D01*
X116141636Y-84933787D01*
X115969410Y-84877829D01*
X115790551Y-84849500D01*
X115790546Y-84849500D01*
X115609454Y-84849500D01*
X115609449Y-84849500D01*
X115430589Y-84877829D01*
X115258363Y-84933787D01*
X115258360Y-84933788D01*
X115097002Y-85016006D01*
X114950505Y-85122441D01*
X114950500Y-85122445D01*
X114822445Y-85250500D01*
X114822441Y-85250505D01*
X114716006Y-85397002D01*
X114633788Y-85558360D01*
X114633787Y-85558363D01*
X114577829Y-85730589D01*
X114552473Y-85890678D01*
X114522544Y-85953813D01*
X114463232Y-85990744D01*
X114393369Y-85989746D01*
X114335137Y-85951136D01*
X114307527Y-85890678D01*
X114283947Y-85741807D01*
X114282171Y-85730591D01*
X114244827Y-85615656D01*
X114226212Y-85558363D01*
X114226211Y-85558360D01*
X114173800Y-85455500D01*
X114143996Y-85397006D01*
X114112426Y-85353553D01*
X114037558Y-85250505D01*
X114037554Y-85250500D01*
X113909499Y-85122445D01*
X113909494Y-85122441D01*
X113762997Y-85016006D01*
X113762996Y-85016005D01*
X113762994Y-85016004D01*
X113673080Y-84970190D01*
X113601639Y-84933788D01*
X113601636Y-84933787D01*
X113506182Y-84902773D01*
X113448507Y-84863336D01*
X113421308Y-84798977D01*
X113420500Y-84784842D01*
X113420500Y-54044500D01*
X113440185Y-53977461D01*
X113492989Y-53931706D01*
X113544500Y-53920500D01*
X114555358Y-53920500D01*
X114555360Y-53920500D01*
X114662307Y-53891843D01*
X114758193Y-53836483D01*
X114836483Y-53758193D01*
X114891843Y-53662307D01*
X114920500Y-53555360D01*
X114920500Y-53544500D01*
X114940185Y-53477461D01*
X114992989Y-53431706D01*
X115044500Y-53420500D01*
X115055358Y-53420500D01*
X115055360Y-53420500D01*
X115162307Y-53391843D01*
X115258193Y-53336483D01*
X115336483Y-53258193D01*
X115391843Y-53162307D01*
X115414091Y-53079276D01*
X115450455Y-53019619D01*
X115513302Y-52989090D01*
X115582678Y-52997385D01*
X115590150Y-53000884D01*
X115626920Y-53019619D01*
X115718356Y-53066209D01*
X115718363Y-53066212D01*
X115777247Y-53085344D01*
X115890591Y-53122171D01*
X115973429Y-53135291D01*
X116069449Y-53150500D01*
X116069454Y-53150500D01*
X116250551Y-53150500D01*
X116337259Y-53136765D01*
X116429409Y-53122171D01*
X116601639Y-53066211D01*
X116762994Y-52983996D01*
X116909501Y-52877553D01*
X117037553Y-52749501D01*
X117143996Y-52602994D01*
X117226211Y-52441639D01*
X117282171Y-52269409D01*
X117307314Y-52110664D01*
X117307527Y-52109321D01*
X117337456Y-52046186D01*
X117396768Y-52009255D01*
X117466630Y-52010253D01*
X117524863Y-52048863D01*
X117552473Y-52109321D01*
X117577829Y-52269410D01*
X117633787Y-52441636D01*
X117633788Y-52441639D01*
X117681044Y-52534382D01*
X117703051Y-52577573D01*
X117716006Y-52602997D01*
X117822441Y-52749494D01*
X117822445Y-52749499D01*
X117822447Y-52749501D01*
X117950499Y-52877553D01*
X117950501Y-52877554D01*
X117954206Y-52880719D01*
X117953165Y-52881937D01*
X117991543Y-52931688D01*
X118000000Y-52976698D01*
X118000000Y-91948637D01*
X117980315Y-92015676D01*
X117963681Y-92036318D01*
X116059802Y-93940196D01*
X115998479Y-93973681D01*
X115928787Y-93968697D01*
X115872854Y-93926825D01*
X115849182Y-93868700D01*
X115831000Y-93730591D01*
X115818838Y-93638211D01*
X115756054Y-93403900D01*
X115663224Y-93179788D01*
X115541936Y-92969711D01*
X115440635Y-92837693D01*
X115394266Y-92777263D01*
X115394260Y-92777256D01*
X115222743Y-92605739D01*
X115222736Y-92605733D01*
X115030293Y-92458067D01*
X115030292Y-92458066D01*
X115030289Y-92458064D01*
X114858661Y-92358974D01*
X114820214Y-92336777D01*
X114820205Y-92336773D01*
X114596104Y-92243947D01*
X114361785Y-92181161D01*
X114121289Y-92149500D01*
X114121288Y-92149500D01*
X113878712Y-92149500D01*
X113878711Y-92149500D01*
X113638214Y-92181161D01*
X113403895Y-92243947D01*
X113179794Y-92336773D01*
X113179785Y-92336777D01*
X112969706Y-92458067D01*
X112777263Y-92605733D01*
X112777256Y-92605739D01*
X112605739Y-92777256D01*
X112605733Y-92777263D01*
X112458067Y-92969706D01*
X112458064Y-92969710D01*
X112458064Y-92969711D01*
X112454786Y-92975389D01*
X112336777Y-93179785D01*
X112336773Y-93179794D01*
X112243947Y-93403895D01*
X112181161Y-93638214D01*
X112149500Y-93878711D01*
X112149500Y-94121288D01*
X112181161Y-94361785D01*
X112243947Y-94596104D01*
X112327228Y-94797161D01*
X112336776Y-94820212D01*
X112458064Y-95030289D01*
X112458066Y-95030292D01*
X112458067Y-95030293D01*
X112605733Y-95222736D01*
X112605739Y-95222743D01*
X112777256Y-95394260D01*
X112777263Y-95394266D01*
X112885429Y-95477264D01*
X112969711Y-95541936D01*
X113179788Y-95663224D01*
X113403900Y-95756054D01*
X113638211Y-95818838D01*
X113829231Y-95843985D01*
X113868700Y-95849182D01*
X113932597Y-95877448D01*
X113971068Y-95935773D01*
X113971899Y-96005637D01*
X113940196Y-96059802D01*
X112036319Y-97963681D01*
X111974996Y-97997166D01*
X111948638Y-98000000D01*
X8051362Y-98000000D01*
X7984323Y-97980315D01*
X7963681Y-97963681D01*
X6059802Y-96059802D01*
X6026317Y-95998479D01*
X6031301Y-95928787D01*
X6073173Y-95872854D01*
X6131297Y-95849182D01*
X6361789Y-95818838D01*
X6596100Y-95756054D01*
X6820212Y-95663224D01*
X7030289Y-95541936D01*
X7222738Y-95394265D01*
X7394265Y-95222738D01*
X7541936Y-95030289D01*
X7663224Y-94820212D01*
X7756054Y-94596100D01*
X7818838Y-94361789D01*
X7850500Y-94121288D01*
X7850500Y-93930817D01*
X48562000Y-93930817D01*
X48562000Y-94069183D01*
X48586953Y-94162307D01*
X48597812Y-94202835D01*
X48597813Y-94202838D01*
X48666992Y-94322661D01*
X48666994Y-94322664D01*
X48666995Y-94322665D01*
X48764835Y-94420505D01*
X48764836Y-94420506D01*
X48764838Y-94420507D01*
X48797115Y-94439142D01*
X48884664Y-94489688D01*
X49018317Y-94525500D01*
X49018319Y-94525500D01*
X49156681Y-94525500D01*
X49156683Y-94525500D01*
X49290336Y-94489688D01*
X49410165Y-94420505D01*
X49508005Y-94322665D01*
X49577188Y-94202836D01*
X49613000Y-94069183D01*
X49613000Y-93930817D01*
X50387000Y-93930817D01*
X50387000Y-94069183D01*
X50411953Y-94162307D01*
X50422812Y-94202835D01*
X50422813Y-94202838D01*
X50491992Y-94322661D01*
X50491996Y-94322666D01*
X50543181Y-94373851D01*
X50576666Y-94435174D01*
X50579500Y-94461532D01*
X50579500Y-95944640D01*
X50579500Y-96055360D01*
X50608157Y-96162307D01*
X50663517Y-96258193D01*
X50741807Y-96336483D01*
X50837693Y-96391843D01*
X50944640Y-96420500D01*
X51706601Y-96420500D01*
X51768601Y-96437113D01*
X51859664Y-96489688D01*
X51993317Y-96525500D01*
X51993319Y-96525500D01*
X52131681Y-96525500D01*
X52131683Y-96525500D01*
X52265336Y-96489688D01*
X52385165Y-96420505D01*
X52483005Y-96322665D01*
X52552188Y-96202836D01*
X52588000Y-96069183D01*
X52588000Y-95930817D01*
X52552188Y-95797164D01*
X52483005Y-95677335D01*
X52385165Y-95579495D01*
X52385164Y-95579494D01*
X52385161Y-95579492D01*
X52265338Y-95510313D01*
X52265337Y-95510312D01*
X52265336Y-95510312D01*
X52131683Y-95474500D01*
X51993317Y-95474500D01*
X51859664Y-95510312D01*
X51859661Y-95510313D01*
X51768601Y-95562887D01*
X51753112Y-95567037D01*
X51741536Y-95574477D01*
X51706601Y-95579500D01*
X51544500Y-95579500D01*
X51477461Y-95559815D01*
X51431706Y-95507011D01*
X51420500Y-95455500D01*
X51420500Y-94150819D01*
X51424725Y-94118726D01*
X51427557Y-94108157D01*
X51438000Y-94069183D01*
X51438000Y-93930817D01*
X57562000Y-93930817D01*
X57562000Y-94069183D01*
X57586953Y-94162307D01*
X57597812Y-94202835D01*
X57597813Y-94202838D01*
X57666992Y-94322661D01*
X57666994Y-94322664D01*
X57666995Y-94322665D01*
X57764835Y-94420505D01*
X57764836Y-94420506D01*
X57764838Y-94420507D01*
X57797115Y-94439142D01*
X57884664Y-94489688D01*
X58018317Y-94525500D01*
X58018319Y-94525500D01*
X58156681Y-94525500D01*
X58156683Y-94525500D01*
X58290336Y-94489688D01*
X58410165Y-94420505D01*
X58508005Y-94322665D01*
X58577188Y-94202836D01*
X58613000Y-94069183D01*
X58613000Y-93930817D01*
X59387000Y-93930817D01*
X59387000Y-94069183D01*
X59411953Y-94162307D01*
X59422812Y-94202835D01*
X59422813Y-94202838D01*
X59491992Y-94322661D01*
X59491994Y-94322664D01*
X59491995Y-94322665D01*
X59589835Y-94420505D01*
X59589836Y-94420506D01*
X59589838Y-94420507D01*
X59622115Y-94439142D01*
X59709664Y-94489688D01*
X59843317Y-94525500D01*
X59843319Y-94525500D01*
X59981681Y-94525500D01*
X59981683Y-94525500D01*
X60115336Y-94489688D01*
X60235165Y-94420505D01*
X60333005Y-94322665D01*
X60402188Y-94202836D01*
X60438000Y-94069183D01*
X60438000Y-93930817D01*
X60402188Y-93797164D01*
X60333005Y-93677335D01*
X60235165Y-93579495D01*
X60235164Y-93579494D01*
X60235161Y-93579492D01*
X60115338Y-93510313D01*
X60115337Y-93510312D01*
X60115336Y-93510312D01*
X59981683Y-93474500D01*
X59843317Y-93474500D01*
X59709664Y-93510312D01*
X59709661Y-93510313D01*
X59589838Y-93579492D01*
X59589833Y-93579496D01*
X59491996Y-93677333D01*
X59491992Y-93677338D01*
X59422813Y-93797161D01*
X59422812Y-93797164D01*
X59387000Y-93930817D01*
X58613000Y-93930817D01*
X58577188Y-93797164D01*
X58508005Y-93677335D01*
X58410165Y-93579495D01*
X58410164Y-93579494D01*
X58410161Y-93579492D01*
X58290338Y-93510313D01*
X58290337Y-93510312D01*
X58290336Y-93510312D01*
X58156683Y-93474500D01*
X58018317Y-93474500D01*
X57884664Y-93510312D01*
X57884661Y-93510313D01*
X57764838Y-93579492D01*
X57764833Y-93579496D01*
X57666996Y-93677333D01*
X57666992Y-93677338D01*
X57597813Y-93797161D01*
X57597812Y-93797164D01*
X57562000Y-93930817D01*
X51438000Y-93930817D01*
X51402188Y-93797164D01*
X51333005Y-93677335D01*
X51235165Y-93579495D01*
X51235164Y-93579494D01*
X51235161Y-93579492D01*
X51115338Y-93510313D01*
X51115337Y-93510312D01*
X51115336Y-93510312D01*
X50981683Y-93474500D01*
X50843317Y-93474500D01*
X50709664Y-93510312D01*
X50709661Y-93510313D01*
X50589838Y-93579492D01*
X50589833Y-93579496D01*
X50491996Y-93677333D01*
X50491992Y-93677338D01*
X50422813Y-93797161D01*
X50422812Y-93797164D01*
X50387000Y-93930817D01*
X49613000Y-93930817D01*
X49577188Y-93797164D01*
X49508005Y-93677335D01*
X49410165Y-93579495D01*
X49410164Y-93579494D01*
X49410161Y-93579492D01*
X49290338Y-93510313D01*
X49290337Y-93510312D01*
X49290336Y-93510312D01*
X49156683Y-93474500D01*
X49018317Y-93474500D01*
X48884664Y-93510312D01*
X48884661Y-93510313D01*
X48764838Y-93579492D01*
X48764833Y-93579496D01*
X48666996Y-93677333D01*
X48666992Y-93677338D01*
X48597813Y-93797161D01*
X48597812Y-93797164D01*
X48562000Y-93930817D01*
X7850500Y-93930817D01*
X7850500Y-93878712D01*
X7818838Y-93638211D01*
X7756054Y-93403900D01*
X7663224Y-93179788D01*
X7541936Y-92969711D01*
X7440635Y-92837693D01*
X7394266Y-92777263D01*
X7394260Y-92777256D01*
X7222743Y-92605739D01*
X7222736Y-92605733D01*
X7030293Y-92458067D01*
X7030292Y-92458066D01*
X7030289Y-92458064D01*
X6858661Y-92358974D01*
X6820214Y-92336777D01*
X6820205Y-92336773D01*
X6596104Y-92243947D01*
X6361785Y-92181161D01*
X6121289Y-92149500D01*
X6121288Y-92149500D01*
X5878712Y-92149500D01*
X5878711Y-92149500D01*
X5638214Y-92181161D01*
X5403895Y-92243947D01*
X5179794Y-92336773D01*
X5179785Y-92336777D01*
X4969706Y-92458067D01*
X4777263Y-92605733D01*
X4777256Y-92605739D01*
X4605739Y-92777256D01*
X4605733Y-92777263D01*
X4458067Y-92969706D01*
X4458064Y-92969710D01*
X4458064Y-92969711D01*
X4454786Y-92975389D01*
X4336777Y-93179785D01*
X4336773Y-93179794D01*
X4243947Y-93403895D01*
X4181161Y-93638214D01*
X4150817Y-93868702D01*
X4122550Y-93932598D01*
X4064226Y-93971069D01*
X3994361Y-93971900D01*
X3940197Y-93940197D01*
X2036319Y-92036319D01*
X2002834Y-91974996D01*
X2000000Y-91948638D01*
X2000000Y-84868905D01*
X11000000Y-84868905D01*
X11000000Y-85131094D01*
X11034220Y-85391009D01*
X11034222Y-85391020D01*
X11102075Y-85644255D01*
X11202404Y-85886471D01*
X11202409Y-85886482D01*
X11333488Y-86113516D01*
X11333494Y-86113524D01*
X11420080Y-86226365D01*
X12209521Y-85436923D01*
X12300924Y-85573717D01*
X12426283Y-85699076D01*
X12563074Y-85790477D01*
X11773633Y-86579917D01*
X11773633Y-86579918D01*
X11886475Y-86666505D01*
X11886483Y-86666511D01*
X12113517Y-86797590D01*
X12113528Y-86797595D01*
X12355744Y-86897924D01*
X12608979Y-86965777D01*
X12608990Y-86965779D01*
X12868905Y-86999999D01*
X12868920Y-87000000D01*
X13131080Y-87000000D01*
X13131094Y-86999999D01*
X13391009Y-86965779D01*
X13391020Y-86965777D01*
X13644255Y-86897924D01*
X13886471Y-86797595D01*
X13886482Y-86797590D01*
X14113516Y-86666511D01*
X14113534Y-86666499D01*
X14226365Y-86579919D01*
X14226365Y-86579917D01*
X13436924Y-85790477D01*
X13573717Y-85699076D01*
X13699076Y-85573717D01*
X13790477Y-85436925D01*
X14579917Y-86226365D01*
X14579919Y-86226365D01*
X14666499Y-86113534D01*
X14666511Y-86113516D01*
X14797590Y-85886482D01*
X14797595Y-85886471D01*
X14897924Y-85644255D01*
X14965777Y-85391020D01*
X14965779Y-85391009D01*
X14999999Y-85131094D01*
X15000000Y-85131080D01*
X15000000Y-84868919D01*
X14999999Y-84868905D01*
X14965779Y-84608990D01*
X14965777Y-84608979D01*
X14897924Y-84355744D01*
X14797595Y-84113528D01*
X14797590Y-84113517D01*
X14666511Y-83886483D01*
X14666505Y-83886475D01*
X14579918Y-83773633D01*
X14579917Y-83773633D01*
X13790476Y-84563074D01*
X13699076Y-84426283D01*
X13573717Y-84300924D01*
X13436923Y-84209521D01*
X14226365Y-83420080D01*
X14113524Y-83333494D01*
X14113516Y-83333488D01*
X13886482Y-83202409D01*
X13886471Y-83202404D01*
X13644255Y-83102075D01*
X13391020Y-83034222D01*
X13391009Y-83034220D01*
X13131094Y-83000000D01*
X12868905Y-83000000D01*
X12608990Y-83034220D01*
X12608979Y-83034222D01*
X12355744Y-83102075D01*
X12113528Y-83202404D01*
X12113517Y-83202409D01*
X11886471Y-83333496D01*
X11773633Y-83420079D01*
X11773633Y-83420080D01*
X12563075Y-84209522D01*
X12426283Y-84300924D01*
X12300924Y-84426283D01*
X12209522Y-84563075D01*
X11420080Y-83773633D01*
X11420079Y-83773633D01*
X11333496Y-83886471D01*
X11202409Y-84113517D01*
X11202404Y-84113528D01*
X11102075Y-84355744D01*
X11034222Y-84608979D01*
X11034220Y-84608990D01*
X11000000Y-84868905D01*
X2000000Y-84868905D01*
X2000000Y-79198392D01*
X11199500Y-79198392D01*
X11199500Y-80801608D01*
X11204502Y-80852398D01*
X11214699Y-80955932D01*
X11222497Y-80981639D01*
X11274768Y-81153954D01*
X11372315Y-81336450D01*
X11372317Y-81336452D01*
X11503589Y-81496410D01*
X11600209Y-81575702D01*
X11663550Y-81627685D01*
X11846046Y-81725232D01*
X12044066Y-81785300D01*
X12044065Y-81785300D01*
X12082647Y-81789100D01*
X12198392Y-81800500D01*
X12198395Y-81800500D01*
X13801605Y-81800500D01*
X13801608Y-81800500D01*
X13955934Y-81785300D01*
X14153954Y-81725232D01*
X14336450Y-81627685D01*
X14496410Y-81496410D01*
X14627685Y-81336450D01*
X14725232Y-81153954D01*
X14785300Y-80955934D01*
X14800500Y-80801608D01*
X14800500Y-79198392D01*
X14785300Y-79044066D01*
X14725232Y-78846046D01*
X14627685Y-78663550D01*
X14541359Y-78558361D01*
X14496410Y-78503589D01*
X14336452Y-78372317D01*
X14336453Y-78372317D01*
X14336450Y-78372315D01*
X14153954Y-78274768D01*
X13955934Y-78214700D01*
X13955932Y-78214699D01*
X13955934Y-78214699D01*
X13836805Y-78202966D01*
X13801608Y-78199500D01*
X12198392Y-78199500D01*
X12160298Y-78203251D01*
X12044067Y-78214699D01*
X11846043Y-78274769D01*
X11735898Y-78333643D01*
X11663550Y-78372315D01*
X11663548Y-78372316D01*
X11663547Y-78372317D01*
X11503589Y-78503589D01*
X11372317Y-78663547D01*
X11274769Y-78846043D01*
X11214699Y-79044067D01*
X11206827Y-79124000D01*
X11199500Y-79198392D01*
X2000000Y-79198392D01*
X2000000Y-18198395D01*
X11199500Y-18198395D01*
X11199500Y-19801604D01*
X11214699Y-19955932D01*
X11214700Y-19955934D01*
X11274768Y-20153954D01*
X11372315Y-20336450D01*
X11372317Y-20336452D01*
X11503589Y-20496410D01*
X11600209Y-20575702D01*
X11663550Y-20627685D01*
X11846046Y-20725232D01*
X12044066Y-20785300D01*
X12044065Y-20785300D01*
X12082647Y-20789100D01*
X12198392Y-20800500D01*
X12198395Y-20800500D01*
X13801605Y-20800500D01*
X13801608Y-20800500D01*
X13955934Y-20785300D01*
X14153954Y-20725232D01*
X14336450Y-20627685D01*
X14496410Y-20496410D01*
X14627685Y-20336450D01*
X14725232Y-20153954D01*
X14785300Y-19955934D01*
X14800500Y-19801608D01*
X14800500Y-18198392D01*
X14785300Y-18044066D01*
X14725232Y-17846046D01*
X14627685Y-17663550D01*
X14575702Y-17600209D01*
X14496410Y-17503589D01*
X14336452Y-17372317D01*
X14336453Y-17372317D01*
X14336450Y-17372315D01*
X14153954Y-17274768D01*
X13955934Y-17214700D01*
X13955932Y-17214699D01*
X13955934Y-17214699D01*
X13836805Y-17202966D01*
X13801608Y-17199500D01*
X12198392Y-17199500D01*
X12160298Y-17203251D01*
X12044067Y-17214699D01*
X11846043Y-17274769D01*
X11735898Y-17333643D01*
X11663550Y-17372315D01*
X11663548Y-17372316D01*
X11663547Y-17372317D01*
X11503589Y-17503589D01*
X11372317Y-17663547D01*
X11274769Y-17846043D01*
X11214699Y-18044067D01*
X11199500Y-18198395D01*
X2000000Y-18198395D01*
X2000000Y-13868905D01*
X11000000Y-13868905D01*
X11000000Y-14131094D01*
X11034220Y-14391009D01*
X11034222Y-14391020D01*
X11102075Y-14644255D01*
X11202404Y-14886471D01*
X11202409Y-14886482D01*
X11333488Y-15113516D01*
X11333494Y-15113524D01*
X11420080Y-15226365D01*
X12209521Y-14436923D01*
X12300924Y-14573717D01*
X12426283Y-14699076D01*
X12563074Y-14790477D01*
X11773633Y-15579917D01*
X11773633Y-15579918D01*
X11886475Y-15666505D01*
X11886483Y-15666511D01*
X12113517Y-15797590D01*
X12113528Y-15797595D01*
X12355744Y-15897924D01*
X12608979Y-15965777D01*
X12608990Y-15965779D01*
X12868905Y-15999999D01*
X12868920Y-16000000D01*
X13131080Y-16000000D01*
X13131094Y-15999999D01*
X13391009Y-15965779D01*
X13391020Y-15965777D01*
X13644255Y-15897924D01*
X13886471Y-15797595D01*
X13886482Y-15797590D01*
X14113516Y-15666511D01*
X14113534Y-15666499D01*
X14226365Y-15579919D01*
X14226365Y-15579917D01*
X13436924Y-14790477D01*
X13573717Y-14699076D01*
X13699076Y-14573717D01*
X13790477Y-14436925D01*
X14579917Y-15226365D01*
X14579919Y-15226365D01*
X14666499Y-15113534D01*
X14666511Y-15113516D01*
X14797590Y-14886482D01*
X14797595Y-14886471D01*
X14897924Y-14644255D01*
X14965777Y-14391020D01*
X14965779Y-14391009D01*
X14999999Y-14131094D01*
X15000000Y-14131080D01*
X15000000Y-13868919D01*
X14999999Y-13868905D01*
X14965779Y-13608990D01*
X14965777Y-13608979D01*
X14897924Y-13355744D01*
X14797595Y-13113528D01*
X14797590Y-13113517D01*
X14666511Y-12886483D01*
X14666505Y-12886475D01*
X14579918Y-12773633D01*
X14579917Y-12773633D01*
X13790476Y-13563074D01*
X13699076Y-13426283D01*
X13573717Y-13300924D01*
X13436923Y-13209521D01*
X14226365Y-12420080D01*
X14113524Y-12333494D01*
X14113516Y-12333488D01*
X13886482Y-12202409D01*
X13886471Y-12202404D01*
X13644255Y-12102075D01*
X13391020Y-12034222D01*
X13391009Y-12034220D01*
X13131094Y-12000000D01*
X12868905Y-12000000D01*
X12608990Y-12034220D01*
X12608979Y-12034222D01*
X12355744Y-12102075D01*
X12113528Y-12202404D01*
X12113517Y-12202409D01*
X11886471Y-12333496D01*
X11773633Y-12420079D01*
X11773633Y-12420080D01*
X12563075Y-13209522D01*
X12426283Y-13300924D01*
X12300924Y-13426283D01*
X12209522Y-13563075D01*
X11420080Y-12773633D01*
X11420079Y-12773633D01*
X11333496Y-12886471D01*
X11202409Y-13113517D01*
X11202404Y-13113528D01*
X11102075Y-13355744D01*
X11034222Y-13608979D01*
X11034220Y-13608990D01*
X11000000Y-13868905D01*
X2000000Y-13868905D01*
X2000000Y-8066533D01*
X48411999Y-8066533D01*
X48437958Y-8197030D01*
X48437961Y-8197040D01*
X48488876Y-8319961D01*
X48488886Y-8319979D01*
X48562801Y-8430601D01*
X48562807Y-8430609D01*
X48656890Y-8524692D01*
X48656898Y-8524698D01*
X48767520Y-8598613D01*
X48767523Y-8598614D01*
X48767531Y-8598620D01*
X48890464Y-8649540D01*
X48890468Y-8649540D01*
X48890469Y-8649541D01*
X49020966Y-8675500D01*
X49020969Y-8675500D01*
X49154033Y-8675500D01*
X49241825Y-8658035D01*
X49284536Y-8649540D01*
X49407469Y-8598620D01*
X49518106Y-8524695D01*
X49612195Y-8430606D01*
X49686120Y-8319969D01*
X49737040Y-8197036D01*
X49745535Y-8154325D01*
X49763000Y-8066533D01*
X49763000Y-7933473D01*
X49763000Y-7933469D01*
X49762472Y-7930817D01*
X50387000Y-7930817D01*
X50387000Y-8069183D01*
X50421257Y-8197030D01*
X50422812Y-8202835D01*
X50422813Y-8202838D01*
X50491992Y-8322661D01*
X50491994Y-8322664D01*
X50491995Y-8322665D01*
X50589835Y-8420505D01*
X50589836Y-8420506D01*
X50589838Y-8420507D01*
X50649749Y-8455096D01*
X50709664Y-8489688D01*
X50843317Y-8525500D01*
X50843319Y-8525500D01*
X50981681Y-8525500D01*
X50981683Y-8525500D01*
X51115336Y-8489688D01*
X51235165Y-8420505D01*
X51333005Y-8322665D01*
X51402188Y-8202836D01*
X51438000Y-8069183D01*
X51438000Y-7930817D01*
X54537000Y-7930817D01*
X54537000Y-8069183D01*
X54571257Y-8197030D01*
X54572812Y-8202835D01*
X54572813Y-8202838D01*
X54641992Y-8322661D01*
X54641994Y-8322664D01*
X54641995Y-8322665D01*
X54739835Y-8420505D01*
X54739836Y-8420506D01*
X54739838Y-8420507D01*
X54799749Y-8455096D01*
X54859664Y-8489688D01*
X54993317Y-8525500D01*
X54993319Y-8525500D01*
X55131681Y-8525500D01*
X55131683Y-8525500D01*
X55265336Y-8489688D01*
X55385165Y-8420505D01*
X55483005Y-8322665D01*
X55552188Y-8202836D01*
X55588000Y-8069183D01*
X55588000Y-7930817D01*
X55552188Y-7797164D01*
X55483005Y-7677335D01*
X55385165Y-7579495D01*
X55385164Y-7579494D01*
X55385161Y-7579492D01*
X55265338Y-7510313D01*
X55265337Y-7510312D01*
X55265336Y-7510312D01*
X55131683Y-7474500D01*
X54993317Y-7474500D01*
X54859664Y-7510312D01*
X54859661Y-7510313D01*
X54739838Y-7579492D01*
X54739833Y-7579496D01*
X54641996Y-7677333D01*
X54641992Y-7677338D01*
X54572813Y-7797161D01*
X54572812Y-7797164D01*
X54537000Y-7930817D01*
X51438000Y-7930817D01*
X51402188Y-7797164D01*
X51333005Y-7677335D01*
X51235165Y-7579495D01*
X51235164Y-7579494D01*
X51235161Y-7579492D01*
X51115338Y-7510313D01*
X51115337Y-7510312D01*
X51115336Y-7510312D01*
X50981683Y-7474500D01*
X50843317Y-7474500D01*
X50709664Y-7510312D01*
X50709661Y-7510313D01*
X50589838Y-7579492D01*
X50589833Y-7579496D01*
X50491996Y-7677333D01*
X50491992Y-7677338D01*
X50422813Y-7797161D01*
X50422812Y-7797164D01*
X50387000Y-7930817D01*
X49762472Y-7930817D01*
X49737040Y-7802964D01*
X49734636Y-7797161D01*
X49686123Y-7680038D01*
X49686122Y-7680037D01*
X49686120Y-7680031D01*
X49684317Y-7677333D01*
X49612198Y-7569398D01*
X49612192Y-7569390D01*
X49518109Y-7475307D01*
X49518101Y-7475301D01*
X49407479Y-7401386D01*
X49407472Y-7401382D01*
X49407469Y-7401380D01*
X49407465Y-7401378D01*
X49407461Y-7401376D01*
X49284540Y-7350461D01*
X49284530Y-7350458D01*
X49154033Y-7324500D01*
X49154031Y-7324500D01*
X49020969Y-7324500D01*
X49020967Y-7324500D01*
X48890469Y-7350458D01*
X48890459Y-7350461D01*
X48767538Y-7401376D01*
X48767520Y-7401386D01*
X48656898Y-7475301D01*
X48656890Y-7475307D01*
X48562807Y-7569390D01*
X48562801Y-7569398D01*
X48488886Y-7680020D01*
X48488876Y-7680038D01*
X48437961Y-7802959D01*
X48437958Y-7802969D01*
X48412000Y-7933466D01*
X48412000Y-7933469D01*
X48412000Y-8066531D01*
X48412000Y-8066533D01*
X48411999Y-8066533D01*
X2000000Y-8066533D01*
X2000000Y-6759176D01*
X2019685Y-6692137D01*
X2036319Y-6671495D01*
X2829103Y-5878711D01*
X4149500Y-5878711D01*
X4149500Y-6121288D01*
X4179670Y-6350461D01*
X4181162Y-6361789D01*
X4191772Y-6401386D01*
X4243947Y-6596104D01*
X4329632Y-6802964D01*
X4336776Y-6820212D01*
X4458064Y-7030289D01*
X4458066Y-7030292D01*
X4458067Y-7030293D01*
X4605733Y-7222736D01*
X4605739Y-7222743D01*
X4777256Y-7394260D01*
X4777263Y-7394266D01*
X4882870Y-7475301D01*
X4969711Y-7541936D01*
X5179788Y-7663224D01*
X5403900Y-7756054D01*
X5638211Y-7818838D01*
X5818586Y-7842584D01*
X5878711Y-7850500D01*
X5878712Y-7850500D01*
X6121289Y-7850500D01*
X6169388Y-7844167D01*
X6361789Y-7818838D01*
X6596100Y-7756054D01*
X6820212Y-7663224D01*
X7030289Y-7541936D01*
X7222738Y-7394265D01*
X7394265Y-7222738D01*
X7514125Y-7066533D01*
X20324499Y-7066533D01*
X20350458Y-7197030D01*
X20350461Y-7197040D01*
X20401376Y-7319961D01*
X20401386Y-7319979D01*
X20475301Y-7430601D01*
X20475307Y-7430609D01*
X20569390Y-7524692D01*
X20569398Y-7524698D01*
X20680020Y-7598613D01*
X20680023Y-7598614D01*
X20680031Y-7598620D01*
X20802964Y-7649540D01*
X20802968Y-7649540D01*
X20802969Y-7649541D01*
X20933466Y-7675500D01*
X20933469Y-7675500D01*
X21066533Y-7675500D01*
X21154325Y-7658035D01*
X21197036Y-7649540D01*
X21319969Y-7598620D01*
X21430606Y-7524695D01*
X21524695Y-7430606D01*
X21598620Y-7319969D01*
X21649540Y-7197036D01*
X21675500Y-7066533D01*
X37324499Y-7066533D01*
X37350458Y-7197030D01*
X37350461Y-7197040D01*
X37401376Y-7319961D01*
X37401386Y-7319979D01*
X37475301Y-7430601D01*
X37475307Y-7430609D01*
X37569390Y-7524692D01*
X37569398Y-7524698D01*
X37680020Y-7598613D01*
X37680023Y-7598614D01*
X37680031Y-7598620D01*
X37802964Y-7649540D01*
X37802968Y-7649540D01*
X37802969Y-7649541D01*
X37933466Y-7675500D01*
X37933469Y-7675500D01*
X38066533Y-7675500D01*
X38154325Y-7658035D01*
X38197036Y-7649540D01*
X38319969Y-7598620D01*
X38430606Y-7524695D01*
X38524695Y-7430606D01*
X38598620Y-7319969D01*
X38649540Y-7197036D01*
X38675500Y-7066531D01*
X38675500Y-6933469D01*
X38675500Y-6933466D01*
X38649541Y-6802969D01*
X38649540Y-6802968D01*
X38649540Y-6802964D01*
X38631403Y-6759176D01*
X38598623Y-6680038D01*
X38598622Y-6680037D01*
X38598620Y-6680031D01*
X38592916Y-6671495D01*
X38524698Y-6569398D01*
X38524692Y-6569390D01*
X38430609Y-6475307D01*
X38430601Y-6475301D01*
X38319979Y-6401386D01*
X38319972Y-6401382D01*
X38319969Y-6401380D01*
X38319965Y-6401378D01*
X38319961Y-6401376D01*
X38197040Y-6350461D01*
X38197030Y-6350458D01*
X38066533Y-6324500D01*
X38066531Y-6324500D01*
X37933469Y-6324500D01*
X37933467Y-6324500D01*
X37802969Y-6350458D01*
X37802959Y-6350461D01*
X37680038Y-6401376D01*
X37680020Y-6401386D01*
X37569398Y-6475301D01*
X37569390Y-6475307D01*
X37475307Y-6569390D01*
X37475301Y-6569398D01*
X37401386Y-6680020D01*
X37401376Y-6680038D01*
X37350461Y-6802959D01*
X37350458Y-6802969D01*
X37324500Y-6933466D01*
X37324500Y-6933469D01*
X37324500Y-7066531D01*
X37324500Y-7066533D01*
X37324499Y-7066533D01*
X21675500Y-7066533D01*
X21675500Y-7066531D01*
X21675500Y-6933469D01*
X21675500Y-6933466D01*
X21649541Y-6802969D01*
X21649540Y-6802968D01*
X21649540Y-6802964D01*
X21631403Y-6759176D01*
X21598623Y-6680038D01*
X21598622Y-6680037D01*
X21598620Y-6680031D01*
X21592916Y-6671495D01*
X21524698Y-6569398D01*
X21524692Y-6569390D01*
X21430609Y-6475307D01*
X21430601Y-6475301D01*
X21319979Y-6401386D01*
X21319972Y-6401382D01*
X21319969Y-6401380D01*
X21319965Y-6401378D01*
X21319961Y-6401376D01*
X21197040Y-6350461D01*
X21197030Y-6350458D01*
X21066533Y-6324500D01*
X21066531Y-6324500D01*
X20933469Y-6324500D01*
X20933467Y-6324500D01*
X20802969Y-6350458D01*
X20802959Y-6350461D01*
X20680038Y-6401376D01*
X20680020Y-6401386D01*
X20569398Y-6475301D01*
X20569390Y-6475307D01*
X20475307Y-6569390D01*
X20475301Y-6569398D01*
X20401386Y-6680020D01*
X20401376Y-6680038D01*
X20350461Y-6802959D01*
X20350458Y-6802969D01*
X20324500Y-6933466D01*
X20324500Y-6933469D01*
X20324500Y-7066531D01*
X20324500Y-7066533D01*
X20324499Y-7066533D01*
X7514125Y-7066533D01*
X7541936Y-7030289D01*
X7663224Y-6820212D01*
X7756054Y-6596100D01*
X7818838Y-6361789D01*
X7850500Y-6121288D01*
X7850500Y-5878712D01*
X7818838Y-5638211D01*
X7756054Y-5403900D01*
X7663224Y-5179788D01*
X7541936Y-4969711D01*
X7394265Y-4777262D01*
X7394260Y-4777256D01*
X7222743Y-4605739D01*
X7222736Y-4605733D01*
X7030293Y-4458067D01*
X7030292Y-4458066D01*
X7030289Y-4458064D01*
X6820212Y-4336776D01*
X6820205Y-4336773D01*
X6596104Y-4243947D01*
X6361785Y-4181161D01*
X6121289Y-4149500D01*
X6121288Y-4149500D01*
X5878712Y-4149500D01*
X5878711Y-4149500D01*
X5638214Y-4181161D01*
X5403895Y-4243947D01*
X5179794Y-4336773D01*
X5179785Y-4336777D01*
X4969706Y-4458067D01*
X4777263Y-4605733D01*
X4777256Y-4605739D01*
X4605739Y-4777256D01*
X4605733Y-4777263D01*
X4458067Y-4969706D01*
X4336777Y-5179785D01*
X4336773Y-5179794D01*
X4243947Y-5403895D01*
X4181161Y-5638214D01*
X4149500Y-5878711D01*
X2829103Y-5878711D01*
X6671495Y-2036319D01*
X6732818Y-2002834D01*
X6759176Y-2000000D01*
X59876000Y-2000000D01*
X59943039Y-2019685D01*
G37*
%TD.AperFunction*%
%TA.AperFunction,Conductor*%
G36*
X55659588Y-75424649D02*
G01*
X55673335Y-75423995D01*
X55706101Y-75437113D01*
X55797164Y-75489688D01*
X55930817Y-75525500D01*
X55930819Y-75525500D01*
X55955500Y-75525500D01*
X56022539Y-75545185D01*
X56068294Y-75597989D01*
X56079500Y-75649500D01*
X56079500Y-88955500D01*
X56059815Y-89022539D01*
X56007011Y-89068294D01*
X55955500Y-89079500D01*
X49468514Y-89079500D01*
X49401475Y-89059815D01*
X49355720Y-89007011D01*
X49345225Y-88942243D01*
X49349999Y-88897841D01*
X49350000Y-88897827D01*
X49350000Y-88250000D01*
X48433012Y-88250000D01*
X48465925Y-88192993D01*
X48500000Y-88065826D01*
X48500000Y-87934174D01*
X48465925Y-87807007D01*
X48433012Y-87750000D01*
X49350000Y-87750000D01*
X49350000Y-87102172D01*
X49349999Y-87102155D01*
X49343598Y-87042627D01*
X49343596Y-87042620D01*
X49293354Y-86907913D01*
X49293350Y-86907906D01*
X49207190Y-86792812D01*
X49207187Y-86792809D01*
X49092093Y-86706649D01*
X49092086Y-86706645D01*
X48957379Y-86656403D01*
X48957372Y-86656401D01*
X48897844Y-86650000D01*
X48250000Y-86650000D01*
X48250000Y-87566988D01*
X48192993Y-87534075D01*
X48065826Y-87500000D01*
X47934174Y-87500000D01*
X47807007Y-87534075D01*
X47750000Y-87566988D01*
X47750000Y-86650000D01*
X47102155Y-86650000D01*
X47042627Y-86656401D01*
X47042620Y-86656403D01*
X46907913Y-86706645D01*
X46907906Y-86706649D01*
X46792812Y-86792809D01*
X46792809Y-86792812D01*
X46706649Y-86907906D01*
X46706645Y-86907913D01*
X46656403Y-87042620D01*
X46656401Y-87042627D01*
X46650000Y-87102155D01*
X46650000Y-87298912D01*
X46630315Y-87365951D01*
X46577511Y-87411706D01*
X46508353Y-87421650D01*
X46444797Y-87392625D01*
X46425682Y-87371797D01*
X46337558Y-87250505D01*
X46337554Y-87250500D01*
X46209499Y-87122445D01*
X46209494Y-87122441D01*
X46062997Y-87016006D01*
X46062996Y-87016005D01*
X46062994Y-87016004D01*
X45964419Y-86965777D01*
X45901639Y-86933788D01*
X45901636Y-86933787D01*
X45729410Y-86877829D01*
X45550551Y-86849500D01*
X45550546Y-86849500D01*
X45369454Y-86849500D01*
X45369449Y-86849500D01*
X45190589Y-86877829D01*
X45018363Y-86933787D01*
X45018360Y-86933788D01*
X44857002Y-87016006D01*
X44710505Y-87122441D01*
X44710500Y-87122445D01*
X44582445Y-87250500D01*
X44582441Y-87250505D01*
X44476006Y-87397002D01*
X44393788Y-87558360D01*
X44393787Y-87558363D01*
X44337829Y-87730589D01*
X44312473Y-87890678D01*
X44282544Y-87953813D01*
X44223232Y-87990744D01*
X44153369Y-87989746D01*
X44095137Y-87951136D01*
X44067527Y-87890678D01*
X44046543Y-87758195D01*
X44042171Y-87730591D01*
X44002391Y-87608158D01*
X43986212Y-87558363D01*
X43986211Y-87558360D01*
X43928267Y-87444641D01*
X43903996Y-87397006D01*
X43849988Y-87322670D01*
X43797558Y-87250505D01*
X43797554Y-87250500D01*
X43669499Y-87122445D01*
X43669494Y-87122441D01*
X43522997Y-87016006D01*
X43522996Y-87016005D01*
X43522994Y-87016004D01*
X43424419Y-86965777D01*
X43361639Y-86933788D01*
X43361636Y-86933787D01*
X43189410Y-86877829D01*
X43010551Y-86849500D01*
X43010546Y-86849500D01*
X42829454Y-86849500D01*
X42829449Y-86849500D01*
X42650589Y-86877829D01*
X42478363Y-86933787D01*
X42478360Y-86933788D01*
X42317002Y-87016006D01*
X42170505Y-87122441D01*
X42170500Y-87122445D01*
X42042445Y-87250500D01*
X42042441Y-87250505D01*
X41936006Y-87397002D01*
X41851577Y-87562702D01*
X41850324Y-87562063D01*
X41810454Y-87611536D01*
X41744159Y-87633599D01*
X41677737Y-87617065D01*
X41662310Y-87608158D01*
X41662309Y-87608157D01*
X41608833Y-87593828D01*
X41555360Y-87579500D01*
X41555358Y-87579500D01*
X40544500Y-87579500D01*
X40477461Y-87559815D01*
X40431706Y-87507011D01*
X40420500Y-87455500D01*
X40420500Y-78909448D01*
X41769500Y-78909448D01*
X41769500Y-79090551D01*
X41797829Y-79269410D01*
X41853787Y-79441636D01*
X41853788Y-79441639D01*
X41936006Y-79602997D01*
X42042441Y-79749494D01*
X42042445Y-79749499D01*
X42170500Y-79877554D01*
X42170505Y-79877558D01*
X42252324Y-79937002D01*
X42317006Y-79983996D01*
X42422484Y-80037740D01*
X42478360Y-80066211D01*
X42478363Y-80066212D01*
X42557997Y-80092086D01*
X42650591Y-80122171D01*
X42733429Y-80135291D01*
X42829449Y-80150500D01*
X42829454Y-80150500D01*
X43010551Y-80150500D01*
X43097259Y-80136765D01*
X43189409Y-80122171D01*
X43361639Y-80066211D01*
X43522994Y-79983996D01*
X43669501Y-79877553D01*
X43797553Y-79749501D01*
X43903996Y-79602994D01*
X43986211Y-79441639D01*
X44042171Y-79269409D01*
X44056422Y-79179425D01*
X44067527Y-79109321D01*
X44097456Y-79046186D01*
X44156768Y-79009255D01*
X44226630Y-79010253D01*
X44284863Y-79048863D01*
X44312473Y-79109321D01*
X44337829Y-79269410D01*
X44393787Y-79441636D01*
X44393788Y-79441639D01*
X44476006Y-79602997D01*
X44582441Y-79749494D01*
X44582445Y-79749499D01*
X44710500Y-79877554D01*
X44710505Y-79877558D01*
X44792324Y-79937002D01*
X44857006Y-79983996D01*
X44962484Y-80037740D01*
X45018360Y-80066211D01*
X45018363Y-80066212D01*
X45097997Y-80092086D01*
X45190591Y-80122171D01*
X45273429Y-80135291D01*
X45369449Y-80150500D01*
X45369454Y-80150500D01*
X45550551Y-80150500D01*
X45637259Y-80136765D01*
X45729409Y-80122171D01*
X45901639Y-80066211D01*
X46062994Y-79983996D01*
X46209501Y-79877553D01*
X46337553Y-79749501D01*
X46337555Y-79749497D01*
X46337558Y-79749495D01*
X46425682Y-79628202D01*
X46481011Y-79585536D01*
X46550625Y-79579557D01*
X46612420Y-79612162D01*
X46646777Y-79673001D01*
X46650000Y-79701087D01*
X46650000Y-79897844D01*
X46656401Y-79957372D01*
X46656403Y-79957379D01*
X46706645Y-80092086D01*
X46706649Y-80092093D01*
X46792809Y-80207187D01*
X46792812Y-80207190D01*
X46907906Y-80293350D01*
X46907913Y-80293354D01*
X47042620Y-80343596D01*
X47042627Y-80343598D01*
X47102155Y-80349999D01*
X47102172Y-80350000D01*
X47750000Y-80350000D01*
X47750000Y-79433012D01*
X47807007Y-79465925D01*
X47934174Y-79500000D01*
X48065826Y-79500000D01*
X48192993Y-79465925D01*
X48250000Y-79433012D01*
X48250000Y-80350000D01*
X48897828Y-80350000D01*
X48897844Y-80349999D01*
X48957372Y-80343598D01*
X48957379Y-80343596D01*
X49092086Y-80293354D01*
X49092093Y-80293350D01*
X49207187Y-80207190D01*
X49207190Y-80207187D01*
X49293350Y-80092093D01*
X49293354Y-80092086D01*
X49343596Y-79957379D01*
X49343598Y-79957372D01*
X49349999Y-79897844D01*
X49350000Y-79897827D01*
X49350000Y-79250000D01*
X48433012Y-79250000D01*
X48465925Y-79192993D01*
X48500000Y-79065826D01*
X48500000Y-78934174D01*
X48465925Y-78807007D01*
X48433012Y-78750000D01*
X49350000Y-78750000D01*
X49350000Y-78102172D01*
X49349999Y-78102155D01*
X49343598Y-78042627D01*
X49343596Y-78042620D01*
X49293354Y-77907913D01*
X49293350Y-77907906D01*
X49207190Y-77792812D01*
X49207187Y-77792809D01*
X49092093Y-77706649D01*
X49092086Y-77706645D01*
X48957379Y-77656403D01*
X48957372Y-77656401D01*
X48897844Y-77650000D01*
X48250000Y-77650000D01*
X48250000Y-78566988D01*
X48192993Y-78534075D01*
X48065826Y-78500000D01*
X47934174Y-78500000D01*
X47807007Y-78534075D01*
X47750000Y-78566988D01*
X47750000Y-77650000D01*
X47102155Y-77650000D01*
X47042627Y-77656401D01*
X47042620Y-77656403D01*
X46907913Y-77706645D01*
X46907906Y-77706649D01*
X46792812Y-77792809D01*
X46792809Y-77792812D01*
X46706649Y-77907906D01*
X46706645Y-77907913D01*
X46656403Y-78042620D01*
X46656401Y-78042627D01*
X46650000Y-78102155D01*
X46650000Y-78298912D01*
X46630315Y-78365951D01*
X46577511Y-78411706D01*
X46508353Y-78421650D01*
X46444797Y-78392625D01*
X46425682Y-78371797D01*
X46337558Y-78250505D01*
X46337554Y-78250500D01*
X46209499Y-78122445D01*
X46209494Y-78122441D01*
X46062997Y-78016006D01*
X46062996Y-78016005D01*
X46062994Y-78016004D01*
X45988178Y-77977883D01*
X45901639Y-77933788D01*
X45901636Y-77933787D01*
X45729410Y-77877829D01*
X45550551Y-77849500D01*
X45550546Y-77849500D01*
X45369454Y-77849500D01*
X45369449Y-77849500D01*
X45190589Y-77877829D01*
X45018363Y-77933787D01*
X45018360Y-77933788D01*
X44857002Y-78016006D01*
X44710505Y-78122441D01*
X44710500Y-78122445D01*
X44582445Y-78250500D01*
X44582441Y-78250505D01*
X44476006Y-78397002D01*
X44393788Y-78558360D01*
X44393787Y-78558363D01*
X44337829Y-78730589D01*
X44312473Y-78890678D01*
X44282544Y-78953813D01*
X44223232Y-78990744D01*
X44153369Y-78989746D01*
X44095137Y-78951136D01*
X44067527Y-78890678D01*
X44045245Y-78750000D01*
X44042171Y-78730591D01*
X43986211Y-78558361D01*
X43986211Y-78558360D01*
X43939112Y-78465925D01*
X43903996Y-78397006D01*
X43890396Y-78378287D01*
X43797558Y-78250505D01*
X43797554Y-78250500D01*
X43669499Y-78122445D01*
X43669494Y-78122441D01*
X43522997Y-78016006D01*
X43522996Y-78016005D01*
X43522994Y-78016004D01*
X43448178Y-77977883D01*
X43361639Y-77933788D01*
X43361636Y-77933787D01*
X43189410Y-77877829D01*
X43010551Y-77849500D01*
X43010546Y-77849500D01*
X42829454Y-77849500D01*
X42829449Y-77849500D01*
X42650589Y-77877829D01*
X42478363Y-77933787D01*
X42478360Y-77933788D01*
X42317002Y-78016006D01*
X42170505Y-78122441D01*
X42170500Y-78122445D01*
X42042445Y-78250500D01*
X42042441Y-78250505D01*
X41936006Y-78397002D01*
X41853788Y-78558360D01*
X41853787Y-78558363D01*
X41797829Y-78730589D01*
X41769500Y-78909448D01*
X40420500Y-78909448D01*
X40420500Y-76044500D01*
X40440185Y-75977461D01*
X40492989Y-75931706D01*
X40544500Y-75920500D01*
X46144101Y-75920500D01*
X46206101Y-75937113D01*
X46297164Y-75989688D01*
X46430817Y-76025500D01*
X46430819Y-76025500D01*
X46569181Y-76025500D01*
X46569183Y-76025500D01*
X46702836Y-75989688D01*
X46822665Y-75920505D01*
X46920505Y-75822665D01*
X46989688Y-75702836D01*
X47025500Y-75569183D01*
X47025500Y-75544500D01*
X47045185Y-75477461D01*
X47097989Y-75431706D01*
X47149500Y-75420500D01*
X55644101Y-75420500D01*
X55659588Y-75424649D01*
G37*
%TD.AperFunction*%
%TA.AperFunction,Conductor*%
G36*
X59226630Y-79010253D02*
G01*
X59284863Y-79048863D01*
X59312473Y-79109321D01*
X59337829Y-79269410D01*
X59393787Y-79441636D01*
X59393788Y-79441639D01*
X59476006Y-79602997D01*
X59582441Y-79749494D01*
X59582445Y-79749499D01*
X59710500Y-79877554D01*
X59710505Y-79877558D01*
X59792324Y-79937002D01*
X59857006Y-79983996D01*
X59962484Y-80037740D01*
X60018360Y-80066211D01*
X60018363Y-80066212D01*
X60097997Y-80092086D01*
X60190591Y-80122171D01*
X60273429Y-80135291D01*
X60369449Y-80150500D01*
X60369454Y-80150500D01*
X60550551Y-80150500D01*
X60637259Y-80136765D01*
X60729409Y-80122171D01*
X60901639Y-80066211D01*
X61062994Y-79983996D01*
X61209501Y-79877553D01*
X61337553Y-79749501D01*
X61337555Y-79749497D01*
X61337558Y-79749495D01*
X61425682Y-79628202D01*
X61481011Y-79585536D01*
X61550625Y-79579557D01*
X61612420Y-79612162D01*
X61646777Y-79673001D01*
X61650000Y-79701087D01*
X61650000Y-79897844D01*
X61656401Y-79957372D01*
X61656403Y-79957379D01*
X61706645Y-80092086D01*
X61706649Y-80092093D01*
X61792809Y-80207187D01*
X61792812Y-80207190D01*
X61907906Y-80293350D01*
X61907913Y-80293354D01*
X62042620Y-80343596D01*
X62042627Y-80343598D01*
X62102155Y-80349999D01*
X62102172Y-80350000D01*
X62750000Y-80350000D01*
X62750000Y-79433012D01*
X62807007Y-79465925D01*
X62934174Y-79500000D01*
X63065826Y-79500000D01*
X63192993Y-79465925D01*
X63250000Y-79433012D01*
X63250000Y-80350000D01*
X63897828Y-80350000D01*
X63897841Y-80349999D01*
X63942243Y-80345225D01*
X64011003Y-80357629D01*
X64062141Y-80405239D01*
X64079500Y-80468514D01*
X64079500Y-86531485D01*
X64059815Y-86598524D01*
X64007011Y-86644279D01*
X63942246Y-86654775D01*
X63897830Y-86650000D01*
X63250000Y-86650000D01*
X63250000Y-87566988D01*
X63192993Y-87534075D01*
X63065826Y-87500000D01*
X62934174Y-87500000D01*
X62807007Y-87534075D01*
X62750000Y-87566988D01*
X62750000Y-86650000D01*
X62102155Y-86650000D01*
X62042627Y-86656401D01*
X62042620Y-86656403D01*
X61907913Y-86706645D01*
X61907906Y-86706649D01*
X61792812Y-86792809D01*
X61792809Y-86792812D01*
X61706649Y-86907906D01*
X61706645Y-86907913D01*
X61656403Y-87042620D01*
X61656401Y-87042627D01*
X61650000Y-87102155D01*
X61650000Y-87298912D01*
X61630315Y-87365951D01*
X61577511Y-87411706D01*
X61508353Y-87421650D01*
X61444797Y-87392625D01*
X61425682Y-87371797D01*
X61337558Y-87250505D01*
X61337554Y-87250500D01*
X61209499Y-87122445D01*
X61209494Y-87122441D01*
X61062997Y-87016006D01*
X61062996Y-87016005D01*
X61062994Y-87016004D01*
X60964419Y-86965777D01*
X60901639Y-86933788D01*
X60901636Y-86933787D01*
X60729410Y-86877829D01*
X60550551Y-86849500D01*
X60550546Y-86849500D01*
X60369454Y-86849500D01*
X60369449Y-86849500D01*
X60190589Y-86877829D01*
X60018363Y-86933787D01*
X60018360Y-86933788D01*
X59857002Y-87016006D01*
X59710505Y-87122441D01*
X59710500Y-87122445D01*
X59582445Y-87250500D01*
X59582441Y-87250505D01*
X59476006Y-87397002D01*
X59393788Y-87558360D01*
X59393787Y-87558363D01*
X59337829Y-87730589D01*
X59312473Y-87890678D01*
X59282544Y-87953813D01*
X59223232Y-87990744D01*
X59153369Y-87989746D01*
X59095137Y-87951136D01*
X59067527Y-87890678D01*
X59046543Y-87758195D01*
X59042171Y-87730591D01*
X59002391Y-87608158D01*
X58986212Y-87558363D01*
X58986211Y-87558360D01*
X58928267Y-87444641D01*
X58903996Y-87397006D01*
X58849988Y-87322670D01*
X58797558Y-87250505D01*
X58797554Y-87250500D01*
X58669499Y-87122445D01*
X58669494Y-87122441D01*
X58522997Y-87016006D01*
X58522996Y-87016005D01*
X58522994Y-87016004D01*
X58424419Y-86965777D01*
X58361639Y-86933788D01*
X58361636Y-86933787D01*
X58189410Y-86877829D01*
X58010551Y-86849500D01*
X58010546Y-86849500D01*
X57829454Y-86849500D01*
X57829449Y-86849500D01*
X57650589Y-86877829D01*
X57478363Y-86933787D01*
X57478360Y-86933788D01*
X57317002Y-87016006D01*
X57170505Y-87122441D01*
X57170500Y-87122445D01*
X57132181Y-87160765D01*
X57070858Y-87194250D01*
X57001166Y-87189266D01*
X56945233Y-87147394D01*
X56920816Y-87081930D01*
X56920500Y-87073084D01*
X56920500Y-79926916D01*
X56940185Y-79859877D01*
X56992989Y-79814122D01*
X57062147Y-79804178D01*
X57125703Y-79833203D01*
X57132181Y-79839235D01*
X57170500Y-79877554D01*
X57170505Y-79877558D01*
X57252324Y-79937002D01*
X57317006Y-79983996D01*
X57422484Y-80037740D01*
X57478360Y-80066211D01*
X57478363Y-80066212D01*
X57557997Y-80092086D01*
X57650591Y-80122171D01*
X57733429Y-80135291D01*
X57829449Y-80150500D01*
X57829454Y-80150500D01*
X58010551Y-80150500D01*
X58097259Y-80136765D01*
X58189409Y-80122171D01*
X58361639Y-80066211D01*
X58522994Y-79983996D01*
X58669501Y-79877553D01*
X58797553Y-79749501D01*
X58903996Y-79602994D01*
X58986211Y-79441639D01*
X59042171Y-79269409D01*
X59056422Y-79179425D01*
X59067527Y-79109321D01*
X59097456Y-79046186D01*
X59156768Y-79009255D01*
X59226630Y-79010253D01*
G37*
%TD.AperFunction*%
%TA.AperFunction,Conductor*%
G36*
X39522539Y-75440185D02*
G01*
X39568294Y-75492989D01*
X39579500Y-75544500D01*
X39579500Y-87455500D01*
X39559815Y-87522539D01*
X39507011Y-87568294D01*
X39455500Y-87579500D01*
X37355899Y-87579500D01*
X37293899Y-87562887D01*
X37202838Y-87510313D01*
X37202837Y-87510312D01*
X37202836Y-87510312D01*
X37069183Y-87474500D01*
X36930817Y-87474500D01*
X36797164Y-87510312D01*
X36797161Y-87510313D01*
X36706101Y-87562887D01*
X36644101Y-87579500D01*
X32044500Y-87579500D01*
X31977461Y-87559815D01*
X31931706Y-87507011D01*
X31920500Y-87455500D01*
X31920500Y-84444641D01*
X31915581Y-84426283D01*
X31891843Y-84337693D01*
X31836483Y-84241807D01*
X31758193Y-84163517D01*
X31662307Y-84108157D01*
X31555360Y-84079500D01*
X31555358Y-84079500D01*
X31544500Y-84079500D01*
X31477461Y-84059815D01*
X31431706Y-84007011D01*
X31420500Y-83955500D01*
X31420500Y-83944641D01*
X31420500Y-83944640D01*
X31391843Y-83837693D01*
X31336483Y-83741807D01*
X31258193Y-83663517D01*
X31202832Y-83631554D01*
X31162306Y-83608156D01*
X31158734Y-83606677D01*
X31156182Y-83604621D01*
X31155268Y-83604093D01*
X31155350Y-83603950D01*
X31104330Y-83562836D01*
X31082264Y-83496542D01*
X31088254Y-83453797D01*
X31105080Y-83402011D01*
X31122171Y-83349409D01*
X31136765Y-83257259D01*
X31150500Y-83170551D01*
X31150500Y-82989448D01*
X31134019Y-82885397D01*
X31122171Y-82810591D01*
X31066211Y-82638361D01*
X31066211Y-82638360D01*
X31027755Y-82562887D01*
X30983996Y-82477006D01*
X30970396Y-82458287D01*
X30877558Y-82330505D01*
X30877554Y-82330500D01*
X30749499Y-82202445D01*
X30749494Y-82202441D01*
X30602997Y-82096006D01*
X30602996Y-82096005D01*
X30602994Y-82096004D01*
X30551300Y-82069664D01*
X30441639Y-82013788D01*
X30441636Y-82013787D01*
X30269410Y-81957829D01*
X30109321Y-81932473D01*
X30046186Y-81902544D01*
X30009255Y-81843232D01*
X30010253Y-81773370D01*
X30048863Y-81715137D01*
X30109321Y-81687527D01*
X30179425Y-81676422D01*
X30269409Y-81662171D01*
X30441639Y-81606211D01*
X30602994Y-81523996D01*
X30749501Y-81417553D01*
X30877553Y-81289501D01*
X30983996Y-81142994D01*
X31066211Y-80981639D01*
X31122171Y-80809409D01*
X31136765Y-80717259D01*
X31150500Y-80630551D01*
X31150500Y-80449448D01*
X31125776Y-80293354D01*
X31122171Y-80270591D01*
X31066211Y-80098361D01*
X31066211Y-80098360D01*
X31037740Y-80042484D01*
X30983996Y-79937006D01*
X30912962Y-79839235D01*
X30877558Y-79790505D01*
X30877554Y-79790500D01*
X30749495Y-79662441D01*
X30628202Y-79574318D01*
X30585536Y-79518989D01*
X30579557Y-79449375D01*
X30612162Y-79387580D01*
X30673001Y-79353223D01*
X30701087Y-79350000D01*
X30897828Y-79350000D01*
X30897844Y-79349999D01*
X30957372Y-79343598D01*
X30957379Y-79343596D01*
X31092086Y-79293354D01*
X31092093Y-79293350D01*
X31207187Y-79207190D01*
X31207190Y-79207187D01*
X31293350Y-79092093D01*
X31293354Y-79092086D01*
X31343596Y-78957379D01*
X31343598Y-78957372D01*
X31349999Y-78897844D01*
X31350000Y-78897827D01*
X31350000Y-78250000D01*
X30433012Y-78250000D01*
X30465925Y-78192993D01*
X30500000Y-78065826D01*
X30500000Y-77934174D01*
X30465925Y-77807007D01*
X30433012Y-77750000D01*
X31350000Y-77750000D01*
X31350000Y-77102172D01*
X31349999Y-77102155D01*
X31343598Y-77042627D01*
X31343596Y-77042620D01*
X31293354Y-76907913D01*
X31293350Y-76907906D01*
X31207190Y-76792812D01*
X31207187Y-76792809D01*
X31092093Y-76706649D01*
X31092086Y-76706645D01*
X30957379Y-76656403D01*
X30957372Y-76656401D01*
X30897844Y-76650000D01*
X30250000Y-76650000D01*
X30250000Y-77566988D01*
X30192993Y-77534075D01*
X30065826Y-77500000D01*
X29934174Y-77500000D01*
X29807007Y-77534075D01*
X29750000Y-77566988D01*
X29750000Y-76650000D01*
X29102169Y-76650000D01*
X29057754Y-76654775D01*
X28988995Y-76642369D01*
X28937858Y-76594758D01*
X28920500Y-76531485D01*
X28920500Y-75544500D01*
X28940185Y-75477461D01*
X28992989Y-75431706D01*
X29044500Y-75420500D01*
X39455500Y-75420500D01*
X39522539Y-75440185D01*
G37*
%TD.AperFunction*%
%TA.AperFunction,Conductor*%
G36*
X112291692Y-52370370D02*
G01*
X112307820Y-52374596D01*
X112337693Y-52391843D01*
X112444640Y-52420500D01*
X112483008Y-52420500D01*
X112498461Y-52424549D01*
X112558322Y-52460584D01*
X112577514Y-52488203D01*
X112623051Y-52577573D01*
X112636006Y-52602997D01*
X112742441Y-52749494D01*
X112742445Y-52749499D01*
X112870500Y-52877554D01*
X112883219Y-52886795D01*
X112925884Y-52942125D01*
X112931863Y-53011739D01*
X112899257Y-53073534D01*
X112842434Y-53106886D01*
X112837695Y-53108156D01*
X112837693Y-53108156D01*
X112741807Y-53163517D01*
X112741804Y-53163519D01*
X112663519Y-53241804D01*
X112663517Y-53241807D01*
X112608157Y-53337692D01*
X112608157Y-53337693D01*
X112585969Y-53420500D01*
X112579500Y-53444641D01*
X112579500Y-84699950D01*
X112559815Y-84766989D01*
X112507011Y-84812744D01*
X112437853Y-84822688D01*
X112374297Y-84793663D01*
X112348114Y-84761951D01*
X112336487Y-84741813D01*
X112336484Y-84741810D01*
X112336483Y-84741807D01*
X112258193Y-84663517D01*
X112162307Y-84608157D01*
X112055360Y-84579500D01*
X112055358Y-84579500D01*
X112044500Y-84579500D01*
X111977461Y-84559815D01*
X111931706Y-84507011D01*
X111920500Y-84455500D01*
X111920500Y-84444641D01*
X111915581Y-84426283D01*
X111891843Y-84337693D01*
X111836483Y-84241807D01*
X111758193Y-84163517D01*
X111662307Y-84108157D01*
X111555360Y-84079500D01*
X111555358Y-84079500D01*
X107544500Y-84079500D01*
X107477461Y-84059815D01*
X107431706Y-84007011D01*
X107420500Y-83955500D01*
X107420500Y-83944641D01*
X107420500Y-83944640D01*
X107391843Y-83837693D01*
X107336483Y-83741807D01*
X107258193Y-83663517D01*
X107162307Y-83608157D01*
X107055360Y-83579500D01*
X107055358Y-83579500D01*
X107044500Y-83579500D01*
X106977461Y-83559815D01*
X106931706Y-83507011D01*
X106920500Y-83455500D01*
X106920500Y-73463032D01*
X106940185Y-73395993D01*
X106992989Y-73350238D01*
X107062147Y-73340294D01*
X107125703Y-73369319D01*
X107132181Y-73375351D01*
X107177335Y-73420505D01*
X107177336Y-73420506D01*
X107177338Y-73420507D01*
X107206101Y-73437113D01*
X107297164Y-73489688D01*
X107430817Y-73525500D01*
X107430819Y-73525500D01*
X107569181Y-73525500D01*
X107569183Y-73525500D01*
X107702836Y-73489688D01*
X107822665Y-73420505D01*
X107912319Y-73330851D01*
X107973642Y-73297366D01*
X108043334Y-73302350D01*
X108087681Y-73330851D01*
X108177335Y-73420505D01*
X108177336Y-73420506D01*
X108177338Y-73420507D01*
X108206101Y-73437113D01*
X108297164Y-73489688D01*
X108430817Y-73525500D01*
X108430819Y-73525500D01*
X108569181Y-73525500D01*
X108569183Y-73525500D01*
X108702836Y-73489688D01*
X108822665Y-73420505D01*
X108920505Y-73322665D01*
X108989688Y-73202836D01*
X109024152Y-73074211D01*
X109060514Y-73014556D01*
X109123361Y-72984026D01*
X109192737Y-72992320D01*
X109200220Y-72995824D01*
X109338360Y-73066211D01*
X109338363Y-73066212D01*
X109417997Y-73092086D01*
X109510591Y-73122171D01*
X109593429Y-73135291D01*
X109689449Y-73150500D01*
X109689454Y-73150500D01*
X109870551Y-73150500D01*
X109957259Y-73136765D01*
X110049409Y-73122171D01*
X110221639Y-73066211D01*
X110382994Y-72983996D01*
X110529501Y-72877553D01*
X110657553Y-72749501D01*
X110763996Y-72602994D01*
X110846211Y-72441639D01*
X110902171Y-72269409D01*
X110916765Y-72177259D01*
X110930500Y-72090551D01*
X110930500Y-71909448D01*
X110903947Y-71741807D01*
X110902171Y-71730591D01*
X110874191Y-71644476D01*
X110846212Y-71558363D01*
X110846211Y-71558360D01*
X110803481Y-71474500D01*
X110763996Y-71397006D01*
X110744013Y-71369501D01*
X110657558Y-71250505D01*
X110657554Y-71250500D01*
X110529499Y-71122445D01*
X110529494Y-71122441D01*
X110382997Y-71016006D01*
X110382996Y-71016005D01*
X110382994Y-71016004D01*
X110307350Y-70977461D01*
X110221639Y-70933788D01*
X110221636Y-70933787D01*
X110049410Y-70877829D01*
X109870551Y-70849500D01*
X109870546Y-70849500D01*
X109689454Y-70849500D01*
X109689449Y-70849500D01*
X109510589Y-70877829D01*
X109338363Y-70933787D01*
X109338360Y-70933788D01*
X109177002Y-71016006D01*
X109030505Y-71122441D01*
X109030500Y-71122445D01*
X108902445Y-71250500D01*
X108902441Y-71250505D01*
X108796006Y-71397002D01*
X108713788Y-71558360D01*
X108713787Y-71558363D01*
X108657829Y-71730589D01*
X108632473Y-71890678D01*
X108602544Y-71953813D01*
X108543232Y-71990744D01*
X108473369Y-71989746D01*
X108415137Y-71951136D01*
X108387527Y-71890678D01*
X108363947Y-71741807D01*
X108362171Y-71730591D01*
X108334191Y-71644476D01*
X108306212Y-71558363D01*
X108306211Y-71558360D01*
X108263481Y-71474500D01*
X108223996Y-71397006D01*
X108204013Y-71369501D01*
X108117558Y-71250505D01*
X108117554Y-71250500D01*
X107989499Y-71122445D01*
X107989494Y-71122441D01*
X107842997Y-71016006D01*
X107842996Y-71016005D01*
X107842994Y-71016004D01*
X107767350Y-70977461D01*
X107681639Y-70933788D01*
X107681636Y-70933787D01*
X107509410Y-70877829D01*
X107330551Y-70849500D01*
X107330546Y-70849500D01*
X107149454Y-70849500D01*
X107149449Y-70849500D01*
X106970589Y-70877829D01*
X106798363Y-70933787D01*
X106798360Y-70933788D01*
X106637002Y-71016006D01*
X106490505Y-71122441D01*
X106490500Y-71122445D01*
X106362445Y-71250500D01*
X106362441Y-71250505D01*
X106256006Y-71397002D01*
X106173788Y-71558360D01*
X106173787Y-71558363D01*
X106117829Y-71730589D01*
X106092473Y-71890678D01*
X106062544Y-71953813D01*
X106003232Y-71990744D01*
X105933369Y-71989746D01*
X105875137Y-71951136D01*
X105847527Y-71890678D01*
X105823947Y-71741807D01*
X105822171Y-71730591D01*
X105794191Y-71644476D01*
X105766212Y-71558363D01*
X105766211Y-71558360D01*
X105723481Y-71474500D01*
X105683996Y-71397006D01*
X105664013Y-71369501D01*
X105577558Y-71250505D01*
X105577554Y-71250500D01*
X105449499Y-71122445D01*
X105449494Y-71122441D01*
X105302997Y-71016006D01*
X105302996Y-71016005D01*
X105302994Y-71016004D01*
X105227350Y-70977461D01*
X105141639Y-70933788D01*
X105141636Y-70933787D01*
X104969410Y-70877829D01*
X104790551Y-70849500D01*
X104790546Y-70849500D01*
X104609454Y-70849500D01*
X104609449Y-70849500D01*
X104430589Y-70877829D01*
X104258363Y-70933787D01*
X104258360Y-70933788D01*
X104097002Y-71016006D01*
X103950505Y-71122441D01*
X103950500Y-71122445D01*
X103822445Y-71250500D01*
X103822441Y-71250505D01*
X103716006Y-71397002D01*
X103633788Y-71558360D01*
X103633787Y-71558363D01*
X103577829Y-71730589D01*
X103552473Y-71890678D01*
X103522544Y-71953813D01*
X103463232Y-71990744D01*
X103393369Y-71989746D01*
X103335137Y-71951136D01*
X103307527Y-71890678D01*
X103283947Y-71741807D01*
X103282171Y-71730591D01*
X103254191Y-71644476D01*
X103226212Y-71558363D01*
X103226211Y-71558360D01*
X103183481Y-71474500D01*
X103143996Y-71397006D01*
X103124013Y-71369501D01*
X103037558Y-71250505D01*
X103037554Y-71250500D01*
X102909499Y-71122445D01*
X102909494Y-71122441D01*
X102762997Y-71016006D01*
X102762996Y-71016005D01*
X102762994Y-71016004D01*
X102687350Y-70977461D01*
X102601639Y-70933788D01*
X102601636Y-70933787D01*
X102429410Y-70877829D01*
X102250551Y-70849500D01*
X102250546Y-70849500D01*
X102069454Y-70849500D01*
X102069449Y-70849500D01*
X101890589Y-70877829D01*
X101718363Y-70933787D01*
X101718360Y-70933788D01*
X101590160Y-70999111D01*
X101521491Y-71012007D01*
X101456750Y-70985731D01*
X101416493Y-70928625D01*
X101414094Y-70920734D01*
X101391843Y-70837693D01*
X101336483Y-70741807D01*
X101258193Y-70663517D01*
X101162307Y-70608157D01*
X101055360Y-70579500D01*
X101055358Y-70579500D01*
X101044500Y-70579500D01*
X100977461Y-70559815D01*
X100931706Y-70507011D01*
X100920500Y-70455500D01*
X100920500Y-70444641D01*
X100896721Y-70355899D01*
X100891843Y-70337693D01*
X100836483Y-70241807D01*
X100758193Y-70163517D01*
X100662307Y-70108157D01*
X100555360Y-70079500D01*
X100555358Y-70079500D01*
X99044500Y-70079500D01*
X98977461Y-70059815D01*
X98931706Y-70007011D01*
X98920500Y-69955500D01*
X98920500Y-69944641D01*
X98916796Y-69930817D01*
X98891843Y-69837693D01*
X98836483Y-69741807D01*
X98758193Y-69663517D01*
X98662307Y-69608157D01*
X98555360Y-69579500D01*
X98555358Y-69579500D01*
X94355899Y-69579500D01*
X94293899Y-69562887D01*
X94202838Y-69510313D01*
X94202837Y-69510312D01*
X94202836Y-69510312D01*
X94069183Y-69474500D01*
X93930817Y-69474500D01*
X93797164Y-69510312D01*
X93797161Y-69510313D01*
X93677338Y-69579492D01*
X93677333Y-69579496D01*
X93579496Y-69677333D01*
X93579492Y-69677338D01*
X93510313Y-69797161D01*
X93510312Y-69797164D01*
X93474500Y-69930817D01*
X93474500Y-70069183D01*
X93482970Y-70100795D01*
X93512416Y-70210687D01*
X93511107Y-70211037D01*
X93517659Y-70272026D01*
X93510668Y-70295833D01*
X93474500Y-70430817D01*
X93474500Y-70569183D01*
X93499453Y-70662307D01*
X93510312Y-70702835D01*
X93510313Y-70702838D01*
X93579492Y-70822661D01*
X93579494Y-70822664D01*
X93579495Y-70822665D01*
X93677335Y-70920505D01*
X93677336Y-70920506D01*
X93677338Y-70920507D01*
X93737154Y-70955042D01*
X93785370Y-71005609D01*
X93798593Y-71074216D01*
X93772625Y-71139081D01*
X93762836Y-71150110D01*
X93662440Y-71250506D01*
X93574318Y-71371797D01*
X93518988Y-71414463D01*
X93449375Y-71420442D01*
X93387580Y-71387836D01*
X93353223Y-71326998D01*
X93350000Y-71298912D01*
X93350000Y-71102172D01*
X93349999Y-71102155D01*
X93343598Y-71042627D01*
X93343596Y-71042620D01*
X93293354Y-70907913D01*
X93293350Y-70907906D01*
X93207190Y-70792812D01*
X93207187Y-70792809D01*
X93092093Y-70706649D01*
X93092086Y-70706645D01*
X92957379Y-70656403D01*
X92957372Y-70656401D01*
X92897844Y-70650000D01*
X92250000Y-70650000D01*
X92250000Y-71566988D01*
X92192993Y-71534075D01*
X92065826Y-71500000D01*
X91934174Y-71500000D01*
X91807007Y-71534075D01*
X91750000Y-71566988D01*
X91750000Y-70650000D01*
X91102169Y-70650000D01*
X91057754Y-70654775D01*
X90988995Y-70642369D01*
X90937858Y-70594758D01*
X90920500Y-70531485D01*
X90920500Y-64544500D01*
X90940185Y-64477461D01*
X90992989Y-64431706D01*
X91044500Y-64420500D01*
X92644101Y-64420500D01*
X92706101Y-64437113D01*
X92797164Y-64489688D01*
X92930817Y-64525500D01*
X92930819Y-64525500D01*
X93069181Y-64525500D01*
X93069183Y-64525500D01*
X93202836Y-64489688D01*
X93322665Y-64420505D01*
X93420505Y-64322665D01*
X93489688Y-64202836D01*
X93525500Y-64069183D01*
X93525500Y-63930817D01*
X93489688Y-63797164D01*
X93420505Y-63677335D01*
X93322665Y-63579495D01*
X93322664Y-63579494D01*
X93322661Y-63579492D01*
X93202838Y-63510313D01*
X93202837Y-63510312D01*
X93202836Y-63510312D01*
X93069183Y-63474500D01*
X92930817Y-63474500D01*
X92797164Y-63510312D01*
X92797161Y-63510313D01*
X92706101Y-63562887D01*
X92644101Y-63579500D01*
X85443399Y-63579500D01*
X85381399Y-63562887D01*
X85290338Y-63510313D01*
X85290337Y-63510312D01*
X85290336Y-63510312D01*
X85156683Y-63474500D01*
X85018317Y-63474500D01*
X84884664Y-63510312D01*
X84884661Y-63510313D01*
X84793601Y-63562887D01*
X84731601Y-63579500D01*
X80268399Y-63579500D01*
X80260275Y-63577887D01*
X80255238Y-63578800D01*
X80240213Y-63573904D01*
X80221033Y-63570097D01*
X80213479Y-63566975D01*
X80115336Y-63510312D01*
X80004604Y-63480641D01*
X79997134Y-63477554D01*
X79975955Y-63460513D01*
X79952746Y-63446366D01*
X79949135Y-63438933D01*
X79942698Y-63433754D01*
X79934093Y-63407967D01*
X79922217Y-63383519D01*
X79920976Y-63368657D01*
X79920582Y-63367477D01*
X79920804Y-63366602D01*
X79920500Y-63362957D01*
X79920500Y-60637042D01*
X79940185Y-60570003D01*
X79992989Y-60524248D01*
X80012400Y-60517269D01*
X80115336Y-60489688D01*
X80206399Y-60437113D01*
X80268399Y-60420500D01*
X84731601Y-60420500D01*
X84793601Y-60437113D01*
X84884664Y-60489688D01*
X85018317Y-60525500D01*
X85018319Y-60525500D01*
X85156681Y-60525500D01*
X85156683Y-60525500D01*
X85290336Y-60489688D01*
X85381399Y-60437113D01*
X85443399Y-60420500D01*
X92644101Y-60420500D01*
X92706101Y-60437113D01*
X92797164Y-60489688D01*
X92930817Y-60525500D01*
X92930819Y-60525500D01*
X93069181Y-60525500D01*
X93069183Y-60525500D01*
X93202836Y-60489688D01*
X93322665Y-60420505D01*
X93420505Y-60322665D01*
X93489688Y-60202836D01*
X93525500Y-60069183D01*
X93525500Y-59930817D01*
X93489688Y-59797164D01*
X93420505Y-59677335D01*
X93322665Y-59579495D01*
X93322664Y-59579494D01*
X93322661Y-59579492D01*
X93202838Y-59510313D01*
X93202837Y-59510312D01*
X93202836Y-59510312D01*
X93069183Y-59474500D01*
X92930817Y-59474500D01*
X92797164Y-59510312D01*
X92797161Y-59510313D01*
X92706101Y-59562887D01*
X92644101Y-59579500D01*
X85443399Y-59579500D01*
X85381399Y-59562887D01*
X85290338Y-59510313D01*
X85290337Y-59510312D01*
X85290336Y-59510312D01*
X85156683Y-59474500D01*
X85018317Y-59474500D01*
X84884664Y-59510312D01*
X84884661Y-59510313D01*
X84793601Y-59562887D01*
X84731601Y-59579500D01*
X80544500Y-59579500D01*
X80477461Y-59559815D01*
X80431706Y-59507011D01*
X80420500Y-59455500D01*
X80420500Y-56544500D01*
X80440185Y-56477461D01*
X80492989Y-56431706D01*
X80544500Y-56420500D01*
X84731601Y-56420500D01*
X84793601Y-56437113D01*
X84884664Y-56489688D01*
X85018317Y-56525500D01*
X85018319Y-56525500D01*
X85156681Y-56525500D01*
X85156683Y-56525500D01*
X85290336Y-56489688D01*
X85381399Y-56437113D01*
X85443399Y-56420500D01*
X92644101Y-56420500D01*
X92706101Y-56437113D01*
X92797164Y-56489688D01*
X92930817Y-56525500D01*
X92930819Y-56525500D01*
X93069181Y-56525500D01*
X93069183Y-56525500D01*
X93202836Y-56489688D01*
X93322665Y-56420505D01*
X93420505Y-56322665D01*
X93489688Y-56202836D01*
X93525500Y-56069183D01*
X93525500Y-55930817D01*
X93489688Y-55797164D01*
X93420505Y-55677335D01*
X93322665Y-55579495D01*
X93322664Y-55579494D01*
X93322661Y-55579492D01*
X93202838Y-55510313D01*
X93202837Y-55510312D01*
X93202836Y-55510312D01*
X93069183Y-55474500D01*
X92930817Y-55474500D01*
X92797164Y-55510312D01*
X92797161Y-55510313D01*
X92706101Y-55562887D01*
X92644101Y-55579500D01*
X85443399Y-55579500D01*
X85381399Y-55562887D01*
X85290338Y-55510313D01*
X85290337Y-55510312D01*
X85290336Y-55510312D01*
X85156683Y-55474500D01*
X85018317Y-55474500D01*
X84884664Y-55510312D01*
X84884661Y-55510313D01*
X84793601Y-55562887D01*
X84731601Y-55579500D01*
X81044500Y-55579500D01*
X80977461Y-55559815D01*
X80931706Y-55507011D01*
X80920500Y-55455500D01*
X80920500Y-54444641D01*
X80916796Y-54430817D01*
X80896907Y-54356591D01*
X80898570Y-54286745D01*
X80937732Y-54228882D01*
X81001960Y-54201377D01*
X81016682Y-54200500D01*
X109568995Y-54200500D01*
X109660041Y-54182389D01*
X109704328Y-54173580D01*
X109831811Y-54120775D01*
X109946542Y-54044114D01*
X110044114Y-53946542D01*
X110120775Y-53831811D01*
X110162930Y-53730038D01*
X110206770Y-53675635D01*
X110230039Y-53662930D01*
X110231544Y-53662307D01*
X110331811Y-53620775D01*
X110446542Y-53544114D01*
X110544114Y-53446542D01*
X110620775Y-53331811D01*
X110651268Y-53258195D01*
X110675911Y-53198701D01*
X110678174Y-53199638D01*
X110710529Y-53150212D01*
X110774326Y-53121722D01*
X110810339Y-53122131D01*
X110810590Y-53122170D01*
X110810591Y-53122171D01*
X110828120Y-53124947D01*
X110989449Y-53150500D01*
X110989454Y-53150500D01*
X111170551Y-53150500D01*
X111257259Y-53136765D01*
X111349409Y-53122171D01*
X111521639Y-53066211D01*
X111682994Y-52983996D01*
X111829501Y-52877553D01*
X111957553Y-52749501D01*
X112063996Y-52602994D01*
X112146211Y-52441639D01*
X112146210Y-52441639D01*
X112148423Y-52437298D01*
X112149507Y-52437850D01*
X112167832Y-52415404D01*
X112189507Y-52388489D01*
X112189918Y-52388351D01*
X112190192Y-52388017D01*
X112223062Y-52377308D01*
X112255794Y-52366402D01*
X112256216Y-52366507D01*
X112256625Y-52366374D01*
X112291692Y-52370370D01*
G37*
%TD.AperFunction*%
%TA.AperFunction,Conductor*%
G36*
X106006630Y-72010253D02*
G01*
X106064863Y-72048863D01*
X106092473Y-72109321D01*
X106117829Y-72269410D01*
X106173787Y-72441636D01*
X106173789Y-72441639D01*
X106180617Y-72455040D01*
X106193513Y-72523709D01*
X106167237Y-72588450D01*
X106157814Y-72599016D01*
X106079492Y-72677338D01*
X106010313Y-72797161D01*
X106010312Y-72797164D01*
X105974500Y-72930817D01*
X105974500Y-73069183D01*
X105999453Y-73162307D01*
X106010312Y-73202835D01*
X106010313Y-73202838D01*
X106062887Y-73293899D01*
X106079500Y-73355899D01*
X106079500Y-83955500D01*
X106059815Y-84022539D01*
X106007011Y-84068294D01*
X105955500Y-84079500D01*
X95544500Y-84079500D01*
X95477461Y-84059815D01*
X95431706Y-84007011D01*
X95420500Y-83955500D01*
X95420500Y-83944641D01*
X95420500Y-83944640D01*
X95391843Y-83837693D01*
X95336483Y-83741807D01*
X95258193Y-83663517D01*
X95162307Y-83608157D01*
X95055360Y-83579500D01*
X95055358Y-83579500D01*
X91355899Y-83579500D01*
X91293899Y-83562887D01*
X91202838Y-83510313D01*
X91202837Y-83510312D01*
X91202836Y-83510312D01*
X91069183Y-83474500D01*
X91044500Y-83474500D01*
X90977461Y-83454815D01*
X90931706Y-83402011D01*
X90920500Y-83350500D01*
X90920500Y-73468514D01*
X90940185Y-73401475D01*
X90992989Y-73355720D01*
X91057757Y-73345225D01*
X91102158Y-73349999D01*
X91102172Y-73350000D01*
X91750000Y-73350000D01*
X91750000Y-72433012D01*
X91807007Y-72465925D01*
X91934174Y-72500000D01*
X92065826Y-72500000D01*
X92192993Y-72465925D01*
X92250000Y-72433012D01*
X92250000Y-73350000D01*
X92897828Y-73350000D01*
X92897844Y-73349999D01*
X92957372Y-73343598D01*
X92957379Y-73343596D01*
X93092086Y-73293354D01*
X93092093Y-73293350D01*
X93207187Y-73207190D01*
X93207190Y-73207187D01*
X93293350Y-73092093D01*
X93293354Y-73092086D01*
X93343596Y-72957379D01*
X93343598Y-72957372D01*
X93349999Y-72897844D01*
X93350000Y-72897827D01*
X93350000Y-72701087D01*
X93369685Y-72634048D01*
X93422489Y-72588293D01*
X93491647Y-72578349D01*
X93555203Y-72607374D01*
X93574318Y-72628202D01*
X93662441Y-72749495D01*
X93790500Y-72877554D01*
X93790505Y-72877558D01*
X93876705Y-72940185D01*
X93937006Y-72983996D01*
X94042484Y-73037740D01*
X94098360Y-73066211D01*
X94098363Y-73066212D01*
X94177997Y-73092086D01*
X94270591Y-73122171D01*
X94353429Y-73135291D01*
X94449449Y-73150500D01*
X94449454Y-73150500D01*
X94630551Y-73150500D01*
X94717259Y-73136765D01*
X94809409Y-73122171D01*
X94981639Y-73066211D01*
X95142994Y-72983996D01*
X95289501Y-72877553D01*
X95417553Y-72749501D01*
X95523996Y-72602994D01*
X95606211Y-72441639D01*
X95662171Y-72269409D01*
X95676422Y-72179425D01*
X95687527Y-72109321D01*
X95717456Y-72046186D01*
X95776768Y-72009255D01*
X95846630Y-72010253D01*
X95904863Y-72048863D01*
X95932473Y-72109321D01*
X95957829Y-72269410D01*
X96013787Y-72441636D01*
X96013788Y-72441639D01*
X96062362Y-72536968D01*
X96093977Y-72599016D01*
X96096006Y-72602997D01*
X96202441Y-72749494D01*
X96202445Y-72749499D01*
X96330500Y-72877554D01*
X96330505Y-72877558D01*
X96416705Y-72940185D01*
X96477006Y-72983996D01*
X96582484Y-73037740D01*
X96638360Y-73066211D01*
X96638363Y-73066212D01*
X96717997Y-73092086D01*
X96810591Y-73122171D01*
X96893429Y-73135291D01*
X96989449Y-73150500D01*
X96989454Y-73150500D01*
X97170551Y-73150500D01*
X97257259Y-73136765D01*
X97349409Y-73122171D01*
X97521639Y-73066211D01*
X97682994Y-72983996D01*
X97829501Y-72877553D01*
X97957553Y-72749501D01*
X98063996Y-72602994D01*
X98146211Y-72441639D01*
X98146210Y-72441639D01*
X98148423Y-72437298D01*
X98149684Y-72437940D01*
X98189507Y-72388489D01*
X98255794Y-72366402D01*
X98291692Y-72370370D01*
X98307820Y-72374596D01*
X98337693Y-72391843D01*
X98444640Y-72420500D01*
X98483008Y-72420500D01*
X98498461Y-72424549D01*
X98515260Y-72434661D01*
X98534070Y-72440185D01*
X98545593Y-72452921D01*
X98558322Y-72460584D01*
X98565250Y-72474647D01*
X98577515Y-72488204D01*
X98633977Y-72599016D01*
X98636006Y-72602997D01*
X98742441Y-72749494D01*
X98742445Y-72749499D01*
X98870500Y-72877554D01*
X98870505Y-72877558D01*
X98956705Y-72940185D01*
X99017006Y-72983996D01*
X99122484Y-73037740D01*
X99178360Y-73066211D01*
X99178363Y-73066212D01*
X99257997Y-73092086D01*
X99350591Y-73122171D01*
X99433429Y-73135291D01*
X99529449Y-73150500D01*
X99529454Y-73150500D01*
X99710551Y-73150500D01*
X99797259Y-73136765D01*
X99889409Y-73122171D01*
X100061639Y-73066211D01*
X100222994Y-72983996D01*
X100369501Y-72877553D01*
X100497553Y-72749501D01*
X100603996Y-72602994D01*
X100681522Y-72450840D01*
X100729497Y-72400045D01*
X100797318Y-72383250D01*
X100813236Y-72384967D01*
X100831185Y-72388086D01*
X100837693Y-72391843D01*
X100944640Y-72420500D01*
X101017723Y-72420500D01*
X101028260Y-72422331D01*
X101050396Y-72433233D01*
X101074070Y-72440185D01*
X101081753Y-72448677D01*
X101090940Y-72453202D01*
X101101070Y-72470028D01*
X101117515Y-72488204D01*
X101173977Y-72599016D01*
X101176006Y-72602997D01*
X101282441Y-72749494D01*
X101282445Y-72749499D01*
X101410500Y-72877554D01*
X101410505Y-72877558D01*
X101496705Y-72940185D01*
X101557006Y-72983996D01*
X101662484Y-73037740D01*
X101718360Y-73066211D01*
X101718363Y-73066212D01*
X101797997Y-73092086D01*
X101890591Y-73122171D01*
X101973429Y-73135291D01*
X102069449Y-73150500D01*
X102069454Y-73150500D01*
X102250551Y-73150500D01*
X102337259Y-73136765D01*
X102429409Y-73122171D01*
X102601639Y-73066211D01*
X102762994Y-72983996D01*
X102909501Y-72877553D01*
X103037553Y-72749501D01*
X103143996Y-72602994D01*
X103226211Y-72441639D01*
X103282171Y-72269409D01*
X103296422Y-72179425D01*
X103307527Y-72109321D01*
X103337456Y-72046186D01*
X103396768Y-72009255D01*
X103466630Y-72010253D01*
X103524863Y-72048863D01*
X103552473Y-72109321D01*
X103577829Y-72269410D01*
X103633787Y-72441636D01*
X103633788Y-72441639D01*
X103682362Y-72536968D01*
X103713977Y-72599016D01*
X103716006Y-72602997D01*
X103822441Y-72749494D01*
X103822445Y-72749499D01*
X103950500Y-72877554D01*
X103950505Y-72877558D01*
X104036705Y-72940185D01*
X104097006Y-72983996D01*
X104202484Y-73037740D01*
X104258360Y-73066211D01*
X104258363Y-73066212D01*
X104337997Y-73092086D01*
X104430591Y-73122171D01*
X104513429Y-73135291D01*
X104609449Y-73150500D01*
X104609454Y-73150500D01*
X104790551Y-73150500D01*
X104877259Y-73136765D01*
X104969409Y-73122171D01*
X105141639Y-73066211D01*
X105302994Y-72983996D01*
X105449501Y-72877553D01*
X105577553Y-72749501D01*
X105683996Y-72602994D01*
X105766211Y-72441639D01*
X105822171Y-72269409D01*
X105836422Y-72179425D01*
X105847527Y-72109321D01*
X105877456Y-72046186D01*
X105936768Y-72009255D01*
X106006630Y-72010253D01*
G37*
%TD.AperFunction*%
%TA.AperFunction,Conductor*%
G36*
X16125703Y-66293203D02*
G01*
X16132181Y-66299235D01*
X16250500Y-66417554D01*
X16250505Y-66417558D01*
X16378171Y-66510312D01*
X16397006Y-66523996D01*
X16498780Y-66575853D01*
X16528684Y-66591090D01*
X16579480Y-66639065D01*
X16596275Y-66706886D01*
X16573737Y-66773021D01*
X16519022Y-66816472D01*
X16510708Y-66819506D01*
X16481781Y-66828905D01*
X16292439Y-66925380D01*
X16238282Y-66964727D01*
X16238282Y-66964728D01*
X16870591Y-67597037D01*
X16807007Y-67614075D01*
X16692993Y-67679901D01*
X16599901Y-67772993D01*
X16534075Y-67887007D01*
X16517037Y-67950591D01*
X15956819Y-67390373D01*
X15923334Y-67329050D01*
X15920500Y-67302692D01*
X15920500Y-66386916D01*
X15940185Y-66319877D01*
X15992989Y-66274122D01*
X16062147Y-66264178D01*
X16125703Y-66293203D01*
G37*
%TD.AperFunction*%
%TA.AperFunction,Conductor*%
G36*
X17998834Y-66270734D02*
G01*
X18054767Y-66312606D01*
X18079184Y-66378070D01*
X18079500Y-66386916D01*
X18079500Y-67302692D01*
X18059815Y-67369731D01*
X18043181Y-67390373D01*
X17482962Y-67950591D01*
X17465925Y-67887007D01*
X17400099Y-67772993D01*
X17307007Y-67679901D01*
X17192993Y-67614075D01*
X17129409Y-67597037D01*
X17761716Y-66964728D01*
X17707550Y-66925375D01*
X17518217Y-66828904D01*
X17489292Y-66819506D01*
X17431616Y-66780068D01*
X17404418Y-66715710D01*
X17416333Y-66646863D01*
X17463577Y-66595388D01*
X17471315Y-66591090D01*
X17602994Y-66523996D01*
X17749501Y-66417553D01*
X17867819Y-66299235D01*
X17929142Y-66265750D01*
X17998834Y-66270734D01*
G37*
%TD.AperFunction*%
%TA.AperFunction,Conductor*%
G36*
X84532151Y-45202578D02*
G01*
X84572680Y-45259492D01*
X84579500Y-45300049D01*
X84579500Y-45850500D01*
X84559815Y-45917539D01*
X84507011Y-45963294D01*
X84455500Y-45974500D01*
X84330817Y-45974500D01*
X84197164Y-46010312D01*
X84197161Y-46010313D01*
X84077338Y-46079492D01*
X84077333Y-46079496D01*
X83979496Y-46177333D01*
X83979492Y-46177338D01*
X83910313Y-46297161D01*
X83910312Y-46297164D01*
X83874500Y-46430817D01*
X83874500Y-46569183D01*
X83904204Y-46680038D01*
X83910312Y-46702835D01*
X83910313Y-46702838D01*
X83979492Y-46822661D01*
X83979494Y-46822664D01*
X83979495Y-46822665D01*
X84077335Y-46920505D01*
X84197164Y-46989688D01*
X84330817Y-47025500D01*
X84330819Y-47025500D01*
X84455500Y-47025500D01*
X84522539Y-47045185D01*
X84568294Y-47097989D01*
X84579500Y-47149500D01*
X84579500Y-49555360D01*
X84608157Y-49662307D01*
X84663517Y-49758193D01*
X84741807Y-49836483D01*
X84837693Y-49891843D01*
X84944640Y-49920500D01*
X85055360Y-49920500D01*
X107771846Y-49920500D01*
X107838885Y-49940185D01*
X107884640Y-49992989D01*
X107889777Y-50006183D01*
X107933786Y-50141633D01*
X107933788Y-50141639D01*
X108016006Y-50302997D01*
X108122441Y-50449494D01*
X108122445Y-50449499D01*
X108122447Y-50449501D01*
X108250499Y-50577553D01*
X108351228Y-50650737D01*
X108393894Y-50706066D01*
X108399873Y-50775680D01*
X108367268Y-50837475D01*
X108306429Y-50871832D01*
X108297744Y-50873528D01*
X108270587Y-50877829D01*
X108098363Y-50933787D01*
X108098360Y-50933788D01*
X107937002Y-51016006D01*
X107790505Y-51122441D01*
X107790500Y-51122445D01*
X107662445Y-51250500D01*
X107662441Y-51250505D01*
X107574318Y-51371797D01*
X107518988Y-51414463D01*
X107449375Y-51420442D01*
X107387580Y-51387836D01*
X107353223Y-51326998D01*
X107350000Y-51298912D01*
X107350000Y-51102172D01*
X107349999Y-51102155D01*
X107343598Y-51042627D01*
X107343596Y-51042620D01*
X107293354Y-50907913D01*
X107293350Y-50907906D01*
X107207190Y-50792812D01*
X107207187Y-50792809D01*
X107092093Y-50706649D01*
X107092086Y-50706645D01*
X106957379Y-50656403D01*
X106957372Y-50656401D01*
X106897844Y-50650000D01*
X106250000Y-50650000D01*
X106250000Y-51566988D01*
X106192993Y-51534075D01*
X106065826Y-51500000D01*
X105934174Y-51500000D01*
X105807007Y-51534075D01*
X105750000Y-51566988D01*
X105750000Y-50650000D01*
X105102155Y-50650000D01*
X105042627Y-50656401D01*
X105042620Y-50656403D01*
X104907913Y-50706645D01*
X104907906Y-50706649D01*
X104792812Y-50792809D01*
X104792809Y-50792812D01*
X104706649Y-50907906D01*
X104706645Y-50907913D01*
X104656403Y-51042620D01*
X104656401Y-51042627D01*
X104650000Y-51102155D01*
X104650000Y-51750000D01*
X105566988Y-51750000D01*
X105534075Y-51807007D01*
X105500000Y-51934174D01*
X105500000Y-52065826D01*
X105534075Y-52192993D01*
X105566988Y-52250000D01*
X104650000Y-52250000D01*
X104650000Y-52675500D01*
X104630315Y-52742539D01*
X104577511Y-52788294D01*
X104526000Y-52799500D01*
X65562628Y-52799500D01*
X65551110Y-52796117D01*
X65539160Y-52797259D01*
X65518204Y-52786455D01*
X65495589Y-52779815D01*
X65486177Y-52769944D01*
X65477058Y-52765243D01*
X65455241Y-52737500D01*
X65440230Y-52711500D01*
X65423757Y-52643599D01*
X65446610Y-52577573D01*
X65501531Y-52534382D01*
X65547617Y-52525500D01*
X65569181Y-52525500D01*
X65569183Y-52525500D01*
X65702836Y-52489688D01*
X65793899Y-52437113D01*
X65855899Y-52420500D01*
X66055358Y-52420500D01*
X66055360Y-52420500D01*
X66162307Y-52391843D01*
X66258193Y-52336483D01*
X66336483Y-52258193D01*
X66391843Y-52162307D01*
X66420500Y-52055360D01*
X66420500Y-46044500D01*
X66440185Y-45977461D01*
X66492989Y-45931706D01*
X66544500Y-45920500D01*
X73936968Y-45920500D01*
X74004007Y-45940185D01*
X74049762Y-45992989D01*
X74059706Y-46062147D01*
X74030681Y-46125703D01*
X74024649Y-46132181D01*
X73979496Y-46177333D01*
X73979492Y-46177338D01*
X73910313Y-46297161D01*
X73910312Y-46297164D01*
X73874500Y-46430817D01*
X73874500Y-46569183D01*
X73904204Y-46680038D01*
X73910312Y-46702835D01*
X73910313Y-46702838D01*
X73979492Y-46822661D01*
X73979494Y-46822664D01*
X73979495Y-46822665D01*
X74077335Y-46920505D01*
X74197164Y-46989688D01*
X74330817Y-47025500D01*
X74330819Y-47025500D01*
X74469181Y-47025500D01*
X74469183Y-47025500D01*
X74602836Y-46989688D01*
X74722665Y-46920505D01*
X74820505Y-46822665D01*
X74889688Y-46702836D01*
X74925500Y-46569183D01*
X74925500Y-46430817D01*
X74889688Y-46297164D01*
X74852692Y-46233084D01*
X74820507Y-46177338D01*
X74820503Y-46177333D01*
X74775351Y-46132181D01*
X74741866Y-46070858D01*
X74746850Y-46001166D01*
X74788722Y-45945233D01*
X74854186Y-45920816D01*
X74863032Y-45920500D01*
X81055358Y-45920500D01*
X81055360Y-45920500D01*
X81162307Y-45891843D01*
X81258193Y-45836483D01*
X81336483Y-45758193D01*
X81391843Y-45662307D01*
X81420500Y-45555360D01*
X81420500Y-45544500D01*
X81440185Y-45477461D01*
X81492989Y-45431706D01*
X81544500Y-45420500D01*
X84055358Y-45420500D01*
X84055360Y-45420500D01*
X84162307Y-45391843D01*
X84258193Y-45336483D01*
X84336483Y-45258193D01*
X84348113Y-45238048D01*
X84398680Y-45189834D01*
X84467287Y-45176610D01*
X84532151Y-45202578D01*
G37*
%TD.AperFunction*%
%TA.AperFunction,Conductor*%
G36*
X17706101Y-40437113D02*
G01*
X17797164Y-40489688D01*
X17930817Y-40525500D01*
X17930819Y-40525500D01*
X17955500Y-40525500D01*
X17964185Y-40528050D01*
X17973147Y-40526762D01*
X17997187Y-40537740D01*
X18022539Y-40545185D01*
X18028466Y-40552025D01*
X18036703Y-40555787D01*
X18050992Y-40578021D01*
X18068294Y-40597989D01*
X18070581Y-40608503D01*
X18074477Y-40614565D01*
X18079500Y-40649500D01*
X18079500Y-40733568D01*
X18059815Y-40800607D01*
X18007011Y-40846362D01*
X17937853Y-40856306D01*
X17922950Y-40853219D01*
X17919998Y-40852415D01*
X17894865Y-40849500D01*
X16105143Y-40849500D01*
X16105117Y-40849502D01*
X16080012Y-40852413D01*
X16080008Y-40852415D01*
X15977235Y-40897793D01*
X15897794Y-40977234D01*
X15852415Y-41080006D01*
X15852415Y-41080008D01*
X15849500Y-41105131D01*
X15849500Y-42894856D01*
X15849502Y-42894882D01*
X15852413Y-42919987D01*
X15852415Y-42919991D01*
X15897793Y-43022764D01*
X15897794Y-43022765D01*
X15977235Y-43102206D01*
X16080009Y-43147585D01*
X16105135Y-43150500D01*
X16236923Y-43150499D01*
X16303960Y-43170183D01*
X16349715Y-43222987D01*
X16359659Y-43292145D01*
X16330635Y-43355701D01*
X16296387Y-43382507D01*
X16296590Y-43382838D01*
X16293715Y-43384599D01*
X16293239Y-43384972D01*
X16292451Y-43385373D01*
X16292440Y-43385380D01*
X16238282Y-43424727D01*
X16238282Y-43424728D01*
X16870591Y-44057037D01*
X16807007Y-44074075D01*
X16692993Y-44139901D01*
X16599901Y-44232993D01*
X16534075Y-44347007D01*
X16517037Y-44410591D01*
X15884728Y-43778282D01*
X15884727Y-43778282D01*
X15845380Y-43832439D01*
X15748904Y-44021782D01*
X15683242Y-44223869D01*
X15683242Y-44223872D01*
X15650000Y-44433753D01*
X15650000Y-44646246D01*
X15683242Y-44856127D01*
X15683242Y-44856130D01*
X15748904Y-45058217D01*
X15845375Y-45247550D01*
X15884728Y-45301716D01*
X16517037Y-44669408D01*
X16534075Y-44732993D01*
X16599901Y-44847007D01*
X16692993Y-44940099D01*
X16807007Y-45005925D01*
X16870590Y-45022962D01*
X16238282Y-45655269D01*
X16238282Y-45655270D01*
X16292449Y-45694624D01*
X16481780Y-45791094D01*
X16510705Y-45800492D01*
X16568381Y-45839929D01*
X16595580Y-45904287D01*
X16583667Y-45973134D01*
X16536424Y-46024610D01*
X16528685Y-46028908D01*
X16397004Y-46096004D01*
X16250505Y-46202441D01*
X16250500Y-46202445D01*
X16189765Y-46263181D01*
X16128442Y-46296666D01*
X16102084Y-46299500D01*
X15431005Y-46299500D01*
X15295677Y-46326418D01*
X15295667Y-46326421D01*
X15168195Y-46379221D01*
X15168177Y-46379231D01*
X15113390Y-46415839D01*
X15046713Y-46436717D01*
X14979333Y-46418232D01*
X14932643Y-46366253D01*
X14920500Y-46312737D01*
X14920500Y-40544500D01*
X14940185Y-40477461D01*
X14992989Y-40431706D01*
X15044500Y-40420500D01*
X17644101Y-40420500D01*
X17706101Y-40437113D01*
G37*
%TD.AperFunction*%
%TA.AperFunction,Conductor*%
G36*
X18043181Y-45229627D02*
G01*
X18076666Y-45290950D01*
X18079500Y-45317308D01*
X18079500Y-46233084D01*
X18059815Y-46300123D01*
X18007011Y-46345878D01*
X17937853Y-46355822D01*
X17874297Y-46326797D01*
X17867819Y-46320765D01*
X17749499Y-46202445D01*
X17749494Y-46202441D01*
X17602995Y-46096004D01*
X17471314Y-46028908D01*
X17420519Y-45980934D01*
X17403724Y-45913113D01*
X17426262Y-45846978D01*
X17480977Y-45803527D01*
X17489295Y-45800492D01*
X17518217Y-45791095D01*
X17707554Y-45694622D01*
X17761716Y-45655270D01*
X17761717Y-45655270D01*
X17129408Y-45022962D01*
X17192993Y-45005925D01*
X17307007Y-44940099D01*
X17400099Y-44847007D01*
X17465925Y-44732993D01*
X17482962Y-44669408D01*
X18043181Y-45229627D01*
G37*
%TD.AperFunction*%
%TA.AperFunction,Conductor*%
G36*
X17971233Y-43147743D02*
G01*
X17992797Y-43148173D01*
X18004469Y-43156007D01*
X18018111Y-43159399D01*
X18032903Y-43175090D01*
X18050811Y-43187110D01*
X18056395Y-43200012D01*
X18066037Y-43210240D01*
X18069997Y-43231436D01*
X18078565Y-43251231D01*
X18079500Y-43266431D01*
X18079500Y-43762692D01*
X18059815Y-43829731D01*
X18043181Y-43850373D01*
X17482962Y-44410591D01*
X17465925Y-44347007D01*
X17400099Y-44232993D01*
X17307007Y-44139901D01*
X17192993Y-44074075D01*
X17129409Y-44057037D01*
X17761716Y-43424728D01*
X17707550Y-43385375D01*
X17706786Y-43384986D01*
X17706546Y-43384759D01*
X17703396Y-43382829D01*
X17703698Y-43382334D01*
X17700466Y-43381531D01*
X17678878Y-43358630D01*
X17655988Y-43337013D01*
X17655092Y-43333397D01*
X17652540Y-43330690D01*
X17646759Y-43299752D01*
X17639191Y-43269192D01*
X17640391Y-43265668D01*
X17639708Y-43262009D01*
X17651572Y-43232855D01*
X17661726Y-43203057D01*
X17664641Y-43200741D01*
X17666045Y-43197293D01*
X17691792Y-43179178D01*
X17716440Y-43159604D01*
X17721032Y-43158607D01*
X17723189Y-43157090D01*
X17743424Y-43153746D01*
X17757882Y-43150608D01*
X17760479Y-43150499D01*
X17894864Y-43150499D01*
X17919991Y-43147585D01*
X17929435Y-43143415D01*
X17950305Y-43142540D01*
X17971233Y-43147743D01*
G37*
%TD.AperFunction*%
%TA.AperFunction,Conductor*%
G36*
X107546506Y-35924910D02*
G01*
X107562154Y-35924352D01*
X107579347Y-35934553D01*
X107598525Y-35940185D01*
X107608775Y-35952014D01*
X107622242Y-35960005D01*
X107631190Y-35977883D01*
X107644280Y-35992989D01*
X107646926Y-36009319D01*
X107653516Y-36022485D01*
X107654775Y-36057757D01*
X107650000Y-36102158D01*
X107650000Y-36750000D01*
X108566988Y-36750000D01*
X108534075Y-36807007D01*
X108500000Y-36934174D01*
X108500000Y-37065826D01*
X108534075Y-37192993D01*
X108566988Y-37250000D01*
X107650000Y-37250000D01*
X107650000Y-37897844D01*
X107656401Y-37957372D01*
X107656403Y-37957379D01*
X107706645Y-38092086D01*
X107706649Y-38092093D01*
X107792809Y-38207187D01*
X107792812Y-38207190D01*
X107907906Y-38293350D01*
X107907913Y-38293354D01*
X108042620Y-38343596D01*
X108042627Y-38343598D01*
X108102155Y-38349999D01*
X108102172Y-38350000D01*
X108298913Y-38350000D01*
X108365952Y-38369685D01*
X108411707Y-38422489D01*
X108421651Y-38491647D01*
X108392626Y-38555203D01*
X108371798Y-38574318D01*
X108250504Y-38662441D01*
X108122445Y-38790500D01*
X108122441Y-38790505D01*
X108016006Y-38937002D01*
X107933788Y-39098360D01*
X107933787Y-39098363D01*
X107877829Y-39270589D01*
X107849500Y-39449448D01*
X107849500Y-39630551D01*
X107877829Y-39809410D01*
X107933787Y-39981636D01*
X107933788Y-39981639D01*
X108016006Y-40142997D01*
X108122441Y-40289494D01*
X108122445Y-40289499D01*
X108250500Y-40417554D01*
X108250505Y-40417558D01*
X108349782Y-40489686D01*
X108397006Y-40523996D01*
X108485688Y-40569182D01*
X108558360Y-40606211D01*
X108558363Y-40606212D01*
X108584072Y-40614565D01*
X108730591Y-40662171D01*
X108803639Y-40673740D01*
X108890678Y-40687527D01*
X108953813Y-40717456D01*
X108990744Y-40776768D01*
X108989746Y-40846631D01*
X108951136Y-40904863D01*
X108890678Y-40932473D01*
X108730589Y-40957829D01*
X108558363Y-41013787D01*
X108558360Y-41013788D01*
X108397002Y-41096006D01*
X108250505Y-41202441D01*
X108250500Y-41202445D01*
X108122445Y-41330500D01*
X108122441Y-41330505D01*
X108016006Y-41477002D01*
X107933788Y-41638360D01*
X107933787Y-41638363D01*
X107877829Y-41810589D01*
X107849500Y-41989448D01*
X107849500Y-42170551D01*
X107877829Y-42349410D01*
X107933787Y-42521636D01*
X107933788Y-42521639D01*
X108016006Y-42682997D01*
X108122441Y-42829494D01*
X108122445Y-42829499D01*
X108250500Y-42957554D01*
X108250505Y-42957558D01*
X108340256Y-43022765D01*
X108397006Y-43063996D01*
X108471995Y-43102205D01*
X108558360Y-43146211D01*
X108558363Y-43146212D01*
X108632140Y-43170183D01*
X108730591Y-43202171D01*
X108803639Y-43213740D01*
X108890678Y-43227527D01*
X108953813Y-43257456D01*
X108990744Y-43316768D01*
X108989746Y-43386631D01*
X108951136Y-43444863D01*
X108890678Y-43472473D01*
X108730589Y-43497829D01*
X108558363Y-43553787D01*
X108558360Y-43553788D01*
X108397002Y-43636006D01*
X108250505Y-43742441D01*
X108250500Y-43742445D01*
X108122445Y-43870500D01*
X108122441Y-43870505D01*
X108016009Y-44016997D01*
X108013999Y-44020279D01*
X107962192Y-44067160D01*
X107908265Y-44079500D01*
X90070899Y-44079500D01*
X90008899Y-44062887D01*
X89917838Y-44010313D01*
X89917837Y-44010312D01*
X89917836Y-44010312D01*
X89784183Y-43974500D01*
X89645817Y-43974500D01*
X89512164Y-44010312D01*
X89512161Y-44010313D01*
X89421101Y-44062887D01*
X89359101Y-44079500D01*
X85855899Y-44079500D01*
X85793899Y-44062887D01*
X85702838Y-44010313D01*
X85702837Y-44010312D01*
X85702836Y-44010312D01*
X85569183Y-43974500D01*
X85544500Y-43974500D01*
X85477461Y-43954815D01*
X85431706Y-43902011D01*
X85420500Y-43850500D01*
X85420500Y-37944641D01*
X85420500Y-37944640D01*
X85391843Y-37837693D01*
X85336483Y-37741807D01*
X85258193Y-37663517D01*
X85162307Y-37608157D01*
X85055360Y-37579500D01*
X85055358Y-37579500D01*
X84800050Y-37579500D01*
X84733011Y-37559815D01*
X84687256Y-37507011D01*
X84677312Y-37437853D01*
X84706337Y-37374297D01*
X84738049Y-37348114D01*
X84758186Y-37336487D01*
X84758185Y-37336487D01*
X84758193Y-37336483D01*
X84836483Y-37258193D01*
X84891843Y-37162307D01*
X84920500Y-37055360D01*
X84920500Y-37044500D01*
X84940185Y-36977461D01*
X84992989Y-36931706D01*
X85044500Y-36920500D01*
X85055358Y-36920500D01*
X85055360Y-36920500D01*
X85162307Y-36891843D01*
X85258193Y-36836483D01*
X85336483Y-36758193D01*
X85391843Y-36662307D01*
X85420500Y-36555360D01*
X85420500Y-36544500D01*
X85440185Y-36477461D01*
X85492989Y-36431706D01*
X85544500Y-36420500D01*
X85555358Y-36420500D01*
X85555360Y-36420500D01*
X85662307Y-36391843D01*
X85758193Y-36336483D01*
X85836483Y-36258193D01*
X85891843Y-36162307D01*
X85920500Y-36055360D01*
X85920500Y-36044500D01*
X85940185Y-35977461D01*
X85992989Y-35931706D01*
X86044500Y-35920500D01*
X107531486Y-35920500D01*
X107546506Y-35924910D01*
G37*
%TD.AperFunction*%
%TA.AperFunction,Conductor*%
G36*
X83522539Y-31940185D02*
G01*
X83568294Y-31992989D01*
X83579500Y-32044500D01*
X83579500Y-32055360D01*
X83608157Y-32162307D01*
X83663517Y-32258193D01*
X83741807Y-32336483D01*
X83837693Y-32391843D01*
X83944640Y-32420500D01*
X83955500Y-32420500D01*
X84022539Y-32440185D01*
X84068294Y-32492989D01*
X84079500Y-32544500D01*
X84079500Y-32555360D01*
X84108157Y-32662307D01*
X84163517Y-32758193D01*
X84241807Y-32836483D01*
X84337693Y-32891843D01*
X84444640Y-32920500D01*
X84455500Y-32920500D01*
X84522539Y-32940185D01*
X84568294Y-32992989D01*
X84579500Y-33044500D01*
X84579500Y-33055360D01*
X84608157Y-33162307D01*
X84663517Y-33258193D01*
X84741807Y-33336483D01*
X84837693Y-33391843D01*
X84944640Y-33420500D01*
X84955500Y-33420500D01*
X85022539Y-33440185D01*
X85068294Y-33492989D01*
X85079500Y-33544500D01*
X85079500Y-33955500D01*
X85059815Y-34022539D01*
X85007011Y-34068294D01*
X84955500Y-34079500D01*
X84944640Y-34079500D01*
X84873342Y-34098604D01*
X84837692Y-34108157D01*
X84741807Y-34163517D01*
X84741804Y-34163519D01*
X84663519Y-34241804D01*
X84663517Y-34241807D01*
X84608157Y-34337692D01*
X84602046Y-34360500D01*
X84583643Y-34429181D01*
X84579500Y-34444641D01*
X84579500Y-34538468D01*
X84571650Y-34565200D01*
X84567024Y-34592675D01*
X84561169Y-34600894D01*
X84559815Y-34605507D01*
X84547235Y-34621899D01*
X84545265Y-34624064D01*
X84491995Y-34677335D01*
X84483613Y-34691852D01*
X84474631Y-34701729D01*
X84455728Y-34713244D01*
X84439708Y-34728518D01*
X84426471Y-34731068D01*
X84414962Y-34738080D01*
X84392837Y-34737548D01*
X84371101Y-34741736D01*
X84358586Y-34736724D01*
X84345112Y-34736401D01*
X84326785Y-34723990D01*
X84306238Y-34715763D01*
X84295215Y-34705979D01*
X84268717Y-34679481D01*
X84268709Y-34679475D01*
X84131790Y-34600426D01*
X84131786Y-34600424D01*
X84131784Y-34600423D01*
X84054721Y-34579774D01*
X83995062Y-34543410D01*
X83964533Y-34480563D01*
X83972828Y-34411188D01*
X84017313Y-34357310D01*
X84054720Y-34340225D01*
X84131784Y-34319577D01*
X84268716Y-34240520D01*
X84380520Y-34128716D01*
X84459577Y-33991784D01*
X84500500Y-33839057D01*
X84500500Y-33680943D01*
X84459577Y-33528216D01*
X84449352Y-33510505D01*
X84380524Y-33391290D01*
X84380518Y-33391282D01*
X84268717Y-33279481D01*
X84268709Y-33279475D01*
X84131790Y-33200426D01*
X84131786Y-33200424D01*
X84131784Y-33200423D01*
X83979057Y-33159500D01*
X83924500Y-33159500D01*
X83857461Y-33139815D01*
X83811706Y-33087011D01*
X83800500Y-33035500D01*
X83800500Y-32980945D01*
X83800500Y-32980943D01*
X83759577Y-32828216D01*
X83727136Y-32772026D01*
X83680524Y-32691290D01*
X83680518Y-32691282D01*
X83568717Y-32579481D01*
X83568709Y-32579475D01*
X83431790Y-32500426D01*
X83431786Y-32500424D01*
X83431784Y-32500423D01*
X83279057Y-32459500D01*
X83120943Y-32459500D01*
X82968216Y-32500423D01*
X82968209Y-32500426D01*
X82831290Y-32579475D01*
X82831282Y-32579481D01*
X82719481Y-32691282D01*
X82719475Y-32691290D01*
X82640426Y-32828209D01*
X82640423Y-32828214D01*
X82634452Y-32850500D01*
X82623375Y-32891842D01*
X82619775Y-32905277D01*
X82583410Y-32964937D01*
X82520563Y-32995466D01*
X82451187Y-32987171D01*
X82397309Y-32942686D01*
X82380225Y-32905277D01*
X82359577Y-32828216D01*
X82327136Y-32772026D01*
X82280524Y-32691290D01*
X82280518Y-32691282D01*
X82168717Y-32579481D01*
X82168709Y-32579475D01*
X82031790Y-32500426D01*
X82031786Y-32500424D01*
X82031784Y-32500423D01*
X81879057Y-32459500D01*
X81720943Y-32459500D01*
X81568216Y-32500423D01*
X81568209Y-32500426D01*
X81431290Y-32579475D01*
X81431282Y-32579481D01*
X81319481Y-32691282D01*
X81319475Y-32691290D01*
X81240426Y-32828209D01*
X81240424Y-32828214D01*
X81240423Y-32828216D01*
X81199500Y-32980943D01*
X81199500Y-33139057D01*
X81237127Y-33279481D01*
X81240423Y-33291783D01*
X81240426Y-33291790D01*
X81319475Y-33428709D01*
X81319479Y-33428714D01*
X81319480Y-33428716D01*
X81431284Y-33540520D01*
X81431286Y-33540521D01*
X81431290Y-33540524D01*
X81514132Y-33588352D01*
X81568216Y-33619577D01*
X81645278Y-33640225D01*
X81704937Y-33676590D01*
X81735466Y-33739437D01*
X81727171Y-33808813D01*
X81682686Y-33862691D01*
X81645279Y-33879774D01*
X81616681Y-33887437D01*
X81568214Y-33900423D01*
X81568209Y-33900426D01*
X81431290Y-33979475D01*
X81431282Y-33979481D01*
X81319481Y-34091282D01*
X81319475Y-34091290D01*
X81240426Y-34228209D01*
X81240423Y-34228216D01*
X81199500Y-34380943D01*
X81199500Y-34435500D01*
X81179815Y-34502539D01*
X81127011Y-34548294D01*
X81075500Y-34559500D01*
X81020943Y-34559500D01*
X80868216Y-34600423D01*
X80868209Y-34600426D01*
X80731290Y-34679475D01*
X80731282Y-34679481D01*
X80619481Y-34791282D01*
X80619477Y-34791287D01*
X80616521Y-34796408D01*
X80565952Y-34844622D01*
X80497345Y-34857842D01*
X80432481Y-34831872D01*
X80401749Y-34796403D01*
X80333009Y-34677341D01*
X80333003Y-34677333D01*
X80235166Y-34579496D01*
X80235161Y-34579492D01*
X80115338Y-34510313D01*
X80115337Y-34510312D01*
X80012406Y-34482732D01*
X79952746Y-34446366D01*
X79922217Y-34383519D01*
X79920500Y-34362957D01*
X79920500Y-33544500D01*
X79940185Y-33477461D01*
X79992989Y-33431706D01*
X80044500Y-33420500D01*
X80055358Y-33420500D01*
X80055360Y-33420500D01*
X80162307Y-33391843D01*
X80258193Y-33336483D01*
X80336483Y-33258193D01*
X80391843Y-33162307D01*
X80420500Y-33055360D01*
X80420500Y-33044500D01*
X80440185Y-32977461D01*
X80492989Y-32931706D01*
X80544500Y-32920500D01*
X80555358Y-32920500D01*
X80555360Y-32920500D01*
X80662307Y-32891843D01*
X80758193Y-32836483D01*
X80836483Y-32758193D01*
X80891843Y-32662307D01*
X80920500Y-32555360D01*
X80920500Y-32544500D01*
X80940185Y-32477461D01*
X80992989Y-32431706D01*
X81044500Y-32420500D01*
X81055358Y-32420500D01*
X81055360Y-32420500D01*
X81162307Y-32391843D01*
X81258193Y-32336483D01*
X81336483Y-32258193D01*
X81391843Y-32162307D01*
X81420500Y-32055360D01*
X81420500Y-32044500D01*
X81440185Y-31977461D01*
X81492989Y-31931706D01*
X81544500Y-31920500D01*
X83455500Y-31920500D01*
X83522539Y-31940185D01*
G37*
%TD.AperFunction*%
%TD*%
M02*
