M48
; DRILL file {KiCad 9.0.7+dfsg-1} date 2026-05-09T00:43:29-0400
; FORMAT={-:-/ absolute / metric / decimal}
; #@! TF.CreationDate,2026-05-09T00:43:29-04:00
; #@! TF.GenerationSoftware,Kicad,Pcbnew,9.0.7+dfsg-1
; #@! TF.FileFunction,MixedPlating,1,4
FMAT,2
METRIC
; #@! TA.AperFunction,Plated,PTH,ComponentDrill
T1C0.200
; #@! TA.AperFunction,Plated,PTH,ViaDrill
T2C0.220
; #@! TA.AperFunction,Plated,PTH,ViaDrill
T3C0.350
; #@! TA.AperFunction,Plated,PTH,ComponentDrill
T4C1.000
; #@! TA.AperFunction,Plated,PTH,ComponentDrill
T5C1.800
; #@! TA.AperFunction,NonPlated,NPTH,ComponentDrill
T6C0.900
; #@! TA.AperFunction,NonPlated,NPTH,ComponentDrill
T7C3.200
%
G90
G05
T1
X81.1Y-33.76
X81.1Y-35.16
X81.8Y-33.06
X81.8Y-34.46
X81.8Y-35.86
X82.5Y-33.76
X82.5Y-35.16
X83.2Y-33.06
X83.2Y-34.46
X83.2Y-35.86
X83.9Y-33.76
X83.9Y-35.16
T2
X10.5Y-62.5
X11.5Y-51.0
X11.5Y-61.0
X12.0Y-61.5
X12.0Y-75.0
X14.0Y-33.5
X14.0Y-34.5
X14.0Y-35.0
X14.0Y-36.0
X14.0Y-37.0
X14.0Y-43.5
X14.0Y-44.0
X14.0Y-44.5
X14.0Y-54.5
X14.0Y-56.0
X14.5Y-54.5
X14.5Y-60.5
X14.5Y-61.0
X14.5Y-61.5
X15.0Y-55.5
X17.5Y-73.5
X18.0Y-28.0
X18.0Y-35.0
X18.0Y-39.5
X18.0Y-40.0
X18.0Y-40.0
X18.0Y-57.0
X18.5Y-64.5
X19.0Y-36.5
X19.0Y-37.5
X19.0Y-38.0
X19.0Y-39.0
X19.0Y-55.5
X19.0Y-58.0
X19.0Y-67.5
X19.5Y-55.0
X19.5Y-57.5
X20.0Y-54.5
X24.5Y-28.0
X24.5Y-30.5
X24.5Y-31.0
X24.5Y-31.5
X24.5Y-32.0
X24.5Y-32.5
X24.5Y-33.0
X24.5Y-35.0
X24.5Y-35.5
X24.5Y-36.0
X24.5Y-37.0
X24.5Y-39.0
X24.5Y-39.5
X24.5Y-40.0
X24.5Y-40.0
X24.5Y-41.0
X28.3Y-64.0
X35.0Y-72.0
X36.5Y-41.5
X37.0Y-29.5
X37.0Y-30.0
X37.0Y-41.5
X37.0Y-88.0
X37.0Y-88.0
X37.0Y-88.0
X39.0Y-51.5
X39.5Y-51.5
X40.0Y-30.5
X40.0Y-88.0
X40.0Y-88.0
X40.0Y-88.0
X40.5Y-68.0
X41.0Y-41.5
X41.05Y-63.0
X43.0Y-31.0
X43.0Y-41.5
X43.137Y-10.0
X44.5Y-64.0
X44.5Y-64.5
X44.5Y-67.0
X45.0Y-33.0
X45.5Y-33.0
X46.0Y-33.0
X46.5Y-33.0
X46.5Y-69.0
X46.5Y-73.0
X46.5Y-75.5
X48.0Y-36.5
X48.0Y-37.5
X48.0Y-38.0
X48.0Y-38.5
X49.087Y-94.0
X50.0Y-33.5
X50.0Y-35.5
X50.0Y-36.5
X50.912Y-8.0
X50.912Y-94.0
X51.0Y-42.0
X51.5Y-41.5
X52.0Y-67.0
X52.0Y-67.0
X52.0Y-70.0
X52.0Y-73.0
X52.0Y-73.0
X52.0Y-73.0
X52.0Y-73.0
X52.0Y-73.0
X52.0Y-73.0
X52.062Y-96.0
X53.938Y-96.0
X53.938Y-96.0
X55.0Y-58.57
X55.062Y-8.0
X56.0Y-75.0
X56.5Y-40.5
X56.5Y-41.5
X56.5Y-42.0
X56.5Y-58.57
X56.912Y-47.0
X57.5Y-38.0
X57.5Y-64.0
X57.5Y-64.5
X57.5Y-67.0
X57.5Y-68.0
X58.0Y-38.0
X58.087Y-94.0
X58.5Y-68.0
X58.5Y-69.0
X58.5Y-74.5
X59.0Y-67.5
X59.5Y-64.0
X59.5Y-64.5
X59.5Y-67.0
X59.5Y-70.0
X59.5Y-73.0
X59.5Y-74.0
X59.5Y-75.0
X59.912Y-94.0
X60.862Y-65.05
X60.862Y-66.95
X60.862Y-73.05
X60.862Y-74.95
X61.0Y-58.57
X61.062Y-96.0
X61.5Y-33.0
X61.5Y-65.5
X62.5Y-43.5
X62.5Y-63.0
X62.5Y-64.0
X62.5Y-64.5
X62.938Y-96.0
X62.938Y-96.0
X63.05Y-47.0
X63.137Y-65.05
X63.137Y-66.0
X63.137Y-66.95
X63.137Y-73.05
X63.137Y-74.0
X63.5Y-34.5
X63.5Y-36.0
X63.5Y-37.0
X63.5Y-39.0
X63.5Y-64.0
X63.5Y-70.0
X64.0Y-35.5
X64.0Y-35.5
X64.0Y-38.0
X64.0Y-38.0
X64.0Y-67.5
X64.0Y-70.0
X64.5Y-30.0
X64.5Y-38.0
X64.5Y-39.0
X64.5Y-39.5
X64.5Y-40.0
X64.5Y-40.0
X64.5Y-41.0
X64.5Y-41.5
X64.5Y-42.0
X64.5Y-43.5
X64.5Y-44.0
X64.5Y-44.5
X64.5Y-67.5
X65.0Y-53.0
X65.5Y-38.0
X65.5Y-39.0
X65.5Y-51.5
X65.5Y-52.0
X66.0Y-41.0
X66.0Y-43.5
X66.5Y-67.0
X66.5Y-67.5
X66.5Y-70.0
X67.087Y-94.0
X67.087Y-94.0
X67.087Y-94.0
X67.087Y-94.0
X67.087Y-94.0
X67.087Y-94.0
X67.087Y-94.0
X67.087Y-94.0
X67.087Y-94.0
X67.087Y-94.0
X67.087Y-94.0
X67.087Y-94.0
X67.087Y-94.0
X67.087Y-94.0
X67.087Y-94.0
X67.087Y-94.0
X67.087Y-94.0
X67.087Y-94.0
X67.087Y-94.0
X67.087Y-94.0
X67.5Y-95.0
X68.0Y-93.0
X68.0Y-95.0
X68.862Y-65.05
X68.862Y-66.95
X68.862Y-73.05
X68.862Y-74.95
X68.912Y-94.0
X70.062Y-96.0
X71.138Y-65.05
X71.138Y-66.0
X71.138Y-66.95
X71.138Y-73.05
X71.138Y-74.0
X71.938Y-96.0
X71.938Y-96.0
X74.4Y-46.5
X74.5Y-41.0
X74.5Y-41.5
X74.5Y-70.5
X74.5Y-95.0
X75.25Y-28.01
X75.25Y-29.28
X75.25Y-30.55
X75.25Y-31.82
X75.25Y-33.09
X75.25Y-34.36
X75.25Y-35.63
X75.25Y-36.9
X75.25Y-38.17
X75.25Y-39.44
X75.25Y-40.71
X77.015Y-44.5
X78.087Y-35.0
X78.087Y-64.0
X78.285Y-44.5
X78.5Y-70.0
X78.5Y-70.5
X78.5Y-72.0
X78.5Y-73.5
X78.5Y-83.0
X78.5Y-85.0
X79.0Y-87.0
X79.05Y-40.0
X79.5Y-87.0
X79.555Y-44.5
X79.912Y-35.0
X79.912Y-56.0
X79.912Y-60.0
X79.912Y-64.0
X80.0Y-84.0
X80.0Y-84.5
X80.0Y-95.0
X80.5Y-45.0
X80.825Y-44.5
X82.095Y-44.5
X82.5Y-92.5
X83.05Y-40.0
X83.365Y-44.5
X83.5Y-88.0
X84.0Y-43.5
X84.0Y-91.0
X84.0Y-91.0
X84.4Y-46.5
X84.912Y-35.0
X85.087Y-56.0
X85.087Y-60.0
X85.087Y-64.0
X85.5Y-44.5
X85.5Y-47.0
X89.715Y-44.5
X90.0Y-70.0
X90.0Y-70.5
X90.0Y-72.0
X90.0Y-73.5
X91.0Y-84.0
X92.75Y-30.55
X92.75Y-31.82
X92.75Y-33.09
X92.75Y-34.36
X93.0Y-56.0
X93.0Y-56.0
X93.0Y-56.0
X93.0Y-56.0
X93.0Y-60.0
X93.0Y-60.0
X93.0Y-60.0
X93.0Y-60.0
X93.0Y-64.0
X93.0Y-64.0
X93.0Y-64.0
X93.0Y-64.0
X94.0Y-70.0
X94.0Y-70.5
X97.087Y-92.0
X97.087Y-96.0
X98.912Y-92.0
X98.912Y-92.0
X98.912Y-92.0
X98.912Y-96.0
X98.912Y-96.0
X98.912Y-96.0
X103.5Y-96.0
X104.5Y-96.0
X105.5Y-96.0
X106.5Y-73.0
X107.5Y-73.0
X108.5Y-73.0
T3
X17.0Y-54.5
X19.0Y-54.5
X21.0Y-7.0
X21.0Y-7.0
X28.3Y-42.0
X30.3Y-24.0
X33.0Y-53.0
X38.0Y-7.0
X38.862Y-10.0
X40.3Y-42.0
X42.05Y-29.0
X44.0Y-23.0
X49.087Y-8.0
X52.05Y-42.0
X55.087Y-47.0
X78.087Y-56.0
X78.087Y-60.0
T4
X17.0Y-42.0
X17.0Y-44.54
X17.0Y-47.08
X17.0Y-49.62
X17.0Y-52.16
X17.0Y-63.0
X17.0Y-65.54
X17.0Y-68.08
X17.0Y-70.62
X25.46Y-12.0
X28.0Y-12.0
X30.0Y-78.0
X30.0Y-80.54
X30.0Y-83.08
X30.0Y-85.62
X42.92Y-79.0
X42.92Y-88.0
X45.46Y-79.0
X45.46Y-88.0
X48.0Y-79.0
X48.0Y-88.0
X57.92Y-79.0
X57.92Y-88.0
X60.46Y-79.0
X60.46Y-88.0
X63.0Y-79.0
X63.0Y-88.0
X81.0Y-86.0
X81.0Y-94.0
X83.54Y-86.0
X83.54Y-94.0
X86.08Y-86.0
X86.08Y-94.0
X88.62Y-86.0
X88.62Y-94.0
X91.16Y-86.0
X91.16Y-94.0
X92.0Y-72.0
X93.7Y-86.0
X93.7Y-94.0
X94.54Y-72.0
X97.08Y-72.0
X99.62Y-72.0
X102.16Y-72.0
X103.0Y-86.0
X104.7Y-72.0
X105.54Y-86.0
X106.0Y-52.0
X107.24Y-72.0
X108.08Y-86.0
X108.54Y-52.0
X109.0Y-37.0
X109.0Y-39.54
X109.0Y-42.08
X109.0Y-44.62
X109.0Y-47.16
X109.0Y-49.7
X109.78Y-72.0
X110.62Y-86.0
X111.08Y-52.0
X113.16Y-86.0
X113.62Y-52.0
X115.7Y-86.0
X116.16Y-52.0
X118.7Y-52.0
T5
X13.0Y-14.0
X13.0Y-19.0
X13.0Y-80.0
X13.0Y-85.0
T6
X55.5Y-60.33
X60.5Y-60.33
T7
X6.0Y-6.0
X6.0Y-94.0
X114.0Y-6.0
X114.0Y-94.0
M30
