%TF.GenerationSoftware,KiCad,Pcbnew,9.0.7+dfsg-1*%
%TF.CreationDate,2026-05-09T16:33:42-04:00*%
%TF.ProjectId,flipping-cool,666c6970-7069-46e6-972d-636f6f6c2e6b,rev?*%
%TF.SameCoordinates,Original*%
%TF.FileFunction,Legend,Top*%
%TF.FilePolarity,Positive*%
%FSLAX46Y46*%
G04 Gerber Fmt 4.6, Leading zero omitted, Abs format (unit mm)*
G04 Created by KiCad (PCBNEW 9.0.7+dfsg-1) date 2026-05-09 16:33:42*
%MOMM*%
%LPD*%
G01*
G04 APERTURE LIST*
%ADD10C,0.150000*%
%ADD11C,0.120000*%
G04 APERTURE END LIST*
D10*
X13114700Y-23571428D02*
X13114700Y-22428571D01*
X13114700Y-10571428D02*
X13114700Y-9428571D01*
X13686128Y-9999999D02*
X12543271Y-9999999D01*
X13114700Y-89571428D02*
X13114700Y-88428571D01*
X13686128Y-88999999D02*
X12543271Y-88999999D01*
X13114700Y-76571428D02*
X13114700Y-75428571D01*
D11*
%TO.C,R1*%
X49772936Y-7265000D02*
X50227064Y-7265000D01*
X49772936Y-8735000D02*
X50227064Y-8735000D01*
%TO.C,U20*%
X15620000Y-40620000D02*
X17000000Y-40620000D01*
X15620000Y-42000000D02*
X15620000Y-40620000D01*
X15620000Y-43270000D02*
X15620000Y-53540000D01*
X15620000Y-43270000D02*
X18380000Y-43270000D01*
X15620000Y-53540000D02*
X18380000Y-53540000D01*
X18380000Y-43270000D02*
X18380000Y-53540000D01*
%TO.C,TP4*%
X33950000Y-53000000D02*
G75*
G02*
X32050000Y-53000000I-950000J0D01*
G01*
X32050000Y-53000000D02*
G75*
G02*
X33950000Y-53000000I950000J0D01*
G01*
%TO.C,C2*%
X42738748Y-28265000D02*
X43261252Y-28265000D01*
X42738748Y-29735000D02*
X43261252Y-29735000D01*
%TO.C,TP2*%
X34950000Y-6000000D02*
G75*
G02*
X33050000Y-6000000I-950000J0D01*
G01*
X33050000Y-6000000D02*
G75*
G02*
X34950000Y-6000000I950000J0D01*
G01*
%TO.C,C20*%
X26562500Y-40152500D02*
X27350000Y-40152500D01*
X26956250Y-39758750D02*
X26956250Y-40546250D01*
X27590000Y-39654437D02*
X27590000Y-40940000D01*
X27590000Y-39654437D02*
X28654437Y-38590000D01*
X27590000Y-44345563D02*
X27590000Y-43060000D01*
X27590000Y-44345563D02*
X28654437Y-45410000D01*
X28654437Y-38590000D02*
X34410000Y-38590000D01*
X28654437Y-45410000D02*
X34410000Y-45410000D01*
X34410000Y-38590000D02*
X34410000Y-40940000D01*
X34410000Y-45410000D02*
X34410000Y-43060000D01*
%TO.C,J30*%
X41540000Y-77620000D02*
X41540000Y-80380000D01*
X46730000Y-77620000D02*
X41540000Y-77620000D01*
X46730000Y-77620000D02*
X46730000Y-80380000D01*
X46730000Y-80380000D02*
X41540000Y-80380000D01*
X48000000Y-77620000D02*
X49380000Y-77620000D01*
X49380000Y-77620000D02*
X49380000Y-79000000D01*
%TO.C,U41*%
X69090000Y-64440000D02*
X70910000Y-64440000D01*
X69090000Y-64490000D02*
X69090000Y-64440000D01*
X69090000Y-67560000D02*
X69090000Y-67510000D01*
X70910000Y-64440000D02*
X70910000Y-64490000D01*
X70910000Y-67510000D02*
X70910000Y-67560000D01*
X70910000Y-67560000D02*
X69090000Y-67560000D01*
X68550000Y-64490000D02*
X68310000Y-64160000D01*
X68790000Y-64160000D01*
X68550000Y-64490000D01*
G36*
X68550000Y-64490000D02*
G01*
X68310000Y-64160000D01*
X68790000Y-64160000D01*
X68550000Y-64490000D01*
G37*
%TO.C,TP6*%
X35950000Y-72000000D02*
G75*
G02*
X34050000Y-72000000I-950000J0D01*
G01*
X34050000Y-72000000D02*
G75*
G02*
X35950000Y-72000000I950000J0D01*
G01*
%TO.C,TP8*%
X52950000Y-70000000D02*
G75*
G02*
X51050000Y-70000000I-950000J0D01*
G01*
X51050000Y-70000000D02*
G75*
G02*
X52950000Y-70000000I950000J0D01*
G01*
%TO.C,R46*%
X97772936Y-91265000D02*
X98227064Y-91265000D01*
X97772936Y-92735000D02*
X98227064Y-92735000D01*
%TO.C,TP5*%
X65950000Y-53000000D02*
G75*
G02*
X64050000Y-53000000I-950000J0D01*
G01*
X64050000Y-53000000D02*
G75*
G02*
X65950000Y-53000000I950000J0D01*
G01*
%TO.C,R45*%
X85772936Y-63265000D02*
X86227064Y-63265000D01*
X85772936Y-64735000D02*
X86227064Y-64735000D01*
%TO.C,C10*%
X71738748Y-51265000D02*
X72261252Y-51265000D01*
X71738748Y-52735000D02*
X72261252Y-52735000D01*
%TO.C,TP9*%
X52950000Y-73000000D02*
G75*
G02*
X51050000Y-73000000I-950000J0D01*
G01*
X51050000Y-73000000D02*
G75*
G02*
X52950000Y-73000000I950000J0D01*
G01*
%TO.C,R51*%
X58772936Y-93265000D02*
X59227064Y-93265000D01*
X58772936Y-94735000D02*
X59227064Y-94735000D01*
%TO.C,R50*%
X49772936Y-93265000D02*
X50227064Y-93265000D01*
X49772936Y-94735000D02*
X50227064Y-94735000D01*
%TO.C,R42*%
X78772936Y-59265000D02*
X79227064Y-59265000D01*
X78772936Y-60735000D02*
X79227064Y-60735000D01*
%TO.C,R11*%
X67772936Y-45265000D02*
X68227064Y-45265000D01*
X67772936Y-46735000D02*
X68227064Y-46735000D01*
%TO.C,C22*%
X52738748Y-41265000D02*
X53261252Y-41265000D01*
X52738748Y-42735000D02*
X53261252Y-42735000D01*
%TO.C,TP1*%
X21950000Y-7000000D02*
G75*
G02*
X20050000Y-7000000I-950000J0D01*
G01*
X20050000Y-7000000D02*
G75*
G02*
X21950000Y-7000000I950000J0D01*
G01*
%TO.C,U40*%
X61090000Y-64440000D02*
X62910000Y-64440000D01*
X61090000Y-64490000D02*
X61090000Y-64440000D01*
X61090000Y-67560000D02*
X61090000Y-67510000D01*
X62910000Y-64440000D02*
X62910000Y-64490000D01*
X62910000Y-67510000D02*
X62910000Y-67560000D01*
X62910000Y-67560000D02*
X61090000Y-67560000D01*
X60550000Y-64490000D02*
X60310000Y-64160000D01*
X60790000Y-64160000D01*
X60550000Y-64490000D01*
G36*
X60550000Y-64490000D02*
G01*
X60310000Y-64160000D01*
X60790000Y-64160000D01*
X60550000Y-64490000D01*
G37*
%TO.C,U30*%
X15620000Y-61620000D02*
X17000000Y-61620000D01*
X15620000Y-63000000D02*
X15620000Y-61620000D01*
X15620000Y-64270000D02*
X15620000Y-72000000D01*
X15620000Y-64270000D02*
X18380000Y-64270000D01*
X15620000Y-72000000D02*
X18380000Y-72000000D01*
X18380000Y-64270000D02*
X18380000Y-72000000D01*
%TO.C,TP10*%
X93950000Y-56000000D02*
G75*
G02*
X92050000Y-56000000I-950000J0D01*
G01*
X92050000Y-56000000D02*
G75*
G02*
X93950000Y-56000000I950000J0D01*
G01*
%TO.C,TP14*%
X40950000Y-84000000D02*
G75*
G02*
X39050000Y-84000000I-950000J0D01*
G01*
X39050000Y-84000000D02*
G75*
G02*
X40950000Y-84000000I950000J0D01*
G01*
%TO.C,U10*%
X74800000Y-19100000D02*
X74800000Y-25300000D01*
X74800000Y-19100000D02*
X93200000Y-19100000D01*
X74800000Y-43950000D02*
X74800000Y-44950000D01*
X74800000Y-44950000D02*
X76300000Y-44950000D01*
X93200000Y-19100000D02*
X93200000Y-25300000D01*
X93200000Y-44950000D02*
X91700000Y-44950000D01*
X93200000Y-44950000D02*
X93200000Y-43950000D01*
X74800000Y-25975000D02*
X74300000Y-25975000D01*
X74800000Y-25475000D01*
X74800000Y-25975000D01*
G36*
X74800000Y-25975000D02*
G01*
X74300000Y-25975000D01*
X74800000Y-25475000D01*
X74800000Y-25975000D01*
G37*
%TO.C,SW1*%
X53050000Y-59930000D02*
X53050000Y-60720000D01*
X53650000Y-58930000D02*
X54350000Y-58930000D01*
X53650000Y-61720000D02*
X62350000Y-61720000D01*
X55650000Y-58930000D02*
X55850000Y-58930000D01*
X57150000Y-58930000D02*
X58850000Y-58930000D01*
X57350000Y-61720000D02*
X57350000Y-63020000D01*
X57350000Y-63020000D02*
X57550000Y-63220000D01*
X58450000Y-63220000D02*
X57550000Y-63220000D01*
X58650000Y-63020000D02*
X58450000Y-63220000D01*
X58650000Y-63020000D02*
X58650000Y-61720000D01*
X60150000Y-58930000D02*
X60350000Y-58930000D01*
X61650000Y-58930000D02*
X62350000Y-58930000D01*
X62950000Y-60720000D02*
X62950000Y-59930000D01*
%TO.C,J12*%
X107620000Y-35620000D02*
X109000000Y-35620000D01*
X107620000Y-37000000D02*
X107620000Y-35620000D01*
X107620000Y-38270000D02*
X107620000Y-51080000D01*
X107620000Y-38270000D02*
X110380000Y-38270000D01*
X107620000Y-51080000D02*
X110380000Y-51080000D01*
X110380000Y-38270000D02*
X110380000Y-51080000D01*
%TO.C,R41*%
X85772936Y-55265000D02*
X86227064Y-55265000D01*
X85772936Y-56735000D02*
X86227064Y-56735000D01*
%TO.C,C1*%
X28562500Y-22152500D02*
X29350000Y-22152500D01*
X28956250Y-21758750D02*
X28956250Y-22546250D01*
X29590000Y-21654437D02*
X29590000Y-22940000D01*
X29590000Y-21654437D02*
X30654437Y-20590000D01*
X29590000Y-26345563D02*
X29590000Y-25060000D01*
X29590000Y-26345563D02*
X30654437Y-27410000D01*
X30654437Y-20590000D02*
X36410000Y-20590000D01*
X30654437Y-27410000D02*
X36410000Y-27410000D01*
X36410000Y-20590000D02*
X36410000Y-22940000D01*
X36410000Y-27410000D02*
X36410000Y-25060000D01*
%TO.C,TP12*%
X93950000Y-64000000D02*
G75*
G02*
X92050000Y-64000000I-950000J0D01*
G01*
X92050000Y-64000000D02*
G75*
G02*
X93950000Y-64000000I950000J0D01*
G01*
%TO.C,J47*%
X79620000Y-87380000D02*
X79620000Y-86000000D01*
X81000000Y-87380000D02*
X79620000Y-87380000D01*
X82270000Y-84620000D02*
X95080000Y-84620000D01*
X82270000Y-87380000D02*
X82270000Y-84620000D01*
X82270000Y-87380000D02*
X95080000Y-87380000D01*
X95080000Y-87380000D02*
X95080000Y-84620000D01*
%TO.C,C21*%
X38562500Y-40152500D02*
X39350000Y-40152500D01*
X38956250Y-39758750D02*
X38956250Y-40546250D01*
X39590000Y-39654437D02*
X39590000Y-40940000D01*
X39590000Y-39654437D02*
X40654437Y-38590000D01*
X39590000Y-44345563D02*
X39590000Y-43060000D01*
X39590000Y-44345563D02*
X40654437Y-45410000D01*
X40654437Y-38590000D02*
X46410000Y-38590000D01*
X40654437Y-45410000D02*
X46410000Y-45410000D01*
X46410000Y-38590000D02*
X46410000Y-40940000D01*
X46410000Y-45410000D02*
X46410000Y-43060000D01*
%TO.C,D50*%
X51315000Y-95040000D02*
X51315000Y-96960000D01*
X51315000Y-96960000D02*
X54000000Y-96960000D01*
X54000000Y-95040000D02*
X51315000Y-95040000D01*
%TO.C,C31*%
X41738748Y-62265000D02*
X42261252Y-62265000D01*
X41738748Y-63735000D02*
X42261252Y-63735000D01*
%TO.C,J48*%
X79620000Y-95380000D02*
X79620000Y-94000000D01*
X81000000Y-95380000D02*
X79620000Y-95380000D01*
X82270000Y-92620000D02*
X95080000Y-92620000D01*
X82270000Y-95380000D02*
X82270000Y-92620000D01*
X82270000Y-95380000D02*
X95080000Y-95380000D01*
X95080000Y-95380000D02*
X95080000Y-92620000D01*
%TO.C,J33*%
X56540000Y-86620000D02*
X56540000Y-89380000D01*
X61730000Y-86620000D02*
X56540000Y-86620000D01*
X61730000Y-86620000D02*
X61730000Y-89380000D01*
X61730000Y-89380000D02*
X56540000Y-89380000D01*
X63000000Y-86620000D02*
X64380000Y-86620000D01*
X64380000Y-86620000D02*
X64380000Y-88000000D01*
%TO.C,D1*%
X42350000Y-24510000D02*
X42350000Y-19000000D01*
X42350000Y-24510000D02*
X45650000Y-24510000D01*
X45650000Y-24510000D02*
X45650000Y-19000000D01*
%TO.C,J44*%
X98620000Y-59380000D02*
X98620000Y-58000000D01*
X100000000Y-59380000D02*
X98620000Y-59380000D01*
X101270000Y-56620000D02*
X114080000Y-56620000D01*
X101270000Y-59380000D02*
X101270000Y-56620000D01*
X101270000Y-59380000D02*
X114080000Y-59380000D01*
X114080000Y-59380000D02*
X114080000Y-56620000D01*
%TO.C,FB1*%
X55772936Y-46265000D02*
X56227064Y-46265000D01*
X55772936Y-47735000D02*
X56227064Y-47735000D01*
%TO.C,TP15*%
X44950000Y-84000000D02*
G75*
G02*
X43050000Y-84000000I-950000J0D01*
G01*
X43050000Y-84000000D02*
G75*
G02*
X44950000Y-84000000I950000J0D01*
G01*
%TO.C,SW3*%
X85630000Y-45630000D02*
X85630000Y-46030000D01*
X85630000Y-45630000D02*
X90370000Y-45630000D01*
X85630000Y-49030000D02*
X85630000Y-46970000D01*
X85630000Y-50370000D02*
X85630000Y-49970000D01*
X85630000Y-50370000D02*
X90370000Y-50370000D01*
X90370000Y-45630000D02*
X90370000Y-46030000D01*
X90370000Y-49030000D02*
X90370000Y-46970000D01*
X90370000Y-50370000D02*
X90370000Y-49970000D01*
%TO.C,U42*%
X61090000Y-72440000D02*
X62910000Y-72440000D01*
X61090000Y-72490000D02*
X61090000Y-72440000D01*
X61090000Y-75560000D02*
X61090000Y-75510000D01*
X62910000Y-72440000D02*
X62910000Y-72490000D01*
X62910000Y-75510000D02*
X62910000Y-75560000D01*
X62910000Y-75560000D02*
X61090000Y-75560000D01*
X60550000Y-72490000D02*
X60310000Y-72160000D01*
X60790000Y-72160000D01*
X60550000Y-72490000D01*
G36*
X60550000Y-72490000D02*
G01*
X60310000Y-72160000D01*
X60790000Y-72160000D01*
X60550000Y-72490000D01*
G37*
%TO.C,J1*%
X10290000Y-11290000D02*
X15710000Y-11290000D01*
X10290000Y-20010000D02*
X10290000Y-11290000D01*
X11590000Y-21710000D02*
X10290000Y-20010000D01*
X11590000Y-21710000D02*
X14410000Y-21710000D01*
X14410000Y-21710000D02*
X15710000Y-20010000D01*
X15710000Y-20010000D02*
X15710000Y-11290000D01*
%TO.C,D52*%
X69315000Y-95040000D02*
X69315000Y-96960000D01*
X69315000Y-96960000D02*
X72000000Y-96960000D01*
X72000000Y-95040000D02*
X69315000Y-95040000D01*
%TO.C,R10*%
X71772936Y-43265000D02*
X72227064Y-43265000D01*
X71772936Y-44735000D02*
X72227064Y-44735000D01*
%TO.C,C11*%
X75738748Y-51265000D02*
X76261252Y-51265000D01*
X75738748Y-52735000D02*
X76261252Y-52735000D01*
%TO.C,R40*%
X78772936Y-55265000D02*
X79227064Y-55265000D01*
X78772936Y-56735000D02*
X79227064Y-56735000D01*
%TO.C,R44*%
X78772936Y-63265000D02*
X79227064Y-63265000D01*
X78772936Y-64735000D02*
X79227064Y-64735000D01*
%TO.C,TP16*%
X47950000Y-84000000D02*
G75*
G02*
X46050000Y-84000000I-950000J0D01*
G01*
X46050000Y-84000000D02*
G75*
G02*
X47950000Y-84000000I950000J0D01*
G01*
%TO.C,J32*%
X56540000Y-77620000D02*
X56540000Y-80380000D01*
X61730000Y-77620000D02*
X56540000Y-77620000D01*
X61730000Y-77620000D02*
X61730000Y-80380000D01*
X61730000Y-80380000D02*
X56540000Y-80380000D01*
X63000000Y-77620000D02*
X64380000Y-77620000D01*
X64380000Y-77620000D02*
X64380000Y-79000000D01*
%TO.C,C30*%
X26562500Y-62152500D02*
X27350000Y-62152500D01*
X26956250Y-61758750D02*
X26956250Y-62546250D01*
X27590000Y-61654437D02*
X27590000Y-62940000D01*
X27590000Y-61654437D02*
X28654437Y-60590000D01*
X27590000Y-66345563D02*
X27590000Y-65060000D01*
X27590000Y-66345563D02*
X28654437Y-67410000D01*
X28654437Y-60590000D02*
X34410000Y-60590000D01*
X28654437Y-67410000D02*
X34410000Y-67410000D01*
X34410000Y-60590000D02*
X34410000Y-62940000D01*
X34410000Y-67410000D02*
X34410000Y-65060000D01*
%TO.C,R43*%
X85772936Y-59265000D02*
X86227064Y-59265000D01*
X85772936Y-60735000D02*
X86227064Y-60735000D01*
%TO.C,J2*%
X24080000Y-10620000D02*
X24080000Y-13380000D01*
X26730000Y-10620000D02*
X24080000Y-10620000D01*
X26730000Y-10620000D02*
X26730000Y-13380000D01*
X26730000Y-13380000D02*
X24080000Y-13380000D01*
X28000000Y-10620000D02*
X29380000Y-10620000D01*
X29380000Y-10620000D02*
X29380000Y-12000000D01*
%TO.C,TP11*%
X93950000Y-60000000D02*
G75*
G02*
X92050000Y-60000000I-950000J0D01*
G01*
X92050000Y-60000000D02*
G75*
G02*
X93950000Y-60000000I950000J0D01*
G01*
%TO.C,R47*%
X97772936Y-95265000D02*
X98227064Y-95265000D01*
X97772936Y-96735000D02*
X98227064Y-96735000D01*
%TO.C,SW2*%
X75630000Y-45630000D02*
X75630000Y-46030000D01*
X75630000Y-45630000D02*
X80370000Y-45630000D01*
X75630000Y-49030000D02*
X75630000Y-46970000D01*
X75630000Y-50370000D02*
X75630000Y-49970000D01*
X75630000Y-50370000D02*
X80370000Y-50370000D01*
X80370000Y-45630000D02*
X80370000Y-46030000D01*
X80370000Y-49030000D02*
X80370000Y-46970000D01*
X80370000Y-50370000D02*
X80370000Y-49970000D01*
%TO.C,C23*%
X63738748Y-46265000D02*
X64261252Y-46265000D01*
X63738748Y-47735000D02*
X64261252Y-47735000D01*
%TO.C,J31*%
X41540000Y-86620000D02*
X41540000Y-89380000D01*
X46730000Y-86620000D02*
X41540000Y-86620000D01*
X46730000Y-86620000D02*
X46730000Y-89380000D01*
X46730000Y-89380000D02*
X41540000Y-89380000D01*
X48000000Y-86620000D02*
X49380000Y-86620000D01*
X49380000Y-86620000D02*
X49380000Y-88000000D01*
%TO.C,J46*%
X101620000Y-87380000D02*
X101620000Y-86000000D01*
X103000000Y-87380000D02*
X101620000Y-87380000D01*
X104270000Y-84620000D02*
X117080000Y-84620000D01*
X104270000Y-87380000D02*
X104270000Y-84620000D01*
X104270000Y-87380000D02*
X117080000Y-87380000D01*
X117080000Y-87380000D02*
X117080000Y-84620000D01*
%TO.C,J11*%
X110890000Y-63285000D02*
X110890000Y-65785000D01*
X110890000Y-65785000D02*
X111940000Y-65785000D01*
X115940000Y-61315000D02*
X112060000Y-61315000D01*
X116060000Y-65785000D02*
X116060000Y-66775000D01*
X117110000Y-63285000D02*
X117110000Y-65785000D01*
X117110000Y-65785000D02*
X116060000Y-65785000D01*
%TO.C,R52*%
X67772936Y-93265000D02*
X68227064Y-93265000D01*
X67772936Y-94735000D02*
X68227064Y-94735000D01*
%TO.C,J21*%
X28620000Y-76620000D02*
X30000000Y-76620000D01*
X28620000Y-78000000D02*
X28620000Y-76620000D01*
X28620000Y-79270000D02*
X28620000Y-87000000D01*
X28620000Y-79270000D02*
X31380000Y-79270000D01*
X28620000Y-87000000D02*
X31380000Y-87000000D01*
X31380000Y-79270000D02*
X31380000Y-87000000D01*
%TO.C,TP13*%
X37950000Y-84000000D02*
G75*
G02*
X36050000Y-84000000I-950000J0D01*
G01*
X36050000Y-84000000D02*
G75*
G02*
X37950000Y-84000000I950000J0D01*
G01*
%TO.C,J10*%
X90620000Y-73380000D02*
X90620000Y-72000000D01*
X92000000Y-73380000D02*
X90620000Y-73380000D01*
X93270000Y-70620000D02*
X111160000Y-70620000D01*
X93270000Y-73380000D02*
X93270000Y-70620000D01*
X93270000Y-73380000D02*
X111160000Y-73380000D01*
X111160000Y-73380000D02*
X111160000Y-70620000D01*
%TO.C,U43*%
X69090000Y-72440000D02*
X70910000Y-72440000D01*
X69090000Y-72490000D02*
X69090000Y-72440000D01*
X69090000Y-75560000D02*
X69090000Y-75510000D01*
X70910000Y-72440000D02*
X70910000Y-72490000D01*
X70910000Y-75510000D02*
X70910000Y-75560000D01*
X70910000Y-75560000D02*
X69090000Y-75560000D01*
X68550000Y-72490000D02*
X68310000Y-72160000D01*
X68790000Y-72160000D01*
X68550000Y-72490000D01*
G36*
X68550000Y-72490000D02*
G01*
X68310000Y-72160000D01*
X68790000Y-72160000D01*
X68550000Y-72490000D01*
G37*
%TO.C,TP3*%
X44950000Y-6000000D02*
G75*
G02*
X43050000Y-6000000I-950000J0D01*
G01*
X43050000Y-6000000D02*
G75*
G02*
X44950000Y-6000000I950000J0D01*
G01*
%TO.C,J49*%
X101890000Y-93285000D02*
X101890000Y-95785000D01*
X101890000Y-95785000D02*
X102940000Y-95785000D01*
X106940000Y-91315000D02*
X103060000Y-91315000D01*
X107060000Y-95785000D02*
X107060000Y-96775000D01*
X108110000Y-93285000D02*
X108110000Y-95785000D01*
X108110000Y-95785000D02*
X107060000Y-95785000D01*
%TO.C,TP7*%
X52950000Y-67000000D02*
G75*
G02*
X51050000Y-67000000I-950000J0D01*
G01*
X51050000Y-67000000D02*
G75*
G02*
X52950000Y-67000000I950000J0D01*
G01*
%TO.C,D51*%
X60315000Y-95040000D02*
X60315000Y-96960000D01*
X60315000Y-96960000D02*
X63000000Y-96960000D01*
X63000000Y-95040000D02*
X60315000Y-95040000D01*
%TO.C,F1*%
X39613748Y-8290000D02*
X42386252Y-8290000D01*
X39613748Y-11710000D02*
X42386252Y-11710000D01*
%TO.C,D2*%
X54315000Y-7040000D02*
X54315000Y-8960000D01*
X54315000Y-8960000D02*
X57000000Y-8960000D01*
X57000000Y-7040000D02*
X54315000Y-7040000D01*
%TO.C,J20*%
X10290000Y-78990000D02*
X10290000Y-87710000D01*
X11590000Y-77290000D02*
X10290000Y-78990000D01*
X14410000Y-77290000D02*
X11590000Y-77290000D01*
X14410000Y-77290000D02*
X15710000Y-78990000D01*
X15710000Y-78990000D02*
X15710000Y-87710000D01*
X15710000Y-87710000D02*
X10290000Y-87710000D01*
%TD*%
M02*
