%TF.GenerationSoftware,KiCad,Pcbnew,9.0.7+dfsg-1*%
%TF.CreationDate,2026-05-09T16:33:42-04:00*%
%TF.ProjectId,flipping-cool,666c6970-7069-46e6-972d-636f6f6c2e6b,rev?*%
%TF.SameCoordinates,Original*%
%TF.FileFunction,Soldermask,Top*%
%TF.FilePolarity,Negative*%
%FSLAX46Y46*%
G04 Gerber Fmt 4.6, Leading zero omitted, Abs format (unit mm)*
G04 Created by KiCad (PCBNEW 9.0.7+dfsg-1) date 2026-05-09 16:33:42*
%MOMM*%
%LPD*%
G01*
G04 APERTURE LIST*
G04 Aperture macros list*
%AMRoundRect*
0 Rectangle with rounded corners*
0 $1 Rounding radius*
0 $2 $3 $4 $5 $6 $7 $8 $9 X,Y pos of 4 corners*
0 Add a 4 corners polygon primitive as box body*
4,1,4,$2,$3,$4,$5,$6,$7,$8,$9,$2,$3,0*
0 Add four circle primitives for the rounded corners*
1,1,$1+$1,$2,$3*
1,1,$1+$1,$4,$5*
1,1,$1+$1,$6,$7*
1,1,$1+$1,$8,$9*
0 Add four rect primitives between the rounded corners*
20,1,$1+$1,$2,$3,$4,$5,0*
20,1,$1+$1,$4,$5,$6,$7,0*
20,1,$1+$1,$6,$7,$8,$9,0*
20,1,$1+$1,$8,$9,$2,$3,0*%
G04 Aperture macros list end*
%ADD10RoundRect,0.250000X-0.262500X-0.450000X0.262500X-0.450000X0.262500X0.450000X-0.262500X0.450000X0*%
%ADD11R,1.700000X1.700000*%
%ADD12C,1.700000*%
%ADD13C,3.200000*%
%ADD14C,1.500000*%
%ADD15RoundRect,0.250000X-0.250000X-0.475000X0.250000X-0.475000X0.250000X0.475000X-0.250000X0.475000X0*%
%ADD16RoundRect,0.250000X-1.500000X-0.550000X1.500000X-0.550000X1.500000X0.550000X-1.500000X0.550000X0*%
%ADD17RoundRect,0.150000X-0.512500X-0.150000X0.512500X-0.150000X0.512500X0.150000X-0.512500X0.150000X0*%
%ADD18RoundRect,1.250000X3.750000X-1.250000X3.750000X1.250000X-3.750000X1.250000X-3.750000X-1.250000X0*%
%ADD19R,1.500000X0.900000*%
%ADD20R,0.900000X1.500000*%
%ADD21C,0.600000*%
%ADD22R,3.900000X3.900000*%
%ADD23R,1.000000X0.800000*%
%ADD24C,0.900000*%
%ADD25R,0.700000X1.500000*%
%ADD26RoundRect,0.243750X-0.243750X-0.456250X0.243750X-0.456250X0.243750X0.456250X-0.243750X0.456250X0*%
%ADD27RoundRect,0.250000X0.650000X-1.000000X0.650000X1.000000X-0.650000X1.000000X-0.650000X-1.000000X0*%
%ADD28R,1.600000X1.400000*%
%ADD29RoundRect,0.750000X0.750000X-0.750000X0.750000X0.750000X-0.750000X0.750000X-0.750000X-0.750000X0*%
%ADD30C,3.000000*%
%ADD31RoundRect,0.150000X0.150000X0.625000X-0.150000X0.625000X-0.150000X-0.625000X0.150000X-0.625000X0*%
%ADD32RoundRect,0.250000X0.350000X0.650000X-0.350000X0.650000X-0.350000X-0.650000X0.350000X-0.650000X0*%
%ADD33RoundRect,0.250000X-0.312500X-1.450000X0.312500X-1.450000X0.312500X1.450000X-0.312500X1.450000X0*%
%ADD34RoundRect,0.750000X-0.750000X0.750000X-0.750000X-0.750000X0.750000X-0.750000X0.750000X0.750000X0*%
G04 APERTURE END LIST*
D10*
%TO.C,R1*%
X49087500Y-8000000D03*
X50912500Y-8000000D03*
%TD*%
D11*
%TO.C,U20*%
X17000000Y-42000000D03*
D12*
X17000000Y-44540000D03*
X17000000Y-47080000D03*
X17000000Y-49620000D03*
X17000000Y-52160000D03*
%TD*%
D13*
%TO.C,MH4*%
X6000000Y-94000000D03*
%TD*%
D14*
%TO.C,TP4*%
X33000000Y-53000000D03*
%TD*%
D15*
%TO.C,C2*%
X42050000Y-29000000D03*
X43950000Y-29000000D03*
%TD*%
D14*
%TO.C,TP2*%
X34000000Y-6000000D03*
%TD*%
D16*
%TO.C,C20*%
X28300000Y-42000000D03*
X33700000Y-42000000D03*
%TD*%
D11*
%TO.C,J30*%
X48000000Y-79000000D03*
D12*
X45460000Y-79000000D03*
X42920000Y-79000000D03*
%TD*%
D17*
%TO.C,U41*%
X68862500Y-65050000D03*
X68862500Y-66000000D03*
X68862500Y-66950000D03*
X71137500Y-66950000D03*
X71137500Y-66000000D03*
X71137500Y-65050000D03*
%TD*%
D14*
%TO.C,TP6*%
X35000000Y-72000000D03*
%TD*%
%TO.C,TP8*%
X52000000Y-70000000D03*
%TD*%
D10*
%TO.C,R46*%
X97087500Y-92000000D03*
X98912500Y-92000000D03*
%TD*%
D14*
%TO.C,TP5*%
X65000000Y-53000000D03*
%TD*%
D10*
%TO.C,R45*%
X85087500Y-64000000D03*
X86912500Y-64000000D03*
%TD*%
D15*
%TO.C,C10*%
X71050000Y-52000000D03*
X72950000Y-52000000D03*
%TD*%
D14*
%TO.C,TP9*%
X52000000Y-73000000D03*
%TD*%
D10*
%TO.C,R51*%
X58087500Y-94000000D03*
X59912500Y-94000000D03*
%TD*%
%TO.C,R50*%
X49087500Y-94000000D03*
X50912500Y-94000000D03*
%TD*%
%TO.C,R42*%
X78087500Y-60000000D03*
X79912500Y-60000000D03*
%TD*%
%TO.C,R11*%
X67087500Y-46000000D03*
X68912500Y-46000000D03*
%TD*%
D15*
%TO.C,C22*%
X52050000Y-42000000D03*
X53950000Y-42000000D03*
%TD*%
D14*
%TO.C,TP1*%
X21000000Y-7000000D03*
%TD*%
D17*
%TO.C,U40*%
X60862500Y-65050000D03*
X60862500Y-66000000D03*
X60862500Y-66950000D03*
X63137500Y-66950000D03*
X63137500Y-66000000D03*
X63137500Y-65050000D03*
%TD*%
D18*
%TO.C,J24*%
X8000000Y-48000000D03*
%TD*%
D11*
%TO.C,U30*%
X17000000Y-63000000D03*
D12*
X17000000Y-65540000D03*
X17000000Y-68080000D03*
X17000000Y-70620000D03*
%TD*%
D14*
%TO.C,TP10*%
X93000000Y-56000000D03*
%TD*%
%TO.C,TP14*%
X40000000Y-84000000D03*
%TD*%
D19*
%TO.C,U10*%
X75250000Y-26740000D03*
X75250000Y-28010000D03*
X75250000Y-29280000D03*
X75250000Y-30550000D03*
X75250000Y-31820000D03*
X75250000Y-33090000D03*
X75250000Y-34360000D03*
X75250000Y-35630000D03*
X75250000Y-36900000D03*
X75250000Y-38170000D03*
X75250000Y-39440000D03*
X75250000Y-40710000D03*
X75250000Y-41980000D03*
X75250000Y-43250000D03*
D20*
X77015000Y-44500000D03*
X78285000Y-44500000D03*
X79555000Y-44500000D03*
X80825000Y-44500000D03*
X82095000Y-44500000D03*
X83365000Y-44500000D03*
X84635000Y-44500000D03*
X85905000Y-44500000D03*
X87175000Y-44500000D03*
X88445000Y-44500000D03*
X89715000Y-44500000D03*
X90985000Y-44500000D03*
D19*
X92750000Y-43250000D03*
X92750000Y-41980000D03*
X92750000Y-40710000D03*
X92750000Y-39440000D03*
X92750000Y-38170000D03*
X92750000Y-36900000D03*
X92750000Y-35630000D03*
X92750000Y-34360000D03*
X92750000Y-33090000D03*
X92750000Y-31820000D03*
X92750000Y-30550000D03*
X92750000Y-29280000D03*
X92750000Y-28010000D03*
X92750000Y-26740000D03*
D21*
X81100000Y-33760000D03*
X81100000Y-35160000D03*
X81800000Y-33060000D03*
X81800000Y-34460000D03*
X81800000Y-35860000D03*
X82500000Y-33760000D03*
D22*
X82500000Y-34460000D03*
D21*
X82500000Y-35160000D03*
X83200000Y-33060000D03*
X83200000Y-34460000D03*
X83200000Y-35860000D03*
X83900000Y-33760000D03*
X83900000Y-35160000D03*
%TD*%
D23*
%TO.C,SW1*%
X52850000Y-59220000D03*
X52850000Y-61430000D03*
D24*
X55500000Y-60330000D03*
X60500000Y-60330000D03*
D23*
X63150000Y-59220000D03*
X63150000Y-61430000D03*
D25*
X55000000Y-58570000D03*
X56500000Y-58570000D03*
X59500000Y-58570000D03*
X61000000Y-58570000D03*
%TD*%
D11*
%TO.C,J12*%
X109000000Y-37000000D03*
D12*
X109000000Y-39540000D03*
X109000000Y-42080000D03*
X109000000Y-44620000D03*
X109000000Y-47160000D03*
X109000000Y-49700000D03*
%TD*%
D10*
%TO.C,R41*%
X85087500Y-56000000D03*
X86912500Y-56000000D03*
%TD*%
D16*
%TO.C,C1*%
X30300000Y-24000000D03*
X35700000Y-24000000D03*
%TD*%
D14*
%TO.C,TP12*%
X93000000Y-64000000D03*
%TD*%
D11*
%TO.C,J47*%
X81000000Y-86000000D03*
D12*
X83540000Y-86000000D03*
X86080000Y-86000000D03*
X88620000Y-86000000D03*
X91160000Y-86000000D03*
X93700000Y-86000000D03*
%TD*%
D16*
%TO.C,C21*%
X40300000Y-42000000D03*
X45700000Y-42000000D03*
%TD*%
D26*
%TO.C,D50*%
X52062500Y-96000000D03*
X53937500Y-96000000D03*
%TD*%
D13*
%TO.C,MH3*%
X114000000Y-94000000D03*
%TD*%
D15*
%TO.C,C31*%
X41050000Y-63000000D03*
X42950000Y-63000000D03*
%TD*%
D11*
%TO.C,J48*%
X81000000Y-94000000D03*
D12*
X83540000Y-94000000D03*
X86080000Y-94000000D03*
X88620000Y-94000000D03*
X91160000Y-94000000D03*
X93700000Y-94000000D03*
%TD*%
D11*
%TO.C,J33*%
X63000000Y-88000000D03*
D12*
X60460000Y-88000000D03*
X57920000Y-88000000D03*
%TD*%
D27*
%TO.C,D1*%
X44000000Y-23000000D03*
X44000000Y-19000000D03*
%TD*%
D11*
%TO.C,J44*%
X100000000Y-58000000D03*
D12*
X102540000Y-58000000D03*
X105080000Y-58000000D03*
X107620000Y-58000000D03*
X110160000Y-58000000D03*
X112700000Y-58000000D03*
%TD*%
D10*
%TO.C,FB1*%
X55087500Y-47000000D03*
X56912500Y-47000000D03*
%TD*%
D14*
%TO.C,TP15*%
X44000000Y-84000000D03*
%TD*%
D28*
%TO.C,SW3*%
X84400000Y-46500000D03*
X91600000Y-46500000D03*
X84400000Y-49500000D03*
X91600000Y-49500000D03*
%TD*%
D17*
%TO.C,U42*%
X60862500Y-73050000D03*
X60862500Y-74000000D03*
X60862500Y-74950000D03*
X63137500Y-74950000D03*
X63137500Y-74000000D03*
X63137500Y-73050000D03*
%TD*%
D29*
%TO.C,J1*%
X13000000Y-19000000D03*
D30*
X13000000Y-14000000D03*
%TD*%
D13*
%TO.C,MH2*%
X114000000Y-6000000D03*
%TD*%
D26*
%TO.C,D52*%
X70062500Y-96000000D03*
X71937500Y-96000000D03*
%TD*%
D10*
%TO.C,R10*%
X71087500Y-44000000D03*
X72912500Y-44000000D03*
%TD*%
D13*
%TO.C,MH1*%
X6000000Y-6000000D03*
%TD*%
D15*
%TO.C,C11*%
X75050000Y-52000000D03*
X76950000Y-52000000D03*
%TD*%
D10*
%TO.C,R40*%
X78087500Y-56000000D03*
X79912500Y-56000000D03*
%TD*%
%TO.C,R44*%
X78087500Y-64000000D03*
X79912500Y-64000000D03*
%TD*%
D14*
%TO.C,TP16*%
X47000000Y-84000000D03*
%TD*%
D11*
%TO.C,J32*%
X63000000Y-79000000D03*
D12*
X60460000Y-79000000D03*
X57920000Y-79000000D03*
%TD*%
D16*
%TO.C,C30*%
X28300000Y-64000000D03*
X33700000Y-64000000D03*
%TD*%
D10*
%TO.C,R43*%
X85087500Y-60000000D03*
X86912500Y-60000000D03*
%TD*%
D11*
%TO.C,J2*%
X28000000Y-12000000D03*
D12*
X25460000Y-12000000D03*
%TD*%
D14*
%TO.C,TP11*%
X93000000Y-60000000D03*
%TD*%
D18*
%TO.C,J23*%
X8000000Y-34000000D03*
%TD*%
D10*
%TO.C,R47*%
X97087500Y-96000000D03*
X98912500Y-96000000D03*
%TD*%
D28*
%TO.C,SW2*%
X74400000Y-46500000D03*
X81600000Y-46500000D03*
X74400000Y-49500000D03*
X81600000Y-49500000D03*
%TD*%
D15*
%TO.C,C23*%
X63050000Y-47000000D03*
X64950000Y-47000000D03*
%TD*%
D11*
%TO.C,J31*%
X48000000Y-88000000D03*
D12*
X45460000Y-88000000D03*
X42920000Y-88000000D03*
%TD*%
D11*
%TO.C,J46*%
X103000000Y-86000000D03*
D12*
X105540000Y-86000000D03*
X108080000Y-86000000D03*
X110620000Y-86000000D03*
X113160000Y-86000000D03*
X115700000Y-86000000D03*
%TD*%
D31*
%TO.C,J11*%
X115500000Y-66000000D03*
X114500000Y-66000000D03*
X113500000Y-66000000D03*
X112500000Y-66000000D03*
D32*
X116800000Y-62125000D03*
X111200000Y-62125000D03*
%TD*%
D10*
%TO.C,R52*%
X67087500Y-94000000D03*
X68912500Y-94000000D03*
%TD*%
D11*
%TO.C,J21*%
X30000000Y-78000000D03*
D12*
X30000000Y-80540000D03*
X30000000Y-83080000D03*
X30000000Y-85620000D03*
%TD*%
D14*
%TO.C,TP13*%
X37000000Y-84000000D03*
%TD*%
D18*
%TO.C,J26*%
X8000000Y-70000000D03*
%TD*%
%TO.C,J25*%
X8000000Y-62000000D03*
%TD*%
D11*
%TO.C,J10*%
X92000000Y-72000000D03*
D12*
X94540000Y-72000000D03*
X97080000Y-72000000D03*
X99620000Y-72000000D03*
X102160000Y-72000000D03*
X104700000Y-72000000D03*
X107240000Y-72000000D03*
X109780000Y-72000000D03*
%TD*%
D17*
%TO.C,U43*%
X68862500Y-73050000D03*
X68862500Y-74000000D03*
X68862500Y-74950000D03*
X71137500Y-74950000D03*
X71137500Y-74000000D03*
X71137500Y-73050000D03*
%TD*%
D14*
%TO.C,TP3*%
X44000000Y-6000000D03*
%TD*%
D31*
%TO.C,J49*%
X106500000Y-96000000D03*
X105500000Y-96000000D03*
X104500000Y-96000000D03*
X103500000Y-96000000D03*
D32*
X107800000Y-92125000D03*
X102200000Y-92125000D03*
%TD*%
D14*
%TO.C,TP7*%
X52000000Y-67000000D03*
%TD*%
D26*
%TO.C,D51*%
X61062500Y-96000000D03*
X62937500Y-96000000D03*
%TD*%
D33*
%TO.C,F1*%
X38862500Y-10000000D03*
X43137500Y-10000000D03*
%TD*%
D26*
%TO.C,D2*%
X55062500Y-8000000D03*
X56937500Y-8000000D03*
%TD*%
D34*
%TO.C,J20*%
X13000000Y-80000000D03*
D30*
X13000000Y-85000000D03*
%TD*%
M02*
